<?xml version="1.0" encoding="utf-8"?>
<!-- Generator: Adobe Illustrator 19.0.0, SVG Export Plug-In . SVG Version: 6.00 Build 0)  -->
<svg version="1.1" id="Laag_1" xmlns="http://www.w3.org/2000/svg" xmlns:xlink="http://www.w3.org/1999/xlink" x="0px" y="0px"
	 viewBox="0 0 1680 458.1" style="enable-background:new 0 0 1680 458.1;" xml:space="preserve">
<style type="text/css">
	.st0{fill:url(#SVGID_1_);stroke:url(#SVGID_2_);stroke-miterlimit:10;}
	.st1{clip-path:url(#XMLID_3_);fill:url(#XMLID_4_);}
	.st2{display:none;}
	.st3{display:inline;fill:none;stroke:#313033;stroke-width:3;stroke-miterlimit:10;}
	.st4{fill:none;stroke:#1B1B1B;stroke-width:2;stroke-miterlimit:10;}
</style>
<radialGradient id="SVGID_1_" cx="840" cy="229.0903" r="615.6632" gradientUnits="userSpaceOnUse">
	<stop  offset="0" style="stop-color:#4E4D4D"/>
	<stop  offset="0.7169" style="stop-color:#808080"/>
	<stop  offset="1" style="stop-color:#676767"/>
</radialGradient>
<linearGradient id="SVGID_2_" gradientUnits="userSpaceOnUse" x1="-0.5" y1="229.0903" x2="1680.5" y2="229.0903">
	<stop  offset="0" style="stop-color:#B4B4B4"/>
	<stop  offset="0.7169" style="stop-color:#E6E6E6"/>
	<stop  offset="1" style="stop-color:#B4B4B4"/>
</linearGradient>
<rect x="0" class="st0" width="1680" height="458.2"/>
<g id="XMLID_434_">
	<defs>
		<path id="XMLID_252_" d="M1680,53.2c-8.8,10.2-17.6,20.4-26.2,30.7c-16.8,20-33.6,40.1-50.3,60.1c-0.8,1-1.8,1.9-3.1,3.4
			c-0.7-2-1.3-3.4-1.7-4.9c-7.1-24.3-14.1-48.6-21.4-72.8c-1.4-4.6,0.3-5.5,4.2-6c27.1-3.1,54.2-6.2,81.4-9.3
			c5.8-0.7,11.5-1.5,17.3-2.2C1680,52.6,1680,52.9,1680,53.2z M0,52.2c1.2,1.1,2.5,2.2,3.7,3.4c16.1,16.4,52.1,53,54.5,55.4
			C63.6,84.2,68.7,58.4,74,32.7c0.7-3.4-1.1-4-3.8-4.2C46.8,26.8,23.4,25,0,23.2C0,32.9,0,42.6,0,52.2z M1680,155.2
			c-1.8,0.1-3.7,0-5.5,0.2c-21.4,1.6-42.8,3.3-64.2,4.9c-6,0.5-6.3,0.7-5,6.6c4.7,20.8,9.4,41.6,14.1,62.3c0.9,3.9,1.9,7.8,3.1,12.7
			c1.8-2.1,2.9-3.3,4-4.6c12.6-14.4,25.1-28.9,37.7-43.3c5.1-5.8,10.5-11.3,15.8-17C1680,169.9,1680,162.6,1680,155.2z M882,458.2
			c-0.1-2-0.2-4-0.2-6c0.3-28.3,0.5-56.5,0.8-84.8c0-1.7-0.2-3.5-0.3-6.7c-20,18.5-40.3,38.1-59.4,55.8c1,1.3,24.7,21,35.1,31
			c3.5,3.4,6.7,7.1,10,10.7C872.7,458.2,877.3,458.2,882,458.2z M902,458.2c11.3-10.2,44.9-37.7,44.9-37.7l-26.1-27.1L888,361.5
			v96.7H902z M777,458.2c1.1-1.5,2-3,3.2-4.4c7.8-8.7,15.7-17.3,23.4-25.9c3.5-3.9,6.9-7.9,10.5-12.1
			c-21.3-16.8-41.9-33.1-63.4-50.1c1.7,16.8,3.4,32.5,5,48.2c1.5,14.7,2.8,29.5,4.3,44.2C765.7,458.2,771.3,458.2,777,458.2z
			 M0,161.2c1.4,1.1,2.9,2.1,4.2,3.4c8.8,8.6,17.5,17.3,26.3,25.9c4.7,4.6,9.4,9.2,14.1,13.8c0.6-0.8,0.9-1,0.9-1.3
			c3-24.2,6-48.5,9.1-72.7c0.5-3.6-0.9-4.6-4.4-4.7c-16.8-0.7-33.5-1.5-50.3-2.3C0,135.9,0,148.6,0,161.2z M1010,458.2
			c0.2-1,0.5-1.9,0.7-2.9c2.7-23.5,5.4-47,8-70.5c0.5-4.1,0.8-8.3,1.3-13.7c-22.2,16.3-43.1,31.8-64.6,47.6
			c6,7.1,11.8,13.7,17.4,20.5c5.2,6.2,10.2,12.6,15.2,19C995.3,458.2,1002.7,458.2,1010,458.2z M754,458.2
			c-3.1-30.3-6.2-60.7-9.5-92.4c-2.2,2.1-3.3,2.9-4.2,4c-14.7,17.2-29.3,34.4-44.1,51.6c-2.4,2.7-2.2,4.5,0.7,6.4
			c1.4,0.9,2.6,2.1,3.9,3.1c11.4,9.1,22.9,18.2,34.3,27.4C741.3,458.2,747.7,458.2,754,458.2z M1046,458.2
			c7.3-5.7,14.7-11.4,22-17.2c3.1-2.5,6-5.3,9.2-8.1c-16.9-20.8-33.2-40.9-49.5-61c-2.4,10.3-3.7,19.8-4.9,29.4
			c-2.3,19-4.5,38-6.7,57C1026,458.2,1036,458.2,1046,458.2z M1680,253.2c-16.3,0.5-32.5,1.1-48.8,1.3c-4.7,0.1-5.6,1.8-4.9,6.1
			c2.5,15.3,4.7,30.6,7.1,45.8c1.3,8.6,2.7,17.2,4.2,27c2.4-2.7,4-4.5,5.7-6.3c12.3-13.3,24.5-26.6,36.8-39.9
			C1680,275.9,1680,264.6,1680,253.2z M1401,458.2c0.5-1.5,0.8-3.1,1.6-4.6c7.9-15,15.8-30,23.8-45.1c5.9-11.2,11.7-22.4,17.8-34
			c-1.2,0-1.9-0.1-2.5,0c-22.4,6.3-44.8,12.7-67.3,19c-3.3,0.9-3.1,2.6-2.1,5.2c6.2,16,12.2,32,18.2,48.1c1.4,3.7,2.3,7.5,3.5,11.3
			C1396.3,458.2,1398.7,458.2,1401,458.2z M1680,69.2c-0.7,0.7-1.6,1.2-2.2,2c-16.5,19.4-32.9,38.8-49.4,58.2
			c-6.1,7.2-12.1,14.4-19,22.6c11.5-0.9,21.7-1.8,31.8-2.5c12.9-0.8,25.8-1.5,38.8-2.3C1680,121.2,1680,95.2,1680,69.2z M459,458.2
			c6.7-14,13.3-28,20-41.9c2.9-6.2,2.9-6.2-3-8.7c-11.8-4.9-23.7-9.9-35.5-14.8c-9.3-3.9-18.6-7.8-28.8-12c0.7,2.2,1.1,3.6,1.7,5
			c6.5,15.5,13.1,31,19.5,46.5c3.5,8.6,6.8,17.3,10.1,26C448.3,458.2,453.7,458.2,459,458.2z M663,458.2
			c6.9-10.1,13.8-20.2,21.1-30.7c-21.8-14.1-43.3-28-65.9-42.7c0.3,2.9,0.3,4.3,0.6,5.7c1.3,6.3,2.8,12.6,4.1,19
			c3.4,16.2,6.8,32.5,10.1,48.7C643,458.2,653,458.2,663,458.2z M1439,458.2c8.1-2.4,16.2-4.8,24.3-7.2c3.1-0.9,6.2-1.9,9.6-3
			c-7-23.4-13.8-46-21-69.9c-14.8,27.6-28.8,53.8-42.9,80.1C1419,458.2,1429,458.2,1439,458.2z M0,259.2
			c12.3,11.8,24.6,23.6,37.9,36.2c0.9-10.9,1.6-20.5,2.3-30c1-13.9,1.9-27.9,2.9-41.9c0.2-2.4,0.2-4.3-3.1-4.3
			c-13.3,0-26.6,0-39.9,0C0,232.6,0,245.9,0,259.2z M116,458.2c-0.1-2.3-0.3-4.7-0.2-7c1-14.8,2.1-29.6,3-44.4
			c0.4-7,0.2-7.1-6.6-7.3c-16-0.6-32-1.3-47.9-1.9c-4.4-0.2-8.8,0-14.2,0c1.7,2.1,2.7,3.4,3.8,4.6c15.7,17.2,49.1,54.6,50.1,56
			C108,458.2,112,458.2,116,458.2z M1139,458.2c2.1-9.9,4.1-19.8,6.2-29.7c2.3-11,4.8-22,7.4-34.2c-23.2,14-45.3,27.3-67.7,40.7
			c1.7,2.6,2.9,4.3,4.1,6.2c3.7,5.7,7.3,11.3,11,17C1113,458.2,1126,458.2,1139,458.2z M1334,458.2c0.7-2,1.3-4.1,2.2-6.1
			c6.7-15.8,13.4-31.6,20.1-47.4c0.7-1.6,1.2-3.3,2.1-5.8c-23.1,8.8-45.2,17.2-67.3,25.6c-3.2,1.2-2.8,3-1.7,5.4
			c4.3,9.4,8.4,18.8,12.7,28.3C1312.7,458.2,1323.3,458.2,1334,458.2z M626,458.2c-3.3-15.3-6.5-30.6-9.8-45.9
			c-1.9-8.7-3.9-17.4-5.8-26.1c-0.4-0.1-0.8-0.2-1.3-0.3c-13.4,20.4-26.7,40.9-40,61.3c5.6,4.1,10.3,7.5,14.9,10.9
			C598,458.2,612,458.2,626,458.2z M196,458.2c2.3-14.8,4.5-29.6,6.9-44.3c0.6-3.5-1.1-4.2-4.1-4.6c-12.5-1.5-25.1-3.2-37.6-4.7
			c-8.7-1.1-17.3-2-27.1-3.1c1.4,2.1,2.2,3.4,3,4.5c11.8,15.2,23.7,30.5,35.5,45.7c1.6,2.1,2.9,4.4,4.3,6.6
			C183.3,458.2,189.7,458.2,196,458.2z M435,458.2c-10.4-24.7-20.8-49.4-31.8-75.3c-8.8,21.9-16.9,42.3-25.1,62.6
			c-1.3,3.2,0.6,4.1,2.8,5.1c5.4,2.5,10.7,5,16.1,7.6C409.7,458.2,422.3,458.2,435,458.2z M1680,346.2c-13.2,0-26.5,0-40.5,0
			c2.8,25,5.5,49.3,8.3,74.7c11.4-11.9,21.8-22.8,32.3-33.7C1680,373.6,1680,359.9,1680,346.2z M0,350.2
			c11.5,10.6,23.1,21.2,35.1,32.3c0.2-2,0.4-3.1,0.4-4.2c0.4-20.8,0.6-41.6,1.2-62.4c0.1-5.1-1.7-6.1-6.4-5.9
			c-10.1,0.4-20.2,0.2-30.4,0.2C0,323.6,0,336.9,0,350.2z M279,458.2c2.1-8.4,4.1-16.8,6.4-25.1c1.2-4.1-0.1-5.6-4.1-6.4
			c-19.5-4.1-39-8.5-58.5-12.8c-1.3-0.3-2.7-0.2-5-0.4c3.7,5.7,6.8,10.4,9.7,15.1c6.2,9.8,12.3,19.7,18.4,29.6
			C257,458.2,268,458.2,279,458.2z M0,433.2c8.7,8.3,17.3,16.7,26,25c3.7,0,7.3,0,11,0c-0.4-11-0.9-21.9-1.2-32.9
			c-0.2-7.8-0.3-15.6-0.5-23.5c-0.1-2.9-0.9-4.7-4.4-4.5c-10.3,0.7-20.6,1.2-30.9,1.8C0,410.6,0,421.9,0,433.2z M1199,458.2
			c-0.3-0.8-0.5-1.6-1-2.3c-12.2-19.5-24.5-38.9-36.8-58.3c-0.4-0.6-1-1-1.9-1.8c-4.9,21.2-9.6,41.8-14.3,62.4
			C1163,458.2,1181,458.2,1199,458.2z M0,116.2c17.4,0.5,33.8,3,52.4,3.5c-1.6-2-1.1-0.8-1.8-1.5c-9.9-9.9-19.7-19.8-29.6-29.6
			c-7-6.9-14-13.7-21-20.5C0,85.6,0,98.9,0,116.2z M557,458.2c3.2-7.3,3.1-7.3-4.3-11.2c-17.8-9.4-35.7-18.7-53.5-28.1
			c-1.7-0.9-3.4-1.7-5.8-2.9c4.7,14.6,9.2,28.4,13.6,42.1C523.7,458.2,540.3,458.2,557,458.2z M1680,191.2
			c-8.4,9.2-16.8,18.4-25.1,27.8c-7.9,8.9-15.7,17.9-24.2,27.5c2.9,0,4.8,0,6.8,0c14.1-0.4,28.3-0.8,42.4-1.2
			C1680,227.2,1680,209.2,1680,191.2z M1388,458.2c-7.2-18.1-14.4-36.2-22-55.4c-8.3,19.3-16.1,37.3-24,55.4
			C1357.3,458.2,1372.7,458.2,1388,458.2z M93,458.2c-15.8-17.3-31.7-34.6-48.4-52.9c0,4.4,0,7.2,0,10c0.1,14.3,0.2,28.6,0.4,42.9
			C61,458.2,77,458.2,93,458.2z M1617,458.2c5.8-7.4,11.5-14.8,17.5-22.4c-1-0.3-1.4-0.6-1.9-0.6c-21.4,1.4-42.7,2.9-64.1,4.3
			c-3.1,0.2-3.4,1.9-3.1,4.4c0.6,4.8,1.1,9.6,1.6,14.3C1583.7,458.2,1600.3,458.2,1617,458.2z M167,458.2
			c-12.8-16.3-25.5-32.5-39.1-49.8c-1.4,17.5-2.6,33.7-3.9,49.8C138.3,458.2,152.7,458.2,167,458.2z M366,458.2
			c1.6-3.8-0.2-5.3-3.7-6.4c-12.6-3.9-25.1-8-37.6-12c-7.7-2.5-15.4-4.9-24.6-7.8c5.1,9.6,9.5,17.9,13.8,26.2
			C331.3,458.2,348.7,458.2,366,458.2z M1680,458.2c0-7.7,0-15.3,0-23c-8.6-0.3-17.2-0.4-25.8-0.9c-4-0.2-5.2,1.3-4.9,5.1
			c0.4,6.2,0.5,12.5,0.7,18.8C1660,458.2,1670,458.2,1680,458.2z M1680,300.2c-11.7,12.5-23.5,25.1-35.6,38c12.5,0,24.1,0,35.6,0
			C1680,325.6,1680,312.9,1680,300.2z M499,458.2c-4.4-13.1-8.9-26.2-13.8-40.9c-6.8,14.5-13,27.7-19.2,40.9
			C477,458.2,488,458.2,499,458.2z M0,211.2c12,0,24,0,36.1,0c0.1-0.4,0.2-0.8,0.3-1.2C24.3,198.4,12.1,186.8,0,175.2
			C0,187.2,0,199.2,0,211.2z M1268,458.2c2.9-8.8,5.8-17.5,9.2-27.6c-19.9,9.6-38.6,18.6-57.2,27.6
			C1236,458.2,1252,458.2,1268,458.2z M1541,458.2c3.2-5.2,6.3-10.4,10-16.4c-23.4,3.9-46,7.7-68.9,11.6c0.4,2,0.6,3.5,0.9,4.9
			C1502.3,458.2,1521.7,458.2,1541,458.2z M236,458.2c-8.2-12.9-16.4-25.9-25.4-40c-2.4,14.3-4.5,27.1-6.6,40
			C214.7,458.2,225.3,458.2,236,458.2z M860,458.2c-12.2-11.5-24.4-22.9-37.4-35.1c0.5,12.6,0.9,23.9,1.4,35.1
			C836,458.2,848,458.2,860,458.2z M818,458.2c-0.5-11.2-1-22.5-1.4-33.7c-0.5-0.1-1.1-0.2-1.6-0.3c-10.3,11.4-20.7,22.7-31,34.1
			C795.3,458.2,806.7,458.2,818,458.2z M0,303.2c8.4,0,30.8-0.2,30.8-0.2S5.5,278.3,0,273.2C0,283.2,0,293.2,0,303.2z M946,458.2
			c0.5-10.6,1-21.1,1.6-33c-13.1,11.8-24.8,22.4-36.6,33C922.7,458.2,934.3,458.2,946,458.2z M-0.1,391.5c0,0,20.8-0.8,30-1.4
			c-10.7-10-20.3-18.9-29.9-27.9C0,373.2-0.1,391.5-0.1,391.5z M982,458.2c-9.2-10.6-18.3-21.2-27.5-31.8c-1.4,2.7-1.5,4.8-1.7,6.9
			c-0.6,8.3-1.2,16.6-1.8,24.9C961.3,458.2,971.7,458.2,982,458.2z M1680,400.2c-8.3,8.6-16.6,17.3-25.5,26.5
			c9.2,0.6,17.4,1,25.5,1.5C1680,418.9,1680,409.6,1680,400.2z M724,458.2c-9.9-7.8-19.7-15.5-29.6-23.3c-0.3,0.3-0.7,0.5-1,0.8
			c0.9,7.5,1.7,15,2.6,22.5C705.3,458.2,714.7,458.2,724,458.2z M690,458.2c-1.2-7.6-2.3-15.3-3.5-22.9c-0.4-0.1-0.8-0.1-1.3-0.2
			c-5.4,7.7-10.9,15.4-16.3,23.1C676,458.2,683,458.2,690,458.2z M1296,458.2c-3.8-8-7.5-16-11.8-25.2c-3,9.2-5.6,17.2-8.2,25.2
			C1282.7,458.2,1289.3,458.2,1296,458.2z M304,458.2c-3.6-6.9-7.2-13.7-11.4-21.7c-2.1,8.1-3.8,14.9-5.6,21.7
			C292.7,458.2,298.3,458.2,304,458.2z M1074,458.2c0.8-5.4,1.5-10.8,2.4-17.4c-8.6,6.4-16,11.9-23.4,17.4
			C1060,458.2,1067,458.2,1074,458.2z M1094,458.2c-3.5-5.3-7-10.5-10.4-15.8c-0.4,0.2-0.8,0.4-1.1,0.6c-0.8,5.1-1.6,10.1-2.4,15.2
			C1084.7,458.2,1089.3,458.2,1094,458.2z M1642,458.2c-0.4-4.9-0.7-9.7-1.2-16c-4.8,6-8.8,11-12.8,16
			C1632.7,458.2,1637.3,458.2,1642,458.2z M0,458.2c4.3,0,8.7,0,13,0c-4.3-4.3-8.7-8.7-13-13C0,449.6,0,453.9,0,458.2z M1559,458.2
			c-0.4-2.9-0.8-5.7-1.5-9.9c-2.6,4-4.6,6.9-6.5,9.9C1553.7,458.2,1556.3,458.2,1559,458.2z M986.8,56.4c-0.7,2.5-1.2,3.7-1.3,4.9
			c-3.7,33.8-7.4,72.5-10.9,106.3c0,0,54.3-31.7,83.1-48.4C1032.4,97.1,1011.8,77.9,986.8,56.4z M1223.6,145.2
			c-16.7-20.9-33.6-41.8-50.4-62.6c-0.9-1.1-2-1.9-3.3-3.2c-0.8,1.5-1.4,2.3-1.7,3.2c-9.7,33.9-19.3,67.8-28.9,101.8
			C1138.8,186.1,1224.6,146.5,1223.6,145.2z M544,132.4c0.6,0.2,1.2,0.4,1.9,0.6c18.3-22.7,39.1-43.2,56.8-67.2
			c-32.8-13.4-64.6-26.4-97.9-40C518.2,62.3,531.1,97.4,544,132.4z M1229.7,143.7c14.6-36.5,28.8-71.8,43.3-108.2
			c-33.5,12.9-65.8,25.3-98.7,38C1192.9,97.1,1211,120,1229.7,143.7z M1332,110.4c-16.5-24.9-32.7-49.4-49.7-75.2
			c-14.3,35.5-28.2,69.7-42.5,105.1C1239.3,141.5,1326.4,113,1332,110.4z M848.3,133.4c10-7.5,20-14.9,30-22.3
			c0.5-1.1,1.1-2.3,1.7-3.8c-26.8-17.7-53.5-35.3-81.3-53.7c2.6,37.4,5.1,73.3,7.7,110c3.1-1.9,5.1-3,7.1-4.2
			C825.1,150.7,836.7,142.1,848.3,133.4z M800.9,164.2c-3-37.6-5.8-73.7-8.7-109.8c-0.6-0.1-1.1-0.3-1.7-0.4
			c-23.7,19.8-47.4,39.6-72,60.1C746.3,131,773.1,147.3,800.9,164.2z M535.8,133C522.2,96.7,509,61.5,495.3,25
			c-18.3,24.9-35.5,48.3-53.4,72.5C473.5,109.4,504.2,121,535.8,133z M1558.9,67.3c-33.4,6.5-65.3,12.7-97.1,18.7
			c-4.4,0.8-3.8,2.9-2.6,6c9.7,23,19.3,46.1,28.9,69.1c0.6,1.3,1.3,2.6,2.3,4.5C1513.3,132.9,1535.7,100.7,1558.9,67.3z
			 M967.6,167.1c4.1-37.6,8-73.7,12.1-111c-28.5,17.7-56,34.7-84.2,52.1C919.7,128,943.2,147.2,967.6,167.1z M1064.4,134.6
			c-5.5,31-12.5,67.2-17.9,98.2c-0.5,3,80.5-41.8,80.5-41.8s-57-60.5-59.2-63.2C1067.2,128.1,1064.8,132.7,1064.4,134.6z
			 M172.5,122.8c8.1-24.2,16-48.4,24.2-72.5c1.3-3.8-0.4-4.6-3.6-5c-22.6-3.2-88-12.5-99.5-14c26.4,31.7,51.9,62.3,77.8,93.4
			C172,123.7,172.4,123.3,172.5,122.8z M1131,186.9c10.2-36.4,20-71.7,30.2-108.2c-30.9,14.6-60.6,28.5-90.9,42.8
			C1090.6,143.3,1110.5,164.7,1131,186.9z M284.8,141c10-21.3,19.9-42.5,29.8-63.8c2.8-6,2.8-6.1-4-7.6c-23.6-5-47.2-10-70.8-15.1
			c-7.7-1.6-15.4-3.2-24.3-5.1c22.5,32.7,44.2,64.3,66.6,96.8C283.4,144,284.1,142.5,284.8,141z M1438,91.6
			c-30.1,8.1-60.1,16.2-90.2,24.2c-4.3,1.1-3.1,3.3-1.6,5.8c12,22.1,24,44.2,36,66.3c0.5,0.9,1.3,1.7,2.2,3
			c19-33.3,37.7-66.1,56.9-99.6C1439.3,91.5,1438.6,91.5,1438,91.6z M650.6,171.6c13.4-13.6,26.9-27.2,40.4-40.7
			c1-1,10.6-9.9,14.3-14.3c-29.7-14.8-59-29.5-89.5-44.8c9.3,36.6,18.2,71.6,27.2,107.1C645,177.7,649.4,172.8,650.6,171.6z
			 M332.7,75.3c18.7,34,36.7,66.7,55.4,100.5c14.5-24.4,28.4-47.8,42.9-72.2C397.8,94,365.8,84.8,332.7,75.3z M608,72.3
			c-0.5-0.1-1.1-0.1-1.6-0.2c-19.1,21.7-38.1,43.3-58,65.8c29.3,13.9,57.8,27.4,87.3,41.3C626.3,142.8,617.1,107.6,608,72.3z
			 M908.9,212.6c16.9-11.7,33.8-23.4,50.7-35.2c1.4-1.2,2.7-2.4,4.5-3.9c-24.2-19.4-47.9-38.4-72.5-58.1c-0.3,3-0.5,4.4-0.5,5.9
			c-0.3,13.8-0.6,27.6-0.7,41.4c-0.1,6.4,0.4,12.7,0.3,19.1c-0.3,13-0.9,25.9-1.2,38.8c-0.1,2.3,0.9,4,3.7,2.5
			C898.4,219.6,903.7,216.2,908.9,212.6z M883.9,115.9c-24.3,18.1-48.6,36.2-73.4,54.7c24.6,18.1,48.5,35.7,73.3,54
			c0.5-36.9,1-72.4,1.5-108C884.9,116.3,884.4,116.1,883.9,115.9z M716.8,124.4c5.4,35,10.8,70.1,16.2,105.1c0.5,0.2,1,0.5,1.5,0.7
			c21.1-19.1,42.2-38.2,64.1-58c-27.7-16.7-54.2-32.8-80.6-48.8C717.6,123.8,717.2,124.1,716.8,124.4z M1329.9,121.4
			c-31.6,10.8-62,21.2-93,31.7c15.7,23.9,30.8,47,46.6,71.1C1299.2,189.4,1314.3,156,1329.9,121.4z M1039.8,235.7
			c6.5-36.6,12.7-71.9,19.2-108.5c-27.9,16.1-54.8,31.7-82.4,47.6C997.9,195.3,1018.5,215.2,1039.8,235.7z M1592.8,153.8
			c-8.3-27.5-16.3-54.2-24.6-81.9c-23,32.4-45.3,63.9-68.5,96.6C1531.5,163.5,1561.7,158.7,1592.8,153.8z M536.9,142.2
			c-30.8-11.4-60.8-22.5-92-34c14.8,34.4,29,67.5,43.7,101.8C505,187,520.7,164.9,536.9,142.2z M1186,266.5c0,0-31.9-41.3-46.8-60.3
			c-1.1-1.4-2.3-2.6-4.5-5.1c-8.7,36.1-25.4,105.5-25.4,105.5L1186,266.5z M726.4,230.1c-5.6-36.2-11.1-71.5-16.6-107.2
			c-21.1,21.1-41.3,41.4-61.9,62C673.7,199.8,699.6,214.7,726.4,230.1z M271.8,146.4c-22.6-32.4-44.1-62.2-66.4-94.3
			c-9,26.6-17.2,52.6-25.8,78C185.7,131.8,269.1,145.9,271.8,146.4z M1393.2,193c31.1-7.4,60.7-14.5,91.1-21.8
			c-11.1-26.1-21.9-51.3-33.2-77.8C1431.6,127,1412.8,159.4,1393.2,193z M1225.2,157.6c-29.7,13.1-58,25.7-86.8,38.3
			c17.3,22.4,34.4,45,51.9,67.6C1202.2,228.3,1213.3,193,1225.2,157.6z M1036,241.2c0,0-41.4-39.6-62-59.3c-0.5,0.2-1,0.4-1.5,0.6
			c-3.2,35.5-9.6,106.7-9.6,106.7L1036,241.2z M377.2,174c-18.5-32.9-36.3-64.7-54.6-97.2c-11.8,25.3-23.3,49.7-34.8,74.3
			C291.7,152.7,377.5,174.7,377.2,174z M550,149.7c10.6,33.9,21.2,67.8,32.2,102.6c18-21.9,35.3-43,53-64.5
			c-28.4-13.4-56.2-26.4-84-39.5C550.8,148.8,550.4,149.2,550,149.7z M957.2,289.4c3.2-36.5,6.3-71.8,9.6-108.6
			c-25.5,17.4-49.7,33.9-74.7,50.8C913.9,251,935,269.7,957.2,289.4z M1585.7,163.5c-28.6,4.5-57.2,9.1-85.8,13.5
			c-4.2,0.6-4.1,2.7-3,6c7.5,22.2,14.9,44.5,22.3,66.8c0.5,1.4,1.1,2.6,2,4.7c22.5-30.5,44.6-60.4,66.9-90.7
			C1586.7,163.6,1586.2,163.4,1585.7,163.5z M829.1,274.3c7.4-6.3,14.8-12.4,22.3-18.5c0.6-0.5,8.2-7.1,9.1-7.8
			c5.6-4.8,11.4-9.4,17.1-14c0.7-0.9,1.4-1.8,2.3-3c-23.9-17.5-47.7-34.9-72.5-53.1c2.5,36.8,4.6,75.2,7.1,111.2
			C819.5,285.8,828.3,274.9,829.1,274.3z M808.9,286.4c-2.5-36.7-4.9-72-7.3-107.3c-0.5-0.1-1.1-0.3-1.6-0.4
			c-21.1,19-42.1,38-63.8,57.6C760.6,253.1,784.2,269.4,808.9,286.4z M1279.9,228.4c-15.5-23.4-30.7-46.4-46.2-70
			c-0.9,1.7-1.6,2.6-2,3.7c-10.9,32.4-21.8,64.7-32.6,97.1C1198.7,260.4,1273.1,231.7,1279.9,228.4z M1292.8,224.4
			c29.6-9.6,57.8-18.7,86.6-27.9c-13.4-24.9-26.3-48.9-39.9-74.1C1323.7,156.7,1308.5,190,1292.8,224.4z M1477.7,181.5
			c-27.7,6.5-55.4,13-83.2,19.4c-4.2,1-3.9,3.1-2.5,6.1c6.4,14.5,12.7,29,19.1,43.4c3.7,8.3,7.4,16.6,11.5,25.8
			c19.5-31.9,38.4-63,57.7-94.7C1478.7,181.5,1478.2,181.4,1477.7,181.5z M104.7,179.3c-13.1-14.9-26.3-29.7-40.1-45.4
			c-3.6,26.8-7,52.2-10.4,77.6c2.9,0.4,85.3,8.7,88,9.1C139.7,221.2,117.4,193.7,104.7,179.3z M392.7,179.7
			c29.1,10.2,57.3,20.1,86.6,30.5c-15-34.5-29.4-67.5-44.2-101.5C420.8,132.8,406.9,156,392.7,179.7z M149.7,209.6
			c5.4-22,10.6-44,16.2-66c1.1-4.5,0.1-5.8-4.4-6.2c-20.7-2.1-41.4-4.6-62.1-6.9c-8.3-0.9-16.7-1.9-26.3-2.9
			c25.4,29.3,49.9,57.6,75.1,86.7C148.9,212,149.4,210.8,149.7,209.6z M492.3,215c27.5,12.3,54.2,24.2,81.9,36.5
			c-11.3-35.2-22.1-69-33.5-104.4C524.2,170.2,508.5,192.2,492.3,215z M1127.7,201.1c-27.2,14.7-53.2,28.7-79.7,42.9
			c18.2,21,35.8,41.4,54.3,62.9C1110.9,271.1,1119.1,236.7,1127.7,201.1z M174.1,147.8c-5.7,22.9-18,73.8-18,73.8l85.4,14.1
			c0,0-44.5-60.1-66.4-89.7C174.5,146.9,174.2,147.3,174.1,147.8z M890.4,239.2c-0.5,0.2-0.9,0.3-1.4,0.5c0,35.4,0,70.8,0,106.6
			c3.7-2.2,7.5-4,10.8-6.6c7.4-5.9,14.4-12.3,21.8-18.3c10.6-8.6,21.4-16.9,32.8-25.8C932.6,276.5,911.5,257.9,890.4,239.2z
			 M249.6,231.1c0.6-0.9,1-1.2,1.2-1.6c8.1-22.4,16.1-44.8,24.3-67.2c1.6-4.2-1.2-4.4-3.9-4.9c-22.6-4.3-45.1-8.7-67.7-13
			c-6.1-1.2-12.3-2.3-19.6-3.6C206.3,171.5,227.9,201.2,249.6,231.1z M646.8,195c7.5,34.3,15,68.7,22.8,104.1
			c18.9-20.6,37-40.4,55.6-60.7c-26.1-14.9-51.6-29.5-77.1-44.1C647.6,194.6,647.2,194.8,646.8,195z M662.3,298.9
			c-7.9-35.7-15.4-70.1-23-104.6c-0.5-0.1-1-0.3-1.5-0.4c-17.2,20.8-34.5,41.5-52.2,63C611.2,270.9,636.2,284.6,662.3,298.9z
			 M1249.6,337.6l74.1-28.1c0,0-21.5-41.6-31.9-60.4c-1.6-2.9-3.3-5.7-5.5-9.7C1273,273.5,1249.6,337.6,1249.6,337.6z M292,162
			c19.1,32,37.4,62.7,56.2,94.2c11.5-24,22.4-46.9,33.8-70.6C351.9,177.7,322.7,170,292,162z M1290.2,233.9
			c12.9,23.8,25.3,46.6,38.2,70.3c16.1-32.9,31.7-64.9,48-98.2C1347,215.5,1318.9,224.6,1290.2,233.9z M882.5,238.7
			c-21.8,18.1-43.2,35.8-65,53.9c21.7,18.1,42.8,35.6,65,54.1C882.5,310.1,882.5,274.8,882.5,238.7z M1091.3,319.1
			c2.5-2.2,5.1-4.5,7.9-7c-18.1-20.6-36-41-53.9-61.4c-0.5,0.2-0.9,0.4-1.4,0.6c-5.2,35-10.3,69.9-15.6,105.4
			c2.3-0.7,3.7-1.2,5.1-1.6C1052.7,343.1,1072,331.1,1091.3,319.1z M395.8,189.9c15.8,33.3,30.8,65.1,46.4,97.9
			c13.5-23,26.4-44.9,39.9-67.8C453.1,209.9,425.1,200.2,395.8,189.9z M1037.5,249.9c-24.8,16.1-48.4,31.3-72.3,46.9
			c19.1,20,37.7,39.4,57.1,59.7C1027.4,320.6,1032.3,285.9,1037.5,249.9z M1196,272.1c14.7,22.8,28.8,44.8,43.6,67.7
			c12.8-34.2,25.2-67.1,38-101.4C1249.7,250,1223.1,260.9,1196,272.1z M1615,247.9c-6.3-26.8-12.3-52.7-18.6-79.7
			c-22.4,30.4-44.1,59.8-66.6,90.3C1558.9,254.9,1586.7,251.4,1615,247.9z M727,245.2c-18.2,19.7-36.4,39.3-55,59.4
			c23.8,15.8,46.9,31,70.9,46.9c-4.9-36.3-9.6-71.1-14.3-105.9C728,245.5,727.5,245.4,727,245.2z M735.5,245
			c4.6,36,9,73.5,13.5,108.4c19.4-19.3,40.4-39.8,59.6-58.9C785.3,278.6,759.9,261.6,735.5,245z M961.9,304.9
			c-2.5,35.3-5,70.7-7.7,107.4c23.3-15.7,45.2-30.9,65.1-49.6c-18.7-19.6-37.2-39-55.8-58.4C963.1,304.5,962.5,304.7,961.9,304.9z
			 M495.7,225.7c-0.3,0.4-0.5,0.7-0.8,1.1c11.8,32.6,23.7,65.2,35.9,98.7c15-21.8,29.4-42.9,44.4-64.7
			C548.3,248.9,522,237.3,495.7,225.7z M752.7,358.8c20.4,16.1,41.3,32.7,63.4,50c-2.1-36.5-4.2-71.8-6.3-107.3
			C790.5,320.8,771.7,339.7,752.7,358.8z M1156.1,380.4c9.8-35.2,19.1-68.8,28.8-103.4c-25.8,13.1-50.5,25.6-76.1,38.5
			C1124.6,337.2,1140,358.3,1156.1,380.4z M955.2,303.8c-21.4,16.5-44.9,34.1-65,49.6c19.1,19.4,38.6,39.8,57.4,58.9
			c2.5-35,6.4-72.8,8.9-108C956.1,304.1,955.7,303.9,955.2,303.8z M1514.6,260.7c-8.4-25.4-16.7-50.2-25.3-76.2
			c-19.5,31.8-38.2,62.2-57.5,93.6C1459.8,272.2,1486.8,266.5,1514.6,260.7z M1604.9,257.2c-24.6,3.1-49.2,6.3-73.8,9.1
			c-4.9,0.6-5.7,2.2-4.5,6.6c5.1,18.6,9.9,37.3,14.9,56c1.1,4.3,2.4,8.6,3.9,14c21.9-29,43.1-57.1,65.2-86.2
			C1607.8,256.9,1606.4,257,1604.9,257.2z M823.2,406.8c18.9-17.7,37.7-35.3,57.1-53.4c-21.5-17.7-42.6-35.1-64.8-53.3
			c2.1,36.4,4.1,71.3,6.2,106.2C822.2,406.4,822.7,406.6,823.2,406.8z M1149.1,389.8c1.5-1.3,2.9-2.6,4.8-4.2
			c-15.7-21.3-31.3-42.3-47.7-64.6c-7.3,36.2-14.3,71-21.4,106.3c7.6-3.8,14.4-7,21-10.6c5.8-3.2,11.2-6.9,16.9-10.4
			c2.5-1.5,5-3.1,7.5-4.6C1136.4,397.7,1142.7,393.8,1149.1,389.8z M1336.6,305.9c27.5-8.3,53.6-16.2,80.3-24.2
			c-10.7-24.5-20.9-48.1-31.8-73.2C1368.7,241.3,1353,272.9,1336.6,305.9z M661.9,307.3c-25.1-13.6-49.5-26.9-75.2-40.8
			c9.2,34.8,18,68.1,27.1,102.8C630.2,348,645.9,327.9,661.9,307.3z M1236.3,344.3c-14.5-22.1-28.7-43.8-43.7-66.7
			c-10.1,35.2-19.7,68.9-29.5,103.2C1165.8,380.1,1234.1,345.7,1236.3,344.3z M1029.2,364.9c16.7,21,32.9,41.3,50,62.9
			c6.8-36,13.3-70.6,20.1-106.7C1075.3,336.1,1052.5,350.3,1029.2,364.9z M281,168.5c-7.6,20.6-15.1,41.3-22.6,61.9
			c-2.4,6.6-2.4,6.7,4.3,8.4c23.4,5.8,46.8,11.6,70.3,17.4c1.4,0.3,2.8,0.6,5.5,1.1c-18.9-31.2-37.2-61.4-55.9-92.2
			C281.8,166.7,281.3,167.6,281,168.5z M741.8,359.1c-23.3-15.4-45.9-30.4-69.5-45.9c6.2,35.6,12.3,69.9,18.5,105.6
			C708.3,398.3,724.9,378.9,741.8,359.1z M50.8,252.8c-1.2,15.4-3.1,50.4-3.1,50.4s79.2,6.4,79.3,5.9c-2.6-0.5-49.9-54.9-74.2-82
			C52,236.6,51.4,244.7,50.8,252.8z M132.7,298.3c3.8-21.3,7.6-42.6,11.4-64c1.2-6.9,1.1-7-6-7.6c-23.9-2-47.8-4-71.7-6
			c-1.7-0.1-3.4,0-6.1,0c24.1,27.1,47.5,53.5,71.4,80.5C132.2,299.5,132.5,299,132.7,298.3z M482.9,230.8
			c-11.1,18.8-22.1,37.6-33.2,56.4c-3.5,6-3.5,6.2,2.9,8.9c21.9,9.4,43.8,18.7,65.7,28c1,0.4,2,0.5,4,1
			c-12.3-33.2-24.2-65.6-36.4-98.8C484.5,228.3,483.7,229.5,482.9,230.8z M432.7,288c-15.5-32.4-30.4-63.7-45.8-96.1
			c-11.4,23.7-22.2,46.2-33.4,69.6C380,270.4,405.7,279,432.7,288z M684.1,418.9c-6.4-35.9-12.6-70.4-19-106.3
			c-16.7,21.2-32.3,41.2-48.6,61.9C639.1,389.4,661.1,403.8,684.1,418.9z M606.4,369.3c-9.4-34.6-18.5-68.3-27.9-102.9
			c-15.1,21.9-29.4,42.8-44.3,64.5C558.4,343.8,581.9,356.3,606.4,369.3z M1506.2,270.7c-24.6,5.2-49.2,10.4-73.8,15.5
			c-4.2,0.9-4.1,2.7-2.9,5.9c5.2,14.4,10.3,28.8,15.5,43.3c2.7,7.6,5.4,15.2,8.5,23.7c19-29.8,37.4-58.8,56.5-88.7
			C1507.8,270.6,1507,270.6,1506.2,270.7z M226.1,312.2c6.1-21.5,12-42.9,18.2-64.4c1.2-4.2-1-4.8-4.1-5.3
			c-15.6-2.5-31.2-5.1-46.8-7.7c-10.3-1.7-20.5-3.3-32.3-5.2c21.7,29,42.5,56.7,63.9,85.2C225.6,313.4,225.9,312.8,226.1,312.2z
			 M1411.7,291.7c-24.4,7.1-48.8,14.3-73.3,21.3c-4.1,1.2-3.8,3.1-2.3,6.2c9.4,20.4,18.7,40.8,28.1,61.2c0.4,0.9,1.1,1.8,1.9,3.1
			c16-30.8,31.7-61,47.7-91.7C1412.4,291.7,1412,291.6,1411.7,291.7z M1319.4,319.9c-23.5,8.9-47,17.9-70.5,26.8
			c-3.4,1.3-3.2,3-1.7,5.7c7.1,12.8,14.1,25.7,21.2,38.5c4.4,8.1,8.8,16.2,13.8,25.3c13.4-32.6,26.4-64.3,39.7-96.7
			C1320.3,319.7,1319.8,319.7,1319.4,319.9z M262.6,247.4c-0.4,0.4-0.8,0.8-1.2,1.2c18,29,35.9,57.9,54.5,87.9
			c9-23.5,17.6-45.8,26.6-69.2C315.3,260.5,289,253.9,262.6,247.4z M1234.2,353.8c-1.3,0.2-1.7,0.2-1.9,0.3
			c-22.2,11-44.4,22.1-66.6,33.1c-3.4,1.7-2.5,3.6-1,5.9c7.4,11.7,14.7,23.4,22,35.1c5.3,8.4,10.6,16.9,16.6,26.6
			C1213.8,420.4,1223.9,387.3,1234.2,353.8z M358.9,272.3c-0.4,0.5-0.9,1-1.3,1.5c15.2,30.2,30.5,60.4,46.4,91.8
			c10.9-23,21.2-44.9,31.9-67.4C409.6,289.3,384.3,280.8,358.9,272.3z M449.3,305.2c12.6,31.3,25.1,62.7,38.2,95.2
			c12.8-22.5,24.8-43.7,37.2-65.4c-25.3-10.6-49.7-20.8-74-30.9C450.2,304.4,449.8,304.8,449.3,305.2z M535.9,340.3
			c10.2,34.5,20,67.4,30.1,101.6c14.2-21.7,27.7-42.2,41.6-63.6C583.4,365.4,560.2,353.2,535.9,340.3z M1461.1,362.3
			c26.7-4.8,52.1-9.3,78-14c-6.9-24.9-13.5-48.9-20.5-74.2C1499.3,304,1480.5,332.6,1461.1,362.3z M1552.7,347
			c26.6-2.8,51.7-5.4,77.7-8.1c-4.2-25.5-8.3-50.4-12.6-76.4C1595.8,291,1574.6,318.5,1552.7,347z M1246.6,438.3
			c9.8-4.7,19.7-9.4,29.5-14.1c0,0-0.2,0.1-0.2,0.1c1-1,1.9-2.1,3-3.2c-12.2-22-24.4-43.7-37.1-66.6
			c-10.9,34.3-21.4,67.2-32.1,100.9c7.9-3.3,14.7-6.1,21.5-9C1236.4,443.7,1241.5,441,1246.6,438.3z M1308.9,411.8
			c7.9-3.2,15.7-6.4,23.6-9.6c6-2.4,12.1-4.8,18.1-7.2c3.4-1.7,6.7-3.4,10.4-5.2c-10.4-22.9-20.5-45.4-31.1-68.8
			c-13.5,32.8-26.6,64.3-39.9,96.5c2.8-0.6,4.5-1,6.3-1.4C1300.5,414.7,1304.7,413.2,1308.9,411.8z M1535,356.8
			c-26.5,4.7-51.6,9.2-77.5,13.8c7,23.8,13.7,46.9,20.9,71.5C1497.5,413.3,1515.8,385.6,1535,356.8z M1379,385.2
			c21.1-6.1,42.1-12.3,63.3-18.1c4.8-1.3,5-3.3,3.5-7.4c-7.5-20.3-14.7-40.7-22.1-61c-0.4-1-0.9-1.9-1.7-3.7
			c-16.2,30.7-32,60.6-48.3,91.4C1376.2,385.8,1377.7,385.5,1379,385.2z M346.5,277.3c-7.8,20-15.4,40.1-23.4,60
			c-1.8,4.5-0.5,6,3.7,7.3c18.8,5.8,37.5,11.8,56.2,17.8c3.9,1.2,7.7,2.5,12.8,4c-16.2-31.3-31.8-61.4-47.8-92.2
			C347.2,275.9,346.8,276.6,346.5,277.3z M153.6,235.9c-0.6,1-0.9,1.4-1,1.8c-4,21.9-7.9,43.9-12,65.8c-0.8,4,0.8,6.7,4,7.2
			c8.7,1.2,17.5,2.5,26.2,3.7c14.8,2.1,32,5.1,48.1,7.5C197.4,293.6,174.6,263.5,153.6,235.9z M1625.5,347.4c-2.2,0-3.4-0.1-4.4,0
			c-22.4,2.2-44.7,4.5-67.1,6.6c-4.8,0.4-5.1,2.5-4.4,6.5c3.1,15.5,5.9,31.1,8.9,46.6c1.2,6.3,2.5,12.6,4,20.1
			C1583.7,400.3,1604.3,374.3,1625.5,347.4z M250.1,256.3c-5.7,19.7-11.2,39.4-17.1,59c-1.4,4.6-1.4,8.7,3.5,9.8
			c21.6,4.9,43.9,9.4,65.5,14.4c1.3,0.3,4.2,1.3,6.3,1.6c-18.4-29.3-37.8-60.5-56.4-90.1C251,253.5,250.5,254.9,250.1,256.3z
			 M408.1,370.7c24.1,10.3,47,19.4,71.1,29.7c-13.3-32.4-26-63-39.4-95.5C429,327.4,418.7,348.8,408.1,370.7z M525.6,345.5
			c-10.5,18.3-21,36.7-31.7,55c-2.2,3.8-1.9,5.6,2.1,7.6c20,10.6,39.9,21.4,59.8,32.2c0.6,0.3,1.4,0.4,2.8,0.8
			c-10.2-33.3-20.2-65.8-30.5-99.2C526.8,343.6,526.1,344.5,525.6,345.5z M372.1,442.2c2.6-6.6,4.8-12,6.9-17.4
			c5.9-14.7,11.9-29.3,17.8-44c1-2.5,2.3-5.1-1.8-6.4c-22.8-7.2-45.7-14.5-69.9-22.3C341,382.7,356.3,411.9,372.1,442.2z M207.8,391
			c4.1-18.7,8.1-37.4,12.2-56.1c1.5-7.1,1.5-7.1-5.6-8.1c-17-2.4-33.9-4.8-50.9-7.2c-5.8-0.8-11.5-1.5-18.8-2.4
			c21,27.3,40.9,53.2,61.4,79.9C206.9,394.4,207.4,392.7,207.8,391z M128.9,318.9c0.5-4-2.2-4.1-5-4.3c-16.3-1-32.5-2-48.8-3
			c-7-0.4-14.1-0.6-22.4-1c23.2,25.6,45.4,50.1,68.6,75.7C123.9,362.8,126.4,340.9,128.9,318.9z M113.9,391.9
			c-24.2-26.5-43.5-47.5-66.9-73.1c-0.6,1-0.8,1.3-0.8,1.6c-0.5,21.5-0.9,42.9-1.4,64.4c-0.1,3.7,1.1,5.5,5.2,5.4
			c5.9-0.2,17.7,0.9,17.7,1.3C61,391.5,89.5,391.1,113.9,391.9z M291.4,412.9c6.3-20.3,12.4-40.7,18.8-61c1.2-3.7-0.9-4.2-3.6-4.8
			c-21.2-4.9-42.4-9.8-63.7-14.7c-1.8-0.4-3.6-0.7-6.4-1.2c18.2,28.5,35.7,55.9,53.6,83.8C290.9,413.8,291.2,413.4,291.4,412.9z
			 M1569.4,432.3c24.2-1.7,47.2-3.4,70.7-5.1c-2.7-24.9-5.4-48.8-8.2-73.9C1610.7,380.1,1590.4,405.7,1569.4,432.3z M1541.8,362.4
			c-19,28.1-37.3,55.2-56.4,83.4c24-4.2,46.7-8.2,70.3-12.3C1551,409.7,1546.5,386.7,1541.8,362.4z M316.4,358.3
			c-6.3,20.2-12.5,40.4-18.9,60.5c-1.1,3.4,0.3,4.8,3.4,5.8c11.9,3.7,23.8,7.5,35.7,11.3c8.6,2.7,17.3,5.3,27.2,8.4
			c-15.8-29.8-31-58.3-46.2-87.1C316.9,357.9,316.5,358.1,316.4,358.3z M228.9,336.7c-0.7,0.9-1,1.1-1.1,1.4
			c-4.6,20.6-9.2,41.2-13.9,61.8c-0.8,3.5,0.8,4.4,3.6,5c12,2.6,24,5.3,36,8.1c9.4,2.1,18.7,4.3,29.2,6.7
			C264.4,391.4,246.7,364.2,228.9,336.7z M193.5,402.1c1.4-0.1,2.8-0.2,5.2-0.4c-20.5-26.2-40.5-51.8-61-78.2
			c-2.8,22.7-5.4,44.2-8.1,65.6c-0.4,3.3,1.1,4.6,4.1,5c11.2,1.4,22.4,2.7,33.6,4.2c8.9,1.2,17.7,2.6,26.5,3.9L193.5,402.1z
			 M92.3,1.7l-4.4,19.2L194,36.9L164.9,1.1L92.3,1.7z M218,1.1h-40.2l40,0.3l-40-0.3l26.1,34.1 M-1.5,13.7l71.9,6.8L49.7,1.4L-1,0.1
			L-1.5,13.7z M226.1,1.4L210,39.9l102.8,20.7l-41-60.5L226.1,1.4z M286,1.1l37.5,59.8l35.4-59.8H286z M329.1,64.4L428,93.3
			L381.8,1.1h-15.6L329.1,64.4z M438.2,92.9l52.7-72.1l-61-19.5l-38.2-0.3L438.2,92.9z M83.3,36l-16.5,83.8l96.4,9.9L83.3,36z
			 M83.5,1.1L66.1,1.2l12.5,13.7 M488.9,9.8l-2.4-8.7H460 M498.7,10.2l9.7-9.1h-14.1 M603.7,56.7L587.2,1.1h-70.6L504,15.4
			L603.7,56.7z M595.4,1.1l15.8,55.8l60.3-55.8H595.4z M616.5,62.3l91,45.7L687.8,1.1h-7L616.5,62.3z M1680,43.2v-27l-5.9-15.1
			L1624,1.4l-45.8,57.2L1680,43.2z M1570.6,51.5L1611.2,1l-60.3,0.1L1570.6,51.5z M1459.2,79.9l104.5-19l-20.6-59.8L1511.9,1
			L1459.2,79.9z M1451,74.8l0.7-1.1L1499.9,1L1411.5,1 M1347.2,106.8l98.2-24l-40.8-81.7l-3.1-0.1L1347.2,106.8z M1286.8,30.9
			l50,75.4l55.6-105.2l-11.7,0L1286.8,30.9z M1289.2,20.3L1352.8,1h-54.6L1289.2,20.3z M1288.6,1.1L1262.4,1l16.6,19.1L1288.6,1.1z
			 M1174.2,63.8l100.1-38.9l-19.5-23.8L1195.4,1L1174.2,63.8z M1186,1l-81.9,0.4l61.4,61.8L1186,1z M1068.5,113l92.2-44.1
			l-66.1-67.5h-2.2L1068.5,113z M1085.7,1.1l-2.5-0.1l-91.7,48.7l69.9,63.1L1085.7,1.1z M988.2,40.4C989.8,43.5,1067,1,1067,1h-73.8
			C993.2,1,986.5,37.2,988.2,40.4z M981,41.2L986.5,1l-59.8-0.2L981,41.2z M890.8,104.9L979,49.8L912.5,1.1l-19.3,0.3L890.8,104.9z
			 M886.8,1.1l-21.3,0.3l-63,44.2l82.7,55.2L886.8,1.1z M797.2,39.9l58.3-39.1h-61.2L797.2,39.9z M791,38.6l-2.6-37.5l-66.7-0.4
			L791,38.6z M713.8,106.8l72.3-60.3L703.4,1.4h-8.3L713.8,106.8z"/>
	</defs>
	<linearGradient id="XMLID_2_" gradientUnits="userSpaceOnUse" x1="-1.531" y1="229.1471" x2="1680" y2="229.1471">
		<stop  offset="0" style="stop-color:#B4B4B4"/>
		<stop  offset="0.7169" style="stop-color:#E6E6E6"/>
		<stop  offset="1" style="stop-color:#B4B4B4"/>
	</linearGradient>
	<use xlink:href="#XMLID_252_"  style="overflow:visible;fill:url(#XMLID_2_);"/>
	<clipPath id="XMLID_3_">
		<use xlink:href="#XMLID_252_"  style="overflow:visible;"/>
	</clipPath>
	<linearGradient id="XMLID_4_" gradientUnits="userSpaceOnUse" x1="859.9655" y1="-127.1037" x2="826.3586" y2="562.092">
		<stop  offset="0" style="stop-color:#B4B4B4"/>
		<stop  offset="0.7169" style="stop-color:#E6E6E6"/>
		<stop  offset="1" style="stop-color:#B4B4B4"/>
	</linearGradient>
	<rect id="XMLID_317_" x="-149.1" y="-79.5" class="st1" width="1984.6" height="594.1"/>
</g>
<g class="st2">
	<path id="XMLID_1352_" class="st3" d="M-0.1,273.2c38.6,32,142.5,148.1,167,185"/>
	<path id="XMLID_1351_" class="st3" d="M235.9,458.2c-59.4-99.9-191.6-246-236-283"/>
	<path id="XMLID_1350_" class="st3" d="M303.9,458.2c-34.3-64.8-75-122.1-121.2-184S38.6,104.9-0.1,68.2"/>
	<path id="XMLID_1349_" class="st3" d="M370.3,458.5C339.8,390,293.7,312,243.9,240C169.7,132.7,88.7,37.9,49.7,1.3"/>
	<path id="XMLID_1348_" class="st3" d="M434.9,458.2c-20-56.9-81.1-171.3-118.3-237.8S209.1,52.7,164.8,1"/>
	<path id="XMLID_1347_" class="st3" d="M498.9,458.2c-12.7-42-47-122.4-63.6-161.8c-16.7-39.3-40-85.3-57.3-117.3
		c-17.3-32-37.3-70.7-62.7-112C290,25.7,293.7,34.5,271.7,0"/>
	<path id="XMLID_1346_" class="st3" d="M562.8,458.5C517.9,272.2,412.1,54.3,381.7,1"/>
	<path id="XMLID_1345_" class="st3" d="M625.9,458.2C610.8,346,522.2,87.5,486.4,1"/>
	<path id="XMLID_1344_" class="st3" d="M689.9,458.2c-14.7-89.3-50-292.3-102.8-457.1"/>
	<path id="XMLID_1343_" class="st3" d="M753.9,458.2C743.6,334.1,710.8,113,688,0"/>
	<path id="XMLID_1342_" class="st3" d="M817.9,458.2c0-72-24.9-419.3-29.6-457.1"/>
	<path id="XMLID_1341_" class="st3" d="M886.7,1c0,41.7-5.2,344.8-4.8,457.1"/>
	<path id="XMLID_1340_" class="st3" d="M986.4,0.9c-22.4,187.7-34.5,338.9-40.5,457.3"/>
	<path id="XMLID_1339_" class="st3" d="M1085.6,1c-27.7,121.2-63.3,320-75.2,457.1"/>
	<path id="XMLID_1338_" class="st3" d="M1185.9,0.9c-17.9,54.3-46.9,154.1-70.7,251.6c-19.1,78.6-34.4,155.7-41.3,205.7"/>
	<path id="XMLID_1337_" class="st3" d="M1288.5,1c-72.4,160.6-111.8,296.6-149.6,457.1"/>
	<path id="XMLID_1336_" class="st3" d="M1392.4,1c-45.3,80.4-89.4,173.8-123.5,260.2c-30,76-51.6,146.7-66.8,197"/>
	<path id="XMLID_1335_" class="st3" d="M1499.9,1c-44.9,67.5-96.5,151.7-139.5,237.5c-39.6,79-71.4,159.9-92.5,219.7"/>
	<path id="XMLID_1334_" class="st3" d="M1611.1,0.9c-39.1,49.4-88.7,114.6-135.3,188c-54.8,86.5-106.2,183.8-141.8,269.2"/>
	<path id="XMLID_1333_" class="st3" d="M1679.9,53.3c-24.8,28.7-94.2,112.4-135.3,169.1c-37.7,52.5-107.1,158-143.7,235.8"/>
	<path id="XMLID_1332_" class="st3" d="M1667.4,191.7"/>
	<path id="XMLID_1331_" class="st3" d="M1590.3,281.1"/>
	<path id="XMLID_1330_" class="st3" d="M1467.3,457.1"/>
	<path id="XMLID_1329_" class="st3" d="M1679.9,177.2c-95.7,106.1-152.9,190.3-212.4,281.3"/>
	<path id="XMLID_1328_" class="st3" d="M1679.9,287.2c-30.7,30-83.6,93.9-139,171"/>
	<path id="XMLID_1327_" class="st3" d="M1679.9,387.2c-17.8,16.5-63,71-63,71"/>
	<path id="XMLID_1326_" class="st3" d="M92.9,458.2c-38.2-42.5-61.9-69.1-93-96"/>
	<line id="XMLID_1325_" class="st3" x1="12.9" y1="458.2" x2="-0.1" y2="445.2"/>
	<path id="XMLID_1324_" class="st3" d="M83.4,1C45,140.8,35.1,238.8,36.9,458.2"/>
	<path id="XMLID_1323_" class="st3" d="M217.9,1c-53.1,103.1-100,325.5-102,457.1"/>
	<path id="XMLID_1322_" class="st3" d="M358.8,1c-79.3,131.9-98.8,198.1-124,281.8c-14.8,49.2-29.5,110.3-38.9,175.3"/>
	<path id="XMLID_1321_" class="st3" d="M508.3,1c-54.7,68.4-101.2,127.3-147.1,227.6c-39.9,87.2-68.7,173.4-82.3,229.5"/>
	<path id="XMLID_1320_" class="st3" d="M671.4,1c-106.9,99.5-150.8,158-185.6,213.1c-47.8,75.7-59.9,99-119.9,244.1"/>
	<path id="XMLID_1319_" class="st3" d="M855.4,0.7c-138.6,90.4-200,162.2-258.6,233.6c-26.6,34.9-45.7,60.2-65.8,90.7
		c-20.3,30.9-39.7,68.4-72.1,133.2"/>
	<path id="XMLID_1318_" class="st3" d="M1066.9,0.9C912.5,84.1,841,132.5,750.8,215.7C680.1,280.9,616.9,358,556.9,458.2"/>
	<path id="XMLID_1317_" class="st3" d="M1352.5,1c-166.6,51.1-480.1,164.3-689.6,457.2"/>
	<path id="XMLID_1316_" class="st3" d="M1679.9,43.2c-192.1,27.6-346.7,54.5-497.8,122.4c-142.2,64-274.2,147-405.2,292.6"/>
	<path id="XMLID_1315_" class="st3" d="M1679.9,147.2c-70.6,3.8-160,9.2-361,69.2S973.1,397,901.9,458.2"/>
	<path id="XMLID_1314_" class="st3" d="M1679.9,245.2c-32.6-0.3-130.5,4.2-266.3,38.3C1236.9,327,1092,419,1045.9,458.2"/>
	<path id="XMLID_1313_" class="st3" d="M1679.9,338.2c-141,6-273.2,19.6-476.1,119.9"/>
	<path id="XMLID_1312_" class="st3" d="M1679.9,428.2c-70.6-6.8-220.7,20.8-241,30"/>
	<path id="XMLID_1311_" class="st3" d="M381.3,459.2c-74.6-31.7-241.2-72.1-381.3-60"/>
	<path id="XMLID_1310_" class="st3" d="M572,458.5C405,355.2,196,308.8-0.1,310.2"/>
	<path id="XMLID_1309_" class="st3" d="M723.9,458.2c-52-41.2-168.3-119.9-305.5-166c-215.7-75.7-349.5-69.8-418.5-73"/>
	<path id="XMLID_1308_" class="st3" d="M859.9,458.2c-51.5-55.7-189.3-161.4-359.7-230.5c-207-84-388.8-98-500.3-104.5"/>
	<path id="XMLID_1307_" class="st3" d="M981.9,458.2c-86-96-171.4-185.2-413.5-301.7C407.5,82,183.5,31-0.1,23.2"/>
	<path id="XMLID_1306_" class="st3" d="M1093.9,458.2c-43.8-60-68.6-93.4-120.3-143.4c-30.6-29.6-68-64.9-130.1-110.4
		C801.1,173.3,738,132.9,655.4,91.5C577.2,52.3,506,24.9,429.8,1.3"/>
	<path id="XMLID_1305_" class="st3" d="M712,4.9"/>
	<path id="XMLID_1304_" class="st3" d="M1199.3,458.2c-32.5-47.8-81.2-135.7-176.4-228.8C924.8,133.5,811.3,53.8,703.3,1.3"/>
	<path id="XMLID_1303_" class="st3" d="M1292,456.4"/>
	<path id="XMLID_1302_" class="st3" d="M917,4.9"/>
	<path id="XMLID_1301_" class="st3" d="M1295.9,458.2c-47.9-101.9-97.3-179.1-152-246.8c-71.1-88-129.5-132.8-231.5-210.4"/>
	<path id="XMLID_1300_" class="st3" d="M1387.9,458.2c-33.2-95.9-86.9-199-129.4-262c-8.9-13.1-17.6-27.5-28-41.6
		c-38.7-52.3-91.3-110-136-153.3"/>
	<path id="XMLID_1299_" class="st3" d="M1475.1,458.5c-15.7-63.2-44.5-159.1-97-264.2C1346.3,130.6,1305,64.5,1254.6,1"/>
	<path id="XMLID_1298_" class="st3" d="M1558.9,458.2c-8.3-58.9-23.8-133.4-48.7-210.5c-28.5-88.2-54.6-151.5-105.7-246.7"/>
	<path id="XMLID_1297_" class="st3" d="M1641.9,458.2C1630.7,315.7,1616.8,208.4,1543,1"/>
</g>
<g>
	<path id="XMLID_378_" class="st4" d="M0,259.2c38.6,32,166.8,178.2,177,199"/>
	<path id="XMLID_376_" class="st4" d="M246,458.2c-59.4-99.9-201.6-260-246-297"/>
	<path id="XMLID_375_" class="st4" d="M314,458.2C223.2,297.6,120.9,169.5,0,52.2"/>
	<path id="XMLID_374_" class="st4" d="M380.3,458.7C337,371.6,292.5,294,247.6,228.3C181.7,132,116.5,59,66.1,1.2"/>
	<path id="XMLID_372_" class="st4" d="M443,458.2C372.6,277.3,249.5,88.2,177.8,1.1"/>
	<path id="XMLID_371_" class="st4" d="M507,458.2c-17.1-54.3-41.5-118.8-70.3-181.9C381,154,313.9,36,286,1.1"/>
	<path id="XMLID_370_" class="st4" d="M570.3,459.3C539.3,330.5,451,104.2,391.7,1.1"/>
	<path id="XMLID_368_" class="st4" d="M633,458.2C606.2,305.6,527.1,76.4,494.3,1.1"/>
	<path id="XMLID_367_" class="st4" d="M696,458.2C672.9,294.6,622.4,75.8,595.4,1.1"/>
	<path id="XMLID_366_" class="st4" d="M760,458.2c-10.3-124.1-42-343.9-64.9-456.9"/>
	<path id="XMLID_364_" class="st4" d="M824,458.2c0-72-25.1-419.7-29.8-457.5"/>
	<path id="XMLID_363_" class="st4" d="M893.2,1.4c0,41.7-5.7,344.5-5.2,456.8"/>
	<path id="XMLID_362_" class="st4" d="M993.2,1c-9.8,66.5-38.9,363-42.2,457.3"/>
	<path id="XMLID_360_" class="st4" d="M1092.3,1.4c-18.9,72.6-63.9,323.8-76.3,456.9"/>
	<path id="XMLID_359_" class="st4" d="M1195.4,1C1162.2,82.4,1095,346.3,1080,458.2"/>
	<path id="XMLID_358_" class="st4" d="M1298.2,1c-28.5,59.3-58.1,134.6-85.1,216.5c-25.7,77.7-49.1,161.2-68,240.8"/>
	<path id="XMLID_354_" class="st4" d="M1401.5,1c-36.1,66.8-73.6,140.7-106,217.4c-33.4,79-61.5,161-86.7,239.8"/>
	<path id="XMLID_353_" class="st4" d="M1511.9,1c-69.9,96.2-182.8,299.2-235.9,457.3"/>
	<path id="XMLID_352_" class="st4" d="M1624,1.4c-42.3,53.3-188.2,235-282,456.9"/>
	<path id="XMLID_350_" class="st4" d="M1680,69.2c-24.8,28.7-185.5,208.5-271,389"/>
	<path id="XMLID_349_" class="st4" d="M1670.7,186.2"/>
	<path id="XMLID_348_" class="st4" d="M1593.5,275.6"/>
	<path id="XMLID_346_" class="st4" d="M1470.5,451.6"/>
	<path id="XMLID_345_" class="st4" d="M1680,191.2c-50.9,52.3-144.2,171.1-202.8,267"/>
	<path id="XMLID_344_" class="st4" d="M1680,300.2c-30.7,30-70.6,77.9-129,158"/>
	<path id="XMLID_342_" class="st4" d="M1680,400.2c-27,25.8-52,58-52,58"/>
	<path id="XMLID_341_" class="st4" d="M104.2,458.2C66,415.8,31.1,377.2,0,350.2"/>
	<path id="XMLID_340_" class="st4" d="M26,458.2c0,0-24.7-23.8-26-25"/>
	<path id="XMLID_338_" class="st4" d="M92.3,1.7C56.6,138.7,39.9,294.8,45,458.2"/>
	<path id="XMLID_337_" class="st4" d="M226.1,1.4C183.9,88.2,123.9,326,124,458.2"/>
	<path id="XMLID_336_" class="st4" d="M366.3,1.1C287.7,136.4,229.9,272,204,458.2"/>
	<path id="XMLID_334_" class="st4" d="M516.6,1.1c-36.8,46.2-99.3,122.1-145.2,222.5c-39.9,87.2-70.8,178.5-84.4,234.7"/>
	<path id="XMLID_333_" class="st4" d="M680.9,1.1c-44.6,35.2-143.7,143.6-184,207.8c-46.2,73.6-67.5,101.7-123.6,249.3"/>
	<path id="XMLID_332_" class="st4" d="M865.4,1.4c-28.1,20.9-54.2,36.8-76,53.6c-94.7,73.3-134.3,116.4-182,174.5
		c-53.6,70.3-80.8,98-141.5,228.8"/>
	<path id="XMLID_330_" class="st4" d="M1083.2,1c-226.3,114.6-384.4,230-520.9,457.7"/>
	<path id="XMLID_328_" class="st4" d="M1380.7,1.1C1213.3,47.5,878.5,165.3,669,458.2"/>
	<path id="XMLID_326_" class="st4" d="M1680,52.2c-204.8,22.2-384.8,66.3-523.8,133.7C995.5,263.7,896.9,332,784,458.2"/>
	<path id="XMLID_324_" class="st4" d="M1680,154.7c-110.2,9.2-155.1,5.5-355.2,68.2c-187.7,58.8-286,125.9-413.8,235.4"/>
	<path id="XMLID_319_" class="st4" d="M1680,253.2c-32.6-0.3-103.8-0.3-263.4,34.5c-149.9,45.4-261.5,96.2-363.6,170.5"/>
	<path id="XMLID_318_" class="st4" d="M1680,346.2c-141,6-257.2,11.6-460,112"/>
	<path id="XMLID_315_" class="st4" d="M1680,435.2c-70.6-6.8-198.5,13.8-218.8,23"/>
	<path id="XMLID_314_" class="st4" d="M396.7,458.2C315,418,132.4,381.7-0.1,391.5"/>
	<path id="XMLID_313_" class="st4" d="M584,458.2C422.9,351.8,196,301.9,0,303.2"/>
	<path id="XMLID_311_" class="st4" d="M735,458.2C680.9,413.6,559.3,331,422.2,284.9c-217-72-328.8-69.3-422.2-73.7"/>
	<path id="XMLID_310_" class="st4" d="M868,458.2c-50.4-48.4-112.3-101.1-191.8-150.8c-49.8-31.1-106.1-61.6-172-87.6
		C314.4,145.2,190.7,127.1,0,116.2"/>
	<path id="XMLID_309_" class="st4" d="M988,458.2c-89.2-103-173.7-192.8-415.8-309.3C411.3,74.5,159.4,20.8-1.5,13.7"/>
	<path id="XMLID_307_" class="st4" d="M1100,458.2c-26.4-37.5-93.6-143.1-252.1-260.1C699.5,88.4,554,36.1,460,1.1"/>
	<path id="XMLID_306_" class="st4" d="M715.2-0.6"/>
	<path id="XMLID_303_" class="st4" d="M1205.7,458.2c-32.5-47.8-83.6-141.9-178.8-234.9C928.8,127.4,829.7,53.3,721.7,0.7"/>
	<path id="XMLID_302_" class="st4" d="M1295.2,450.9"/>
	<path id="XMLID_301_" class="st4" d="M920.2-0.6"/>
	<path id="XMLID_298_" class="st4" d="M1302,458.2c-26.3-59-72.7-147.3-152.8-249.3c-52.7-67.2-121.8-131.9-222.5-208.2"/>
	<path id="XMLID_297_" class="st4" d="M1394,458.2c-22.4-66.8-54.9-140-100.2-217.7c-55-94.3-124.6-179.4-189.6-239.2"/>
	<path id="XMLID_296_" class="st4" d="M1483,458.2c-14.5-58.1-41.4-141.8-78.6-223.3c-41.6-91.1-69.2-136.5-141.9-233.9"/>
	<path id="XMLID_290_" class="st4" d="M1567,458.2c-17-121-51.2-263.6-155.5-457.3"/>
	<path id="XMLID_289_" class="st4" d="M1650,458.2c-9-141-30.1-276.8-99.2-457.1"/>
</g>
</svg>
