<?xml version="1.0" encoding="utf-8"?>
<!-- Generator: Adobe Illustrator 19.0.0, SVG Export Plug-In . SVG Version: 6.00 Build 0)  -->
<svg version="1.1" id="Laag_1" xmlns="http://www.w3.org/2000/svg" xmlns:xlink="http://www.w3.org/1999/xlink" x="0px" y="0px"
	 viewBox="0 0 633.2 201.2" style="enable-background:new 0 0 633.2 201.2;" xml:space="preserve">
<style type="text/css">
	.cloud4_st0{fill:#E7E7E7;}
	.cloud4_st1{fill:#CECECE;}
	.cloud4_st2{fill:#A3A3A3;}
	.cloud4_st3{fill:#BABABA;}
	.cloud4_st4{fill:#E6E6E6;}
	.cloud4_st5{fill:#D1D1D1;}
	.cloud4_st6{fill:#BCBCBC;}
	.cloud4_st7{fill:#C7C7C7;}
	.cloud4_st8{fill:#A5A5A5;}
	.cloud4_st9{fill:#E0E0E0;}
	.cloud4_st10{fill:#999999;}
	.cloud4_st11{fill:#CFCFCF;}
	.cloud4_st12{fill:#989898;}
	.cloud4_st13{fill:#B3B3B3;}
	.cloud4_st14{fill:#B4B4B4;}
	.cloud4_st15{fill:#CBCBCB;}
	.cloud4_st16{fill:#B0B0B0;}
	.cloud4_st17{fill:#A9A9A9;}
	.cloud4_st18{fill:#D9D9D9;}
	.cloud4_st19{fill:#C2C2C2;}
	.cloud4_st20{fill:#C4C4C4;}
	.cloud4_st21{fill:#9F9F9F;}
	.cloud4_st22{fill:#8F8F8F;}
	.cloud4_st23{fill:#9D9D9D;}
	.cloud4_st24{fill:#9B9B9B;}
	.cloud4_st25{fill:#7F7F7F;}
	.cloud4_st26{fill:#868686;}
	.cloud4_st27{fill:#D5D5D5;}
	.cloud4_st28{fill:#C0C0C0;}
	.cloud4_st29{fill:#BFBFBF;}
	.cloud4_st30{fill:#B6B6B6;}
	.cloud4_st31{fill:#ACACAC;}
	.cloud4_st32{fill:#A1A1A1;}
	.cloud4_st33{fill:#B2B2B2;}
	.cloud4_st34{fill:#D3D3D3;}
	.cloud4_st35{fill:#C3C3C3;}
	.cloud4_st36{fill:#D2D2D2;}
	.cloud4_st37{fill:#E2E2E2;}
	.cloud4_st38{fill:#DCDCDC;}
	.cloud4_st39{fill:#CACACA;}
	.cloud4_st40{fill:#9C9C9C;}
	.cloud4_st41{fill:#EAEAEA;}
	.cloud4_st42{fill:#E1E1E1;}
	.cloud4_st43{fill:#C6C6C6;}
	.cloud4_st44{fill:#BDBDBD;}
	.cloud4_st45{fill:#B8B8B8;}
	.cloud4_st46{fill:#878787;}
	.cloud4_st47{fill:#AEAEAE;}
	.cloud4_st48{fill:#D4D4D4;}
	.cloud4_st49{fill:#E4E4E4;}
	.cloud4_st50{fill:#A4A4A4;}
	.cloud4_st51{fill:#8E8E8E;}
	.cloud4_st52{fill:#BBBBBB;}
	.cloud4_st53{fill:#959595;}
	.cloud4_st54{fill:#919191;}
	.cloud4_st55{fill:#A7A7A7;}
	.cloud4_st56{fill:#DDDDDD;}
	.cloud4_st57{fill:#D7D7D7;}
	.cloud4_st58{fill:#CCCCCC;}
	.cloud4_st59{fill:#DBDBDB;}
	.cloud4_st60{fill:#ABABAB;}
	.cloud4_st61{fill:#929292;}
	.cloud4_st62{fill:#7D7D7D;}
	.cloud4_st63{fill:#E3E3E3;}
	.cloud4_st64{fill:#EBEBEB;}
	.cloud4_st65{fill:#C1C1C1;}
	.cloud4_st66{fill:#9E9E9E;}
	.cloud4_st67{fill:#C5C5C5;}
	.cloud4_st68{fill:#AFAFAF;}
	.cloud4_st69{fill:#B5B5B5;}
	.cloud4_st70{fill:#DFDFDF;}
	.cloud4_st71{fill:#F1F1F1;}
	.cloud4_st72{fill:#969696;}
	.cloud4_st73{fill:#B9B9B9;}
	.cloud4_st74{fill:#B7B7B7;}
	.cloud4_st75{fill:#ECECEC;}
	.cloud4_st76{fill:#EEEEEE;}
	.cloud4_st77{fill:#A6A6A6;}
	.cloud4_st78{fill:#DADADA;}
	.cloud4_st79{fill:#949494;}
	.cloud4_st80{fill:#838383;}
	.cloud4_st81{fill:#939393;}
	.cloud4_st82{fill:#8A8A8A;}
	.cloud4_st83{fill:#E5E5E5;}
	.cloud4_st84{fill:#AAAAAA;}
	.cloud4_st85{fill:#888888;}
	.cloud4_st86{fill:#A0A0A0;}
	.cloud4_st87{fill:#ADADAD;}
	.cloud4_st88{fill:#B1B1B1;}
	.cloud4_st89{fill:#A2A2A2;}
	.cloud4_st90{fill:#C9C9C9;}
	.cloud4_st91{fill:#7C7C7C;}
	.cloud4_st92{fill:#979797;}
	.cloud4_st93{fill:#828282;}
	.cloud4_st94{fill:#BEBEBE;}
	.cloud4_st95{fill:#696969;}
</style>
<g id="XMLID_79_">
	<path id="XMLID_4565_" class="cloud4_st0" d="M225.1,194c0,0.3,0.1,0.6,0.1,0.9c-4.3,0-8.7,0-13,0c0-0.3,0-0.6,0-1c0.2-0.6,0.6-1,1.1-1.4
		C218,190,221.8,190.5,225.1,194z"/>
	<path id="XMLID_4542_" class="cloud4_st1" d="M593.2,84.9c13.3-0.4,26.6-0.7,39.8,0.8c0,1.8,0,3.5,0,5.3c-3.3,3.3-7.7,5.1-12,5.9
		c-14.6,2.9-28.4,8.6-42.8,12.2c-2.2,0-4.4,0.3-6.4-1c-3-5.2-2.3-6.6,4.4-8.6c7.2,0.3,13.9-2.4,20.9-3.2c5.5-0.6,10.1-5.4,16.3-5.1
		c-6.3-0.9-12.4-1.7-18.6-0.1c-4.5,1.2-9,2.3-13.7,1.7c-2.9-0.7-5.8,0.1-8.7,0.3c-2.1,0.1-4.7,1-5.8-2c1-3.2,3.5-5.4,6.3-5.5
		C579.8,85.5,586.5,85.5,593.2,84.9z"/>
	<path id="XMLID_4538_" class="cloud4_st2" d="M633.1,48c-1.4,0.9-2.9,1.7-4.6,1.1c-5-1.8-10.2-0.8-15.3-1.3c-2.6-0.2-3.8,0.8-4.6,3.3
		c-2.1,6.3-4.7,7.1-10.2,3.2c-1.5-1.1-2.8-1.2-4.5-1.2c-5.6-0.1-11.2-0.6-16.6-2.2c-2.4-1.6-5.1-0.7-7.6-1.1c-2-0.3-4.7,1-5.7-2.2
		c1.7-3.1,5.2-2.3,7.7-3.7c0.8-0.1,1.6,0.1,2.2,0.5c3.4-0.1,6.5,3.6,10.1,0.9c7,0.5,13-2.4,19-5.6c2.4,0.5,4.7,1.4,7.1,0.2
		c0.9-0.4,2-0.5,2.8,0.1c3.9,2.8,8.1,1.6,12.3,1.3c0.4-0.1,0.9-0.2,1.3-0.3c2.2-0.2,4.4-1.8,6.6-0.1C633.1,43.4,633.1,45.7,633.1,48
		z"/>
	<path id="XMLID_4533_" class="cloud4_st3" d="M582.3,37.9c3,0.8,5.7-0.6,7.2-2.4c4.8-6.1,11.9-5.2,18.1-6.3c5.7-0.9,11.8-1.4,16.8,3.7
		c2.1,2.1,5.7-0.4,8.7,0c0,0.7,0.1,1.3,0.1,2c-4.3,1.4-8.4,4.7-13.2,1.4c-3.6-1.8-7.2-3.6-11.1-0.6c-1,0.8-2.6,0.3-3.9-0.1
		c-4.3-1.1-7.9-0.3-10.4,3.4c2-0.5,4.2-0.7,6.5-0.2c1.6,0.4,2.9,1,2.3,3.1c-0.5,0.1-1.2,0-1.4,0.3c-4.5,6-11.6,4.3-17.6,5.7
		c-3.7-7.7-4.5-7.8-17-4.9c-0.5,0.1-1,0.1-1.5,0.2c-0.8,0.1-1.5,0.5-2.3,0.5c-2.1-0.5-4.2-0.4-6.3-0.3c-1.9,0-3.6,0-4.5-2.1
		c-0.1-3.5,1.3-4.8,4.9-3.7c4.9,1.4,9.5,1.3,14-1.9C577.7,31.1,577.9,31.3,582.3,37.9z"/>
	<path id="XMLID_4522_" class="cloud4_st4" d="M621.2,33.9c1.9,1.6,3.9,2.1,6.3,1.1c1.8-0.8,3.7-1,5.7-0.2c0,1,0,2.1,0,3.1
		c-2,2.1-4.6,3.3-7,4.9l0,0c-2,1.1-4.5,0.1-6.6,1.6c-1.4,1-2.9,0.1-3.7-1.3c-0.8-1.3-2-2.2-3.4-2.7c-1.8-0.6-3.6-1.4-3.3-3.6
		c0.2-2.3,1.8-3.7,3.9-4.7C616.3,30.5,618.8,32.1,621.2,33.9z"/>
	<path id="XMLID_4506_" class="cloud4_st5" d="M626.2,42.9c-0.9-6.2,3.9-4.4,7-4.9c0,1,0,2.1-0.1,3.1C631.2,43.2,628.7,43,626.2,42.9z"/>
	<path id="XMLID_4489_" class="cloud4_st6" d="M194.2,185.9c1.7,0,3.3,0,5,0c1-3.3,0.2-8.1,6.2-7c1.3,2.7,3.6,3.4,6.4,3.5
		c2.8,0.1,5.5,0.7,7.5,3.1c1.1,1.9,2.7,2.7,4.8,3c1.8,0.3,3.2,1.5,4.4,2.9c0.5,1.2-0.3,1.8-1.2,2.4c-0.7,0-1.5,0.1-2.2,0.1
		c-4-1.7-7.9-0.7-11.9-0.2c-2.6-2.4-6.2-0.2-9-1.9c0.5-1.4,3-2.5,1.3-4.2c-1.4-1.4-3.6-1.1-5.2-0.3
		C197.7,188.8,195.6,189.1,194.2,185.9z"/>
	<path id="XMLID_4466_" class="cloud4_st7" d="M167.2,192c4,0,7.8-1.6,11.8-1c3.6,0.5,1.6,1.7,0.3,2.9C175.2,193.8,171,194.5,167.2,192z"/>
	<path id="XMLID_4441_" class="cloud4_st3" d="M577.2,106.9c-3.4,4.6-9.2,4.5-13.5,4.7c-8.4,0.3-16.5,1.9-24.6,3.6
		c-2.6,0.5-5.3,0.5-7.9,0.8c-3.6,2.3-6.9,5.9-11.5,1.7c-0.9-0.8-2.9,0-4.4,0.2c-4,0.4-7.1,4.2-11.6,3.1c-1-0.2-2,0.8-1,2
		c0.7,0.9,1.4,1.8,1.5,3.1c0,0.3,0,0.7,0,1c0.4,1.6-0.4,3.1-1.7,2.8c-6.1-1.2-9.7,2.9-13.8,6.1c-2-0.2-3.6-1.1-4.1-3.2
		c0.4-5.5,0-6.2-5.3-6.4c-2.6-0.1-4.3-1-4.6-3.5c-0.3-2.7,1.6-4,3.8-4.5c2.3-0.5,4.5-1.3,6.7-1.8c4.4-2.4,9.2-1.7,13.9-2.4
		c3.4-0.5,6.3-1.7,7.2-5.5c3.3-3.8,4.8-4,8.6-1.3c0.4,0.3,0.7,0.7,1,1c5.9,8.1,12.9,5.1,20.6,3.2c6.2-1.6,12.6-3.5,19.1-3.5
		c3.4,0,6.7-1.6,10.1-0.6c2.5,0.2,5-0.3,7.4,0.5C574.5,107.3,575.6,105.9,577.2,106.9z"/>
	<path id="XMLID_4439_" class="cloud4_st8" d="M524.2,122.9c-1-0.7-2-1.3-3-2c-1.3-2.9-3.6-3.4-6.1-1.9c-3.7,2.2-7.3,4.6-10.9,6.9
		c-1-0.2-2-0.4-2.9-0.7c-1.6-0.6-4.7,1.1-4.5-2.3c0.1-2.9,2.4-4.8,5-4.7c5.5,0.4,10.8-1.9,16.3-1.2c4.6,0.5,8.9-0.3,13.3-1.1
		c1,0.3,2,0.7,3,1c-2.8,1.3-6.3,1.4-7.3,5.2C526.8,122.6,525.2,122.7,524.2,122.9z"/>
	<path id="XMLID_4438_" class="cloud4_st8" d="M489.1,135c2.4-4.8,5.5-8.4,11.7-6.5c1.4,0.4,2.5-0.4,3.4-1.5c1.6,3.1,0.9,4.6-2.8,4.6
		c-2.1,0-4.2,0.7-6.3,1.4c-1.6,0.5-2.7,1.3-1.4,3.3c2.3,3.7-0.5,2.9-2.5,2.7c-1.1-0.7-2.4-1.3-2.6-2.8
		C488.7,135.7,488.8,135.3,489.1,135z"/>
	<path id="XMLID_4437_" class="cloud4_st3" d="M489.2,135.9c1.1,0.7,1.8,1.7,2,3c-0.9,1.7,0.1,3.3,0,5c-0.3,0.7-0.7,1.3-1,2
		c-2.2,0.6-2.4-1.4-3.2-2.6c-0.4-1.3-0.5-2.6-0.9-3.9C485.5,137.1,486.4,135.6,489.2,135.9z"/>
	<path id="XMLID_4435_" class="cloud4_st9" d="M531.3,76.7c1.2,0.6,2.4,1.5,3.7,0.9c5.6-2.7,7.9,0.5,9.2,5.2c1.4,2,2.6,4,5.6,3.8
		c1.6-0.1,2.1,1.8,3.3,2.6c1,0.5,2.3,0.7,3.2,1.6c1.6,2.7,4.9,2.6,7.3,4c3.7,2.1,6.4,4.6,7.1,9.2c0.6,3.6-1,4.1-3.8,3.8
		c-3.7-0.3-7.1-2.2-10.8-2.9c-2.1-0.4-4.2-0.8-6.3-0.6c-0.5,0-1,0-1.5,0c-3.7-1.5-7.8-1.2-11.6-2.4c-1.3-1.5-3-1.9-4.8-1.6
		c-1.9-0.3-3.9-0.2-5.8-0.5c-2.8-0.4-5.5-1.4-5.2-5.2c0.4-1.8,1.5-2.8,3.3-3.2c3.2,0.9,6.1-1.3,8.7-0.7c-2.6-0.7-5.6,1.9-8.7,0.4
		c-0.9-0.4-1.5-1.1-1.6-2.2c0.8-2.8,3.2-2.3,5.3-2.6c1.3-0.2,2.7-0.1,3.9-0.6c0.9-0.4,2-0.8,1.6-2.1c-0.3-0.9-1.3-0.8-2.2-0.7
		c-7,0.5-13.6-2.6-20.5-2.1c-1.4,0.1-2.6-0.6-3.1-2c-0.1-0.5,0-1.1,0.3-1.5c1.9-1.9,4.4-2.1,6.8-1.8c2.1,0.3,3.9-0.2,5.8-0.8
		C524.1,75.4,527.7,75.9,531.3,76.7z"/>
	<path id="XMLID_4432_" class="cloud4_st10" d="M521.2,76.9c-4.2,2.3-8.8-0.9-13,0.9c-4.7-0.7-8.8-3-13.3-4.2c-0.9-0.7-1.9-1.3-2.4-2.3
		c-0.1,0.5,0.1,0.9,0,1.3c-2.1,3-4.5,4-7.4,1c-0.7-2.9,0.4-5.7,0.3-8.6c0-1.1,0.2-2.3,1.9-2.1c0.8,0.1,1.7,0.4,2.4,0.1
		c4.6-1.7,8.8-1.8,12.6,1.9c-1.8,5.1,2.8,9.8,9.6,9.3c3.3-0.3,6.6-1,9.8-1.8c1.7-0.4,3.2-0.9,4.6,0.5
		C526.6,76.8,523,75.7,521.2,76.9z"/>
	<path id="XMLID_4431_" class="cloud4_st11" d="M551.3,91.8c-1.2-3.9-6.5-4.6-7.1-9c1.8,1.6,3.5,2.2,6.2,1.5c3.1-0.8,6.5-0.3,9.8-0.3
		c1.1-0.2,2.1-0.2,3,0.7c0.5,0.9,0.9,1.9,1.3,2.9c-0.1,6.8-0.4,7.1-6.7,5.6C556.2,90.3,554.4,88.3,551.3,91.8z"/>
	<path id="XMLID_4430_" class="cloud4_st12" d="M562.2,85c-0.7-0.3-1.3-0.6-2-1c6.7-2.8,13.3-3.1,20.1-0.2c-1.1,1.8-3,2.5-4.6,3.4
		C570.1,90.1,566.9,89.4,562.2,85z"/>
	<path id="XMLID_4429_" class="cloud4_st13" d="M562.2,85c1.4,0,2.6,0.4,3.7,1.2c3.6,2.6,7.1,2.2,10.3-0.7c1.2-1.1,2.5-1.5,4-1.6
		c2.5,1.3,5.1,1.2,7.7,0.6c1.8-0.4,3.6-0.7,5.3,0.4c-8.6,2.3-17.9,1.7-26,6c-3,1.2-4.1-0.7-4.9-3.1C562.3,86.9,562.2,85.9,562.2,85z
		"/>
	<path id="XMLID_4428_" class="cloud4_st14" d="M521.2,76.9c2.1-0.8,2.6-3.6,5-4c2.3,0.5,3.8,2,5.1,3.8C528,79.6,524.6,77.2,521.2,76.9z"/>
	<path id="XMLID_4415_" class="cloud4_st15" d="M488.2,142.9c0.7,1,1.3,2,2,3c0.3,0.7,0.7,1.3,1,2c-2.1,5.4-7.1,5.3-11.2,5
		c-6.3-0.4-12.6-0.4-18.8,1l0,0c-5.9,1.6-12,1.9-18,3c-0.3,0-0.6,0-1,0.1c-4.5,3.7-15.1,2.6-18.4-1.9c-1.8-2.5-1.2-4.5,1.9-5
		c2.4-0.4,4.7-1.4,7.2-1.1c1.8-0.3,3.8,0.3,5.5-0.7c6.5,0,12.5-3.2,19-2.8c0.6,0,1-0.4,0.4-0.3c0,0-0.2-0.3-0.3-0.4
		c-3.3-0.8-6.6-1.8-10-1.8c-5.1-2.6-10.4-4.1-16.1-1.9c-1.6,0.6-3.2,0.9-4.5-0.6c-0.3-0.5-0.4-1-0.3-1.5c1.9-3.4,5.2-3.6,8.5-3.8
		c5.1-0.4,10.1-1.5,15.3-1c5.6,0.5,5.8,0.4,6.8-5c1-1.6,2.7-1.5,4.2-1.7c3.5,0.6,6.6,2.2,9.8,3.7c-0.4,3.2,0.3,6.3,0.6,9.4
		c3.3,5.4,8.2,4.3,13.2,3.4C486.1,143.6,487.1,143,488.2,142.9z"/>
	<path id="XMLID_4414_" class="cloud4_st13" d="M461.2,153.9c4.9-2.4,10.3-2.6,15.5-2.9c5-0.3,9.8-1.2,14.5-3.1c0.3,0.3,0.7,0.7,1,1
		c-1.8,5.6-5.5,8.3-10.6,6.9C474.9,154,468.1,153.4,461.2,153.9z"/>
	<path id="XMLID_4391_" class="cloud4_st16" d="M581.3,2c-5.5,1.3-9,6.8-14.9,7.4c-1.6,0.2-1.9,2.1-2.5,3.5c-1.4,3.4-3.5,5.6-7.6,6.2
		c-9.1,1.3-9,1.5-9.1,10.8c-0.8,3.3-2.6,4.7-6.2,4.6c-5.3-0.2-5.6,0.5-4.2,5.8c0.3,1.1-0.1,1.9-1,2.6c-1.6,0.6-3.1,0.6-4.4-0.6
		c-2.2-2.3-2.9-4.9-2.1-8c0.5-2.1,0.9-4.4-0.3-6.4c-0.6-3.9,2.5-5.8,4.5-8.3c2.2-1.3,3.4,0.1,4.5,1.7c0.8,1.1,1.3,2.4,2.5,3
		c1.8,1,4,1.2,3.5-1.7c-0.6-3.9,1.5-5.5,4.5-6.6c5.7-2.1,11.5-3.9,14.9-9.7c0.8-1.3,2.3-1.7,3.9-1.8c2.6-0.2,4.7-1.1,6.9-2.7
		C576.1,0,579-1.2,581.3,2z"/>
	<path id="XMLID_4388_" class="cloud4_st17" d="M548.2,38.9c1.3-1.3,2.7-2.7,4-4c1.6-0.3,3.2-0.7,4.8,0.1c8.2,4,10,3.6,16.3-2.8
		c0.7-0.7,1.3-1.5,1.9-2.3c6.4-0.9,5.9,4.2,7,8c-3.2-4-6.5-4-10.6-1c-4.3,3.1-9.5,2.5-14.3,2.2c-2-0.1-3.1,0.3-4.1,1.8
		c-0.5,0.7-1.2,0.9-2,0.9c-1.3-0.3-2.2-1.2-2.9-2.2C548.3,39.4,548.2,39.1,548.2,38.9z"/>
	<path id="XMLID_4378_" class="cloud4_st9" d="M582.2,90.9c11.1-1.9,22.2-4,33.6-3c1.9,0.2,4.4-0.6,4.8,2.2c0.3,2-1.5,3.1-3.1,3.3
		c-13.5,2.3-26.2,8.9-40.3,8.4c-1.2,0.8-2.6,0.6-3.9,0.4c-3.4-0.5-5.2-3-5.6-6.1c-0.4-3.3,2.8-2.8,4.8-3.7
		C575.7,91.2,579.3,93,582.2,90.9z"/>
	<path id="XMLID_4377_" class="cloud4_st18" d="M582.2,90.9c-1.6,2.8-4.4,1.6-6.7,2.1c-2.1,0.5-5.6-0.1-5.4,3c0.1,2.9,1.9,5.7,5.7,5.9
		c0.5,0,1,0,1.5,0c-2.4,1.3-7.6,0.7-4,6c-2.2,1.1-4.6,1-7,1c-2.6,0.9-5.1,0.7-7.6-0.6c-2-1-4.3,0.1-6.4-0.3c-2-1.2-2.4-3.2-3-5.1
		c5.3-1.4,9.9,1.5,14.8,2.5c1.8,0.4,3.9,2.5,5.3,0.2c1.3-2.2-0.7-4.3-2.4-5.4c-2.9-1.9-5.4-4.6-8.9-5.4c-1.7-0.4-2.6-1.3-2.8-3
		c1-0.9,2-0.9,3,0.1c5.9,3,3.1-2.4,4.1-4.2c1.6,1,3.3,2.1,4.9,3.1C572.2,93,577.2,89.9,582.2,90.9z"/>
	<path id="XMLID_4365_" class="cloud4_st11" d="M621.2,33.9c-1.4-0.5-2.8-1.1-4.3-1.4c-2.4-0.6-4.3,0.3-5.4,2.5c-1.3,2.4,0.7,3.2,2,4.8
		c3.6,4.4,8.1,3.5,12.7,3.1c-4.3,1.4-8.7,5.1-12.8-0.6c-0.9-1.2-2.4-0.2-3.5,0.6c-2.5,1.6-4.7,1.2-6.7-1c-3.4-0.3-7.8-4-8.9,2.8
		c-0.1,0.8-0.9,0.9-1.6,0.8c-1.3-0.3-1.9-1.2-2.2-2.4c-0.8-3,2.2-8.1,5.7-9.6c0.8-0.3,1.6-0.6,2.4-0.7c5.8-0.3,11.6,0.6,17.3-1.8
		C617.9,30.3,620,31.9,621.2,33.9z"/>
	<path id="XMLID_4364_" class="cloud4_st11" d="M566.2,40.9c5.6-2.9,11.3-1.3,16.8,0c4.7,1.1,2.4,4.4,1.2,7c-3.9,2.5-7.4-0.5-11-1
		c0.9-2.2-0.1-3.3-2.2-3.8C569.3,42.8,567.1,43.2,566.2,40.9z"/>
	<path id="XMLID_4363_" class="cloud4_st9" d="M566.2,40.9c3.4-0.2,6.4,1,9.6,1.9c1.3,0.3,3.4,0,3.3,2.1c-0.1,1.9-2.1,1.8-3.5,2
		c-0.8,0.1-1.6,0.1-2.4,0.1c-0.3-0.3-0.7-0.6-1-0.9c-1-1-2.2-0.2-3.2-0.2C565.4,45.8,564.9,44.9,566.2,40.9L566.2,40.9z"/>
	<path id="XMLID_4362_" class="cloud4_st11" d="M566.2,40.9c-0.4,4.5,3.9,3.5,6,5.1c-2.7,0.6-5.3,1.3-8,1.9c-0.7-0.4-1.3-0.7-2-1.1
		c-0.8-0.6-1.7-0.9-2.7-0.8c-1.6,0.3-3.3,0.2-3.4-1.7c-0.1-1.8,1.6-2.6,3.4-2.9c1.6-0.3,3.3,0.5,4.8-0.5
		C564.9,40.9,565.6,40.9,566.2,40.9z"/>
	<path id="XMLID_4345_" class="cloud4_st1" d="M564.2,40.9c-1.9,1.6-5.1,0.2-6.7,2.9c1,1.9,4,0.8,4.7,3.1c-2.5,0.3-4.8,1.2-7,2.3
		c-3.2,1.6-6.5,2.7-10,0.8c1.3-1.8,2.4-3.7,1.5-6.1c0.6-2.3,1.6-4.1,4.5-2.9c0.7,0,1.3,0,2,0C556.9,42.4,560.6,40.3,564.2,40.9z"/>
	<path id="XMLID_4310_" class="cloud4_st13" d="M443.2,156.9c5.8-2.4,11.9-2.7,18-3c-2.7,1-5.3,2-8,3C449.9,156.9,446.5,156.9,443.2,156.9z
		"/>
	<path id="XMLID_4309_" class="cloud4_st19" d="M296.2,181.9c-1,0.3-2,0.7-3,1c-2.4-3.6-6.1-3.7-10-3.7c-2.4,0-5.6,0.5-5.3-3.7
		c0.1-0.1,0.1-0.3,0.2-0.4c0.1-0.1,0.2-0.3,0.3-0.4c-1.3-0.8-2.8-0.2-4.2-0.4c-1.7-0.2-3.4-0.2-3.3-2.6c0.8-1.5,2.2-1.9,3.7-2.3
		c6-1.5,12.2-0.8,18.3-1.5c3.1-0.3,6.2,2,8.7,4c3.1,2.6,6.3,2.7,9.8,1.6c1.6-0.5,3.2-1.1,4.8-0.1c4.5,3,9.3,5.1,14.8,5.5
		c1.3,0.1,2.5,1,3.3,2c2.4,3.7,0.1,6.3-2.1,8.9c-5.4,0.6-10.6-1-15.9-1c-1.7,0-3.7-0.7-3.3-2.8c0.4-2.2,2.1-0.4,3.3-0.5
		c1-0.1,2-0.1,2.9-0.4c1.1-0.3,2.5-0.5,2.3-2.1c-0.1-1.4-1.3-1.8-2.5-2c-3.2-0.6-6.2,0.8-9.2,1.6c-2.2,0.6-4,1.1-6-0.4
		C301.4,180.5,298.8,180.5,296.2,181.9z"/>
	<path id="XMLID_4306_" class="cloud4_st20" d="M151.2,174.9c0.1,0.1,0.3,0.2,0.3,0.4c0.7,2.2,5.9,1,4,4.9c-1.6,3.2-4,5.8-8.3,4.7
		c0,0,0-0.1,0-0.1c-1-2.8-3-4.7-5.8-5.5c-3-0.9-4.4-3.8-7.1-5c-1.3-0.6-1.4-2.1-0.9-3.5c1.2-2,3.2-1.2,5-1.4
		c1.2-0.2,2.4-0.4,2.7-1.8c0.2-1.4-0.8-2.1-1.8-2.7c-2-1.4-4.4-1.3-6.7-1.8c-3-0.6-4.6-2-2.5-5.2c3.7-1.8,7.2-4.8,11.8-3.3
		c0.8,0.2,1.4,0.7,1.9,1.3c3.2,2.9,7.4,1.8,11.1,2.8c1,0.3,1.9,0.8,2.9,1.3c3.6,5.7,3.6,5.7-1.3,11.5
		C155.1,173.3,152,172.2,151.2,174.9z"/>
	<path id="XMLID_4305_" class="cloud4_st21" d="M190.3,183.9c-1.5-0.2-2.9-0.6-4.4-0.6c-2,0-6.2-2.7-3.7,3c0.6,1.3-0.8,2-1.8,2.5
		c-2.8,1.4-5.8,1.4-8.6,0.2c-1.8-0.8-4.2-1.3-4.4-3.5c-0.2-2.1,2.5-1.7,3.7-2.5c1.3-0.8,2.4-1.8,3.2-3c2.9,0.4,2.9,0.4,1.8,4
		c2.1-2.4,2.2-4.4-1-6.1c-1.3-0.7-2.6-1.6-3.1-3.2c-0.1-0.4-0.1-0.9-0.1-1.3c0-1.1,0.1-2.1-0.2-3.2c-1.7-2.8-4.2-1.7-6.5-1.3
		c-4.5,0.5-5.2-2.7-6.1-5.9c4.1-2.2,14.4-0.5,17.9,3c1.1,1.1,2,2.2,3.1,3.3c2,1.5,3.2,3.7,5.1,5.3c1.4,2.5,3.5,4.4,5.4,6.5
		C190.7,182,190.9,183,190.3,183.9z"/>
	<path id="XMLID_4304_" class="cloud4_st22" d="M173.2,173c1.9,3.3,6.1,5,6,9.8c-0.2,5.5-2.8,7.3-7.9,4.6c-0.7-0.4-1.5-0.7-1.6-1.7
		c4.7-3.4,4.7-3.4,4.6-5.8c-2.3-1.7-4.7-0.4-7-0.1c-0.7-1.4-2-2.1-3.3-2.8c-2-1-3.2-2.5-1.4-4.8C166.1,171.3,169.8,170.3,173.2,173z
		"/>
	<path id="XMLID_4303_" class="cloud4_st23" d="M173.2,173c-3.7,0.2-7.4-0.8-11,1c0,1.5-1.2,2.1-2,3c-3-0.7-6-1.4-9-2c-2.5-3.8,0.4-4.3,3-5
		c5.2-3,10.6-0.3,15.9-0.3C171.6,169.6,173.3,170.8,173.2,173L173.2,173z"/>
	<path id="XMLID_4302_" class="cloud4_st24" d="M158.2,191.9c-2.8-0.6-4.4-2.8-6-4.9c1.3-0.4,2.3-1.2,2.9-2.4c0.9-1.8,2-2.6,3.9-1.2
		c1.6,1.3,2.2,2.8,0.6,4.6C158.6,189.1,157.6,190.2,158.2,191.9z"/>
	<path id="XMLID_4301_" class="cloud4_st25" d="M160.2,177c-0.8-2,0.1-2.9,2-3c1.1,0.3,2.2,0.8,3.3,0.9c4.7,0.3,4.2,2.3,1.8,5
		C164.3,180.2,162,179.3,160.2,177z"/>
	<path id="XMLID_4300_" class="cloud4_st21" d="M205.2,179.9c-1.9,0.7-3.9,0.5-2.3,4.1c1.4,3.2-2.4,1.1-3.7,1.9c-2.7-0.7-5.4-1.3-8-2
		c4.1-3.2,7.9-7,13.9-5.5C205.5,178.9,205.5,179.4,205.2,179.9z"/>
	<path id="XMLID_4299_" class="cloud4_st26" d="M205.4,179.1c-3.3-0.1-5.9,1.7-8.6,3.2c-1.8,1-3.5,1.7-5.6,1.7c-0.3,0-0.6,0-1-0.1
		c-0.4-0.6-0.7-1.3-1.1-1.9c5.5-3.1,10.8-6.7,17.6-4.9c0.7,0.6,0.9,1.3,0.2,2.1C206.4,179.4,205.9,179.3,205.4,179.1z"/>
	<path id="XMLID_4298_" class="cloud4_st27" d="M205.4,179.1c0.3,0,0.5,0,0.8,0c4.4-0.8,8.6-0.9,13,0.8c2.6,1,5.5,0.4,8.3,0.6
		c4.5,1.2,9.2,0.4,13.7,1.4c1.7,1.6,1.9,4-0.4,4.2c-3.9,0.3-6.5,3.1-9.9,4.2c-4.2,1.3-8.1,2.3-10.8-2.5c-0.3-0.6-1.1-0.8-1.7-0.9
		c-2.9-1.3-5.9-1.9-9-2.4c-2.4-0.4-5.3-0.9-4-4.7C205.3,179.6,205.3,179.3,205.4,179.1z"/>
	<path id="XMLID_4297_" class="cloud4_st20" d="M218.2,186.9c1.3-0.7,2.4-0.2,3,0.8c2.3,3.8,5.3,3.2,8.5,1.5c2.9-1.5,5.4-3.8,9-3.6
		c1.5,0.1,2.1-1.3,2.4-2.7c0.5-0.8,1.3-1.2,2.2-1.3c3.2,0.4,4.9,1.4,1.8,4.4c-6.3,0.1-10.7,5.6-17,5.9
		C223.8,192.5,220.4,191,218.2,186.9z"/>
	<path id="XMLID_4270_" class="cloud4_st28" d="M23.2,137.9c2.4-0.1,5,0.3,6.9-1.9c2,2.4,4,1.1,6,0.1c2.8,0.2,4.5,2.2,5.8,4.1
		c2.9,3.9,5.8,7.6,10.5,9.2c0.8,0.3,1.1,1.2,1.4,2c0,2.2-1.2,2.8-3.1,2.1c-1.3-0.5-2.5-0.8-3.4,0.5c2,5.1,5.1,9.2,10.6,10.8
		c1.8,0.5,2.8,1.5,3.4,3.2c1.1,1.8,0.9,3.5-0.9,4.6c-2,1.1-3.4-0.2-4.3-1.8c-0.7-1.2-1.5-2.1-2.7-2.7c-0.3,0-0.6-0.1-0.9-0.1
		c-4.7-5.2-11-8.5-16-13.3c-2.4-3.2-6.4-2.8-9.6-4.3C25.3,146.2,24.3,142,23.2,137.9z"/>
	<path id="XMLID_4268_" class="cloud4_st29" d="M110.3,174c-2.3,3.1-5.9,4.2-9.1,5.9c-6.1,0-10.5-3.5-15-7c-0.7-0.3-1.4-0.6-2-1
		c-2.3-1.2-4.1-2.4-1.6-5.2c2-2.2,0.6-4-1.6-4.4c-3.4-0.6-7.1-2.2-10.4,0.5c-1.9-2.9-2.8-6.8-7.3-7c-2.5-2.8-7.1-1.2-9.4-4.3
		c0.8-3.8,3.8-3,6.4-3c7.6,3.2,14.1,8.9,22.8,9.4c4,5.5,9.4,9.2,15.6,12c2,0.9,3.4,2.2,5.8,1.3c2.3-0.9,4.6-0.8,5.8,1.9
		C110.3,173.5,110.3,173.7,110.3,174z"/>
	<path id="XMLID_4267_" class="cloud4_st30" d="M141.3,180.8c-3-5-8.7-3.8-13.1-5.8c-0.8-0.4-2.4,0.2-2.9-0.3c-4.8-4.8-9.9-3.2-15-0.8
		c0,0-0.1-0.1-0.1-0.1c-0.8-1.6-2.2-3-1.4-5c4.5-5.2,4.5-5.2,10.7-2.8c3.9,1.5,7.8-0.5,11.7,0.5c1.7,0.9,3.8,1.5,3.1,4.2
		c2.7,2.6,5.1,5.4,8.3,7.4c2.4,1.5,4.4,3.4,4.7,6.6c0,0-0.5,0-0.5,0s-0.5,0-0.5,0C145.6,182.3,143.6,181.4,141.3,180.8z"/>
	<path id="XMLID_4266_" class="cloud4_st31" d="M37.2,153c3.4,4.6,10.6,4.5,13.2,10.4c0.6,1.5,1.8,2.7,2,4.4c-2.7-0.6-5.4-1.3-8.1-1.9
		c-1-1-2-2-3-3c-0.2-2.4-1.4-4.1-2.9-5.9C37.3,155.9,35.4,154.9,37.2,153z"/>
	<path id="XMLID_4265_" class="cloud4_st32" d="M54.2,151.9c3.7-0.2,6.7,1.2,9,4c-3-0.7-6.1-1.5-9.2-0.3c-2.7,1.1-4.4-2.1-6.9-1.7
		c-1.6-1.5-0.4-1.8,0.9-1.9c1.7-0.2,3.4,0.9,5.1-0.1C53.6,151.6,53.9,151.6,54.2,151.9z"/>
	<path id="XMLID_4264_" class="cloud4_st33" d="M108.2,182.9c-1.4-2.3-0.1-3.3,1.9-3.8c3.1-0.8,6.1-0.6,9,0.8
		C116,182.7,112.2,183.2,108.2,182.9z"/>
	<path id="XMLID_4263_" class="cloud4_st8" d="M53.2,167.9c0.8,0.5,1.9,0.8,2.5,1.5c2.9,3.4,4.6,2.4,5.5-1.5c1.1,0.8,1.8,1.9,1.9,3.3
		c0.1,1.7,0.3,3.5-1.7,4.2c-1.6,0.6-3-0.1-3.9-1.4C56,172.1,54.6,170,53.2,167.9z"/>
	<path id="XMLID_4262_" class="cloud4_st34" d="M278.2,175.9c3,1.6,6.1,1.1,9.3,0.7c5.4-0.7,6.8,0.8,5.7,6.4c-1,0.3-2,0.7-3,1
		c-5.3,0.3-10.6,0.4-15.6-1.9c-1.4-0.7-3.6-1.6-4,0.9c-0.7,5.2-4.6,3.4-6.6,2.4c-2.7-1.4-5.5-1.7-8.2-2.5c-1.2-2.5,0.4-3.7,2.3-4.6
		c2.1-1,4.2-2.1,6.2-3.2C269.1,174.1,273.8,173.2,278.2,175.9z"/>
	<path id="XMLID_4261_" class="cloud4_st35" d="M256.3,182.9c2.3,0,4.6,0.2,6.8,1c2.9,0.9,5.9,2.4,7.5-2.3c0.8-2.4,3.9-2.1,5.8-1.2
		c4.4,2.2,9.3,2.4,13.9,3.6c-5.5,1.4-11,2.8-16.4,0c-0.8-0.4-1.6-1.4-2.3,0.2c-2,5.4-6.1,3-8.9,1.6c-3.6-1.9-6.6-2.6-10.1-0.2
		c-2.3,1.6-4.9,0-7.3,0.4c0.7-1.9,0-3-2-3.1c0-3.1,2.5-2.8,4.4-3.3C250.2,181.5,253.9,180.6,256.3,182.9z"/>
	<path id="XMLID_4228_" class="cloud4_st36" d="M461.2,128.9c-1,0-2,0-3,0c-2.8,1.6-9.3,1.2-11.1-0.8c-1.3-1.3-1.6-2.9-0.8-4.6
		c0.7-1.5,1.2-2.8-0.3-4c-2.8-2.3-7.1-1.9-9.4-5.1c-0.4-1.3,0.7-2.6-0.2-3.8c-1.8-2.5-2.2-4.8,0.7-6.8c2.7-1.9,7.5-1.6,9.5,1.1
		c1.4,1.9,2.7,2.7,4.9,2c4.9,4,9.1,8.9,14.8,11.7c5.3,2.6,9.7,7,15.8,7.8c3.3,0.4,3.2,3.4,4.3,5.5c1,1,2,2,2.9,3c0,0.3,0,0.6,0.1,1
		c-2.7,2,0.5,4.8-1,7c0,1.4-0.2,2.8-1,4c-4.8-5.5-11.8-4.6-18-6c-0.1-2.4,0.5-5.3-3.6-4.4c-0.7,0.2-1.7-0.4-1.9-1.3
		c-0.2-1.3,0.9-1.6,1.8-1.8c1.9-0.5,3.8-1,5.7-1.5C468.3,129.7,465.5,126.7,461.2,128.9z"/>
	<path id="XMLID_4227_" class="cloud4_st1" d="M507.3,109.9c1.2,2.8,0.3,4.5-2.6,5.1c-2.1,0.5-4.2,1.4-6.3,1.5c-4.3,0.2-8.5,0.9-12.1,3.4
		c-4.3-0.5-8.2-1.9-12-4c-2.4-1.3-5-1.5-7.7-1.6c-1.6,0-3.3,0-4.9-0.5c-1.6-0.4-2.7-1.3-2.8-3c-0.1-1.7,1.1-2.2,2.5-2.5
		c1-0.2,1.9-0.5,2.8-0.8c6.9-5,15.2-4.9,23.1-6.1c3.5-0.6,7.4-0.5,9.5-4.2c0.7-1.6,0.5-2.6-1.5-2.7c-1.8-0.1-3.6-0.1-5.5-0.1
		c-1.8,0-3.4-0.4-3.4-2.7c3.5-6.1,7.1-7.4,13.1-3.7c2.6,1.6,5.6,0.4,8,2c0.8,0.7,1.4,1.5,1.6,2.5c0.2,1.9-1,2.9-2.3,3.9
		c-1.9,1.4-0.7,2.4,0.6,3.4c2.9,2.4,2,5.5,0.8,8c-1.3,2.8-4.3,1.9-6.5,1.2c-1.8-0.5-3.2-0.4-4.6,0.6c-5.8,0.1-11.7,0.6-17.5,0.3
		c-0.7,0.1,0.1,0.7-0.1,0.1c7.2-0.4,14.4,0.4,21.5-1.1C503.1,109.9,505.4,108.8,507.3,109.9z"/>
	<path id="XMLID_4226_" class="cloud4_st7" d="M465.2,108.9c-1.4,0.5-2.7,1-4.1,1.5c9.5,0.2,17.8,3.6,25.1,9.5c-2.5,0-4.9-0.2-7.3,0.7
		c-1.1,0.4-2.3,0.9-2,2.4c0.3,1.5,1.5,1.2,2.8,1c7-1,9.1,1.5,6.5,8c-6.8-5.6-15.4-7.6-23-11.7c-5.5-3-8.9-7.4-12.1-12.3
		c-1.5,0.9-2.7,0.4-3.2-1c-0.9-2.4,1.3-3.4,2.7-4.7c2.9-1.1,4.2,1.7,6.2,2.6C459.4,106.8,462.9,106.7,465.2,108.9z"/>
	<path id="XMLID_4225_" class="cloud4_st1" d="M507.3,109.9c-2.4,0-4.7,0-7.1,0c-2.1,1-3.1,0.3-3-2c0.9-1.8,2.2-1.8,3.6-0.8
		c2,1.4,4.5,2.8,6.1,0.5c1.3-1.9,1.3-4.7-0.7-6.8c-1.3-1.7-0.4-2.8,1.1-3.5c1.8-0.9,4-0.5,4.8,1.1c2.6,4.9,8.2,6.2,11.6,10.1
		c3.3,0.9,6.6,2.7,8.9-1.9c0.7-1.3,2.8-1.3,4.2-1c3.9,0.9,7.6,0.4,11.3-0.7c2-0.6,3.2,0.3,4.1,1.8c2.7-1.1,5.4-1.5,7.9,0.7
		c1.8,1.5,4,1.3,6.1,1.4c-1.5,0.9-3.1,1.1-4.8,1c-8.9-0.5-17.3,2.3-25.8,4.3c-4.9,1.2-10.2,1.2-15.3,1.5c-2.6,0.2-3.5-1.8-4.5-3.9
		C513.4,106.9,511.4,106.5,507.3,109.9z"/>
	<path id="XMLID_4224_" class="cloud4_st37" d="M441.2,50.9c0,0.3,0,0.6,0.1,0.9c0.3,0.4,0.5,0.7,0.7,1.2c0.2,1.5,0.2,2.9,0.4,4.4
		c0.8,5.2,0.2,5.8-5.2,5.7c-1.4,0-2.8-0.2-3.2,1.5c-0.4,1.6,1,2.3,2.3,2.7c2,0.6,3.7,1.5,4,3.8c-0.5,2.4-2,4.5-2.5,7
		c-1,4.5-5.4,5.9-9,3c-2.4-2-3.9-4.9-6.4-6.9c-1.3-1-1.3-2.8-0.2-4.1c1.7-2,0.1-3.3-0.8-4.8c-1-2.5-2.5-4.3-5.5-3.6
		c-1.7,0.4-4.3,0.2-3.5,3.3c0.3,0.3,0.5,0.6,0.7,1c1,1.2,2,2.4,2.7,3.8c0.5,5.3-1,7.6-6.3,9.5c-1.9-0.2-3.5-1.6-5.4-1.9
		c-2.7-1-5-2.7-7.8-3.5c-3-0.9-4.5-3.6-4.2-7c0.4-1,1.5-1.3,2.1-2.1c2.1-3.3,1.1-5-2.7-5.5c-1.6-0.2-3.2-0.7-4.6-1.6
		c-2.9-2-6.4-1.8-9.6-2.3c-6.9-1.1-7.8-2.9-4.1-8.7c1.4-1.7,3.3-1.4,5.1-1.3c2.2-0.4,3.8,2.2,6.2,1.3c-0.1-3-5.4-1.4-4.6-5.2
		c3.9-4.4,8.8-3,13.3-1.8c3.9,1.1,7.5,2.6,11.5,0.8c0.6-0.3,1.3,0.3,1.8,0.7c0.8,0.7,0.9,1.7,1.2,2.6c1.2,5.3,6.4,4.4,9.9,6.3
		c3.6,1.5,5.1,5.6,8.9,6.9c-2.4-2-7-2.7-4.8-7.5c3.5-1.9,6.4,1.3,9.7,1.3c1.8,0,3.4,0.3,4.8-1.1c1.3-0.4,2.5-0.6,3.7,0.1
		C440.4,50.2,440.8,50.6,441.2,50.9z"/>
	<path id="XMLID_4222_" class="cloud4_st38" d="M441.2,53c0-0.4,0-0.7,0-1.1c0.7,0.4,1.3,0.7,2,1.1c3.5,3.9,7,7.7,13,4.8
		c3.3,0.1,5,2.5,7.2,4.9c-2.8-2.9-4.5-5.7-3.1-9.5c0.9-1.2,2.2-0.7,3.3-0.6c2,0.4,3.8,1.3,6.1,1.3c3.1,0,6.1,1.3,7.8,4.7
		c1.5,2.9,4.2,5,5.9,7.8c0.4,0.6,0.9,1.1,1.1,1.9c-0.2,5.5-1.3,6.2-6.6,4.4c-4.2-1.5-6.1-0.7-8.2,3.3c-0.4,0.4-0.8,0.6-1.2,0.9
		c-6.2,0.8-8.1-0.4-9.7-6.2c-1.1-4-3.8-5.6-7.6-6C445.4,63.7,441.5,61.6,441.2,53z"/>
	<path id="XMLID_4220_" class="cloud4_st39" d="M481.3,67.8c-1.4-4-5.6-6.1-6.7-10.5c-0.4-1.7-3.1-2.7-5.2-1.7c-3.1,1.5-4.2-0.5-5.3-2.7
		c1.9-0.7,3.7-2.6,6-1c6,1.8,9.8,7,15.1,9.9C486.1,65.3,483.6,66.5,481.3,67.8z"/>
	<path id="XMLID_4219_" class="cloud4_st40" d="M470.2,51.9c-2,0.3-4,0.7-6,1c-1,0.3-2,0.6-3.1,0.9c-0.1,3.3-1.3,5.7-4.9,6.1
		c-5.8,1.5-9.7-0.6-13-7c1.6,1.1,3.1,2.4,4.8,3.4c3.1,1.7,6.2,0.7,8-1.6c3.3-4.2,8.2-2.5,12.1-3.9C468.7,50.6,469.5,51.5,470.2,51.9
		z"/>
	<path id="XMLID_4218_" class="cloud4_st32" d="M481.3,67.8c-0.7-3.4,2.5-4.1,4-6c0.6,0.3,1.3,0.7,1.9,1c-0.3,3.3-0.7,6.7-1,10
		c-3,0.2-1.7-3.7-4-4.1C482,68.5,481.7,68.2,481.3,67.8z"/>
	<path id="XMLID_4217_" class="cloud4_st41" d="M508.2,78.9c5.8-0.5,11.5-0.6,17.1,1.4c1.9,0.7,3.9,0.7,5.8-0.1c1.2-0.5,2.5-1.3,3.8-0.5
		c1.8,1.1,4.2,1.9,4.6,4.2c0.4,2.4-2.5,2.2-3.8,3.2c-3.8,3-8.3,1.5-12.4,1.9c-4.4,0.6-9.1-1.6-13.3,1.2c-1.4,0.5-2.9-0.4-4.4,0.4
		c-2.7,1.4-5.1,1.7-6-2.2c-0.4-1.6-2.1-1.7-3.3-1.8c-2.3-0.3-3.8-1.7-5.4-3c-1-1.1-1.2-2.3-0.8-3.7
		C496.1,73.4,503.4,73.1,508.2,78.9z"/>
	<path id="XMLID_4216_" class="cloud4_st18" d="M522.2,110.9c-1.8-3-4.7-4.5-7.8-5.8c-2-0.8-4.5-0.9-4.2-4.4c0.2-2.1-1-2.1-4,0.2
		c-3,1.3-3-1.1-3.3-2.8c-0.3-1.8-0.4-3.8,2-4.5c1.1-0.3,2.2-0.5,3.4-0.7c4.9-0.9,9.7-1.5,14,2c1.3,2.4,3.4,2.9,5.8,2.5
		c1.8-0.3,3.5-0.3,5.2,0.5c0.5,2.2,4.4,3.3,2.4,6.2c-1.4,2-3.6,4.6-5.4,5.1C527.7,109.9,525.2,112.2,522.2,110.9z"/>
	<path id="XMLID_4215_" class="cloud4_st1" d="M522.2,110.9c1.4-2.6,3.5-3.7,6.4-2.8c0.6-3.8,7.5-4.8,4.6-10.2c1.3,0.7,2.7,1.3,4,2
		c3.5,2.8,7.4,4.6,12,3c0,0,0,0,0,0c1.9,0.7,2.6,2.2,3,4c-1.8-0.8-3.6-0.5-5.3,0.3c-2.5,1.2-5,1.4-7.7,0.9c-2.8-0.5-5.7-0.5-7,3
		c-0.7,1.8-1.9,2.4-3.4,1C526.9,110.3,523.9,114.1,522.2,110.9z"/>
	<path id="XMLID_4214_" class="cloud4_st42" d="M508.2,78.9c-4.2-2.9-9.4-3.1-13.5-0.2c-1.1,0.8-2,1.7-3.5,1.2c-5.8-0.9-11.6-1.1-17.6-0.3
		c-2.2,0.3-5.8-0.6-5.4-4.7c0.3,0,0.7,0,1,0c1.4-2.8,4.2-3.4,6.7-2.9c3.5,0.8,7.2,0.3,10.5,2.2c3.6,2,5.9-1.7,8.9-2.3
		c4.5,1.7,9.8,1.5,13,5.9C508.2,78.2,508.2,78.6,508.2,78.9z"/>
	<path id="XMLID_4213_" class="cloud4_st43" d="M522.2,94.9c-4.7-0.5-9.4-0.7-14-2c-0.3-0.7-0.7-1.3-1-2c0.1-1.2,1.3-1.3,2-2
		c4.7-3.3,9.3-2.6,14,0c0.7,0.3,1.3,0.7,2,1c0.8,1,0.9,2,0,3C524.2,93.6,523.2,94.3,522.2,94.9z"/>
	<path id="XMLID_4212_" class="cloud4_st18" d="M549.2,102.9c-5.3,5.4-6.7,5-12-3C541.2,101,545.5,100.9,549.2,102.9z"/>
	<path id="XMLID_4211_" class="cloud4_st18" d="M525.2,92.9c0-1,0-2,0-3c2.6,1,5.2-0.1,7.9-0.2c2.5,0,5.1-1.8,8.4,0.6
		C535.8,92.7,530.3,91.7,525.2,92.9z"/>
	<path id="XMLID_4210_" class="cloud4_st13" d="M558.2,92c-1,0-2,0-3-0.1c-1.3,0-2.6-0.1-3.9-0.1c0.1-1.9,0.4-3.9,2.6-4.1
		c2.1-0.2,4.3,0.5,5.7,2.3C560.9,91.6,559.3,91.8,558.2,92z"/>
	<path id="XMLID_4209_" class="cloud4_st44" d="M532.2,51.9c-1.6-0.5-3.1-1-4.7-1.5c-2-0.6-4.7-1.2-5.7,0.3c-4.3,6.6-10.5,3.2-15.5,2.5
		c-6.6-0.9-13.2-3.2-18.1-8.4c-0.2-0.2-0.4-0.5-0.4-0.8c0-0.3,0-0.5,0.1-0.5c1.7-2.2,3.7-0.6,5.4-0.1c2.9,0.8,4-0.3,4.3-2.9
		c0.3-0.7,0.7-1.4,1.4-1.8c3.3-1.7,4.9-5.2,10.1-4.6c5.9,0.7,9,2.6,10.4,8c0.2,0.5,0.3,1,0.4,1.5c-0.7,2.6,0.6,2.9,2.7,2.2
		c0.8,0,1.6-0.1,2.4-0.1C529,46.1,531.3,48.1,532.2,51.9z"/>
	<path id="XMLID_4208_" class="cloud4_st45" d="M488.2,43.9c0,0.3,0,0.7,0,1c-1,0-2,0-3,0c0,0,0,0,0,0c-0.6-0.4-1.2-0.5-1.8-0.5
		c-2.5,0-4.8-0.8-4.2-3.8c0.6-2.9,2.9-2.3,5-1.7c0.7,0,1.3,0,2,0c2.7-2.5,3.7-6.2,5.1-9.3c2-4.1-2.2-5-5.2-6
		c-0.6-0.5-1.1-1.1-1.3-1.9c0.9-4.7,3.7-6,7.4-3.4c2.7,1.8,4.9,4.3,8,5.5c0.7,0.4,1.3,1.1,1.6,1.8c0.3,1.5,1.1,2.7,1.5,4.1
		c0.9,2.7-0.4,5.1-2.7,5.4C494.9,36,491.9,40.3,488.2,43.9z"/>
	<path id="XMLID_4207_" class="cloud4_st11" d="M532.2,51.9c-2.2-2.3-4.9-3.2-8-3c-0.7-2.4,1-3.1,2.7-3.1c2.7,0.1,4.1-1.4,5.5-3.4
		c1.7-0.3,3.4,0.4,5.1,0.5c2.4,0.7,4.8,1.4,7.3,0.6c1.5-0.5,2.6,0.2,3.5,1.3c1.4,1.9,3.3,1.4,6.7,0.8c-3.2,4-6.6,3.8-9.7,4.2
		C540.6,48.7,536.8,53,532.2,51.9z"/>
	<path id="XMLID_4206_" class="cloud4_st1" d="M495.2,71.9c-1.7,2.5-3.9,4.4-7,3.4c-6.3-2-12.7-1.4-19-0.4c-1.1-1.3-3.4-2.2-2.2-4.4
		c1-1.8,2.8-1.5,4.4-1c2.9,0.8,3.1-1.4,3.8-3.8c1.4,1.9,2.4,3.7,3.8,4.9c2,1.7,3.8,1.8,3.2-1.8c2.3,0.5,2.8,2.6,4,4.1
		c2.8,1.9,4.5,0.2,6-2l0,0C493.2,71.3,494.2,71.6,495.2,71.9z"/>
	<path id="XMLID_4205_" class="cloud4_st46" d="M492.3,71c-1-1.6-3.5-3-2-5c1.1-1.5,3.3-0.6,5.1-0.1C495.3,68.3,493,69.1,492.3,71
		C492.3,71,492.3,71,492.3,71z"/>
	<path id="XMLID_4176_" class="cloud4_st47" d="M447.3,117.9c3.4,0.8,6.4,1.7,2,5.4c-2.4,2.1-1,3.5,1.2,4.3c2.5,1,5.1,1.3,7.7,1.3
		c2.6,6.5,1.8,7.9-5.3,7.9c-8.6,0.1-17.3-1.3-25.6,2.1c-5.7,2.2-11.9,2.6-17.8,4c-1,0.2-2-0.3-2.7-1.1c-2.9-3.5-6.7-3-10.5-2.1
		c-7.6,1.5-15.3,0.4-22.9,0.7c-0.7,0-1.6-0.4-2.1-1.1c-0.3-0.5-0.4-1-0.3-1.6c1.6-3,4.8-1.7,7-2.6c1.2-1.2,0-1.9-0.2-2.8
		c-0.9-2.9,0.2-4.3,3.1-5.1c6.1-1.8,11.7,0,17.3,2.1c6.3-0.4,11,3.9,16.6,5.7c3.8,1.2,7.1,1.1,10.6-0.2c7.9-1.6,15.8-3.6,23-1.5
		c-1.8,0.1-4.4-0.8-7.1-1.1c-3-0.2-3-1.9-2.4-4.5c1-4.5,4.5-7,7.2-10.1C446.5,117.5,446.9,117.5,447.3,117.9z"/>
	<path id="XMLID_4175_" class="cloud4_st44" d="M396.2,136.9c2.7-3,5.4-2,7.8,0.2c4,3.7,8.3,4.4,13.3,2.6c3.2-1.1,6.6-0.8,9.9-0.8
		c0,0.3,0,0.7,0,1c-1.3,3.7-4.9,2.5-6.9,3.5c-1.2,0.2,0,0.7-0.4,0.2c-0.1-0.2,0-0.3,0.3-0.3c4.1-0.4,8.2-1.1,12.1-2.6
		c5.4-2,10.5,1.1,15.8,1.4c3.9-2.3,7.3,0.7,11,1c0.4,2.5-1.9,2.6-3.1,2.8c-7.9,0.9-15.9,0.9-23.7,2.8c-0.6,0.2-1.3-0.1-1.9-0.4
		c-0.5-0.3-0.9-0.7-1.2-1.2c-2.3,0-4.6-0.1-6.9-0.1c-2.8,0-4.9,0.6-4.7,4.2c0.2,2.5-1.6,3.4-3.7,3.8c-2.9,0.6-5.8,1.2-8.7,1.9
		c-2.4,1.1-3.3-0.6-3.9-2.3c-0.6-1.6-1-3.1-2.7-3.9c-2.8-1.2-6.1-1.8-6.1-5.9c0.4-0.9,1.2-1.7,2.1-2
		C398.1,141.5,398.2,139.5,396.2,136.9z"/>
	<path id="XMLID_4174_" class="cloud4_st48" d="M448.2,141.9c-2.4,2.7-5.3,2.3-8.2,1.1c-3.6-1.5-6.8-1.1-10.4,0.7
		c-5.2,2.5-10.8,1.4-16.3-0.2c5.1,0.3,9-3.5,14-3.5c4.5-0.1,8.5-2.9,13.1-1.9C443.3,138.6,446.9,138.1,448.2,141.9z"/>
	<path id="XMLID_4173_" class="cloud4_st49" d="M469.2,140.9c6.7-4.5,17.3-1,18,6C478.7,149.2,472,147,469.2,140.9z"/>
	<path id="XMLID_4172_" class="cloud4_st50" d="M430.2,146.9c0.9-1.2,2.3-1.1,3.6-1.3c8.5-0.9,17-1.8,25.5-2.7c1.6,0.1,3.3,0.2,4.9,0.4
		c0.6,0.1,1.3,0.7,1.1,1.4c-0.2,0.5-0.8,1.2-1.2,1.3c-8.4,0.5-16.3,4.2-24.8,3.9c-1.4-1.6-3.4-0.9-5.2-1.1
		C432.5,148.5,430.7,149.1,430.2,146.9z"/>
	<path id="XMLID_4171_" class="cloud4_st6" d="M461.2,128.9c-0.7-1.2-1.5-2.5-2.2-3.8c6.1-1,10.7,1.6,12.2,6.8
		C467.5,132.3,464,131.7,461.2,128.9z"/>
	<path id="XMLID_4170_" class="cloud4_st51" d="M430.2,146.9c2.4-0.1,4.9,0,7.3-0.3c3.6-0.4,3.1,1.2,1.8,3.3c-1.6,0.8-3.2,1.1-5,1
		c-2.3-0.5-6.2,1-5-4C429.5,146.9,429.9,146.9,430.2,146.9z"/>
	<path id="XMLID_4144_" class="cloud4_st1" d="M537.2,43.9c-1.7-0.3-3.3-0.7-5-1c-4.7,2.3-8.4,0.5-8-4.3c0.4-3.9-0.5-7.1-2.1-10.4
		c-0.3-1.7-0.5-3.4-0.3-5.1c1.1-3.4,4.7-3.9,6.9-6c1.9,0.5,3.8,0.8,5.5,1.9c0,0.4,0,0.7,0.1,1.1c-0.8,2.8-3.5,4.7-3,8
		c-1.1,2.4-1.6,5-1.9,7.7c-0.3,2.7,0.5,4.3,2.9,5.4c1.2,0.8,2.6,1,4,1c0,0,0,0,0,0C536.9,42.5,537.8,42.8,537.2,43.9z"/>
	<path id="XMLID_4143_" class="cloud4_st52" d="M532.2,40.9c-4.2-0.2-3.8-3.7-4.6-6.4c-1-3.4,1.1-5.1,3.6-6.7c0.7,2.2,0.9,4.5,0,6.7
		C530.1,36.9,530.8,39,532.2,40.9z"/>
	<path id="XMLID_4140_" class="cloud4_st9" d="M537.2,14.9c0.9,1.5,2,2.7,4,2c-0.3,2,1.8,3.3,1.9,5.3c-2.6,0.4-3.4-1.8-5-2.8
		c-1.2-0.8-2.3-2.8-4-0.6c-2.1,1.9-4.1,3-5-1c-2.3-2.3-6.1-3.3-6.2-7.5c0.2-0.8,0.7-1.4,1.4-1.8c1-0.4,1.9-0.8,3-0.5
		c1.9,1.5,3.8,3,6.4,3.5C535.7,11.9,537.3,12.6,537.2,14.9z"/>
	<path id="XMLID_4137_" class="cloud4_st3" d="M537.2,43.9c-0.3-0.7-0.7-1.3-1-2c4.5,0.9,8.8,1.1,12.1-3c1.3,0.3,2.2,0.9,3,2
		c-1.9,0.7-2.6,2.2-3,4C544.5,44.6,540.7,46.2,537.2,43.9z"/>
	<path id="XMLID_4081_" class="cloud4_st18" d="M73.2,131.9c1.9,0,3.9,0,5.8-0.1c6.1,0.5,9.3,3.5,8.6,8.1c-0.6,3.9-3.3,5.2-6.2,2.6
		c-2-1.8-3.9-2.2-6.3-2.1c-5.2,0.2-10.3-0.5-15.4-0.2c-2.2,0.1-3.9,1-5,3c-0.4,0.4-0.8,0.8-1.3,1.1c-4.8,1.2-13.6-2.7-15.5-6.8
		c-1.4-3.1,0.9-5.4,5.5-5.5c5.7-2.9,11.6-0.5,17.4-0.8C64.8,130.8,69,132.4,73.2,131.9z"/>
	<path id="XMLID_4080_" class="cloud4_st11" d="M23.2,137.9c2.7,1.2,7.3,1,4.5,6.2c4.2,2.3,1.6,4.1-0.5,5.9c-5.9,3.4-11.5,2-18-4.1
		c-1.1-1.8-2.1-3.7-2.2-5.9c0.6-2.8,2.4-2.1,4-1.3c1.1,0.5,2,1.7,3.1,2.3l0,0c2.2,2.8,4,1,5.7-0.5c0.8-0.8,1.3-1.9,2.4-2.4
		C22.6,137.9,22.9,137.9,23.2,137.9z"/>
	<path id="XMLID_4079_" class="cloud4_st7" d="M43.3,131.8c-6,4.9-5.9,5.5,1,8.5c2.9,1.3,5.6,2.9,8.9,2.5c1.9-0.2,2.8,2.2,4.8,1.6
		c1.8-0.5,3,0.1,3.6,1.9c0.7,1.9,0.1,3.3-1.4,4.5c-2.2-1-4.2-0.7-6,1c-0.3,0-0.7,0.1-1,0.1c-6.2-1-10.7-4-12.8-10.4
		c-0.6-1.8-2.8-3.1-4.2-4.7c-2.9,0-3.5-2.2-3.6-4.3c-0.1-2.1,2.1-2.1,3.5-2.6c0.7-0.3,1.5-0.6,2.2-1c0.3,0,0.6,0,0.9,0
		C40.6,129.9,41.9,130.9,43.3,131.8z"/>
	<path id="XMLID_4077_" class="cloud4_st10" d="M9.3,145.8c5.5,3.4,11.2,6,18,4.1c3.5,0.3,7.3-0.2,9.9,3c0.4,3.7,5.7,5.4,4,9.9
		c-1.4-3.2-3.8-5.5-6.9-7c-1.4-2.7-3.7-3.7-6.5-3.3c-6.1,0.8-11.9-0.4-17.5-2.7C9.9,148.5,9.6,147.2,9.3,145.8z"/>
	<path id="XMLID_4076_" class="cloud4_st53" d="M38.3,129c-1.7,2.4-6.9,3.9-2,7.9c-0.2,2.2,0.1,5-3.2,4.8c-3.6-0.3-2.5-3.5-2.9-5.7
		c3-1.9-0.7-5,1.2-7.1C33.6,129,35.9,129,38.3,129z"/>
	<path id="XMLID_4075_" class="cloud4_st31" d="M61.2,74c-2.6-2.4-1.8-7.8-6.9-8.1c0,0,0,0,0,0c0.6-1.8,0.7-4.4,3.3-4.2
		c2.1,0.2,3.1,2.2,3.8,4.1c0.6,1.7,1.3,3.4,1.9,5.1C64.2,73,64.5,74.7,61.2,74z"/>
	<path id="XMLID_4074_" class="cloud4_st23" d="M91.2,72.9c0.6-1.4,1.9-0.9,3-1c1,2,2.3,3.7,4.5,4.4c1.3,0.4,2.4,0.6,1.4,2.2
		c-0.8,1.3-1.8,2.4-3.6,1.3C93.7,78.2,92.1,75.9,91.2,72.9z"/>
	<path id="XMLID_4073_" class="cloud4_st30" d="M5.2,153.9c0.7,1,2.7,1.5,1.7,3.1c-0.9,1.5-2.7,1.9-4.4,1.5c-2.7-0.6-2.6-2.6-2.3-4.7
		C1.8,152.7,3.5,153.7,5.2,153.9z"/>
	<path id="XMLID_4072_" class="cloud4_st54" d="M61.2,74c1.3-0.6,1.9-1.7,2-3.1c1.6,0.2,3.5,0.1,3.4,2.4c-0.1,1.4-0.4,3.2-1.9,3.6
		C62.4,77.7,61.9,75.6,61.2,74z"/>
	<path id="XMLID_4071_" class="cloud4_st55" d="M22.3,138c-0.9,1.4-1.4,3.1-2.6,4c-1.9,1.4-4.4,3.2-5.4-1.1C17.2,140.7,19.6,139,22.3,138z"
		/>
	<path id="XMLID_4070_" class="cloud4_st16" d="M14.2,141c-2.4,0.2-4.4-2.8-7.1-1c-0.6-4.6,2.5-2.8,4.4-2.4C13,137.9,13.6,139.6,14.2,141z"
		/>
	<path id="XMLID_4038_" class="cloud4_st56" d="M353.2,176.9c0,1.7,2.5,3.3,0.6,4.9c-1.4,1.2-3.3,0.3-4.7-0.4c-5.6-2.4-10.5,1.7-15.9,1.4
		c-1.4-1.3-3.2-1.6-5-2c-8.5-2.1-16.7-6.2-25.9-4.5c-0.1,0-0.4,0-0.5-0.1c-8.9-10.4-20.4-3.3-30.6-4.4c-0.3-0.1-0.5-0.2-0.8-0.2
		c-1.3-1.1-3.4-1.9-2.5-4.2c0.8-2,2.7-2.7,4.7-3c1.8-0.3,3.6,0.3,5.3-0.3c2.1-0.7,4.2-0.6,6.4-0.7c1.3,0,2.9,0.1,3.8-0.9
		c5-5.6,11.5-2.2,17.3-3.1c1.1-0.2,2.3,0.4,2.4,1.3c0.3,2.8,2.7,2.4,4.3,3.2c3.1,2,6.1,4.2,10.3,2.3c0.9-0.4,2.5,0.4,3.7,0.6
		c2.2,1.5,4.9,1.6,7.3,2.3c1.9,0.5,3.4,0.6,4.6,2.8c1.8,3.2,4.3,0,6.5-0.2c2-0.2,3.1,1.3,4.6,2.1
		C350.6,174.9,351.9,175.9,353.2,176.9z"/>
	<path id="XMLID_4036_" class="cloud4_st28" d="M312.2,163.9c-5.2-1-9.9-4.5-15.5-2.9c-1.3,0.4-6.6-2-2.9,3.3c1,1.4-1.2,1.5-2.2,1.5
		c-4.4,0.1-8.9,0.1-13.3,0.1c-1.1,0.7-2.1,0.6-3.2,0.1c-1.9-2.7,0.2-4,1.9-5.5c1.4-1.2,3.2-1.4,4.9-2c1.1-0.2,2.2-0.2,3.2-0.2
		c4.8,0,9.5,0,14.3-0.1c3.9-0.1,6.8-1.8,9-5c0.5-1.2,0.6-2.6,1.9-3.4c5-0.2,10,3.4,11,7.9c-3,0-5.9,0.3-8.6,1.5
		C309.5,160.7,309.2,162.1,312.2,163.9z"/>
	<path id="XMLID_4035_" class="cloud4_st57" d="M321.2,157.9c-4.3-1.3-6.6-5.8-11-7c-1.5,1.7-3.2,1.8-5,0.4c-0.8-1.3-0.2-2.2,1-2.7
		c0.8-0.3,1.7-0.2,2.4-0.6c1.5-1,4.6-0.9,4-3.5c-0.6-2.6-3.4-1.2-5.2-1.5c-1.6-0.8-2.3-2-2.1-3.8c1.9-2,3.4-4.3,5.9-5.7
		c1.6,0.1,2.3,1.9,3.8,2.2c5.4,4.7,11.1,9.1,14.6,15.6c0.1,0.5,0.2,1.1,0.3,1.6c-0.5,5-1.6,5.8-6.8,5.1
		C322.5,157.9,321.9,157.9,321.2,157.9z"/>
	<path id="XMLID_4034_" class="cloud4_st58" d="M323.2,158c4.2,0.1,5.3-2.3,5-6c2.3-2,5.6-1.7,8-3.5c2-0.2,3.3,0.6,3.9,2.5
		c1.1,0.9,2.6,1.3,3,2.9c-5.3,1.3-10.9,1.5-15.8,4.6C326.1,159.3,324.5,158.8,323.2,158z"/>
	<path id="XMLID_4033_" class="cloud4_st43" d="M345.2,173.9c-4,1.3-8.3,3.7-10-2.9c-0.3-1.2-1.9-1-3-1.1c-2.4-0.2-4.5-1-5.9-3
		c4.1-0.8,7.8,2.8,12,1.1C340.1,170.5,344.8,169.6,345.2,173.9z"/>
	<path id="XMLID_4032_" class="cloud4_st16" d="M345.2,173.9c-2-2.4-7.3-0.9-7-6c4.1,1.1,8.9,1.1,11,5.9C347.9,173.7,346.6,173,345.2,173.9
		z"/>
	<path id="XMLID_4031_" class="cloud4_st13" d="M248.2,180.9c-1.7,0.7-3.3,1.3-5,2c-0.7,0-1.3,0-2,0c-4.7-0.4-9.5,0.9-14-1
		c2.3-2.5,5.3-2.4,8.3-2c2.3,0.3,4.3,0.2,6.4-0.6c6.1-2.3,12.6-3.2,18.8-5.6c1.9-0.7,2.9-1.9,4-3.3c2.7-1.9,4.7-0.3,6.7,1.4
		c0,0,0,0,0,0c3.5,2.4,8.3-0.7,11.7,2.8c-1.4,1.9-3.2,0.9-4.7,1.2c-4.7,0.3-9.4-0.7-14,1c-3.6,1.8-7.6,2.6-11.3,4.4
		C251.5,182,249.6,182.9,248.2,180.9z"/>
	<path id="XMLID_4029_" class="cloud4_st59" d="M134.3,170.9c-1-1-2.1-2-3.1-2.9c-0.3-0.4-0.8-1-1.1-0.9c-7.4,1.5-13.7-3.2-20.7-3.6
		c-0.5,0-1,0-1.5-0.2c-2.4-1-4.5-2.5-4.6-5.3c0-2.7,2.7-2.4,4.4-3c1.2-0.4,2.5-0.8,3.7-1.3c2.4-1.6,4.8-2.5,7.6-1
		c2.6,0.9,5.3,1.5,7.7,2.8c1.5,0.8,3.4,1.3,3.5,3.6c1.5,2.6,4.1,1.6,6.3,2c4,0.8,8,1.8,8.6,6.8c0.4,3.1-0.7,5.4-4.5,4.5
		C138.5,171.8,136.4,171.3,134.3,170.9z"/>
	<path id="XMLID_4028_" class="cloud4_st60" d="M130.2,158.9c-4-1.3-8-2.7-11.9-4c-0.8-3.5,0.7-6.1,4.3-6.5c1.7-0.2,3.2-0.4,4.7-1.3
		c5.7-1.2,11.6,1.2,17.3-0.6c1.1-0.4,2.4-0.4,3.5-0.9c1.8-0.2,3.6-1.6,5.3,0.1c0.1,3.2-2.1,3.7-4.6,3.7c-2,0-4,0.1-5.5,1.6
		c-0.7,0.3-1.3,0.6-2,1c-2,1.5-4.3,1.3-6,1.3c5.3,0.2,5.3,0.2,6.9,2.7C137.6,154.5,134.4,158.9,130.2,158.9z"/>
	<path id="XMLID_4027_" class="cloud4_st61" d="M142.2,156c-3-2.9-6.2-1.2-9.2,0c-1.4,0.5-2.6,1.6-3.9,0c-0.7-0.9-1.5-1.9-0.9-3.1
		c0.7-1.6,2.3-1.8,3.8-1.8c3.1,0.2,6.2,0.6,9.3,0.9c0.3,1,1,1.6,1.9,2c1.6,0.4,3,1,3,3c0,0.3,0,0.6,0,0.9c-1.3,0.9-2.7,0.8-4,0
		C142.2,157.2,142.2,156.6,142.2,156z"/>
	<path id="XMLID_4026_" class="cloud4_st47" d="M156.3,161.8c1,0.4,2,0.7,3,1.1c1.5,2.8,3.7,4.4,7,4c2.3,2.1,5.6,1.3,8,3c-0.3,1-0.7,2-1,3
		c-6.3-1.5-12.5-3.3-19-3C157.1,167.8,160.5,165.7,156.3,161.8z"/>
	<path id="XMLID_4025_" class="cloud4_st48" d="M150.4,161.9c1.7,0.4,4-0.4,3.8,2.2c-0.2,1.9-1.8,2.7-3.7,2.6c-1.9-0.1-3.4-1-3.4-2.9
		C147.2,161.5,149.4,162.4,150.4,161.9z"/>
	<path id="XMLID_4024_" class="cloud4_st60" d="M142.3,157.9c1.3,0,2.7,0,4,0c2.2,2.1,5.5,1.6,8,3C149.9,161.3,145.8,160.7,142.3,157.9z"/>
	<path id="XMLID_4023_" class="cloud4_st62" d="M207.3,178c-3.7-0.2-7.3,0.1-10.4,2.5c-2.3,1.7-5,1.5-7.7,1.5c-3.9,0-4.1-3.9-6.1-5.9
		c2.9-5.2,3.2-5.3,10.3-3.4c3.2,1.6,6.6,1.8,10.1,1.9c2.4,0.1,5-0.4,6.8,1.8c0.3,0.6,0.3,1.1,0,1.7
		C209.3,178.9,208.3,178.8,207.3,178z"/>
	<path id="XMLID_4021_" class="cloud4_st28" d="M174.2,169.9c-3.3,0.7-7.1,2.8-8-3C169.8,165.6,172.7,165.8,174.2,169.9z"/>
	<path id="XMLID_4020_" class="cloud4_st21" d="M207.3,178c1,0,2,0,2.9-0.1c2.6-2.5,5.5-0.5,8-0.2c8.9,1.1,17.5,0.4,25.9-2.3
		c2.9-0.9,5.9-1.7,9-1.7c2.3,0,3.8-1.3,5.3-2.7c0.5-0.3,1-0.6,1.5-0.9c2.1-0.4,4.1-0.4,5.3,1.8c2.9,1,1.7,2-0.2,2.5
		c-12.5,3.2-24.5,8.9-37.9,7.6c-7.2,0.3-14-2-21-2.9C206.5,178.7,206.9,178.3,207.3,178z"/>
	<path id="XMLID_4005_" class="cloud4_st31" d="M86.2,172.9c5.6,1.1,9.7,5.4,15,7C94.3,181.7,89.5,179.1,86.2,172.9z"/>
	<path id="XMLID_4004_" class="cloud4_st48" d="M60.3,150.9c0-1.6,0-3.3,0-4.9c0.4-0.7,1-1.2,1.8-1.4c1.9-0.4,3.3,0.6,4.7,1.7
		c2.6,1.2,5.1,4.1,8.3,1.1c1.9-2.5-0.2-3.2-1.9-3.7c-2.7-0.7-5.5-0.3-8.2,0.7c-0.5,0-0.9,0-1.4-0.1c-3.4-1-7.2-0.1-10.3-2.4
		c0.5-2.4,1.7-3.4,4.4-3.6c6.7-0.5,13.2,0.7,19.8,0.4c1.9-0.1,3,1.2,4.4,2.1c1,0.7,2.1,1.3,3.2,0.4c1-0.9,0.9-2.2,0.6-3.3
		c-1-3.3-3.5-5.1-6.7-6.1c3.1-0.8,6.1-1.5,9.3-1c0.6,1.9,2.7,2.3,3.9,3.5c0.8,1.8,0.8,3.6-0.7,5c-1.6,1.5-0.9,3-0.2,4.5
		c0.5,2.3-0.7,3.8-2.5,4.9c-1.2,0.8-2.2,1.5-2,3c3.9,2.9,7.4,6.7,13.1,5.3c0.8-0.2,1.5,0.5,2.3,0.9c2.3,1.9,4,4.5,7.2,5.5
		c2.7,0.9,2.6,3.4,0.9,5.6c0,1.6,0,3.3-0.1,4.9c-2.6-1.3-4.7-0.6-6.8,1.3c-2.3,2.1-4.2,1.7-5.3-1.2c-1.2-3.3-3.6-4.6-7-4.2
		c-3.4,0.4-5.3-1.1-5.9-4.5c-0.7-4-3.5-6.4-7.3-6.1c-5.6,0.4-9.5-1.7-12.9-5.7C63.8,152,62.1,151.3,60.3,150.9z"/>
	<path id="XMLID_4003_" class="cloud4_st58" d="M110.3,169c-0.8-5.3-6.1-6.7-9.1-10.1c-1.2-3,0.3-4.5,3.1-5c2.5-0.5,5.1-1,7.6,0.4
		c0.5,0.5,0.7,1,0.4,1.7c-1.1,0.2-2.3,0.3-3.4,0.6c-1.3,0.4-3.6-0.1-3.5,1.9c0,2,2,3.3,3.8,3.2c5.4-0.2,9.9,2.2,14.7,4.1
		c1.5,0.6,2.8,0.6,4.3,0c1.8-0.6,3.4-0.5,3.1,2.2c-5-0.6-10.1,1.8-15.1-0.9C113.8,165.8,112.5,169,110.3,169z"/>
	<path id="XMLID_4002_" class="cloud4_st20" d="M248.2,180.9c5.4-1.1,10.5-3.4,16-4c-1.8,3.1-7,1.8-8,6c-1.8,0.2-3.6,0.4-5.4,0.6
		C248.8,183.8,247.5,183.5,248.2,180.9z"/>
	<path id="XMLID_3963_" class="cloud4_st63" d="M451.2,103c0.7,1.7-4.3,3.3,0,5c-1.1,3.9-2.9,3-4.5,0.5c-1.9-2.9-4.4-3.7-7.6-3
		c-1,0.2-2.1,0.3-2,1.6c0.1,1.1,0.9,1.6,1.8,2.1c1.2,0.6,3.4-1.6,3.6,0.8c0.2,2-2.3,2.5-3.8,3.4c-0.4,0.2-0.9,0.3-1.4,0.5
		c-1.3,1.5-2.7,1.6-4.4,0.7c-3.7-7.3-3.8-7.3-10.6-2.6c-2.4,1.7-4,0.5-5.5-1.2c-0.9-1.2-1.7-2.3-1.9-3.8c0.1-1.6,0.2-3.3-0.3-4.9
		c-1.6-5.2-1-5.9,5-6.3c4.4,2.3,8.6,5.4,14,3.2c4.3-2.2,8.5-4.4,13.3-1.2C448.4,99.4,451.1,100.1,451.2,103z"/>
	<path id="XMLID_3962_" class="cloud4_st14" d="M433.2,113c1.2,0.9,2.6,0.9,4,0.9c3.2,1.7,7.2,1.3,10.1,3.9c-0.4,0-0.7,0.1-1.1,0.1
		c-0.5,0.7-1.2,1.1-2.1,1.3c-6.6,0.2-13.1-2.5-19.8-0.9c-1.5,0.4-3.2-0.6-3.8-2.4c1.8-2.5,0.2-6.9,5-7.6
		C430.5,107.5,431.9,108.1,433.2,113z"/>
	<path id="XMLID_3960_" class="cloud4_st29" d="M499.3,97.9c-4.4-4.4-11-1.7-15.9-5c-0.9-0.6-1.8,0.6-2.5,1.2c-3.9,3.2-8.9,3.3-13.6,4.4
		c-1.7,0.4-3-0.5-3.6-2c-1.5-4.2-4.8-4.6-8.5-4.6c-3.3,0-6.7,0.4-9-3.9c0.3,5.8-2.7,7.4-9.1,5.9c-0.5-0.6-0.7-1.3-0.5-2
		c4-4,3.6-4.7,1.2-10.1c-1.3-2.8-2-6.6,1.3-9.4c4.4,3.9,9,7.6,13.3,11.5c0.3,0.3,0.6,0.5,1,0.7c2.3,1.2,4.1,1,5.1-1.6
		c1.5-1.1,3.4-0.5,5-0.9c2.7,0.3,4,2.1,4.7,4.4c1.1,3.3,2.8,4.1,5.4,1.4c1-1.1,2.2-1.9,3.7-2.4c0.7-0.1,1.4-0.1,2.1,0.1
		c1.9,1.7,3.6,3.7,6.5,3.7c0.9,0.6,1.4,1.4,1.4,2.5c2.9,1.6,6.1,0.9,9.1,1C501.7,93.1,501.7,93,499.3,97.9z"/>
	<path id="XMLID_3959_" class="cloud4_st42" d="M487.2,91.9c-0.7-0.3-1.3-0.7-2-1c-2.6-0.4-3.9-2.9-6-4c-0.7,0-1.3,0-2,0
		c-1.9,0.6-3.8,1.8-5.9,1.5c-3-1.2-4.7-3.3-4.4-6.7c0.8-1,2-1.5,3.1-1c7.2,2.8,14.8,1.2,22.2,2.3c2.1,0.5,3.8,2,6.1,1.7
		c3.2-0.5,6.7-1,3.9,4.3c-0.7,1.3,0.6,1.7,1.7,1.4c1.8-0.4,3.5-0.9,5.3-1.4c-0.7,0.7-1.3,1.4-2,2c-3.6,1.1-6.9,1.4-10.2-1.6
		c-1.8-1.6-4.8-3.2-6,1.3C490.5,92.7,488.6,91.6,487.2,91.9z"/>
	<path id="XMLID_3958_" class="cloud4_st37" d="M497.2,107.9c0.7,1.1,1.7,1.7,3,2c0.1,1.3-0.6,1.9-1.8,1.9c-8.9,0-17.8,0.8-26.6-2
		C480.2,107.4,488.7,107.2,497.2,107.9z"/>
	<path id="XMLID_3956_" class="cloud4_st64" d="M492.2,82.9c-0.8,1.5-2.2,2-3.7,2c-7.2,0-14.6,1-21.3-3c-2.3,0.7-4.6,0.5-6.9,1.1
		c-4.6,1.1-5-3-6.5-5.8c-1.2-2.2,1.4-5.5-2.3-6.9c-3.6-1.4-6.8-0.3-10.1,1.1c-0.3,0.1-0.6,0.2-1,0.2c-0.5-0.1-0.9-0.3-1.2-0.6
		c-2.2-1.1-5-0.7-7-2.5c-1.2-1.1-3.9-1.3-3.1-3.9c0.8-2.6,3.3-4.8,5.5-4.2c6.3,1.7,6.6-1.4,5.9-6c-0.1-0.4,0.4-0.9,0.6-1.3
		c1.8,6,5.8,9,12.1,9c2.7,0,4.5,1.7,6.5,3.2c2.2,1.7,2.2,3.2,2.1,5.8c-0.2,3.9,3.6,3.5,6.3,3.9c3.3,2.4,7.1,3,10.7,1.6
		c5.1-1.9,8.9-0.3,12.3,3.4C491.6,80.9,491.9,81.9,492.2,82.9z"/>
	<path id="XMLID_3955_" class="cloud4_st64" d="M406.2,41.9c-1.7,0.4-2.9,1.5-4.2,2.5c-1.4,1.2-2.9,1.2-4.5,0.2c-5.4-3.3-11.2-4.3-17.3-2.8
		c-2.1-0.9-3.8-2.2-4.2-4.6c0-0.9,0.3-1.7,0.9-2.4c8.3-1.6,16.5-2.5,24.7,0.2c1.8,1.1,3.7,1.8,5.3,0c3.9-4.4,7.8-1.9,11.3,0.3
		c1.8,1.1,3.7,2,5.6,3c2.1,2.4,4.9,4,7.5,5.8c1,1.3,2.6,1.4,3.9,1.9c2.6,1,3.4,2.6,1,4.8c0.6,0.9,1.4,1.8,1.9,2.8
		c0.4,0.9,0.6,2-0.2,2.8c-1.1,1-1.7-0.2-2.4-0.8c-3.7-3.6-9.8-1.7-13.3-5.7c-1.5,0.8-2.8,0.2-3.1-1.2c-1.5-6.2-6.1-6.5-11.1-6.3
		C407.3,42.5,406.8,42.3,406.2,41.9z"/>
	<path id="XMLID_3954_" class="cloud4_st5" d="M439.2,70.9c0.3,0,0.7,0,1,0c0.4-0.4,0.8-0.4,1.2,0c0.1,1.5-0.5,2.4-2.2,2
		c-1.8,4.1-1.9,7.5,3.4,8.9c0.8,0.2,2.1,0.9,2,1.2c-0.6,3.1-3.3,5.3-3.5,8.8c-0.1,1.6-2.5,0.5-3.9,0.1c-2.6-2.1-5.2-4-9-2.6
		c-1.9,0.7-3.4-0.7-3.5-3c-0.1-3,0.2-6.1-2.8-8.2c-1.3-0.9-2.3-1.1-3,0.5c-1.2,1.8-2.2,3.6-4.3,4.6c-3.6,0.1-5.5-1.5-5.4-5.3
		c3.8-1.4,5.8-3.8,5-8c0.3-1.2,1.1-2.4,2.2-2.4c3.4,0,4.8-2.8,6.8-4.6c2.1,2.4,2.9,4.5,1.1,7.9c-2,3.7,2.9,4.9,4.1,7.5
		c0.9,1.8,2.9,2.7,5.1,2.2c2-0.4,2.5-2,2.7-3.7C436.4,74.5,437.5,72.5,439.2,70.9z"/>
	<path id="XMLID_3953_" class="cloud4_st28" d="M409.2,77.9c1.4,2.2,3.2,3.9,6,4c0.4-1.4,3.5-1.6,2-4c-0.6-1.3-2.3-2.5-0.8-3.9
		c1.4-1.3,2.7,0.1,4,0.7c4.5,2.4,8.1,5.3,5.8,11.2c-0.3,0.3-0.7,0.6-1.2,0.7c-1.9-0.2-3.3,0-3.2,2.4c0.1,1.9-0.6,2.9-2.6,1.9
		c-0.7-0.3-1.4-0.7-2-1c-4.7-3.3-9.6-0.3-14.5-0.6c-4.9-1.4-8.5-5.1-13-7c-1.5-0.6-1.8-2.3-1-3.9c5.2-2.9,10.4-5.6,16.5-2.6
		C406.6,76.6,407.9,77.3,409.2,77.9z"/>
	<path id="XMLID_3952_" class="cloud4_st59" d="M406.2,41.9c5.7-3.1,11.3-1.3,13.9,4.8c0.5,1.2,1,2.4,2.1,3.2c0.7,2.9,2.8,3.9,5.5,4
		c2,0.1,4.2,0.4,4.8,2.8c0.5,2.2-1.6,3.1-3,4.1c-2.1,1.5-3.8,0.2-5.2-1.3c-2.4-2.5-4.8-5.1-7.1-7.6c-1.4-3.8-4.5-5.5-8.1-6.3
		c-1.4-0.3-3-0.1-3.9-1.6C405.6,43.3,405.9,42.6,406.2,41.9z"/>
	<path id="XMLID_3951_" class="cloud4_st5" d="M374.1,47.8c-2.4,3.6-0.6,4.7,2.8,5.6c3.8,1,8.6-0.9,11.3,3.5c-0.2,0.4-0.5,0.8-0.9,1
		c-4-0.5-7.5,0.7-10.9,2.9c-1.7,1.1-4,1.4-6.2,1.7c-7.1,1-7.4-4.3-5-9.2c0.7-1.4,1.5-2.8,1.8-4.4c0.3-0.5,0.6-0.8,1.1-1.1
		C370.2,47.3,372.2,45.6,374.1,47.8z"/>
	<path id="XMLID_3950_" class="cloud4_st65" d="M405.2,44c6.2-2.1,8.4-1.4,12.1,3.4c1.2,1.6,2,3.1-0.1,4.5c-3.7,0-7-1.7-10.5-2.7
		C402.8,48.2,403.5,46.4,405.2,44z"/>
	<path id="XMLID_3949_" class="cloud4_st5" d="M405.2,75.9c-3.2,0.1-6.3-0.6-8.8,2.8c-0.9,1.2-4.6,0.2-7.1,0.2c-4.6-4.6-3.8-8.4,2.5-12.5
		c0.6,0,1,0.2,1.4,0.6c1.1,3.7,3.9,5.5,7.4,6.5C402.3,74,404.3,73.9,405.2,75.9z"/>
	<path id="XMLID_3948_" class="cloud4_st1" d="M377.3,37.8c2,0.6,2.8,2.1,2.9,4.1c3,1.5,7.1,0.6,9.3,4.1c0.6,1,1.6,1.9,1,3.1
		c-0.6,1.5-2,1.7-3.4,1.4c-3-0.5-5.9-1.2-8-3.7C374.2,43.9,374.1,43.2,377.3,37.8z"/>
	<path id="XMLID_3947_" class="cloud4_st19" d="M423.2,62.9c-0.8,5.9-2,6.8-9,7c-1.9-0.1-3.6-0.7-5-2c0.8-0.8,1.7-1.4,2.8-1.7
		c-1,0.4-2.1,0.8-2.8,1.7c-2.2-1.1-1.6-2.5-0.4-4C412.5,58.9,418,58.5,423.2,62.9z"/>
	<path id="XMLID_3946_" class="cloud4_st65" d="M387.2,56.9c0.3,0,0.7,0,1-0.1c2.8,0.8,5.6,0.1,8.4,0.3c1.7,0.1,3.3,0.8,4.1,2.4
		c1.1,2.4-1.6,1.9-2.3,2.9c-0.9,1.3-1.6,2.9-2.3,4.3c-4.2-1-6.1-4.6-8.6-7.6c-0.4-0.3-0.6-0.7-0.8-1.1
		C386.7,57.7,386.9,57.3,387.2,56.9z"/>
	<path id="XMLID_3944_" class="cloud4_st34" d="M436.2,50.9c-0.1-2.1,0.2-4.5-3.3-3.5c-1.3,0.4-2.2-0.4-2.7-1.5c0.2-2.8,1.6-3.2,3.8-1.9
		c2.2,2.1,6.2,2.8,6.2,6.9C438.9,50.9,437.6,50.9,436.2,50.9z"/>
	<path id="XMLID_3943_" class="cloud4_st13" d="M387.2,57.9c4.4,1.6,6.1,5.8,9,8.9c-1,0-2,0.1-2.9,0.1c-0.3,0-0.7,0-1-0.1
		C385.3,65.3,383.9,62.9,387.2,57.9z"/>
	<path id="XMLID_3942_" class="cloud4_st6" d="M470.2,33.9c-1.8-1.8-3.9-2-6.3-1.5c-2.6,0.6-5.2,0.6-7.6-0.6c-1.1-1.4-3.5-1.2-3.8-3.5
		c0.7-3.1,3.1-3.6,5.6-3.9c1-0.1,2.1-0.3,3,0.2c6.7,3.9,14.1,3.9,21.5,4.2c1,0.3,2.1,0.5,3.1,0.9c0.5,0.3,0.9,0.7,1.1,1.2
		c0.3,3.8-2.6,2.7-4.6,3C478.2,33.1,474.2,35.9,470.2,33.9z"/>
	<path id="XMLID_3941_" class="cloud4_st66" d="M482.2,33.9c1.3-1,3.4-1.1,4-3c-0.4-2.8-0.6-5.5,1.1-7.9c1.6,0,3.3-0.3,4.8,0.7
		c4.7,2.9,5.1,5,0.8,8.9c-2.3,2.1-3.5,5.4-6.8,6.4C487.8,34.9,483.9,35.3,482.2,33.9z"/>
	<path id="XMLID_3940_" class="cloud4_st66" d="M484.2,38.9c-1.6,0.2-3.6,0.1-3.5,2.3c0.1,2.7,3,2.4,4.5,3.7c-4.4,0-8.6,2.7-13.2,0.7
		c-1.3-0.6-3.6-0.5-3.6-2.2c0-2.2,2.2-1.4,3.5-1.5c2.3-0.1,4.2-0.6,5.8-2.4C479.7,37.6,481.9,37.6,484.2,38.9z"/>
	<path id="XMLID_3939_" class="cloud4_st67" d="M456.2,59.9c2.1-1.6,3.9-3.6,4.9-6.1c0.9,4,1.8,7.9,7.4,7.3c0.8-0.1,1.7,0.1,2,1
		c0.4,1.2-0.4,1.8-1.3,2.4c-2.8,2-5.2,1.4-7.5-0.8C460.1,62.3,458.9,60,456.2,59.9z"/>
	<path id="XMLID_3937_" class="cloud4_st68" d="M450.2,32.9c-0.3,0-0.7,0-1,0c-1.9-1.1-4.3-1.9-2.7-5.1c1.2-2.6-0.3-3.6-2.9-3.4
		c-2.9,0.2-5.2-1.7-8-2c-1.8-0.2-2.5-1.9-2.3-3.8c3.4-3.8,7.4-5,12.2-3c1.7,1,3.4,1.9,5,3c2,1.6,2.3,3.9,1.9,6.2
		c-0.3,1.6-0.3,2.9,0.7,4.1c1.6,0.4,2.6,1.4,3,3C454.2,32,452.1,31.7,450.2,32.9z"/>
	<path id="XMLID_3936_" class="cloud4_st69" d="M450.8,36.3c1.4,0,2.9-0.1,2.5,1.3c-0.7,2.6-3.7,1.5-5.4,2.7c-0.7,0.5-2,0.2-1.8-0.9
		C446.6,36.6,449.4,37.2,450.8,36.3z"/>
	<path id="XMLID_3935_" class="cloud4_st16" d="M515.7,88.9c1.5,0.5,4.1-0.8,4.2,1.9c0,2-2.3,2.1-3.9,2c-1.7-0.1-4.3-0.1-4.3-2.2
		C511.6,88.3,514.2,89.3,515.7,88.9z"/>
	<path id="XMLID_3934_" class="cloud4_st9" d="M524.2,26.9c2.8,2.2,2.1,5.4,1.9,8.2c-0.3,4.6,1.5,7.2,6.1,7.8c0.3,2.6,5.2,2.9,3.8,5.5
		c-1.8,3.2-4.6-0.4-7-0.4c-1.7,0-3.3,0-4.8,0.9c-0.7,0-1.3,0-2,0c-3.4,0.1-4.3-2.3-5-5l0,0c0.9-6-1.1-8.6-7.7-9
		c-3.6-0.3-6-4.9-8.6-8c2.1-3.5,5-2.5,7.7-1.1c1.9,1,3.7,2.1,5.7,2.8C518.1,29.9,521.3,29.7,524.2,26.9z"/>
	<path id="XMLID_3933_" class="cloud4_st11" d="M501.2,27c3.1,1.1,6.2,2.1,7.8,5.5c1,2,3,2.3,5.1,2.5c5.8,0.6,5.8,0.6,3.8,6.1
		c-0.3,0.9-0.4,1.9-0.6,2.9c-3.2-9.8-7.6-10.6-17-3c-0.6-0.1-1.1-0.4-1.6-0.6c0.2,0.5,0.5,1,0.6,1.6c-1.2,4-2.8,6.6-7.3,3.1
		c-0.9-0.7-2.5-0.7-3.7-1.1c0.2-5.3,3.8-8.6,8.2-9.6c5-1.2,6-3.1,3.8-7.4C500.6,26.6,500.9,26.6,501.2,27z"/>
	<path id="XMLID_3932_" class="cloud4_st55" d="M508,40.1c1.8,0,3.6,1.2,4.9,3c0.4,0.6,0.6,1.6,0.6,2.3c-0.1,0.8-9.3,3.2-10.7,2.8
		c-1.4-0.5-2.2-1.5-2.1-3C500.9,42.9,504.6,40.1,508,40.1z"/>
	<path id="XMLID_3931_" class="cloud4_st70" d="M499.2,41.9c-0.7,0.1-1.3,0.1-2,0.2c-1.8,0.3-3.9,1-4.8-1.2c-0.8-2,1-3.5,2.6-4.3
		c2.2-1.1,3.8,0.3,4.8,2.2c0.3,0.6,0.3,1.3,0.4,1.9C499.9,41.3,499.6,41.6,499.2,41.9z"/>
	<path id="XMLID_3930_" class="cloud4_st11" d="M517.2,43.9c1.5,1.9,2.8,3.9,5,5c-2.1,0.2-3.9,3.5-5.6,2.2
		C514.2,49.1,518.1,46.5,517.2,43.9z"/>
	<path id="XMLID_3929_" class="cloud4_st71" d="M501.2,27c-0.3,0-0.6,0-1,0c-0.3-0.3-0.7-0.7-1-1c-0.8-1.2-1.5-2.5-2.6-3.5
		c-1.8-1.8-4.4-3.8-1.9-6.5c2.2-2.5,4.4-0.5,6.5,0.8c4,1.1,8.1-0.1,12.1,0.9c1.5,0.1,2.9,0.4,4.3,0.7c2.2,1.2,4.1,2.7,5.6,4.8
		c0.3,1.3,0.7,2.7,1,4c0.8,6.6-0.4,7-6.5,5.6C512,31.1,507.5,26.3,501.2,27z"/>
	<path id="XMLID_3928_" class="cloud4_st56" d="M501.2,18.9c-1.6-0.7-3.2-1.5-5-2.3c-1,4,3.2,5.9,3,9.3c-3-2-5.9-3.9-8.9-5.9
		c-2.3-1.5-3.6-0.7-4.1,1.9c2.2,3.3,1.4,6.2-1,9c-1,0-2,0-3,0c-0.5-0.5-0.7-1.2-0.9-1.8c-0.2-0.9,0.3-1.8,0.4-2.7
		c-0.1-1.4-1.1-2-2.1-2.6c-1.9-1.1-3.9-2.2-3.3-4.9c0.6-2.8,3.2-2.4,5.6-2.7c-1.9-0.5-3.8-0.5-4.2-2.7c0.5-2.1,2.1-3,4-2.9
		c2.8,0.1,4.9-1.3,7-2.8c1.9-2.6,4.4-4,7.5-4.2c0.5,0,1,0.1,1.4,0.3c2.5,1.1,1.9,3.8,2.9,5.6c1,1.6,3.1,2.6,2.5,4.9
		C502.5,15.9,502.5,17.6,501.2,18.9z"/>
	<path id="XMLID_3927_" class="cloud4_st48" d="M485.2,30.9c0.6-3,2.1-5.8,1-9c0.4,0.4,0.7,0.7,1.1,1.1c2.1,3,1.2,5.6-1.1,7.9
		C485.9,30.9,485.5,30.9,485.2,30.9z"/>
	<path id="XMLID_3899_" class="cloud4_st72" d="M397.2,130.9c-4.9-1.2-9.6-3.9-14.9-2.1c-1,0.4-2.6,0.1-2.8,1.6c-0.2,1.2,1.2,1.4,2,1.9
		c0.7,0.5,1.4,0.9,2,1.5c0.8,0.8,2,1.6,1.6,2.9c-0.4,1.4-1.8,1.2-3,1.2c-3.3,0.1-6.6,0-9.9,0c-5.5-0.6-5.6-1-6.6-7.1
		c-0.5-3-2.7-5-4.9-7c-3-2.8-2.5-4.9,1.5-6.8c3.5,1.1,5.7,4.3,9.1,6.4c-3.7-4.1-3.6-5,0.8-9.1c1.2-1.7,2.1-3.7,4.6-3.8
		c2.1,0,3.8,0.7,4.8,2.7c0.3,1.3,0.4,2.6-0.3,3.9c-1.1,1.5-1.9,2.8,0.6,4c1.6,0.8,3.2,1.4,4.9,1.7c1.8,1.4,3.8,2.5,6.1,2.9
		c2.2,1,4.8,1.6,4.9,4.7C397.5,130.5,397.3,130.7,397.2,130.9z"/>
	<path id="XMLID_3897_" class="cloud4_st11" d="M396.2,136.9c2.8,0.1,6.7-0.2,7.3,2.8c0.4,1.9-3.7,3.1-6,4.2c-1.3,0.7-2.9,0.7-4.3,1.1
		c-1,0.4-1.7-0.1-2.5-0.5c-6-0.5-12-1.1-18.1-1c-2,0-4,0.3-6-0.1c-2.5-0.5-5.3-1.5-5-4.5c0.3-3,3.1-2.2,5.2-2.2
		c1.4,0.4,3,0.4,4.2,1.5C379.6,139.6,387.9,139.7,396.2,136.9z"/>
	<path id="XMLID_3896_" class="cloud4_st55" d="M371.1,138c-1.3,0-2.6-0.1-3.9-0.1c-3.7-0.8-5.3-4.1-7.5-6.6c-1.6-1.3-3.3-2.4-5.5-2.8
		c-3.5-0.5-5-2.4-2.5-5.8c7.9-5.3,11.8-13.7,16.9-21.3c1-0.3,2-0.6,3,0.1c1.1,1.1,0.9,2.4,0.5,3.8c-0.3,4.9-4.1,8.2-6.1,12.3
		c-1.2,0.9-2.4,1-3.8,0.3c-1.8,1.3-1.4,2.4-0.1,4c2.7,3.3,6.9,5.8,5.3,11.6c-0.6,2.2,3.3,2.7,4.8,4.4
		C371.9,137.9,371.5,138,371.1,138z"/>
	<path id="XMLID_3895_" class="cloud4_st72" d="M416.2,136.9c3.3,0,6.7,0,10,0c-5.2,1.9-10.5,0.8-15.8,0.8c-0.6,0-1.6-0.4-1.8-0.8
		c-1.7-6-7.4-4.4-11.4-6c0,0,0,0,0,0c2.2-2.5,5.2-1.1,7.9-1.5C411,128.7,413,133.6,416.2,136.9z"/>
	<path id="XMLID_3894_" class="cloud4_st19" d="M389.3,133.8c-1.5-0.1-3-0.2-3.3-1.8c-0.3-1.6,1-1.9,2.2-1.8c1.4,0.1,2.7,0.6,2.9,2.1
		C391.3,133.7,390.1,133.6,389.3,133.8z"/>
	<path id="XMLID_3893_" class="cloud4_st2" d="M392.2,144c0.3,0.3,0.7,0.6,1,1c1.7,2.6,5.1,0.9,7,3c-3.3,0.1-6.5-0.3-9.6-1.7
		c-4.3-1.9-9-0.1-13.6-0.4c-3.5-0.2-7.2-0.2-10.8,0.7c-2.9,0.8-4.2-2.2-6-3.6c0.6-0.9,1.5-1.6,2.5-1.3c8.1,1.6,16.2,0.6,24.3,0.8
		C388.9,142.5,390.6,142.9,392.2,144z"/>
	<path id="XMLID_3892_" class="cloud4_st48" d="M411.4,153.2c-2.8,0-4.6-1.1-4.8-4c-0.1-2,1.2-3.1,3.1-3c2.6,0.3,5,1.6,5.4,4.3
		C415.5,153.3,412.9,152.7,411.4,153.2z"/>
	<path id="XMLID_3865_" class="cloud4_st45" d="M523.2,22.9c-2.5-0.2-4.8-0.8-7-2c-0.6-1.1,0.1-2.2,0.9-2.2c3.6-0.4,2.7-3.1,3-5.2
		c1.1-1.2,1.9-3,4.1-2.6c0.9,2.9,5.6,3.1,5.1,7C528.1,20.7,525.8,21.9,523.2,22.9z"/>
	<path id="XMLID_3800_" class="cloud4_st63" d="M91.2,134.9c-2-0.6-5.9,0-2.9-4.1c1,0,2,0.1,2.9,0.1c1.5,0.1,3-0.2,4.3,0.9
		c5.3,4.3,10.6,1.7,15.8-0.2c4.4-1.3,8.5-4,13.4-2.8c2.5,1.4,5.2,0.6,7.9,0.7c1.8,0.1,3.5,0.7,5.1,1.5c3.4,1.2,7.2,1.5,10.1,3.9
		c2,0.9,4.2,1.2,6.2,1.9c2.2,0.7,2.7,2.5,0.8,4.2c-4.9,4.4-10.5,6.7-17.3,6.1c-6.5-0.6-12.9-0.1-19.1-3.1c-3.4-1.6-7.3-2.5-10.7,0.7
		c-0.5,0.2-1.1,0.3-1.7,0.3c-4.3-0.9-8.7,1.9-13,0c-1.9-1.9-3-3.8-1.1-6.4C92.8,137.3,92,136,91.2,134.9z"/>
	<path id="XMLID_3799_" class="cloud4_st72" d="M136.2,134c-1.6-2.6-3.9-3.6-6.8-2.9c-2,0.5-3.6,0-5.1-1.2c-4.6-1.2-8.9-1.4-12.1,3
		c-7.4,3.4-14.3,2.6-20.9-2c1.2-0.8,2.5-1,3.8-0.3c7.1,4,13.1,2.5,18.2-3.6c1.3-1.6,2.9-1.1,4.5-0.8c5,0.9,10.1,2,15.2,1.6
		c3-0.2,6-0.6,8.2-3c2.4,2.2,2.2,4.9,1,7.4C140.9,134.6,138.6,135,136.2,134z"/>
	<path id="XMLID_3798_" class="cloud4_st73" d="M136.2,134c7-0.1,4.5-5.4,4.9-9.1c0.7-1.6,1.4-3.3,2.1-4.9c0.4,0,0.8,0.1,1.2,0.1
		c1.2,0.1,2.3,0.3,2.7,1.7c0.2,1.8-1.4,3.7,0.5,5.4c0.9,1.3,2.2,2.2,3.3,3.2c0.6,1.9,1.4,3.7,0.5,5.7c-1.8,1.4-3.5,0.5-5.2-0.1
		C143.3,133.1,139.3,136,136.2,134z"/>
	<path id="XMLID_3797_" class="cloud4_st29" d="M53.2,141.9c3.7-0.2,7.4-0.6,11,1c-0.8,1.8-2.3,1.3-3.8,1.3c-1.8-0.1-2.8,0.6-2.2,2.6
		c-3.3,1.7-3.3,1.7-5-4C53.2,142.6,53.2,142.3,53.2,141.9z"/>
	<path id="XMLID_3796_" class="cloud4_st50" d="M58.2,146.9c-1.1-0.2-2.4-0.3-2.3-1.9c0.1-1.1,1-1.7,2-1.8c2.1-0.2,4.2-0.2,6.3-0.3
		c0,0,0,0,0,0c1.6,2.5-1.1,2.1-2,3c-0.7,0-1.3,0-2,0.1C59.2,145.6,58.7,146.1,58.2,146.9z"/>
	<path id="XMLID_3764_" class="cloud4_st65" d="M392.2,144c-10.6-1.8-21.3-0.8-32-1c-1,0-2,0-3,0c-1.3-1.3-3.2-2.3-1.6-4.8
		c2.9-4.8,2.4-5.7-3.4-6.2c-0.7,0-1.3,0-2,0c-1.6-3-1.3-4.9,2.7-4.5c3.4,0.4,7,0.2,10.2,1.5c0.6,3.3,1.7,6.4,4,9
		c-1.3,0.3-3.6-0.6-3.6,1.4c0,1.8,2.2,2.4,3.9,2.5c6.1,0.2,12.3,0.1,18.4,0.2C388.2,141.9,390.6,141.7,392.2,144z"/>
	<path id="XMLID_3763_" class="cloud4_st19" d="M265.2,171.9c-2,0-4,0-6-0.1c-1.6,0.5-3.2,0.7-4.7-0.3c-1.9-1.3-2.5-3.6-0.4-4.3
		c6.4-2.2,13.1-3.7,20-2.4c0.4,0.1,0.7,0.7,1.1,1c1,0,2,0,3.1,0c-1.3,0.8-2.8,1.1-4.3,1c-4.7-0.4-5.1,1.5-2.7,4.9
		C269.3,171.6,267.2,170.5,265.2,171.9z"/>
	<path id="XMLID_3759_" class="cloud4_st14" d="M332.2,115.9c0-0.6-0.1-1.3-0.1-1.9c1-1.9,2.9-1.4,4.5-1.6c4.3-0.6,6.1,3.4,9.3,4.8
		c2.6,2.1,6.3,2.9,7.3,6.7c-2,3,0.6,2.8,2.2,2.9c2.7,0.2,5.6-0.1,7.8,2.1c-2.7-0.2-5.5-0.4-8.2-0.7c-2.9-0.4-4.8,0.3-4.8,3.7
		c-2-1.2-4.2-2.1-6-3.5c-1.9-1.5-5.9-2.7-1.4-6.1c1.5-1.1-0.3-2.4-1.4-3C338.7,117.5,335.8,115.8,332.2,115.9z"/>
	<path id="XMLID_3758_" class="cloud4_st74" d="M314.2,133.9c-0.3,1-0.6,2-1,3c-0.7-1-1.3-2-2-3c-3.3,0.7-5.9,0.2-6-4c0.8-2.4,2.2-4.3,4-6
		c4.1,2.4,8.2,4.9,13.5,4.5c-2.1,2-4.6,1.8-6.9,2.5C314.3,131.4,312,131.4,314.2,133.9z"/>
	<path id="XMLID_3757_" class="cloud4_st29" d="M306.2,138.9c0.7,1,1.3,2,2,3c0.4,0.2,0.8,0.4,1.1,0.8c1.3,3.5-1.1,4.8-3.5,6.1
		c-0.3,0.3-0.5,0.7-0.5,1.1c1.5,1,3.3,0.9,5,1c0.3,1,0.7,2,1,3c-5.3,0.6-10-0.4-13-5.4c-3.7-6.1-6.8-6.4-11.7-1.3
		c-3.1,1.4-5.7,2.1-8.6-1.3c-1.6-2-5.3-2.1-7.6-0.2c-3.8,3.3-7.8,3-12,1.5c-3.8-2.5-6.3-6.6-11.1-8.1c-3.3-1-5.8-1.4-7.7,1.7
		c-1.1,1.8-2.6,2.4-4.4,2.7c-1.1,0-2-0.5-2.9-1.1c-0.8-0.8-1-1.8-1.4-2.8c-0.9-5.4-3-9.7-8.8-12c-3.5-1.4-3.5-4-1.1-7.7
		c1.6-0.8,3.2-0.1,4.8-0.4c2.4,0.3,3.8,1.9,5.2,3.7c1.7,6.5,4.3,8,11.3,7.3c6.7-0.7,11.8,3.1,16.3,7.5c2.1,2,3.9,4.2,7.2,2.8
		c0.9-0.7,2.7,0.4,3.1-1.4c-0.5-2-1.7-4,0-6c3.4-3.2,6.9-2.6,10.2-0.1c1.9,1.4,3.8,1.9,5.9,2.1c1.3,0,2.6-0.1,3.9-0.5
		c4.7-1.6,9.4-2.8,13.7,1.2c0.7,0.6,1.9,0.2,2.7,0.8C306,137.5,306.3,138.1,306.2,138.9z"/>
	<path id="XMLID_3755_" class="cloud4_st40" d="M285.2,159.9c2.9-1.6,6.2-0.7,9.3-1.1c3.8-0.5,7.4-1.3,11.4-4c-7.3-2.8-11.2-12.4-20.7-6.9
		c-0.7-1.2,0.4-1.5,1-2c2.7-6.1,7.5-7.4,10.9-1.8c3.5,5.9,8.6,7.7,14.1,9.7c-3.1,3.9-7.2,5.7-12,5.9
		C294.5,160,289.9,159.9,285.2,159.9z"/>
	<path id="XMLID_3754_" class="cloud4_st17" d="M272.2,160.9c3.3-1,6.6-1.1,10-1c-2.8,1.4-6.2,2.2-7,6c-7,0.2-13.9,0.8-21,2.7
		c1.3,2.7,3.7,2.1,5,3.2c0,0,0,0.2,0,0.2c-3.8,1.6-7.6,3.3-10.8-1.1c-0.5-1.9,0.2-3.3,2.1-3.9c4.3-1.3,8.3-3.8,12.9-3.7
		C266.6,163.4,269.3,161.8,272.2,160.9z"/>
	<path id="XMLID_3753_" class="cloud4_st63" d="M306.2,138.9c-0.3-0.3-0.7-0.6-1-0.9c-2.7-2.3-5.7-3.7-9.5-3.6c-3.4,0.1-6.5-0.9-9.1-3.1
		c-1.3-1.1-2.8-1.7-4.3-2.1c-1.1-0.8-1.8-1.8-1.1-3.3c5.3-2.3,10.2-0.5,15.2,1.2c2.9,1,5.9,2,8.8,2.9c2,1.3,4,2.6,6,4
		C311.1,137.1,309,138.3,306.2,138.9z"/>
	<path id="XMLID_3752_" class="cloud4_st63" d="M305.2,149.9c-0.3,0-0.6,0-0.9,0c-1.3-2.3-0.1-3.3,2.1-3.4c2.7-0.2,2.8-1.5,1.9-3.5
		c0-0.3,0-0.6-0.1-1c3.3-1.8,8.1-0.7,9.9,2.2c1.3,2.1,0.1,3.2-1.7,3.6C312.7,148.6,308.9,149.2,305.2,149.9z"/>
	<path id="XMLID_3751_" class="cloud4_st74" d="M328.1,151.1c2.5-1.8,5.1-3.1,8.1-1.2c-2.3,2-5.2,2.2-8,2.1
		C328.2,151.7,328.2,151.4,328.1,151.1z"/>
	<path id="XMLID_3749_" class="cloud4_st26" d="M210.2,176.9c2.7-1.1,5.5-1,8.3-0.8c9.3,0.7,18.2-1.9,27.4-3.1c-5.3-3-11.1-3.7-16.9-4.1
		c-3-0.2-6,0.2-8.8-1c0-0.3,0-0.7,0-1c1.2-1.7,2.8-2.3,4.8-2.1c7.5,0.3,14.9,1.3,22.1,3.6c0.9,0.2,1.6,0.7,2.1,1.5
		c3,2.2,6.6,1.9,10,2.1c-0.9,3.7-4.4,3.3-6.8,3.6c-5.5,0.7-10.7,2-15.7,4.4c-5,2.3-10.1-0.3-15.2-0.4c-3.8-0.1-7.5-1.1-11.3-1.7
		C210.2,177.6,210.2,177.2,210.2,176.9z"/>
	<path id="XMLID_3748_" class="cloud4_st26" d="M224.2,166.9c-1.3,0-2.7,0-4,0c-3.8,0-7.6-0.1-11.4,0.7c-7.7,1.7-13.4-2.3-17.9-7.6
		c-3.5-4.1-7.3-3.5-10.9-2c-3.7,1.5-5.5,0.5-7.2-2.6c-2.4-4.4-7.5-5.9-10.7-9.5c2.2-2.8,4.7-1.9,6.5,0.1c4.2,4.6,8.8,5,14.1,2.4
		c4.8-0.7,7.6,2.4,9.3,6c2.1,4.5,5.2,7.1,10,7.9c3.8,3.9,8.3,2,12.6,1.5c2-0.2,3.9-1.1,6-0.9C223.1,163.1,224.8,164,224.2,166.9z"/>
	<path id="XMLID_3746_" class="cloud4_st24" d="M183.3,149.9c0.1,1.1,1.6,2.1,0.7,3.2c-0.8,0.9-1.8-0.1-2.6-0.6c-0.9-0.6-1.8-1-2.8-0.6
		c-3.8,1.6-6.4-0.5-8.7-3c-2.1-2.3-4.5-3.3-7.6-3c-6.5,0.9-12.3,4.8-18.9,5c1.1-1.7,2.8-2,4.7-2.1c2.3-0.1,4.1-1,5.2-3
		c-0.3-0.6-0.5-1.2-0.1-1.9c1.6-2.7,5.4-0.9,7.1-3.5c2.4-3.7,4.8-0.8,7.3,0c2.6,1.9,5.1,4.1,7.6,6.2c1.7,1.3,3.8,0.3,5.7,1
		C181.8,148.2,183,148.6,183.3,149.9z"/>
	<path id="XMLID_3745_" class="cloud4_st65" d="M112.2,155.9c0-0.3,0-0.6,0-0.9c-2.1-1.6-4.6-1.7-6.9-1.3c-7.1,1-14.1,0-21.1-0.7
		c-2.5-1.1-3.9-2.6-0.3-3.9c2.8-1,4.7-2.8,6.4-5.1c0.2-0.2,0.4-0.3,0.6-0.5c5.2,1.7,10.4,2.5,15.4-0.5l0,0c2.7-2.5,5.6-3.5,9-1.3
		c1.5,1,3.2,0.6,4.8,0.8c3.8,0.5,7.2,1.7,7.2,6.5c-1.3,1.9-3.4,1.7-5.2,2.2c-1.7,0.5-3.1,1.9-3.7,3.8
		C116,153.5,114.2,155.1,112.2,155.9z"/>
	<path id="XMLID_3744_" class="cloud4_st5" d="M127.2,148.9c-5.6-6.7-13.6-8.9-21-6c1.9-3.1,4.7-3.4,7.8-2.4c0.5,0.1,0.9,0.4,1.4,0.5
		c9.5,3.2,19.3,3.9,29.2,3.9c4.6,0,5.8-4.5,10.1-6c-3.3-1.6-6.5-0.8-8.6-3c1.7,0,3.5,0,5-1.1c0.1-0.5,0.1-0.9,0.2-1.4
		c3.3-3.1,0.6-6-0.2-8.9c0.9-3.1,2.2-5.5,6.1-3.6c0.7,4.9,4.1,6.5,8.5,7.6c3.6,0.9,7.8,1.6,9.1,6.3c0.9,1,1.8,2.1,2,3.4
		c1.2,2.2,1.9,4.4,1.8,7c-0.3,4-1.3,4.7-5.4,3.5c-2.1-2.2-4.4-4.3-7.1-5.9c-0.9-0.9-0.7-2.2-1.3-3.1c-0.9-1.4-2.4-2.2-3.7-0.6
		c-3.4,4.2-8.9,4.6-12.9,7.7c-5.2,2.2-10.4,4.1-16.1,1.8C130.5,148,128.8,148.5,127.2,148.9z"/>
	<path id="XMLID_3743_" class="cloud4_st6" d="M148.2,146.9c2.4-3.3,6.9-3.8,9.1-7.3c0.1-0.2,0.5-0.4,0.8-0.5c2.4-0.7,0.7-5.7,3.9-4.4
		c3,1.3,4.2,4.8,4.1,8.3c-1.8-1.2-3.3-3.7-5.5,0.2c-1.2,2-5.5-0.1-7.4,2.7C151.5,146.2,149.9,146.6,148.2,146.9z"/>
	<path id="XMLID_3735_" class="cloud4_st32" d="M84.2,152.9c-0.1-1.6,0.9-2.2,2.2-1.9c7.2,1.2,14.5-0.7,21.6,1.4c1.5,0.5,3.9-0.1,4.2,2.5
		c-4.1,0.1-8.6-0.7-11,3.9c-1.6,0.5-3.1,1.1-4.7,1.5c-1.6,0.5-3.7,1-4.6-0.7C90.2,156.4,86.8,155.1,84.2,152.9z"/>
	<path id="XMLID_3734_" class="cloud4_st67" d="M62.2,145.9c0.7-1,1.3-2,2-3c3.5-1.3,7.2-2.4,11-1.8c1.6,0.2,4,0.4,3.6,2.4
		c-0.3,1.8,1.2,5-2.5,5.5c-3.6,1.5-6.6-2.1-10.1-1C64.9,147.2,63.6,146.6,62.2,145.9z"/>
	<path id="XMLID_3733_" class="cloud4_st8" d="M66.3,147.9c3.8-4.2,6.8-0.3,10.1,1c-0.4,2.5-2,2.7-3.9,1.9C70.3,150,68.3,148.9,66.3,147.9z
		"/>
	<path id="XMLID_3732_" class="cloud4_st18" d="M91.2,134.9c4.9,1.6,1.3,5.3,2,8c-0.7,1.1-2.2,0-3,1c0,0,0,0,0,0c-2.6-0.7-2.5-2.3-1.2-4.1
		C90.1,138.3,91.2,136.9,91.2,134.9z"/>
	<path id="XMLID_3700_" class="cloud4_st75" d="M419.2,97.9c-1.2,0.2-2.9-0.6-3.5,1c-0.4,1.1,1.3,1.3,1.8,2c1.7,2.4,2.4,4.7-1.3,6
		c-2.1,1.7-4.2,3.5-7.3,3.2c-3.1-4.6-7.4-5.5-12.7-4.9c-2.5,0.3-5.3,0.7-7.8-0.8c-4.4-4.8-10.7-5.5-16.2-8.1
		c-0.5-0.2-0.9-0.4-1.3-0.7c-0.9-0.8-1.1-2-2.2-3.2c-1.8,5.1-1.5,10.3-3,15.2c-3.5,3.9-7.4,7.4-12.6,9c-2.6,0.8-5.2,1.2-7.5,0.3
		c-2.5-1-4.7-2.7-5.7-5.5c-3.8,1.7-5.2-1.2-7.1-3.6c-2.7-3.4-7.1-3.1-10.7-4.7c-0.4-0.3-0.6-0.8-0.9-1.1c-1.4-1.9-4-3.6-2.2-6.4
		c1.8-2.8,4-0.9,6,0c1.2,0.5,2.3,0.4,3.3-0.4c2-1.4,4.3-1.6,6.5-1.7c1.2-0.9-0.3-0.7-0.4-0.7c-0.5-0.1-0.9-0.2-1.4-0.4
		c-1.5-1.1-3.2-2.1-2.5-4.3c0.6-2,2.6-1.7,4.1-2.3c3.8-1.4,7.4,1,11.1,0.6c6.8,2.3,12.7,0.7,19-2.8c5.6-3.1,12.2-2.2,17.4,2.4
		c1.2,1.1,2.7,1.6,4,2.6c6.5,3.5,13.7,5.1,20.1,8.7c2.4-0.5,2.9-3.9,5.6-3.9C414.2,95.2,418.6,93.5,419.2,97.9z"/>
	<path id="XMLID_3699_" class="cloud4_st48" d="M372.2,94.9c5.9,2.2,12.7,2.5,17,8c2.1,1.8,4.4,2.2,7.2,2c4.7-0.3,9.3,0.3,12.9,4
		c2.3-0.8,4.2-2.9,7-2c0.7,1,1.4,2,2.1,3c-0.1,0.2-0.3,0.4-0.4,0.6c-2.7,0.8-4.7,3.8-8.1,2.7c-0.5-0.1-1-0.2-1.5-0.2
		c-11.3,1-20.4-4-28.8-10.7c-1.6-1.1-3.6-1.5-5.1-2.7C372.9,98.4,370.9,97.4,372.2,94.9z"/>
	<path id="XMLID_3698_" class="cloud4_st76" d="M419.2,97.9c-2.7-1-5.3-2-8-3c-1.9,1-2.5,0-2.7-1.7c0.2-0.9,0.7-1.5,1.5-1.9
		c0.9-0.3,1.7-0.2,2.3,0.5c7.8,1.8,14.9,5.3,21.9,9.2c1,1.2,2.3,2.5,0.6,3.8c-1.4,1.1-2.6-0.2-3.2-1.3c-1.7-3-5-1.1-7.2-2.6
		C422.8,99.7,421,98.9,419.2,97.9z"/>
	<path id="XMLID_3697_" class="cloud4_st48" d="M433.2,113c-1.4-1-2-2.6-4.1-3.2c-2.9-0.7-5.1-1.7-5.6,2.6c-0.1,0.9-1.4,1.7-2.2,2.5
		c-0.3,0.1-0.5,0.1-0.8,0.2c-1.9,0.3-3.2-0.4-3.5-2.4c-0.1-1.2,0.2-2.2,1.3-2.8c0,0,0,0,0,0c0.7,0.5,2.1,1.8,2.3,0.6
		c0.8-6.6,6.2-3.3,9.1-3.9C432.7,106,433.1,110.1,433.2,113z"/>
	<path id="XMLID_3695_" class="cloud4_st30" d="M425.3,85.9c0.3,0,0.6,0,0.9,0c1.5,2.5,3.1,1.8,4-0.2c2.3-4.8,4-1.8,5.3,0.5
		c0.9,1.7,1.2,3.8,1.7,5.7c0,0.7,0,1.4-0.1,2.1c-1.9-1-3.7-2.1-6-1c-2.2-0.2-3.6-2.1-5.8-2.3c-1.2-0.1-2.8-0.1-2.8-2
		C422.6,86.9,423.6,86,425.3,85.9z"/>
	<path id="XMLID_3694_" class="cloud4_st77" d="M412.3,91.7c-0.7,0.1-1.4,0.1-2.1,0.2c-2.8,1.8-5.5,2-8.2-0.2c-1-1.7,0.1-2.8,1.2-3.8
		c3.1-0.2,4.4-3.2,7-4.2c1.5-0.6,3.4-1.8,2.4,1.7c-1,3.8,3.7,2.3,4.5,4.6C415.4,90,412.9,88.2,412.3,91.7z"/>
	<path id="XMLID_3693_" class="cloud4_st55" d="M425.3,85.9c-1.7,2.1-1.9,3.7,1.4,4.3c1.8,0.3,3.2,1.6,4.5,2.8c-4-0.7-8-1.3-12-2
		c0.8-0.4,1.1-1,0.9-2c-0.3-1.3-1.9-2.7,0-3.8C421.9,84.2,423.8,83.9,425.3,85.9z"/>
	<path id="XMLID_3692_" class="cloud4_st68" d="M439.3,73c0.7-0.7,1.4-1.3,2-2c0.3-0.4,0.6-0.7,1.1-0.9c3.8-0.8,5.6,0.5,7,4.5
		c1.3,3.7,4.9,6.5,8.5,8.8c0.1,0.2,0.3,0.4,0.4,0.6c1.2,1.7,5.8,1,4.4,3.8c-1.2,2.5-4.7,1.1-7.2,0.1c-1.1-0.4-2.2-0.6-3.3-0.9
		c-0.9,0.2-1.3,0-1-1c-3.8-1.7-5.2-6.7-10.5-6.8C438.7,79.1,440.2,75,439.3,73z"/>
	<path id="XMLID_3691_" class="cloud4_st78" d="M442.2,70.9c-0.3,0-0.6,0-0.9,0.1c-0.4,0-0.7,0-1.1-0.1c3.3-3.4,8.9-4.1,13-1.8
		c1.7,1,2.1,2.5,2,4.2c-0.1,2.6,1.1,4.8,2.2,7c0.8,1.6,2,2.4,3.6,1.2c2.3-1.8,4.3-1.1,6.3,0.5c1.2,1.7,2.2,3.7,4,5
		c0.5,1.4-0.2,2.2-1.5,2.5c-1.5,0.4-2-0.8-2.3-1.9c-0.6-2.3-1.4-4-4.3-2.6c-1.7-0.3-3.3-0.7-5-1c0,0,0,0,0,0
		c-4.4-2.1-7.2-5.8-9-10.1C447.7,70.1,445.2,70.3,442.2,70.9z"/>
	<path id="XMLID_3690_" class="cloud4_st27" d="M463.2,84.9c2.1-1.2,3.8-0.9,4.8,1.5c0.8,1.9,1.8,2.3,3.2,0.6c2,0,4,0,6,0
		c-2,1.7-4.2,3.3-5.3,5.8c-0.5,1.1-1.4,1.9-2.7,1.7c-1.6-0.2-1.3-1.6-1.5-2.7C467,89,467.2,85.6,463.2,84.9z"/>
	<path id="XMLID_3689_" class="cloud4_st1" d="M479.2,86.9c3.1-0.4,4.3,2.2,6,4C482.2,91.2,479.4,91.1,479.2,86.9z"/>
	<path id="XMLID_3688_" class="cloud4_st57" d="M451.2,85.9c0.3,0.3,0.7,0.7,1,1c0.3,1.2,1.4,2.5-0.4,3.3c-0.4,0.2-1.4-0.2-1.6-0.6
		C449,88.1,450,86.9,451.2,85.9z"/>
	<path id="XMLID_3686_" class="cloud4_st38" d="M401.3,37.7c3.1-0.1,3.3-2.7,4.2-4.7c-0.3-2.2-0.5-4.3,2.2-5.2c3.2-0.5,2.8,2.4,3.7,4
		c3.4,3.4,9.1,4,11,9.1c-2.8-1.8-5.6-3.5-8.3-5.4c-2.1-1.5-3.6-0.5-5.2,0.9C406.6,38.1,404.2,40,401.3,37.7z"/>
	<path id="XMLID_3685_" class="cloud4_st70" d="M417.2,77.9c0.8,0.2,1.7,0.3,2.4,0.7c1.4,0.8,2.5,2,1.8,3.6c-0.8,2-2.5,0.9-3.8,0.5
		c-0.8-0.2-1.6-0.5-2.4-0.7C412.5,78.9,415.1,78.5,417.2,77.9z"/>
	<path id="XMLID_3683_" class="cloud4_st79" d="M408.1,80.9c-0.8,2.1-2.6,2.2-4.1,2.5c-1.7,0.3-3.6-0.2-3.7-2.2c-0.2-1.9,1.6-2.2,3.1-2.2
		C405.2,79,406.9,79.4,408.1,80.9z"/>
	<path id="XMLID_3681_" class="cloud4_st13" d="M370.2,67.9c-1.6-1.3-3.3-2.6-5-4c2.9-1.9,5.2,1.9,7.8,0.3c-0.1-1.8-2.2-1.9-2.8-3.2
		c1.8-0.8,4.1-1.2,5.3-2.5c3.6-4.1,7.5-3.2,11.7-1.6c0,0.3,0,0.7,0,1c-1.4,0.8-3.5,1.2-4.2,2.4C380,65.2,375.3,66.8,370.2,67.9z"/>
	<path id="XMLID_3680_" class="cloud4_st33" d="M409.2,67.9c0.5-2.1,1.8-3.5,3.4-4.8c1.1-0.8,2.6-1.7,3.5-0.3c0.9,1.4,3.2,2.4,2.4,4.6
		c-0.6,1.7-2.5,1.5-3.9,1.3C412.8,68.6,411,68.2,409.2,67.9C409.2,67.9,409.2,67.9,409.2,67.9z"/>
	<path id="XMLID_3679_" class="cloud4_st48" d="M482.2,28.9c0,0.7,0,1.3,0,2c-1-0.2-2.2-1-2.8-0.6c-6.2,2.9-11.2,0.1-16.3-2.8
		c-3.6-2.1-7-1.5-9.9,1.5c-1.8-0.2-4-0.5-3-3c1-2.4-0.5-4-1-5.9l13.9,3.2c4,3.9,9,4.4,14.3,4.3C479.1,27.4,481.1,26.9,482.2,28.9z"
		/>
	<path id="XMLID_3677_" class="cloud4_st37" d="M482.2,28.9c-7.5,1.2-14.6,0.9-20.5-4.6c-0.9-0.8-2.3-1.3-3.2-0.5c-4.2,3.5-6,0.8-7.7-2.6
		c-0.3-0.5-1-0.8-1.5-1.2c-1.5-0.7-3.3-1.1-4-3c-2.6-2-1-3.3,0.8-4.5c2.1-1.4,4.7-1.3,7.1-1.9c1.9,0.2,3.8,0.3,5.6,0.5
		c1,0.4,1.8,1.1,2,2.2c0.3,2-2.2,2.3-2.7,4.1c5,2.4,9.7,5.3,15.7,5.2c3.8,0,7.4,1.8,10.5,4.2C483.9,27.9,483.2,28.6,482.2,28.9z"/>
	<path id="XMLID_3673_" class="cloud4_st71" d="M484.2,26.9c-6.9-0.2-13.8-1.4-20.2-3.7c-3.6-1.3-7.8-2.1-10.8-4.9
		c-0.7-0.6-1.7-1.5-1.7-2.3c0-1.2,1.4-1.2,2.3-1.3c2.1-0.4,4.3-0.6,6.4-0.9c0.8-2.8,3.6-2.4,5.4-3.5c1.6-0.8,3.2-1.5,4.9-2
		c2.6,0,5.2-0.2,6.3,2.9c0.5,0.8,0.8,1.8,1.3,2.6c3.5-0.3,7-1.7,10.7-0.4c-3.7,6.8-4.9,7.4-11.1,5.2
		C479.9,21.9,484.5,22.6,484.2,26.9z"/>
	<path id="XMLID_3637_" class="cloud4_st51" d="M421.1,115c-8.1-1.3-16,1.3-24,1.2c-1.9,0-3.9,0-5.8,0c-4-0.1-5.7,1.7-5.1,5.7
		c-4.1,0.8-6.1-1.4-7-5c0.3-1,0.7-2,1-3c3.8-3,8.3-2.7,12.7-2.8c3.7,1.3,7.4,0.2,11.1-0.1c1.7-0.1,3.4-1.3,5.2-0.1
		c0.3,0,0.6,0,0.9,0.1c2.5,1.6,6.1-1.6,8,2C419.2,113.6,420.1,114.3,421.1,115z"/>
	<path id="XMLID_3636_" class="cloud4_st80" d="M362.3,118c0.7-0.7,1.3-1.3,2-2c1.9-0.7,3.5-1.8,5-3.2c1.2-1.1,2.6-1.3,3.9-0.3
		c1.3,1.1,1.8,2.3,0,3.5c-3.2,2.1-3.2,4,0.5,5.6c0.5,0.2,1,0.3,1.4,0.6c1.4,0.9,4.2,1.5,3.2,3.6c-1,2.1-3.5,1.8-5.7,1
		C367.9,125.1,364.7,122,362.3,118z"/>
	<path id="XMLID_3635_" class="cloud4_st66" d="M393.2,112.9c-4.3,0.5-8.6,1.3-13,1c-1.3-0.7-2.7-1.3-4-2c-3-1.4-4-4.6-6-7c0.3-1,0.6-2,1-3
		c-0.2-3,1.9-2.6,3.6-2.1c2.2,0.6,4.2,1.8,6.2,3c3.8,2.3,6,7.2,11.4,7.2C393.4,110,394,111.6,393.2,112.9z"/>
	<path id="XMLID_3634_" class="cloud4_st51" d="M370.2,105c4.5,0.2,6.3,2.6,6,7c-0.7,1.5-1.1,3.3-3,4c0.3-2.9-1.5-2.5-3-1.8
		c-1.9,0.9-3.7,1.9-5.9,1.8C367.7,113,368.7,108.8,370.2,105z"/>
	<path id="XMLID_3633_" class="cloud4_st66" d="M379.2,116.9c2.3,1.8,5.6,2,7,5c0,0.3,0,0.7,0.1,1c0.3,0.2,0.4,0.5,0.3,0.7
		c-0.1,0.2-0.2,0.3-0.3,0.3c-2.1,0.8-3.7,1.8-5.8-0.8c-1.6-2-4.6-2.8-7.2-4.3C374.5,115.9,377.5,118.2,379.2,116.9z"/>
	<path id="XMLID_3632_" class="cloud4_st81" d="M406.2,130.9c-3,0-6,0-9,0c-1.1-2.1-3.2-2.8-5-4c1.7-0.8,3.3-0.8,5,0l0,0
		c2.1,1.7,4.4,2.8,7.2,2.5C405.4,129.4,406.6,129.3,406.2,130.9z"/>
	<path id="XMLID_3631_" class="cloud4_st82" d="M397.2,126.9c-1.7,0-3.3,0-5,0c-2.5,0-5.1,0.2-6-3c0-0.3,0-0.7,0.1-1
		C389,126.7,393.9,124.6,397.2,126.9z"/>
	<path id="XMLID_3630_" class="cloud4_st82" d="M406.2,130.9c-2.8-1.7-7.1-0.1-9-4c8.5,2.3,17.1,4.1,26,4c-0.2,4.5-3.7,5.2-7,6
		c-3.4,0.1-6.8,0.3-7.1-4.6C409,131.1,407.4,131.1,406.2,130.9z"/>
	<path id="XMLID_3629_" class="cloud4_st29" d="M372.2,94.9c1.5,3.6,5.8,3.4,8,6c-1.4,1.7-2.9,1.1-4.4,0.2c-2.9-1.8-5-0.7-6.6,1.9
		c-3.6,8.3-8.7,15.5-16,21c-3.3-0.6-5.5-3-8-5c0.7-1.7,2.3-1.6,3.7-1.8c6-0.8,11.3-2.6,14.4-8.3c0.4-0.7,1.2-1.2,1.9-1.6
		c1.9-2.5,0.2-5.2,0.5-7.7c0.1-1.5-0.5-2.9,0-4.4c0.7-1.9,1.3-3.9,3.7-4.1C372.2,90.8,371.3,93.6,372.2,94.9L372.2,94.9z"/>
	<path id="XMLID_3628_" class="cloud4_st47" d="M369.2,102.9c1-3.2,3.1-4,6.2-2.9c1.5,0.5,3.2,0.6,4.8,0.9c2.9,1.9,5.9,3.7,8.8,5.6
		c4.8,3.2,9.7,5.8,15.8,3.6c1.4-0.5,3-0.1,4.3,0.8c-5.3,0.7-10.7,1.3-16,2c-1.5-2.1-3.2-1.1-5.2-0.9c-2.6,0.3-6.2,1.3-5.4-4.1
		c0.6-3.6-6.4-7.1-11.4-6.1C370.6,102.3,369.9,102.6,369.2,102.9z"/>
	<path id="XMLID_3550_" class="cloud4_st57" d="M269.2,106.1c0.3,0.3,0.6,0.6,0.9,0.9c0.7,2.4-1.2,2.6-2.4,2.4c-6.5-1.1-12.7,0.4-19.1,1.1
		c-0.4,0-0.9-0.4-1.3-0.7c-4.5-5.1-10.3-6.9-16.8-6.5c-2,0.1-3.9,0.5-5.8-0.6c-1.1-0.6-2.8-0.8-2.7-2.5c0.1-1.9,1.7-2.2,3.3-2.4
		c6.3,1.3,12.5,3.3,18.9,0.5c1.3-0.6,2.6,0.1,3.8,0.7c3,1.5,5.9,3,9.4,1.4c1.7-0.8,3.3,0.4,4.2,1.8C263.4,104.9,266,106,269.2,106.1
		z"/>
	<path id="XMLID_3549_" class="cloud4_st77" d="M289.2,103.9c2.5-1.8,1-3.3-0.2-4.9c-1.1-1.5-3.2-2.7-1.8-5.1c4.5,0.5,6.3,3.7,7.6,7.4
		c0.4,1.4,0.6,2.9,1.3,4.1c0.9,1.3,1.8,2.6,3.5,3.2c1.4,0.5,2.6,1.5,1.7,3.3c-1.2,0.5-2.4,1.2-3.7,1.5c-5.3,1.2-8-1.3-8.4-7.5
		C289.2,105.3,289.2,104.6,289.2,103.9z"/>
	<path id="XMLID_3546_" class="cloud4_st83" d="M157.3,122c-2.7-0.7-3.3,2.1-5,2.9c-0.8,0.8-1.7,0.6-2.7,0.3c-1.5-0.7-3.3-1.1-3.3-3.3
		c-0.6-0.6-1.2-1.2-1.9-1.8c3.4-4,8.1-3.9,12.8-4.2c4.8-1.7,9-5,14.3-5.1c1.2,0,2.1-0.8,2.8-1.7c1.8-1.1,3.7-1.4,5.7-0.9
		c2.2,0.6,3.4-0.4,4.4-2.1c2.6-1.8,4.6-0.3,5.6,1.8c1.5,3.1-1.7,4.1-3.4,5.7c-0.8,0.7-1.8,1.1-2.6,1.7c-2.1,1.3-4.4,1.8-6.6,1.2
		c-3.3-0.9-5.9,0.5-8,2.5c-3.1,3-6.7,4.1-10.9,3.9C158,122.7,157.6,122.4,157.3,122z"/>
	<path id="XMLID_3545_" class="cloud4_st41" d="M201.2,100.8c3.5,0.4,6.8,1.9,10.1,3.1c5,2.4,9.9,4.8,14.9,7.3c1.3,2.1,0.4,3.9-0.9,5.6
		c-3.9,2.5-7-1.1-10.5-1.2c-1.2-1-2.3-2.5-4.3-1.3c-3.6,2-6.2,0.1-8.6-2.4c-0.7-2.1-1.3-3.7-4.2-3.8c-2.5-0.1-4.1-2.2-2.4-5
		C197.2,102.2,199.2,101.5,201.2,100.8z"/>
	<path id="XMLID_3544_" class="cloud4_st58" d="M195.2,102.9c0.5,1.6,1.1,3.2,3.1,3.2c3.4,0,4.4,2.2,5,4.8c-1.9,1.8-4.6,0.7-6.7,1.9
		c-2.4-0.6-3.1,1.3-4.1,2.7c-0.6,0.5-1.2,0.9-2,0.9c-0.8-0.1-1.5-0.1-2.3-0.3c-1.3-0.8-2.5-1.7-2.9-3.3c0.3-0.6,0.4-1.3,0.9-1.7
		c4.4-3.4,1.6-4.3-1.7-5.2c-0.7-2.6,1.2-2.7,2.9-3c2,0.4,3.7,2.6,6,1C193.9,103.6,194.5,103.2,195.2,102.9z"/>
	<path id="XMLID_3543_" class="cloud4_st84" d="M174.3,109c-4.8,4.5-11,5.7-17.1,6.8c3.3-4.1,8.1-5.2,12.9-6.2
		C171.4,109.3,172.9,109.5,174.3,109z"/>
	<path id="XMLID_3542_" class="cloud4_st41" d="M193.2,103.9c0.7,1.9,0.2,3-2,2.3c-1.8-0.5-3.3-1.4-4-3.3
		C189.5,101.8,191.4,102.8,193.2,103.9z"/>
	<path id="XMLID_3541_" class="cloud4_st64" d="M224.2,115.9c0-1.9,0.5-3.5,1.9-4.8c4.5-1.8,9-1.7,13.5,0.4c2.4,1.1,5.1,1.6,7.6,2.4
		c2-1.4,4-3.3,5.9,0.2c4,2.1,7.1,7.1,12.8,4.2c0.5-0.2,1.6-0.1,1.9,0.2c3.4,4.4,9.2,4.6,13.4,7.3c0.7,0.7,1.3,1.4,2,2.1
		c1.4,1.3,2.1,2.8,0.7,4.4c-1.9,2.1-4.6,1.4-6.5,0.5c-2.5-1.3-4.6-2.9-7.6-1.5c-0.5,0.3-1.5,0-1.8-0.5c-2.8-4.3-7.7-3.9-11.6-5.1
		c3.3,0.2,6,2.6,9.2,3.7c2.2,0.8,3.5,2.8,2.7,5.7c-0.8,2.7-2.7,3.1-5,3.1c-5.5,0-9.1-4.3-13.8-6.1c-1.5-0.6-2.9-2-4.5-1.4
		c-6.9,2.4-11.8-0.4-15.9-5.7c-1.2-1.2-2-2.8-3.9-3.1C222.5,120.3,221.7,118.4,224.2,115.9z"/>
	<path id="XMLID_3539_" class="cloud4_st15" d="M112.1,132.9c0.1-4.5,2.4-5.9,6.7-4.9c1.9,0.4,3.8,0.8,5.4,2
		C120.1,130.4,116.4,133,112.1,132.9z"/>
	<path id="XMLID_3538_" class="cloud4_st5" d="M90.2,143.9c1-0.3,2-0.7,3-1c4.3,2.4,8.7-0.3,13,0c-3,4.3-7.3,3-11.3,2.5
		C93.3,145.2,91.8,144.5,90.2,143.9z"/>
	<path id="XMLID_3537_" class="cloud4_st17" d="M146.3,121.9c1.3,0.7,2.6,1.3,4,2c0.4,1,0.5,2-0.1,2.9c-1,1.3-2.2,2.2-3.9,1.1
		C141.1,125.8,144.1,123.9,146.3,121.9z"/>
	<path id="XMLID_3536_" class="cloud4_st21" d="M152.2,134.9c-0.3,0-0.7,0-1,0c-2.1-0.9-4.7-1.6-1.1-4.1c0.1-0.3,0.1-0.5,0.2-0.8
		c0.7-1.5,1.3-3.2,3.5-2.2c1.7,0.8,1.2,2.4,1,3.9C154.5,133.3,153.8,134.4,152.2,134.9z"/>
	<path id="XMLID_3535_" class="cloud4_st36" d="M146.2,127.9c1-0.7,2-1.4,3-2.1c4,1,3.2,2.9,1,5.1c0,0,0,0,0,0
		C148.7,130.1,144.4,133.1,146.2,127.9z"/>
	<path id="XMLID_3478_" class="cloud4_st18" d="M365.2,107.9c-4,8.5-11.4,10.9-20,11c-2.6-1.8-4.8-4.2-8-5c-2.9-0.9-6.1-0.3-8.7-2.7
		c-1.6-1.5-3.4-0.7-4.1,1.5c-0.3,1.1-0.5,2.3-1.1,3.2c-1,1.3-2.3,2.2-3.8,1.5c-4.5-2.1-9.7-1.6-14.2-3.6c-0.5-0.5-0.8-1.2-0.7-2
		c3.8-4.8,9-7.7,14.1-10.8c1.9-1.1,3.8-0.3,5.5,0.8c2.4,0.6,4.8,1.2,7.2,1.8c2.4,0.5,4.4,1.4,4.9,4.2c0.2,1,0.5,2.1,1.8,2.1
		c1.5-0.1,1.7-1.4,1.9-2.5c0.2-1.4-0.2-3.7,1.8-3.4c2.2,0.3,1.4,2.7,1.2,4.1c-0.4,2.6-0.7,5,2,6.5c2.7,1.4,5,1,7.9-0.1
		c4.8-1.7,8.2-5.1,12.2-7.7c0.3,0.2,0.4,0.5,0.3,0.7C365.4,107.8,365.3,107.9,365.2,107.9z"/>
	<path id="XMLID_3477_" class="cloud4_st6" d="M323.3,116c-0.3-2.5-0.6-4.9-0.8-7.4c-0.1-1.2,0.5-2.3,1.7-2.9c1.3-0.6,2.6,0,3,1.1
		c1.7,4.8,5.9,5.9,10.1,7.1c-1.7,0-3.4,0-5.1,0.1C328.5,111.5,325.8,113.2,323.3,116z"/>
	<path id="XMLID_3476_" class="cloud4_st20" d="M305.2,111.9c0,0.7,0,1.3,0,2c-1.3-0.7-2.7-1.3-4-2c-1.6-2.7-5.7-1.9-7.1-5
		c4.6-3.6,7.4,0.1,10.4,2.7C305.2,110.3,305.4,111.1,305.2,111.9z"/>
	<path id="XMLID_3475_" class="cloud4_st38" d="M229.2,125c3.2,0.8,5.2,4,8.7,4.6c2.3,0.4,4.3,0.9,6.7,0.1c4.8-1.5,8.2,2.5,12.3,3.9
		c2.3,0.8,4.5,2.1,7.1,2.2c1.2,0,2.5-0.1,2.6-1.6c0.1-1.4-0.8-2.1-2.1-2.4c-5.5-1-8.3-6.2-13.2-8.2c-0.7-0.3-1.5-1.2-0.9-2
		c0.8-1.2,1.8-0.4,2.4,0.4c2.5,2.9,5.2,3.4,8.9,1.9c2.6-1,5.9-1.8,6.4,3.1c0.2,2,2,3.3,3.9,1c2.1-2.5,3.3-1.5,4.2,0.8
		c0.7,1.9,2,3,4.1,2.9c2.5-0.1,2.9-1.9,3-3.8c1.7,0,3.2,0.5,4.7,1.3c4.2,2.1,7.9,5.4,13.2,4.7c1.5-0.2,5.1,0.4,4,4.1
		c-0.7,0-1.6,0.4-2,0.1c-6.3-5.6-12.1-0.8-18,0.9c-1.9,0.5-3-1-3.5-2.1c-1.6-3.3-5.2-3-7.7-4.8c-1.8-1.4-2,2.5-3.9,2.9
		c-0.2,3.7,3.4,2.6,5,4c0.9,1.4,0.7,2.3-1.1,2.1c-2.9-0.3-5.2,0.6-6.9,2.9c-4.2,2.2-7,0-9.4-3c-4.6-5.7-9.8-9.5-17.8-8.3
		C234.9,133.3,231.3,130.3,229.2,125z"/>
	<path id="XMLID_3474_" class="cloud4_st61" d="M191.2,113.9c0.9-1.8,2.2-3.2,4-4c2.1-0.4,3.8,0.3,5.5,1.5c3,2.1,5.6,4.3,9.9,2.4
		c2.8-1.2,8.1,4.1,8.5,8.2c0.2,2.1,0.6,4,1.2,6c1,5.8,6.8,6.4,10.2,9.6c0.6,0.3,1.1,0.8,1.6,1.3c0.4,0.6,0.7,1.3,1.1,1.9
		c-0.7,2.3-3.5,1.3-4.6,3.1c-1,0.5-1.9,0.3-2.9,0c-5.1-1.8-9.5-4.8-13.9-7.8c-1.2-0.7-1.8-1.7-1.8-3c1.2-2.1,0.7-4.4,0.9-6.6
		c0.1-1.3,0.3-2.8-1-3.5c-1.7-0.9-2.6,0.8-3.6,1.7c-2.5,0.8-1.8,5.1-5.2,4.9C195.8,125.7,191.6,120.9,191.2,113.9z"/>
	<path id="XMLID_3473_" class="cloud4_st68" d="M219.2,129c-1.5-1.7-1.8-3.8-2-6c-0.5-5.7-3.7-8.1-9.1-6.8c-2.5,0.6-4.2-0.4-5.8-1.9
		c-2-2-4.3-3.5-7-4.4c3-2.1,5.3,0.6,8,1c2.5,1.7,4.9,3,8,0.8c2.1-1.5,3.1,0.5,4.1,2.1c3.5,1.1,6.5,2.5,6,7c-0.1,3.1,0.7,4.8,4.3,5.9
		c5.5,1.7,6.1,7.2,6.6,12.2c-0.6,0-1.3-0.1-1.9-0.1C226.9,135.3,222.4,132.8,219.2,129z"/>
	<path id="XMLID_3472_" class="cloud4_st32" d="M286.2,145.9c-0.3,0.7-0.7,1.3-1,2c-2.5,2.2-4.9,3.4-7.7,0.3c-1.7-1.8-4.3-2.5-6.5-1.5
		c-9.6,4.5-18.1,0.2-26.8-2.8c0.3-4.3,2.9-4.1,6-3.3c3.3,0.9,5.2,3.7,8,5.2c4.1,1,7.8,0.9,11.7-1.5c3.4-2,7.6-3.5,10.8,1.3
		C282.1,147.7,284.4,146.2,286.2,145.9z"/>
	<path id="XMLID_3471_" class="cloud4_st68" d="M258.2,145.9c-1.8-0.8-3.6-1.5-5.3-2.4c-3-1.5-5.9-1.9-8.7,0.5c-2.3-0.2-4.2,0.7-6,2
		c-0.4,0.3-0.9,0.4-1.4,0.2c-1.3-1.2-2.8-2.2-1.6-4.3c2.7-2.1,2.5-7.4,8.1-6.6c2.7,0.4,4.7,0.2,6.8,2.7
		C252.5,140.8,256,142.7,258.2,145.9z"/>
	<path id="XMLID_3470_" class="cloud4_st85" d="M235.3,141.9c0.7,1.3,1.3,2.6,2,4c-0.5,3.5-0.2,7-2.5,10.1c-1.4,1.9-0.2,4.1-0.1,6.1
		c-0.1,0.5-0.2,1-0.5,1.4c-1.8,2.1-4.4,2-6.7,1.9c-2.7-0.1-4.7-2.3-3.7-4.6c2.5-5.8,3.3-11.8,4.5-17.8c0.7-3.1,2.9-2.5,5-2
		C233.9,141.2,234.6,141.6,235.3,141.9z"/>
	<path id="XMLID_3469_" class="cloud4_st38" d="M221.3,120.9c-1.8-2.5-3.6-5-6-7c3.5-1.5,5.7,2.7,9,2c0,2,0.1,4.1,1,5.9
		C223.9,121.5,222.6,121.2,221.3,120.9z"/>
	<path id="XMLID_3468_" class="cloud4_st58" d="M270.2,134.9c2.4-4.3,6.7-4.2,11.3,0.2c1.3,1.2,2.5,2.6,3.7,3.8c-2.4,1-3.6-0.9-5-2.2
		C277.3,133.9,274,133,270.2,134.9z"/>
	<path id="XMLID_3467_" class="cloud4_st57" d="M308.2,142.9c1,1.7,0.9,3.1-1.1,3.9c-1.4,0.6-2.5,1.5-2.9,3c-2.1-2.1-3.6-4.2,1.2-4.4
		C307.3,145.4,308,144.6,308.2,142.9z"/>
	<path id="XMLID_3466_" class="cloud4_st58" d="M267.2,143.9c1.1-4.1,5.2-3.5,8-5c1.1,2.1-0.2,2.7-1.9,2.9
		C271.1,142.1,269.1,142.9,267.2,143.9z"/>
	<path id="XMLID_3464_" class="cloud4_st12" d="M249.2,169.9c-0.7,0-1.3,0-2,0c-1.6-2.2-5.2,0-6.4-3c0.5-1.8,2-1.8,3.4-2c3,0.3,6,0.7,9,1
		c2.1-1.7,2.7-6.1,7-4c4.1,0.4,8-0.7,12-1c-3.9,3.1-8.4,4.3-13.2,5.1C255.5,166.6,251.7,166.7,249.2,169.9z"/>
	<path id="XMLID_3463_" class="cloud4_st55" d="M244.3,164.9c-0.6,1.4-1.6,1.9-3,2c-1.8,0.7-3.6,0-5.4-0.3c-2-0.3-3.5-1.3-2.6-3.7
		c0-0.3,0.1-0.6,0.1-0.9c2.3,1.3,4.6,0,6.9-0.1C241.8,162.7,243.3,163.4,244.3,164.9z"/>
	<path id="XMLID_3462_" class="cloud4_st53" d="M260.2,161.9c-3.2-0.3-4.2,3.5-7,4C252.5,160,253.4,159.5,260.2,161.9z"/>
	<path id="XMLID_3461_" class="cloud4_st53" d="M233.2,162.9c1.4,3.8,5.4,2.6,8,4c1.3,0.8,2.7,1,4.1,0.7c2-0.4,2.1,0.8,1.9,2.2
		c-7.6-1.1-15.1-3.9-23-3c-5.5-4.2-11.3-0.5-16.9-0.6c-2.8,0-5.3,0.1-7.1-2.3c0.1-0.2,0.1-0.5,0.2-0.7c1.1-1.8,3.1-1.1,4.6-1.8
		c2.5,0,5-0.3,7.4-0.7c6.2-1,9.2-5.3,8.3-11.6c-0.7-4.5,2.8-5.5,5.5-7.3c0.7,0.3,1.3,0.7,2,1c2.1,1.5,3.5,2.4,1.6,5.7
		c-2.1,3.7-2.6,8.4-3.7,12.6c-0.4,1.8,0.9,2.5,2.3,2.4C230,163.6,231.6,163.2,233.2,162.9z"/>
	<path id="XMLID_3460_" class="cloud4_st86" d="M183.3,149.9c-1-0.3-2-0.7-3-1c-3.9-4.8,1.8-4.9,3.5-7c3.4-1,6.6-3.2,10.4-2.4
		c2.5,1.9,2.1,4.2,0.2,5.9c-3.3,2.8-2.8,5,0,7.8c1.1,1.1,1.9,2.6,3,3.9c0.4,0.6,0.7,1.2,1.2,1.7c0.8,1.6,3,2.7,1.7,5
		c0,0,0,0.1,0,0.1c-4.6-1.2-7.8-4-9.6-8.4C189.3,152.3,186.9,150.3,183.3,149.9z"/>
	<path id="XMLID_3459_" class="cloud4_st87" d="M184.2,143.9c0.2,2.9-5.2,1.3-4,5c-2.3,0.7-4.7,3.8-7,0c3,0,4.2-1.3,3.5-4.3
		c-0.6-2.2-0.9-4.5-1.4-6.7c0.5-1.4,1.5-2.1,3.1-1.7c1.8,1.1,2.6,3.3,4.6,4.2C184.4,141.1,185,142.3,184.2,143.9z"/>
	<path id="XMLID_3458_" class="cloud4_st88" d="M118.9,144.6c-2.9,2.2-5,2.8-7.4,1.3c-0.8-0.5-1-1.6-0.2-2.1
		C113.7,142.4,115.8,144,118.9,144.6z"/>
	<path id="XMLID_3457_" class="cloud4_st73" d="M185.2,112.9c1.3,0.3,2.3,0.9,3.1,2c-3.3,3.9-5.9,8.5-12.1,8.9c-3.2,0.2-2.8,3-1.5,5.3
		c1.7,2.8,1.8,5.2-1.5,6.9c-2.8-5.4-8.6-5.6-13.4-7.7c-3-1.3-5-2.9-2.5-6.3c0.3-0.1,0.6-0.1,0.9-0.1c4.1,1.1,7.8,1,11-2.7
		c1.9-2.2,4.7-3.5,8-2.7c2.5,0.6,4.7-0.3,6.1-2.6C183.9,113.6,184.5,113.2,185.2,112.9z"/>
	<path id="XMLID_3456_" class="cloud4_st23" d="M173.1,136c0.3-1.7,1.6-3.6-0.7-4.8c-2.2-1.1-3.7-2.4-2.3-5c1.2-2.4,1.7-5.4,5.8-4.5
		c3,0.6,5.4-1,7.1-3.5c1.3-1.9,2.9-3.2,5.2-3.3c0.6,0,1.3-0.1,1.9-0.1c1.2,2.3-0.4,3.2-2,4.2c-2.3,2.7-6.5,3.7-7.4,7.8
		c0.4,1.7,0.1,3.5,0.7,5.2c-0.1,2-1.9,3-2.7,4.6c-0.2,0.1-0.4,0.2-0.6,0.3c-1,0.3-1.9,0.6-2.9,0.9
		C174.6,137.2,173.9,136.6,173.1,136z"/>
	<path id="XMLID_3455_" class="cloud4_st73" d="M150.2,130.9c1-1.9,0.9-3.7-1-5.1c0.3-0.6,0.7-1.3,1-1.9c0.7,0.3,1.3,0.7,2,1
		c3.9,1.9,4.1,5,3,8.6c-0.5,1.7-1.5,1.9-3,1.4c0.4-0.6,0.7-1.1,1.1-1.7c0.6-1.2,1.4-2.6,0.2-3.6
		C152.1,128.5,151.5,130.9,150.2,130.9z"/>
	<path id="XMLID_3432_" class="cloud4_st4" d="M305.2,111.9c-0.3-0.3-0.7-0.7-1-1c-1.2-2.9-3.3-4.5-6.5-4.6c-2.1-0.1-4.2-1.1-3.3-3.2
		c1.3-3.2-0.7-4.5-2.3-6.4c-2.9-3.4-2.1-5.4,2.2-6.1c5.8,1.9,12.6,0.6,17.8,5c1.2,1,3.1,0.7,3.4-0.7c1.2-5,4.1-3.5,7.1-2.3
		c0.8,0.3,1.6,0.2,2.5,0.3c2.5,0.1,4.9,0.6,7.4,0.7c1.8,0.1,4.1,0.3,3.7,3.2c-4.6-0.9-9.4,2.2-14-0.5c-0.3-0.2-1.2,0-1.3,0.1
		c-0.1,0.6-0.3,1.4,0,1.8c1,1.3,2.2,2.4,3.3,3.6c-5.7-1.7-3.6,6.4-6.4,5.8c-3.9-0.8-5.8-1.8-6.6,3.5
		C310.8,114.1,307.3,111.3,305.2,111.9z"/>
	<path id="XMLID_3431_" class="cloud4_st57" d="M385.2,90.1c0.7-0.3,1.3-0.6,2-0.9c3.8-1.4,7.1-2.2,8.2,3.4c0.7,3.7,4.3,1.9,6.3,2
		c2.2,0.1,0.4-2.3,0.6-3.5c2.6,0.3,5.3,0.6,7.9,0.9c-0.3,0.3-0.7,0.7-1,1c-1.3,1.1-2.3,2.4-1.9,4.3c0.2,0.9,0.7,2.1-1.1,1.8
		C399.3,95.9,391.4,95,385.2,90.1z"/>
	<path id="XMLID_3430_" class="cloud4_st17" d="M336.2,96.9c-3.4-2.2-8.3,0-11.1-3.8c0.4-0.7,0.8-1.5,1.2-2.2c2.3-3.1,5.5,1.1,8-0.9
		c5-0.6,5.8,2.8,6.4,7C339.1,96.9,337.6,96.9,336.2,96.9z"/>
	<path id="XMLID_3429_" class="cloud4_st63" d="M409.2,108.9c-5-0.8-10-1.7-15-2.3c-2.5-0.3-3.7-1.9-5-3.6c4.4,1.6,8.8-0.6,13.2-0.1
		C406.5,103.3,408.8,104.9,409.2,108.9z"/>
	<path id="XMLID_3428_" class="cloud4_st28" d="M334.2,90c-2.5,2-5.2,1.3-8,0.9c-0.3-3.4,2-4.6,4.7-5.3c5.9-1.5,11.1-0.4,15.3,4.3
		c-4.3-0.3-8.1-4.1-12.7-1.6c-0.5,0.3-2,0.2-0.8,1.4C333.1,89.9,333.7,89.9,334.2,90z"/>
	<path id="XMLID_3427_" class="cloud4_st48" d="M365.2,107.9c0-0.3,0-0.7,0-1c0.6-4.4-1.3-8.9,0.3-13.3c0.8-2.2,1.1-5.9,3.9-5.4
		c2.5,0.5,3.4,3.8,2.8,6.7c-1-1-1.5-2.9-3.4-2.3c-2,0.7-2.3,2.5-2.6,4.4C365.6,100.6,368.4,104.6,365.2,107.9z"/>
	<path id="XMLID_3426_" class="cloud4_st63" d="M406.3,99c-0.3-2.6-3.5-6.7,3-6.1c0.4,1,1,1.6,2,2c-3,2.6-0.1,4.9,1,8.1
		C409.8,101.4,408,100.2,406.3,99z"/>
	<path id="XMLID_3425_" class="cloud4_st65" d="M418.2,112.9c-2.7-0.7-5.4-1.3-8-2c2.8,0.5,5.1-2.4,8.1-1
		C418.2,110.9,418.2,111.9,418.2,112.9z"/>
	<path id="XMLID_3423_" class="cloud4_st29" d="M442.2,70.9c6.1-1.9,7-1.2,9.6,4.2c1.6,3.2,3.5,6.4,6.4,8.8c-4.8-2.4-11.1-3.1-11.7-10.5
		C446.4,71.2,444,71.2,442.2,70.9z"/>
	<path id="XMLID_3420_" class="cloud4_st31" d="M406.3,23.9c-1.3-0.3-2.7-0.7-4-1c-0.6-3.7-5.1-5.6-10.4-3.8c-2.3,0.8-4.4,1.1-6.7,0.7
		c-0.8-1.6-2.6-2.9-2-5.1c0-0.6,0.1-1.3,0.1-1.9c1.9-2.9,4.3-2.4,6.9-1.1c3.9,1.8,8.1,3,12.3,3.8c6.7,2.5,13.7,2.8,20.7,2.4
		c1,0,2,0,3,0c-1.8,2.6-4.7,3.3-7.5,3.2C414.2,20.9,410.3,22.4,406.3,23.9z"/>
	<path id="XMLID_3414_" class="cloud4_st1" d="M304.3,19.9c2.9-1,5.9-1.1,8.9-1c-0.9,5.4-4.7,3.4-7.9,3.1C304.9,21.3,304.6,20.6,304.3,19.9
		z"/>
	<path id="XMLID_3413_" class="cloud4_st89" d="M305.3,22c2.9-0.3,6.2,0.3,7.9-3.1c1.3,2.4-0.8,3.5-1.9,5C309.2,23.3,307.3,22.7,305.3,22z"
		/>
	<path id="XMLID_3412_" class="cloud4_st13" d="M367.2,70.9c-2.9-0.2-4-2.4-5.9-5.3c3.7,0.5,5.4,2.2,6.9,4.3
		C367.9,70.2,367.5,70.6,367.2,70.9z"/>
	<path id="XMLID_3411_" class="cloud4_st78" d="M294.4,90.8c-2.9,3.5-2.4,5.2,2,6.6c2.7,0.9,6.1,0.5,7,4.4c-0.7,0.2-1.1,0.3-1.6,0.3
		c-2,0.1-5.1-1.4-5.6,1.3c-0.5,2.7,2.7,2.1,4.5,2.6c2.5,0.7,3.4,2.4,3.6,4.8c-2.9-2.5-5.9-4.5-10-4c-1.1-5-2.4-9.9-7-13
		C288.9,91.2,290.9,89.3,294.4,90.8z"/>
	<path id="XMLID_3317_" class="cloud4_st90" d="M183.2,113.9c-0.6,3.1-2.8,5.3-5.4,4.9c-5.3-0.8-7.6,2.3-9.9,5.9c-1.1,1.8-1.6,4.9-4.4,0.8
		c-0.8-1.2-3.9-1.7-5.3-3.7c4.4-1.1,8.4-2.9,11.8-5.9c2.3-2.1,4.8-3.4,8-1.5C179.7,115.4,181.5,114.7,183.2,113.9z"/>
	<path id="XMLID_3269_" class="cloud4_st68" d="M199.2,131c0.7-0.7,1.3-1.4,2-2.1c0.6-0.9,0.8-1.8,0.5-2.8c-0.9-3.9,0.8-3.9,3.6-2.3
		c5.2-0.1,3.7,4.4,4.9,7.1c-2.1,4.1,0.3,7.1,2.4,10.3c1.7,2.5,2.9,5.1-1.4,6.3c-4.8-2.5-9.6-0.2-14.2,0.6c-2,0.3-3.4,3.8-1.6,6.7
		c0.8,1.2,2.3,2.4,0.8,4.1c-4.8-1.7-4.9-6.7-7.2-10.2c-0.9-1.3,0.3-2.5,1.7-3c2.3-0.8,3.4-2.5,3.5-4.9c-0.3-2.3-4.1-2.3-3.4-5.3
		c1.1-1.7,2.9-1.9,4.6-2.2C197,133.1,198.5,132.6,199.2,131z"/>
	<path id="XMLID_3268_" class="cloud4_st77" d="M226.2,141.9c-1.2,3-2.9,5.2-1.5,9.4c0.9,2.8-3.5,8-7.9,10.2c-3.7,1.8-7.6,1.9-11.6,1.5
		c-0.3-0.5-0.3-1,0-1.4c2.1-1.8,5-0.8,7.1-2.2c1.3-0.3,2.4-1.1,3.4-1.9c1.5-1.1,1.8-2.8,1.4-4.5c-0.5-2.2-2.2-1.5-3.6-1.5
		c-2.2-0.1-4.7,0.2-3.9-3.3c0.3-0.4,0.7-0.6,1.2-0.7c4-1.4,4.4-2.7,1.5-6c-3.2-3.7-3.1-4.2,0.9-6.4
		C217.6,137.3,221.9,139.6,226.2,141.9z"/>
	<path id="XMLID_3267_" class="cloud4_st91" d="M208.2,130.9c-2.1-1.9-1-5.1-2.9-7.1c-0.2-3.1,1.1-5.6,4.4-5.3c3.4,0.3,4.7,3.3,4.1,6.3
		c-0.5,2.8,0.6,6.2-2.6,8.2C209.2,133.8,209.1,131.8,208.2,130.9z"/>
	<path id="XMLID_3266_" class="cloud4_st92" d="M208.2,130.9c1,0.7,2,1.3,3,2c0.7,0.7,1.3,1.3,2,2c-0.8,2-2.7,4.1,0.7,5.7
		c1.4,0.7,4.6,0.5,3.7,2.7c-1,2.3-2.4,5.8-6.4,4.5c-0.2-0.2-0.3-0.4-0.2-0.6c0.1-0.2,0.2-0.3,0.3-0.3c1.7-3.1,0.2-5.8-2.1-7.3
		C205.1,136.9,205.3,134.2,208.2,130.9z"/>
	<path id="XMLID_3265_" class="cloud4_st92" d="M219.2,129c5,1.8,9,4.7,11.1,9.9C226.4,135.8,219.9,135.7,219.2,129z"/>
	<path id="XMLID_3263_" class="cloud4_st68" d="M205.2,161.9c0,0.3,0,0.7,0,1c-1.5,1-3.3,1-5,1c-1-1.3-2-2.6-3-4
		C201.7,157.4,203.7,157.9,205.2,161.9z"/>
	<path id="XMLID_3262_" class="cloud4_st35" d="M205.2,161.9c-2.2-2.4-5.2-2-8-2c-0.3-0.3-0.7-0.7-1-1c-1.7-2.7-4-4.9-3.2-8.9
		c1.2-6.1,6-5,9.8-5.9c0.9-0.2,1.9,0.3,2.8-0.4c4.2-3.1,5.1-0.2,5.6,3.2c0,0.3-0.1,0.6-0.1,0.9c-0.3,0-0.6,0.1-0.9,0.1
		c0.5,2.5,0.5,2.7,4.4,2.9c2.6,0.1,3.4,1.6,4.1,3.6c0.8,2.3-0.3,3.4-2.4,3.9c-1.5-1-3-1.4-4.9-1.5c-3.4,0-6.7-1.1-9.7-2.7
		c2.4,2.8,5.7,2.7,8.9,2.8c1.9,0.1,3.8-0.4,4.9,1.7c0.3,1.9-1.6,1.5-2.3,2.2C210.6,161.7,207.9,162,205.2,161.9z"/>
	<path id="XMLID_3261_" class="cloud4_st92" d="M191.4,135.8c0.9,0.4,1.8,0.8,2.7,1.1c1.6,0.5,4.3-0.4,4.2,2.3c-0.1,2.3-2.9,0.7-4.1,1.8
		c-3.7-0.2-6.7,1.8-10,3c-2.3-2.1-5.2-3.7-6-7c0,0,0.1-0.1,0.1-0.1c2.5-3.4,5.3,0.6,8-0.4c0.2-1.5-1.4-2.5-1.1-4
		c0.1-1.2-0.8-1.9-1.5-2.8c-1.3-1.2-3.7-0.5-4.4-2.7c-2.5-1.2-3.1-2.7-0.1-4c3-1.4,5.1-3.7,7.1-6.1c-0.2,4.3,3.5,7.7,3,12
		C190.5,131.1,194.3,132.4,191.4,135.8z"/>
	<path id="XMLID_3260_" class="cloud4_st93" d="M187.2,130.9c0.5,2.7,4.3,5.3,2.1,7.9c-2.1,2.5-5.1-0.7-7.7-1.2c-1.1-0.2-2.2-0.5-3.4-0.7
		c-4.9-3.9,0.5-3.6,2-4.9c0.4-0.7,1-0.9,1.8-0.9C183.8,132.5,185.5,131.7,187.2,130.9z"/>
	<path id="XMLID_3259_" class="cloud4_st94" d="M182.1,131.7c-0.6,0.1-1.2,0.2-1.8,0.3c-3.2-1.1-3.5-2.8-1-5c1.5-0.3,3.1-0.8,4.6-0.9
		c2.5-0.1,2.6,1.1,1.3,2.9C185.6,131.5,184.2,132,182.1,131.7z"/>
	<path id="XMLID_3175_" class="cloud4_st27" d="M191.4,135.8c-0.7-2.3-1.4-4.5-2.1-6.8c3.2,1.5,6.9,0,10,2c2.5,3.3,1.8,5-2.5,5
		C194.9,135.9,193.1,135.8,191.4,135.8z"/>
	<path id="XMLID_3149_" class="cloud4_st13" d="M213.2,160.9c0.7-0.7,1.3-1.3,2-2c0.1-0.6,0.4-0.9,1-1c3.1-3.7,0.4-4.9-2.5-5.7
		c-2.4-0.6-4.8-0.9-3.5-4.3c0.7,1.3,1.8,2.1,3.2,1.8c3.7-1,5.6,0.7,6.2,4.2c0.7,3.7-1.8,5.3-4.5,6.7
		C214.6,160.8,213.9,160.8,213.2,160.9z"/>
	<path id="XMLID_3148_" class="cloud4_st56" d="M216.2,157.9c-0.3,0.3-0.7,0.7-1,1c-4.6-0.1-9.2,1.7-13.7-0.9c-1.5-0.9-2.8-1.7-3.8-3.1
		c-1.3-1.8-2.5-4.1-0.6-5.9c1.8-1.8,3.4,0.5,4.6,1.6c3.1,2.7,7,3.3,10.8,3.8C215.1,154.8,216.1,155.6,216.2,157.9z"/>
	<path id="XMLID_3147_" class="cloud4_st95" d="M182.1,131.7c1.1-0.9,2.1-1.8,3.2-2.7c0.7,0.6,1.3,1.3,2,1.9c0,0.2,0,0.3,0,0.5
		c-0.2,2.1,0.3,4.9-2.7,5C181.6,136.4,182.5,133.5,182.1,131.7z"/>
</g>
</svg>
