<?xml version="1.0" encoding="utf-8"?>
<!-- Generator: Adobe Illustrator 19.0.0, SVG Export Plug-In . SVG Version: 6.00 Build 0)  -->
<svg version="1.1" id="Laag_1" xmlns="http://www.w3.org/2000/svg" xmlns:xlink="http://www.w3.org/1999/xlink" x="0px" y="0px"
	 viewBox="0 0 240.8 76.7" style="enable-background:new 0 0 240.8 76.7;" xml:space="preserve">
<style type="text/css">
	.cloud3_st0{fill:#949494;}
	.cloud3_st1{fill:#868686;}
	.cloud3_st2{fill:#A7A7A7;}
	.cloud3_st3{fill:#8B8B8B;}
	.cloud3_st4{fill:#777777;}
	.cloud3_st5{fill:#A1A1A1;}
	.cloud3_st6{fill:#5C5C5C;}
	.cloud3_st7{fill:#838383;}
	.cloud3_st8{fill:#ACACAC;}
	.cloud3_st9{fill:#C1C1C1;}
	.cloud3_st10{fill:#A6A6A6;}
	.cloud3_st11{fill:#C2C2C2;}
	.cloud3_st12{fill:#BDBDBD;}
	.cloud3_st13{fill:#BABABA;}
	.cloud3_st14{fill:#787878;}
	.cloud3_st15{fill:#CDCDCD;}
	.cloud3_st16{fill:#6F6F6F;}
	.cloud3_st17{fill:#4D4D4D;}
	.cloud3_st18{fill:#ABABAB;}
	.cloud3_st19{fill:#595959;}
	.cloud3_st20{fill:#C6C6C6;}
	.cloud3_st21{fill:#999999;}
	.cloud3_st22{fill:#B9B9B9;}
	.cloud3_st23{fill:#B7B7B7;}
	.cloud3_st24{fill:#5A5A5A;}
	.cloud3_st25{fill:#979797;}
	.cloud3_st26{fill:#C8C8C8;}
	.cloud3_st27{fill:#BEBEBE;}
	.cloud3_st28{fill:#939393;}
	.cloud3_st29{fill:#D7D7D7;}
	.cloud3_st30{fill:#909090;}
	.cloud3_st31{fill:#7E7E7E;}
	.cloud3_st32{fill:#7C7C7C;}
	.cloud3_st33{fill:#BFBFBF;}
	.cloud3_st34{fill:#C5C5C5;}
	.cloud3_st35{fill:#CECECE;}
	.cloud3_st36{fill:#AAAAAA;}
	.cloud3_st37{fill:#9D9D9D;}
	.cloud3_st38{fill:#848484;}
	.cloud3_st39{fill:#959595;}
	.cloud3_st40{fill:#E1E1E1;}
	.cloud3_st41{fill:#DFDFDF;}
	.cloud3_st42{fill:#C3C3C3;}
	.cloud3_st43{fill:#C9C9C9;}
	.cloud3_st44{fill:#DDDDDD;}
	.cloud3_st45{fill:#B0B0B0;}
	.cloud3_st46{fill:#D2D2D2;}
	.cloud3_st47{fill:#ECECEC;}
	.cloud3_st48{fill:#B6B6B6;}
	.cloud3_st49{fill:#D9D9D9;}
	.cloud3_st50{fill:#E7E7E7;}
	.cloud3_st51{fill:#797979;}
	.cloud3_st52{fill:#C7C7C7;}
	.cloud3_st53{fill:#747474;}
	.cloud3_st54{fill:#A2A2A2;}
	.cloud3_st55{fill:#C4C4C4;}
	.cloud3_st56{fill:#767676;}
	.cloud3_st57{fill:#E0E0E0;}
	.cloud3_st58{fill:#A8A8A8;}
	.cloud3_st59{fill:#A0A0A0;}
	.cloud3_st60{fill:#ADADAD;}
	.cloud3_st61{fill:#6C6C6C;}
	.cloud3_st62{fill:#AEAEAE;}
	.cloud3_st63{fill:#D5D5D5;}
	.cloud3_st64{fill:#A4A4A4;}
	.cloud3_st65{fill:#6A6A6A;}
	.cloud3_st66{fill:#D4D4D4;}
	.cloud3_st67{fill:#EBEBEB;}
	.cloud3_st68{fill:#9B9B9B;}
	.cloud3_st69{fill:#818181;}
	.cloud3_st70{fill:#E8E8E8;}
	.cloud3_st71{fill:#A9A9A9;}
	.cloud3_st72{fill:#CCCCCC;}
	.cloud3_st73{fill:#BCBCBC;}
	.cloud3_st74{fill:#BBBBBB;}
	.cloud3_st75{fill:#858585;}
	.cloud3_st76{fill:#B2B2B2;}
	.cloud3_st77{fill:#D1D1D1;}
	.cloud3_st78{fill:#EFEFEF;}
	.cloud3_st79{fill:#B3B3B3;}
	.cloud3_st80{fill:#888888;}
	.cloud3_st81{fill:#969696;}
	.cloud3_st82{fill:#B5B5B5;}
	.cloud3_st83{fill:#919191;}
	.cloud3_st84{fill:#989898;}
	.cloud3_st85{fill:#7B7B7B;}
	.cloud3_st86{fill:#7D7D7D;}
	.cloud3_st87{fill:#CBCBCB;}
	.cloud3_st88{fill:#878787;}
	.cloud3_st89{fill:#E3E3E3;}
	.cloud3_st90{fill:#6B6B6B;}
	.cloud3_st91{fill:#B1B1B1;}
	.cloud3_st92{fill:#9C9C9C;}
	.cloud3_st93{fill:#8F8F8F;}
	.cloud3_st94{fill:#AFAFAF;}
	.cloud3_st95{fill:#D6D6D6;}
	.cloud3_st96{fill:#C0C0C0;}
	.cloud3_st97{fill:#CFCFCF;}
	.cloud3_st98{fill:#D8D8D8;}
	.cloud3_st99{fill:#8A8A8A;}
	.cloud3_st100{fill:#B8B8B8;}
	.cloud3_st101{fill:#DADADA;}
	.cloud3_st102{fill:#E2E2E2;}
	.cloud3_st103{fill:#808080;}
	.cloud3_st104{fill:#6E6E6E;}
	.cloud3_st105{fill:#9A9A9A;}
	.cloud3_st106{fill:#6D6D6D;}
	.cloud3_st107{fill:#696969;}
	.cloud3_st108{fill:#CACACA;}
</style>
<g id="XMLID_1_">
	<path id="XMLID_4461_" class="cloud3_st0" d="M2.3,23.4c2.2-0.2,4.5-0.5,6.4,0.4c1.1,0.4,2.4,0.6,3.8,0.5c1.6-0.1,2.8,0.2,3.7,0.8
		c0.2,0.2,0.2,0.3,0.2,0.5c-0.4,0.7-1.1,1.3-2,1.9c-0.2,0.1-0.5,0.2-0.7,0.3c-0.7,0.2-1.3,0.5-2.1,0.2c-1.2-1-3-1.3-5.3-0.9
		c-1.3,0.2-2.8,0.2-4.2,0.3c-0.4-2.5,3.8-0.7,5.5-1.5c0.2-0.5-1.2-0.7-1.1-1.2c0-0.9-0.8-0.9-2.1-0.5C3,24.6,2.5,24.1,2.3,23.4z"/>
	<path id="XMLID_4282_" class="cloud3_st1" d="M53.8,45.4c-3.2,0.3-5.6-1-8.7-1c-1.1-0.2-2.2-0.4-3.3-0.6c-0.9-0.4-2-0.8-3.3-0.8
		c-0.2-0.2-0.1-0.3,0.2-0.5c0.3-0.1,0.6-0.2,1-0.2c3.2-0.5,6.3-0.2,9,0.8c0.9,0.3,1.7,0.5,2.8,0.5C53.1,43.9,54.3,44.4,53.8,45.4z"
		/>
	<path id="XMLID_4281_" class="cloud3_st2" d="M24.9,41.5c-1.8,0.2-3.6,0-5.2-0.4c-0.7-0.5-3.8,0.4-2.7-1.1c1.1-0.6,2.4-0.5,3.7-0.3
		c0,0,0.1-0.1,0.1-0.1c0-0.1,0-0.1-0.1-0.2c0-0.6-1.7-0.9-1.3-1.6c0.6-0.6,1.7-0.6,2.9-0.5C26,38,29,36.4,32.5,36.5
		c1.6,0,3.3-0.1,4.6,0.5c0.4,0.7-0.6,1-1.6,1.2c-1.1,0.3-2.3,0.4-3.3,0.7c-1.6,0.7-0.1,1.2,0.4,1.7c0.5,0.5,1.3,1,0.4,1.5
		c-0.9,0.5-1.8,0.1-2.7-0.1C28.6,41.7,26.7,41.6,24.9,41.5z"/>
	<path id="XMLID_4280_" class="cloud3_st3" d="M24.9,41.5c2.5-0.2,4.8,0.3,7.5,0.3c-0.9-0.5-1.8-1.1-2.6-1.6c-0.6-0.4-2.3-0.2-1.8-1
		c0.5-0.7,1.6-1,3.1-1c4.6,0.7,6,2.7,7.4,4.6c0,0.1,0,0.2,0,0.2c-2.7,0.6-5.1-0.1-7.6-0.6C28.8,42.1,26.9,41.8,24.9,41.5z"/>
	<path id="XMLID_4279_" class="cloud3_st4" d="M17.6,40.1c-0.2,0.8,1.5,0.6,2.1,1c-1.1,0.1-2.3,0-3.3,0.3c-1.6,0.1-2.4-0.5-3.3-1
		c-0.6-0.5-1.1-1-0.9-1.7c1.4-1.3,2.9-0.4,4.4,0C17.4,39.1,17.5,39.6,17.6,40.1z"/>
	<path id="XMLID_4277_" class="cloud3_st5" d="M13.6,36.8c-1.2-1.4-1.3-2.8-0.6-4.3c0.3-0.1,0.6-0.2,0.9-0.1c1.1,0.1,1.3,0.7,2.1,1
		c2.8,1.7,2.8,1.7,0.6,3.6c-0.5,0.2-0.7,0.5-1.3,0.7c-0.3,0.1-0.6,0.1-0.9,0C13.8,37.4,14.1,37,13.6,36.8z"/>
	<path id="XMLID_4276_" class="cloud3_st6" d="M13.6,36.8c0.3,0.2,0.5,0.4,0.8,0.7c1.9,0.1,4.1,0.1,2.9,1.6c-0.3,0.2-0.6,0.2-1,0.1
		c-1.1,0.2-2.2-0.9-3.3,0c-1.1,0-2.6,0.3-2.8-0.6C10.3,37.4,13.9,38,13.6,36.8z"/>
	<path id="XMLID_4275_" class="cloud3_st7" d="M5.6,33.1c0.9-1,1.7-2,2.6-3c1.3,0.2,1.6,0.7,1.7,1.3c-0.2,0.6,0.5,1.2-0.4,1.8
		C8.3,33.2,6.9,33.1,5.6,33.1z"/>
	<path id="XMLID_4274_" class="cloud3_st8" d="M9.6,33.2C9,32.6,8.9,32,9,31.4c1-0.2,1.9-0.5,3-0.6c0.4,0,0.7,0.1,1.1,0.1
		c1.2,0.4,1.5,0.8,0.5,1.4c-0.2,0-0.4,0-0.6,0c-1.3-0.5-1.7-0.2-1.9,0.5C11,33.5,10.4,33.5,9.6,33.2z"/>
	<path id="XMLID_4273_" class="cloud3_st9" d="M11.6,31.5c-0.9,0.3-1.8,0.2-2.6,0c-0.3-0.4-0.5-0.9-0.8-1.3c0.5-1,3-1,3.4-2
		c0.4-0.2,0.9-0.4,1.3-0.6c0.2,0.1,0.4,0.2,0.7,0.3c0.5,0.6,1.6,0.7,2.6,0.9c1,0.2,1.6,0.6,1.3,1.2c-0.2,0.6-1.2,0.7-2.2,0.7
		C13.9,30.7,11.9,30.1,11.6,31.5z"/>
	<path id="XMLID_4251_" class="cloud3_st10" d="M39.1,26.2c2.7-0.2,4.9-0.8,6.5-1.8c2,1.3-0.3,2-2,2.4c-2.8,0.7-6.1,0.8-9.2,1.3
		c-1,0.2-1,0.7-1.4,1.1c-0.2,0.1-0.4,0.3-0.6,0.4c-1.9,0.9-3.2-0.1-4.8-0.3c-0.8-0.1-1.2-0.7-2.3-0.4c-3,0.7-4.7-0.4-6.6-1.2
		c-0.5-0.2-0.9-0.5-1.5-0.6c-0.8-0.2-2-0.3-1.6-1c0-0.1,0-0.2,0-0.3c0.9-0.1,2,0.2,2.6-0.4c1-1.3,2.7-1.1,4.6-0.5
		c1.1,0.6,2.8,0.2,4,0.6C30.8,26.2,34.9,26.3,39.1,26.2z"/>
	<path id="XMLID_4250_" class="cloud3_st11" d="M18.3,26.1c1.1-0.2,1.4,0.1,1.8,0.6c0.9,1.2,2.5,1.9,5.3,1.3c1.3-0.3,2.3-0.4,3.1,0.5
		c0.3,0.4,1.8,0.8,3.2,0.6c1,0,1.1,0.3,0.9,0.6c-0.3,0.5-1.1,0.8-2.1,0.7c-4.3-0.5-9.2,0.1-13.1-1.5c-1.4-0.5-3.4-0.4-4.6-1.2
		c0-0.1,0-0.2,0-0.3c0.2,0,0.4,0,0.7,0C15.2,27,16.5,26.3,18.3,26.1z"/>
	<path id="XMLID_4249_" class="cloud3_st12" d="M18.3,26.1c-1.3,0.7-2.5,1.4-4.7,1.3c1-0.5-0.5-1.6,2-1.7C16.5,25.9,17.4,26,18.3,26.1z"/>
	<path id="XMLID_4248_" class="cloud3_st13" d="M51.1,44.1c-3.9-0.5-7.7-1.4-12-1.3c-1.1-0.5-1.7-1-1.1-1.8c0.9-0.7,2.5-1,3.7-1.6
		c0.9-0.5,1.9-0.3,3,0c3.3,0.9,6.1,0.2,8.7-0.8c1-0.4,0.7-0.7,0.5-1.2c-0.2-0.5-1.3-0.8-0.8-1.4c2.5-1.2,6.3-0.8,7.7,0.9
		c1,1.1,2,2.3,5,2.4c0.3,0,0.6,0.1,0.9,0.1c1.7,0.7,2.6,2.1,5.7,1.5c0.4-0.1,1,0.2,1.3,0.4c0.2,0.2,0.3,0.5,0.4,0.8
		c0,1.1-1.5,1.5-3.3,1.5c-2.9,0-5.1,0.5-6.9,1.6c-0.3,0.1-0.6,0.2-1,0.2c-2.3,0.8-4.8,0.8-7.3,0.5c-0.4-0.1-0.9-0.3-1.3-0.4
		c0.3-0.5-0.3-1.1,0.6-1.6c2-0.9-0.8-0.9-1-1.3c-0.4-0.9,0.6-1.2,2.1-1.2c-0.6-0.1-1.3,0-2.1,0c-1.9,0.2-4.9,0-2.2,1.7
		C52.1,43.4,51.9,43.8,51.1,44.1z"/>
	<path id="XMLID_4247_" class="cloud3_st14" d="M63.1,45.4c0-0.1,0-0.2,0.1-0.3c4.1-1.5,8.5-1.8,13.6-1.3c3.6,0.4,7.2,0.4,10,1.8
		c1,0.2,2,0.3,2.9,0.6c1.1,0.2,1.7,0.6,1.5,1.2c-0.1,0.2-0.3,0.3-0.6,0.4c-2.9-0.4-5.9-0.7-8.6-1.4c-0.4-0.5-1.2-0.7-2.2-0.5
		c-2.8,0.6-5.2,0.2-7.4-0.6c-1.4-0.5-2.8-0.2-4.1,0.1C66.5,45.7,64.8,46,63.1,45.4z"/>
	<path id="XMLID_4191_" class="cloud3_st15" d="M189.6,10.7c0-0.9,1.2-1.7-0.1-2.6c0.1-0.9-0.7-1.8,0.2-2.6c1.2-0.5,2.3-1,3.6-1.4
		c1.5-0.5,3.1-0.7,4.9-0.3c0,0-0.1,0.1-0.1,0.1c0.2,0.1,0.3,0.3,0.3,0.4c0,0.9,0.8,1.7,1.7,2.4c0.6,0.5,1.3,0.9,0.7,1.5
		c-1.3,0.7-2.8,1.1-4.6,0.4c-0.7-0.3-1.5-0.2-2.2,0c-1.7,0.9-1.2,1.7,0.1,2.5c0.1,0.2,0.2,0.3,0.2,0.5c-1.8,1.4-2.6,1.4-4.2,0
		C189.8,11.4,189.9,11,189.6,10.7z"/>
	<path id="XMLID_4187_" class="cloud3_st16" d="M189.7,5.5c0.4,0.9,0.7,1.8-0.2,2.6c0,0.1,0,0.2-0.1,0.3C188.8,7.5,187.6,6.4,189.7,5.5z"/>
	<path id="XMLID_4177_" class="cloud3_st17" d="M22.9,24.6c-1.8-0.3-3.2,0.1-4.6,0.5c-0.5-0.8-1.5-1.7,1.4-2C20.7,23.6,21.8,24.1,22.9,24.6
		z"/>
	<path id="XMLID_4120_" class="cloud3_st18" d="M48.2,23c0.8-1.5,2.1-2.6,5.6-2.8c1.8-0.1,2.2-1,2-1.9c-0.2-1-1.7-0.6-2.8-0.5
		c-1,0.1-2.2,0.3-2.4-0.4c-0.2-0.7,1.1-0.5,1.9-0.6c2.1-0.2,4.3-1.1,6.4,0c1,0.5,2.5,0.4,3.6,0.8c0.8,0.7-0.5,1.5,0.5,2.2
		c2.1,1.9,2.6,3.8-0.6,5.6c-0.7,0.4-0.1,0.9,0.1,1.4c0.7,1.7-0.4,2.2-4,1.7c-0.1-1.7-1.3-3.1-4-4.2c-0.1,0,0-0.2,0-0.3
		c0-0.6,2.5-0.8,1-1.5c-1.1-0.5-2.5-0.2-3.5,0.3c-1,0.4-1.9,0.9-3.5,0.5C48.4,23.3,48.3,23.2,48.2,23z"/>
	<path id="XMLID_4119_" class="cloud3_st18" d="M33,27.5c2-0.8,4.6-0.3,6.8-0.7c2.6-0.4,5.4-0.7,5.8-2.5c0.5-0.3,0.9-0.6,1.4-0.9
		c0.4-0.1,0.8-0.2,1.2-0.3c0.1,0,0.2,0.1,0.3,0.1c0.9,0.5,3.7-0.4,3.2,1.1c-1.4,1.2-3.5,2-5.5,3c-2.4-0.1-4,0.9-6,1.3
		c-1,0-2-0.2-3-0.3C36,27.8,34.1,28.3,33,27.5z"/>
	<path id="XMLID_4117_" class="cloud3_st19" d="M62.4,17.8c-1.5-0.1-3.2,0.1-3.5-1c1.9,0,3.8,0.1,5.8-0.3c1.4-0.3,3-0.2,4.3,0.4
		c1,0.4,2.1,0.5,3.4,0.5c0.2,0.2,0.5,0.4,0.7,0.7c-0.7,0.5-1.7,0.7-2.9,0.7c-0.4,0-0.7-0.1-1-0.2C67.4,17.6,64.8,18,62.4,17.8z"/>
	<path id="XMLID_4113_" class="cloud3_st7" d="M77.1,19.9c2,0.3,2,1.4,3.2,2c1,0.5,2,1,3.5,1.2c-0.5,0.9-1.7,1.7-1.7,2.7
		c0,0.9-2,0.9-3.4,0.9c-0.4,0-0.7-0.1-1-0.2c-1.9-1.1,0.6-1.8,0.9-2.8c0.6-0.7-0.9-1.1-1.1-1.7c-0.2-0.4-1-0.7-1.1-1.1
		C76,20.6,76.3,20.2,77.1,19.9z"/>
	<path id="XMLID_4111_" class="cloud3_st20" d="M69.8,18.1c1.1,0,2.2,0,3.4,0c1.1,0.5,2.3,1.1,3.4,1.6c0.2,0.9-1.5,0.8-2.5,1.1
		c-0.4,0-0.7,0-1-0.1C71.5,20,70.3,19.2,69.8,18.1z"/>
	<path id="XMLID_4110_" class="cloud3_st2" d="M73.7,20.5c0.9-0.2,1.9-0.5,2.8-0.7c0.2,0,0.4,0.1,0.6,0.1c0,0.4,0.1,0.8,0.1,1.2
		C75.4,21.8,74.1,21.7,73.7,20.5z"/>
	<path id="XMLID_4107_" class="cloud3_st21" d="M128.7,34.3c0.9-0.4,1.7-0.9-0.2-1.1c-1.5-0.2-3-0.3-4.5,0c-0.8-0.2-1.9-0.2-1.7-0.8
		c0.1-0.4,0.7-0.6,1.7-0.5c3.3,1,6.2-0.4,9.3-0.4c1.1,0.2,2.3,0.3,3.4,0.4c3.3,0.5,3.3,0.4,1.5,1.9c-0.5,0.4,0.6,0.3,0.8,0.5
		c0.9,0.4,2.3,0.4,2.7,1c0.1,0.2,0.1,0.3,0,0.5c-1,0.7-2.9,0.4-4.1,0.9c-1.3-0.1-2.5-0.2-3.9,0c-1.5,0.3-3,0.2-4.2-0.5
		C129,35.6,128,35,128.7,34.3z"/>
	<path id="XMLID_4106_" class="cloud3_st22" d="M138.6,34.8c-0.4,0-0.9,0.1-1.3,0.1c-1.8,0-3.7-0.4-3.7-1.2c0-0.7,2-0.8,3.5-0.8
		c0.4,0,0.9,0.1,1.3-0.3c-1.8-0.4-4.5,0.2-5.2-1.2c0.3-0.2,0.5-0.4,0.8-0.6c1.6-0.8,1.4-2.3,4.5-2.4c0.9-0.3,2.2-0.2,2.1,0.1
		c-0.4,1.2,2.3,1.6,2.3,2.6c0,0.4,0.1,0.8,0.1,1.2C142.9,33.8,141.8,34.8,138.6,34.8z"/>
	<path id="XMLID_4105_" class="cloud3_st23" d="M107.7,30.2c0,0.3-0.1,0.6-0.1,0.9c-0.1,0.2-0.3,0.3-0.6,0.4c-0.9,0.2-1.7,0.1-2.4-0.1
		c-1.9-0.7-3.6-1.5-6.3-1c-0.7,0.1-1.4-0.2-1.8-0.6c0.2-0.5,0.3-1,0.5-1.5c0.3-0.6,0.8-1.2,2.2-1.3c1.5-0.1,1.6,0.6,2.3,1
		c1.2,0.7,1.9,1.8,4.5,1.5C106.5,29.7,107.1,29.9,107.7,30.2z"/>
	<path id="XMLID_4104_" class="cloud3_st24" d="M124,31.8c-1.4,0.4-1.1,0.9,0,1.3c-2.1,0.3-2.9-0.6-3.8-1.2c-0.6-0.4,0.7-0.5,1.2-0.8
		C122.3,31.2,123.2,31.4,124,31.8z"/>
	<path id="XMLID_4013_" class="cloud3_st15" d="M55.8,44.1c0,0.6-0.2,1.1-1.4,1.4c0,0-0.3,0-0.3,0s-0.3,0-0.3,0c-0.9-0.5-1.8-0.9-2.7-1.4
		c-0.5-0.9-2.1-1.4-3.2-2.1c-1-0.6-1.1-1.1,0.9-1.2c3.2-0.2,6.4,0,9.7,0c1.5,0,2.3,0.6,2,1.2c-0.4,1-1.8,0.5-2.9,0.3
		c-1-0.2-2.2-0.8-3.1,0.1C55.2,42.9,57.1,43.2,55.8,44.1z"/>
	<path id="XMLID_4012_" class="cloud3_st25" d="M39.7,41.1c-0.7,0.5-0.7,1.1-0.5,1.6c-0.3,0-0.5,0-0.8,0c-1.7-0.4-4.8,0-3.7-2
		c0.3-0.7-2.3-1.7-3.6-2.6c2.1-0.2,4.1-0.6,6-1c-0.1-0.4,0.2-0.7,0.7-1c1.2-0.6,2.6-1,3.8-1.6c0.2-0.1,0.5-0.2,0.8-0.2
		c2-0.7,4.4-1,6.3-0.4c2.5,0.9,5,2,5.6,3.7c0.3,0.8-3.7,2.5-5.7,2.3c-1.3-0.1-2.7-0.1-3.7-0.5c-2-0.8-3.2-0.5-3.7,0.6
		C40.8,40.4,40.1,40.7,39.7,41.1z"/>
	<path id="XMLID_4011_" class="cloud3_st11" d="M38.4,36.5c-0.5,0.2-0.9,0.4-1.4,0.7c-3.3,0.2-6.8,0.1-9.8,1.1c-1.6,0.5-3.4,0.2-4.9-0.4
		c0.1-0.1,0.1-0.1,0.2-0.2c1.4-0.4,1.6-1.2,2-1.9c0.4-0.7,0.2-1.6,2.1-1.9c1.4,0.3,2.8,0.1,4.1-0.2c1.8-0.3,3.7,0,5.5-0.1
		c2.3,0.3,4.4-0.5,6.7-0.2c0.3,0.1,0.6,0.2,0.9,0.3c0.6,0.7-0.6,0.9-1.4,1.2l0,0C41.2,35.4,38.8,35.4,38.4,36.5z"/>
	<path id="XMLID_4010_" class="cloud3_st26" d="M13.6,32.5c0-0.5-0.4-0.8-1.3-1c1.1-1,3.9-1.4,5.4-0.6c1.4,0.8,3,1,4.9,1.2
		c2.6,0.2,3.6,0.9,2.8,2.1c-0.9,1.2-0.7,2.7-3,3.6c0,0-0.1,0-0.1,0c-0.9,0-1.9,0-2.7,0.3c-2.1,0.6-2.9-0.7-4.6-0.7
		c0-0.3,0-0.7-0.1-1c0.4-0.2,1-0.2,1.5-0.3c1.2-0.2,1.8-0.6,1.8-1.1c0-0.7-1-0.9-2.2-0.9c-0.7,0-1.3-0.1-1.8-0.3
		C14.1,33.3,13.8,32.9,13.6,32.5z"/>
	<path id="XMLID_4009_" class="cloud3_st27" d="M16.3,39.1c0.2,0,0.4,0,0.6,0c1.6-0.8,3.1-1,4.7,0c1.8,0.1,3.9,0.4,3.6,1.3
		c-0.4,0.8-2.6,0.4-4.1,0.2c-1.2-0.1-2.3-0.3-3.5-0.4C16.7,39.9,16.3,39.6,16.3,39.1z"/>
	<path id="XMLID_4008_" class="cloud3_st28" d="M21.6,39.1c-1.6-0.2-3.1-0.2-4.7,0c0.3-1-1.4-1.2-2.5-1.7c0.2,0,0.4,0,0.6,0
		c1.7-0.1,3.1,0.5,4.6,0.7C20.8,38.2,22.1,38.2,21.6,39.1z"/>
	<path id="XMLID_4007_" class="cloud3_st23" d="M14.3,33.8c0.9,0,1.8,0,2.7,0c1.4,0,3.3-0.2,3.6,0.8c0.4,1-1.5,1.4-3,1.7
		c-0.8,0.2-1.7,0.1-2.6,0.2C17.9,35.4,16.4,34.6,14.3,33.8z"/>
	<path id="XMLID_4006_" class="cloud3_st29" d="M22.3,37.8c-0.1-1.2,0.5-2.3,1.4-3.4c0.9-1.1,0-1.6-2.2-1.6c-1.4,0-2.9,0-4.3,0
		c-0.6,0-1.4,0-1.5-0.5c-0.5-1.4-0.5-1.4-3.4-0.8c-0.2,0-0.4,0-0.6,0c-1-0.4-1.5-0.8-0.8-1.4c0.7-0.6,1.7-0.3,2.7-0.1
		c0.8,0.1,1.7,0.3,2.7-0.1c-1.1-0.7-3.6-0.9-3.3-2c3.4-0.2,6.3,0.7,9.4,1.2c2.9,0.4,6.1,0.4,9.2,0.6c0,0,0.1-0.3,0.1-0.4
		c0-0.1,0-0.2-0.1-0.3c1.4-1.3,3.7-0.7,5.7-0.7c1.7,0,3.1,0.3,4.5,0.9c1.6,0.7-0.5,1.6,0.8,2.3c0.1,0.2,0.1,0.3,0.1,0.5
		c-0.3,0.7-1.1,1.3-2.6,1.3c-2.1,0-2.9,0.6-3.7,1.4c-2-0.1-4-0.2-5.9-0.3c-1.2-0.2-2.3,0.2-3.5,0c-0.4,0.7-1,1.5-1.1,2.2
		C25.6,37.4,24.5,37.9,22.3,37.8z"/>
	<path id="XMLID_3992_" class="cloud3_st30" d="M94.6,55.4c-0.2-0.1-0.4-0.2-0.7-0.3c-1.3-0.3-1-1-1.4-1.5c0.8-1.6,0.6-3.3,1.5-4.9
		c0.3-0.1,0.8-0.3,1.2-0.2c2.8,0.9,5.3,0,7.9-0.2c2.3-0.2,3.1-1.5,1.4-2.4c-1-0.6-2.2-1-0.6-1.8c2.3-0.4,4,0.2,5.9,0.7
		c2.7,0.9,5.6,1.2,8.6,0.2c0.6-0.1,1.1,0,1.7,0.1c1,0.1,1.9,0.5,2.7,0.8c0.6,0.6,0,0.9-1.2,1.1c-4.9,0.6-6.9,2.4-8.8,4.5
		c-1.2,1.3-3,2.8-6.9,3c-1.6,0.1-3.3,0.5-5.7,0.8c2.4,0.7,4.5,0.4,6.2,0.8c1.8,1.8,5.1,1.2,8,1.3c0.7,0,1.2,0.2,1.7,0.4
		c1,0.4,2.2,0.4,3.4,0.4c3.3,0,4.7,1,3.9,2.7c-1.8,0.4-3.7,0.1-5.2-0.2c-1.8-0.4-3.6-0.5-5.4-0.4c-2.1,0.8-4.3,1.2-6.7,0.3l0,0
		c-0.7-0.3-1.4-0.4-1.4-1c-0.1-1.9-0.4-2-4-1.9c-0.4,0-0.9,0-1.2-0.1c-0.2,0-0.4,0-0.7,0c-0.5-0.2-1.2-0.1-1.7-0.3
		C94.8,57,95.4,56,94.6,55.4z"/>
	<path id="XMLID_3991_" class="cloud3_st31" d="M94.5,48.8c0.7,1.7,0.5,3.4-0.6,5c-1.3,1.1-2.8,1.8-5.5,0.9c-0.4-0.1-0.8,0.1-1.2,0.1
		c-1-0.4-2.5-0.7-2.1-1.5C85.6,52.6,87,53,88,53c3.4,0,3.9-1.2,3.9-2.5c1.2-1.1,0-1.9-1.4-2.6c0,0,0.2-0.1,0.2-0.1
		c0.9-0.5,1.9-0.5,3-0.2C94.3,47.9,94.6,48.3,94.5,48.8z"/>
	<path id="XMLID_3990_" class="cloud3_st32" d="M87.2,54.8c0.3-0.3,0.8-0.7,1.5-0.5c2,0.4,3.6-0.1,5.3-0.5c0,0.4,0,0.9,0,1.3
		C91.4,56.1,89.2,55.9,87.2,54.8z"/>
	<path id="XMLID_3989_" class="cloud3_st32" d="M99.2,57.4c5.2-0.4,5.8-0.2,6.7,3c-0.9,0-1.9-0.1-2.7-0.3C104.7,58.2,102.1,57.7,99.2,57.4z
		"/>
	<path id="XMLID_3988_" class="cloud3_st32" d="M97.2,57.1c0.4,0.1,0.9,0.2,1.3,0.3c-1.4,0.1-2.8,0.1-4.3,0.2c-0.9,0-2.2,0.4-2.5-0.3
		c-0.4-0.8,1-0.8,2.1-0.9C95.1,56.5,96.2,56.8,97.2,57.1z"/>
	<path id="XMLID_3987_" class="cloud3_st31" d="M97.2,57.1c-1.3,0-2.7,0.1-3.4-0.7c0.2-0.3,0.5-0.6,0.7-1C96,55.7,96.3,56.5,97.2,57.1z"/>
	<path id="XMLID_3986_" class="cloud3_st11" d="M38.4,28.4c-2.2,0.1-4.6-0.2-6.7,0.3c-1.5-0.9,1.4-0.8,1.4-1.3c1.6,0,3.2,0,4.7,0.3
		C38.1,28,38.8,28.1,38.4,28.4z"/>
	<path id="XMLID_3985_" class="cloud3_st33" d="M23.4,25.9c1.5-0.3,2.5-0.1,3.1,0.4c0.1,0.1-0.1,0.4-0.2,0.4C25,26.8,24.1,26.6,23.4,25.9z"
		/>
	<path id="XMLID_3984_" class="cloud3_st34" d="M73.2,41.4c-3.5,0.7-5.7,0.1-6.7-1.7c0-0.3,0.3-0.4,0.7-0.6c0.6-0.1,1.2,0,1.8,0
		c1.4,0,2.6-0.3,3.7-0.7c1.8-0.6,3.5-0.8,5.5-0.3c1.1,0.3,2.1-0.1,3.1-0.3c1.5-0.4,1-1.3,1.7-1.9c0.6-0.9,0.4-1.7,0.6-2.6
		c0.2-1.1,1.1-1.7,3.4-1.5c1.7,0.1,3.3,0,4.9-0.3c0.7,0,1.4-0.1,2.2-0.1c3.6-0.2,4.1,0,4.1,1.8c0,1-0.2,2,1,2.9
		c0.5,0.4,0.8,0.8,2.1,0.9c2.2,0.1,4.1,0.6,6.2,1c5.2,1,10.6,1.1,16.1,0.8c2.2,0.4,5.1-0.3,6.6,1.1c0.1,0.2,0.2,0.4,0.1,0.5
		c-0.2,0.2-0.4,0.3-0.8,0.4c-3.6-0.4-7,0.8-10.6,0.1c-3.6-0.6-7.4-0.3-11.1-0.5c-4.5-0.3-7.4-1.7-10.7-2.9c-0.4-0.2-0.7-0.4-1.2-0.5
		c-1.2-0.7-1.2-1.6-1.7-2.5c-0.7-1.2-2.2-1-3.9-0.8c-2,0.2-1.8,0.8-1.6,1.6c0.2,0.9,2.8,1.6,0.8,2.5c-1.3,0.6-3.1,0.9-4.4,1.5
		C81.6,41.2,77.4,41.3,73.2,41.4z"/>
	<path id="XMLID_3983_" class="cloud3_st35" d="M67.1,39.4c-0.2,0.1-0.4,0.2-0.7,0.3c-0.2,0-0.4,0-0.7,0c-3-0.9-5.1-2-5.1-4
		c0-1.4,1.4-3-1.8-4.1c-0.6-0.5-1.5-0.8-2.6-1.1c-0.9-0.4-2-0.7-2.6-1.2c-0.2-0.4,0.1-0.7,0.7-1c1.3-0.2,2.5-0.7,4-0.3
		c2.7,0.2,3.8-0.2,2.9-1.6c-0.3-0.5-0.2-1,0.4-1.4c2.9-1.8,1.8-3.5,0-5.3c-0.6-0.4-0.3-0.6,0.5-0.8c5.5,0.8,7.3,3.5,3.7,5.5
		c-2.1,1.1-2.2,2.2,0.3,3.5c2.5,1.3,4,2.8,5.4,4.4c0.2,0.1,0.3,0.3,0.5,0.4c0.6,0.6,1.9,1.1,0.8,1.8c-1,0.6-2.4,0.5-3.7,0.3
		c-1.4-0.2-2.7-0.4-3.8,0.2c-1.2,0.7,0,1.2,0.4,1.9C66.2,37.8,67.9,38.4,67.1,39.4z"/>
	<path id="XMLID_3982_" class="cloud3_st28" d="M86.5,46.4c-1.3-0.1-2.2-0.4-3-0.9c-0.7-0.4-1.5-0.7-2.5-0.7C75,45,69,43.3,63.1,45.1
		c1.4-1.2,3.6-1.9,6.4-2c1.5-0.1,2.7-0.4,3.6-1c1.2-1,3.4-0.8,5.2-1c1.3-0.1,2.6-0.1,3.8-0.4c0.3-0.1,0.6-0.2,0.9-0.2
		c2.1-0.1,4.4-0.7,6,0.4c1.5,1,0,1.9-0.9,2.7C87.3,44.5,87.3,45.5,86.5,46.4z"/>
	<path id="XMLID_3981_" class="cloud3_st36" d="M42.4,34.8c0.5-0.3,0.9-0.7,1.4-1c1.4-1.6,4.4-1,6.7-1.3c2.4,0,3,0.8,3.1,1.8
		c0.3,0.6,0.7,1.1,0.2,1.7c0.5,0.4,1,0.8,1.6,1.3c1.1,0.9,0.7,1.4-1.3,1.9c-3.2,0.7-6.1,1.4-9.7,0.6c-2.3-0.5-2.8,1.1-4.7,1.2
		c0-0.3,0.2-0.7-0.1-1c-0.7-0.6-1.9-1.4-0.2-1.8c1.8-0.4,4.3-0.7,5.8,0.2c1.2,0.7,2.4,1.1,3.9,0.8c1.7-0.3,3.6-0.8,3.8-1.9
		c0.2-1-1.3-1.5-2.6-2C47.9,34.4,45.4,33.7,42.4,34.8z"/>
	<path id="XMLID_3980_" class="cloud3_st8" d="M82.5,41.1c-2.8,1-6.4,0.4-9.3,1c0-0.2,0-0.4,0-0.7c2.1-0.6,4.2-0.9,6.6-1.1
		c3.5-0.2,6-1.6,8.6-2.6c1.3-0.5-0.2-1.4-0.7-2c-1-1.2-0.7-1.9,1.8-2.3c2.4-0.4,4.6-0.6,5.7,0.9c0.5,0.8,1,1.6,1.5,2.4
		c-1.7,0.6-2.6,0.1-3.3-0.6c0.2,1.9-1.8,3-4.9,3.7C86.4,40.3,84.4,40.7,82.5,41.1z"/>
	<path id="XMLID_3979_" class="cloud3_st34" d="M53.8,36.1c-0.7-0.4-1.4-0.9-2-1.3c1.9-2.1,3.1-2.4,7.6-1.1c0.1-0.8-0.6-1.5-0.3-2.2
		c0.1-0.2,0.5-0.4,0.8-0.6c2.7,0.3,2.7,1.6,2.4,2.4c-0.8,2.5,0,4.7,3.6,6.6c-3.8,0.4-4.3-1.3-5.4-2.3C58.7,36,56.7,35.7,53.8,36.1z"
		/>
	<path id="XMLID_3978_" class="cloud3_st25" d="M55.8,44.1c-0.4-0.5-1.5-1-1.3-1.6c1,0,2,0.2,2.7,0.5c0.8,0.4,2.3,0.7,1.5,1.3
		C57.9,44.9,56.8,44.3,55.8,44.1z"/>
	<path id="XMLID_3977_" class="cloud3_st37" d="M82.5,41.1c1.6-0.7,3.1-1.5,5.3-1.7c0.8,0.1,1.6,0.1,2.4-0.1c2-0.4,3.4-0.1,4.3,0.8
		c1,1.1,2.6,1.9,5.1,2.1c1.7,0.2,2.4,0.9,2.8,1.6c-0.1,0.2-0.2,0.3-0.4,0.4c-1.3,0.4-2.8,0.4-4.2,0.1c-2.6-0.4-5,0.2-7.4,0.4
		c-1.8,0.2-1.2,0.9-0.8,1.4c0,0.2-0.2,0.3-0.4,0.4c-0.9-0.1-1.8-0.2-2.7-0.3c-2-1.1-0.1-2.2,0.5-3.2c1.4-2.5,1.5-2.5-3.8-2.1
		C82.9,41.1,82.7,41.1,82.5,41.1z"/>
	<path id="XMLID_3976_" class="cloud3_st22" d="M89.2,46.8c0-0.1,0-0.2,0-0.3c-0.3-0.3-0.4-0.6-0.1-1c1-1.1,7.8-2,10.7-1.5
		c2.8,0.5,5.3,2.7,4.7,4c-3.7,1-7.4,1.3-11.2,0.1c-0.8-0.1-1.7-0.3-2.5-0.4C90.2,47.4,89.7,47.1,89.2,46.8z"/>
	<path id="XMLID_3912_" class="cloud3_st38" d="M187.5,13.1c-0.6-0.6,0.1-1.1,0.1-1.7c1.2,0.1,2-0.1,2.1-0.7c0.2,0.2,0.4,0.5,0.6,0.7
		c0.4,0.7,1.3,1.4-0.5,1.9C188.9,13.6,188.1,13.4,187.5,13.1z"/>
	<path id="XMLID_3911_" class="cloud3_st39" d="M198.1,4.2c0-0.1,0-0.2,0-0.3c1-0.1,2-0.1,2.7-0.5c3.2-2,7.4-2.6,12.3-2.1
		c0.3,0,0.6-0.1,0.9-0.2c0.4,0,0.6,0.1,0.8,0.3c0.4,1.1-0.8,1.7-2.5,2.2c-0.7,0.3-1.5,0.8-2.2,0.6c-4-0.8-7.6,0.5-11.4,0.3
		C198.4,4.4,198.2,4.3,198.1,4.2z"/>
	<path id="XMLID_3909_" class="cloud3_st40" d="M200.2,8.1c-1.3-0.8-2.4-1.7-4.9-1.7c0.4-0.6,1.9-0.3,2-0.9c-0.7-0.7-2.4,0-3.3-0.7
		c1-0.7,2.6-0.6,4-0.7c0,0,0.2,0,0.2,0c2.1,0.3,4.1,0.1,6.2-0.1c3,0.8,4.5,2.4,7.2,3.3c0.2,0.3,0.1,0.5-0.1,0.8
		c-1,1.3-1.2,3-5.3,2.8c-2.1-0.2-3.5-1-5.4-1.5C199.9,9.3,199.6,8.7,200.2,8.1z"/>
	<path id="XMLID_3908_" class="cloud3_st13" d="M200.2,8.1c1.3,1.2,4.9,1,6,2.3c1.3,0.3,2.7,0.6,2.3,1.6c-0.4,0.8-1.5,1.3-3.3,1.4
		c-1.6,0.1-2.6,0.5-3.7,1c-2.7,1.3-4.5,1-6.1-0.8c1.2-0.9,1.1-1.6-1.3-1.8c-0.2-0.1-0.4-0.2-0.6-0.3l-0.1,0c-1.1-1.1-0.7-2.2,0-3.3
		c0.9-0.6,2.1-0.6,3.1-0.2C197.8,8.4,199,8.1,200.2,8.1z"/>
	<path id="XMLID_3907_" class="cloud3_st41" d="M193.5,8.2c3.1,1.1,1.5,2.2,0,3.3c-1.4-0.4-2.9-2.8-2.2-3.4C192,7.5,192.7,8,193.5,8.2z"/>
	<path id="XMLID_3906_" class="cloud3_st18" d="M193.6,11.5c0.2,0,0.4,0,0.7,0c0.6,0.3,1.4,0.6,1.1,1.2c-0.9,1.1-2.5,1.6-4.8,1.6
		c-1-0.2-1.7-0.5-1-1.1c0.7-0.5,0.7-1.1,0.7-1.7C191.3,12.1,192.4,12.6,193.6,11.5z"/>
	<path id="XMLID_3849_" class="cloud3_st42" d="M51.1,24.1c-0.3-0.7-2.3-0.2-2.6-1c1.1-0.1,1.6-0.5,2.2-0.9c1.8-1.2,4.3-1.1,6.7-0.6
		c1.6,0.3,1.9,1.1,1.6,1.8c-0.6,1.2-2.4,0.6-3.8,0.6c-0.2,0.2-0.5,0.3-0.9,0.4C53,24.6,51.9,24.7,51.1,24.1z"/>
	<path id="XMLID_3848_" class="cloud3_st10" d="M54.4,24.1c0.2,0,0.5,0,0.7,0c0.9,0.3,1.7,0.7,2.6,1c2.7,0.9,2.9,1.7,0.8,3
		c-1,0.4-2.1,0.7-3.5,0.6c-1.3-0.7,0.4-1.3,0-1.9c0.2-0.8-2.1-1.4-1.2-2.3C54,24.4,54.2,24.2,54.4,24.1z"/>
	<path id="XMLID_3847_" class="cloud3_st20" d="M62.4,19.1c-0.2,0.2-0.4,0.4-0.7,0.7c-3.2-0.9-0.3-1.4,0.7-2c2.4-0.7,4.8-1.2,6.9,0.3
		c-0.1,0.3-0.4,0.5-0.9,0.6C66.6,19.5,64.5,19.1,62.4,19.1z"/>
	<path id="XMLID_3846_" class="cloud3_st10" d="M38.4,28.4c-0.2-0.2-0.5-0.4-0.7-0.7c0.9,0.1,1.8,0.2,2.7,0.3c1.7-0.3,3.4-1,5.3-0.3
		c0.2,0.1,0.4,0.3,0.5,0.4c-0.5,0.9-2.2,1.5-2.3,2.5c-0.5,0.5-1.2,0.8-2.3,0.8c-1.2-0.3-5.2,0-1.1-1.5
		C42.5,29.3,39.7,28.8,38.4,28.4z"/>
	<path id="XMLID_3845_" class="cloud3_st37" d="M54.4,24.1c0,0.1-0.1,0.3-0.1,0.4c-0.7,0.3-1.2,0.7-2.1,0.9c-1.8,0.4-1.7,1.4-2.1,2.1
		c-0.2,0.4-0.1,0.9-1,1.1c-1.8,0.3-2.5-0.6-3.6-0.9c-0.4-0.4-0.4-0.7,0.3-1c1.7-0.9,2.9-2.1,5.4-2.7C52.2,24.1,53.3,24.1,54.4,24.1z
		"/>
	<path id="XMLID_3844_" class="cloud3_st43" d="M45.7,26.8c0,0.3,0,0.7,0,1c0.2,0.1,0.1,0.2-0.2,0.3c-1.7,0-3.5,0.3-5.2,0
		C42,27.5,42.9,26.2,45.7,26.8z"/>
	<path id="XMLID_3843_" class="cloud3_st35" d="M67.8,18.1c0.5,0,1,0,1.5-0.1c0.2,0,0.3,0,0.5,0c2.1,0.4,2.8,1.4,3.4,2.4
		c-0.1,0.1-0.3,0.1-0.4,0.2C68.8,20.6,67,19.7,67.8,18.1z"/>
	<path id="XMLID_3842_" class="cloud3_st44" d="M98.6,36.8c-2-0.8-1.3-2-1.3-3.1c0-1.2-0.6-1.9-3.4-1.6c-1.6-0.5-3.5-0.6-5.3-0.8
		c-1.7-0.2-1.7-0.2-0.7-1.1c1.8-0.3,3.5-0.3,5.3,0c0.9,0.1,1.9,0.3,2.7-0.1c0.2-0.1,0.4-0.2,0.6-0.3c0.1,0,0.3,0,0.3,0
		c3.7-1.7,5.6,0,7.8,1.1c0.4,0.5-0.5,0.7-1.1,1c-0.9,0.3-2.2,0.4-2.7,1.1C99.9,34.1,101.2,35.7,98.6,36.8z"/>
	<path id="XMLID_3841_" class="cloud3_st45" d="M78.5,26.4c0.8,0.7,0.7,1.7,2.6,2c0.9,0.3,1.9,0.6,2.1,1.2c-0.1,0.2-0.4,0.3-0.7,0.4
		c-0.8,0.1-1.5,0.1-2.2-0.1c-1.9-0.9-4.1-1.8-5.7-2.9c-2.1-1.3-2.9-3-2.3-4.7c0.2-0.6,1.1-0.8,2.4-0.8c1.3,0,2.6,0.1,3.8,0.1
		c1.4,0.5,1.3,1.3,1.3,2c-0.7,0.4-1.5,0.6-2.5,0.4c-0.4,0-0.8,0-0.9,0.3c0.8,0.6,0.7,1.4,1.5,2C78.1,26.4,78.3,26.4,78.5,26.4z"/>
	<path id="XMLID_3840_" class="cloud3_st23" d="M95.9,30.1c-2.7,0.8-5.8,0.2-8.6,0.4c-0.5,0.3-1.2,0.4-2,0.4c-1.3,0-2.2-0.3-2.1-1.1
		c0.1-0.1,0.1-0.1,0.2-0.2C87.5,29.9,91.8,29.1,95.9,30.1z"/>
	<path id="XMLID_3839_" class="cloud3_st15" d="M78.5,21.8c-0.2,0-0.4,0.1-0.6,0.2c-1.5,0.5-4.4-0.3-4.6,1.1c-0.3,1.4,0.5,2.7,2.6,3.9
		c1.8,1,3.6,1.9,5.8,2.6c-1.9,1.2-3.9,0.7-5.6-0.1c-1.8-0.8-3.6-1.6-4.8-2.6c-1-1.4-1-2.8-0.9-4.2c0.1-1.1,0.6-1.8,2.7-2.1l0,0
		c0.2,0,0.4,0,0.6,0c0.9,0.6,2.1,0.7,3.5,0.6C77.6,21.3,78.1,21.6,78.5,21.8z"/>
	<path id="XMLID_3838_" class="cloud3_st21" d="M77.1,23.5c0.9,0.1,1.8,0.2,2.7,0.3c0.2,1-1.8,1.7-1.9,2.6c-2.1-0.2-2.4-1.3-3.4-2
		C74.7,23.6,76.1,23.7,77.1,23.5z"/>
	<path id="XMLID_3837_" class="cloud3_st46" d="M142,31.1c-0.7-0.4-1.5-0.7-2.5-0.2c-0.8,0.4-1.7,0.6-2.5,0.1c-0.9-0.5,0.1-0.9,0.7-1.3
		c0.5-0.3,1.4-0.4,1.8-0.7c0.6-0.5-0.5-0.4-1-0.6c1.4-2,3.4-2.1,6.8-0.3c-0.8,0.4-0.7,0.8-0.3,1.2c0,1.6,1.2,3,3.3,4.2
		c1.2,0.7,1.9,1.2,0.4,2c-0.4,0.1-0.8,0.1-1.3,0.2c-6.1,0.3-7.6-0.7-5.4-3.7C142.3,31.6,142.4,31.4,142,31.1z"/>
	<path id="XMLID_3836_" class="cloud3_st47" d="M142.7,29.1c-0.8-1.5,0.9-1.2,2.7-1c0.7,0.2,1.3,0.5,2,0.7c1.1,0.4,2.2,0.8,2.7,1.6
		c0.1,0.9,1.5,2.2-1.1,2.6c-2.4,0.4-3.1-1-4-1.8C144.2,30.5,143.6,29.8,142.7,29.1z"/>
	<path id="XMLID_3835_" class="cloud3_st46" d="M148.7,30.5c-0.5-0.5-0.9-1.1-1.4-1.6c1.8-0.2,3,0.7,4.6,0.7c0.3,0,0.6,0.1,0.9,0.1
		c0.2,0,0.4,0.1,0.5,0.1c0.8,0.2,1.3,0.4,1,0.9c-0.3,0.4-0.9,0.5-1.8,0.6c-1,0-1.7-0.2-2.5-0.4C149.7,30.7,149.2,30.6,148.7,30.5z"
		/>
	<path id="XMLID_3834_" class="cloud3_st41" d="M102.6,31.1c0.7-0.1,1.3-0.2,2-0.3c0.7,0.1,1.3,0.2,2,0.3c2,0.5,3.9,0.9,5.8,1.5
		c1.9,0.6,4,1.1,6.4,0.8c0.9-0.1,1.8,0,2.5,0.3c1.4,0.4,2.7,0.7,4.1,1.1c1,0.1,2.1,0,3.1,0.3c0.8,0.5,2.1,1,1.6,1.8
		c-1.4,1-2.7,0.6-4.1,0c-0.8-0.3-1.4-1.1-2.6-0.5c-1.1,0.5-1.8,1.1-1.1,1.9c0.4,0.4,0.7,0.8,1.1,1.2c0,0.1,0.1,0.2,0.1,0.2
		c-9.1,0.7-17.4-0.3-24.8-3c0.7-1.5,0.7-3.1,0.7-4.7c3.2-0.3,5.4,0.8,4.4,2.2c-0.9,1.2-0.3,1.6,2,1.7c1.7,0.1,3,0.8,4.6,0.9
		c0.7,0.1,1.6,0.2,2.2-0.1c0.6-0.4,0-0.8-0.6-1c-2.4-0.9-3.6-2.4-6.9-2.7C103.3,32.9,101.8,32.2,102.6,31.1z"/>
	<path id="XMLID_3833_" class="cloud3_st33" d="M121.2,33.8c-0.1,0-0.2,0-0.3,0c-6.4,1.3-10.2-1-14.4-2.7c0.3,0,0.7-0.1,1-0.1
		C112.2,32,116.7,32.9,121.2,33.8z"/>
	<path id="XMLID_3832_" class="cloud3_st48" d="M127.3,35.8c-0.7-0.3-1.3-0.6-2-0.9c1-0.3,2-0.7,3.4-0.6c1.7,0.2,1.3,0.9,1.3,1.5
		C129.1,36.1,128.2,36,127.3,35.8z"/>
	<path id="XMLID_3831_" class="cloud3_st49" d="M127.3,35.8c0.9,0,1.8,0,2.7,0c2.5,0.8,5.4-0.5,8,0.4c0.5,0,1-0.1,1.5,0
		c2.7,1.2,3.9,2.9,6.3,4.2c0.5,0.3,1,0.5,1.2,0.9c0.1,0.2,0.1,0.3,0.2,0.5c1.2,2.1,0.9,2.3-3.4,3c-0.3,0.1-0.6,0.1-1,0.1
		c-2.2,0.2-4.3,0.5-6.5,0.6c-2.2,0.1-3.9-0.4-4.3-1.4c-0.4-1.2-1.6-2.2-2-3.3c0-0.1,0-0.2,0-0.3c0.1-0.3,0.5-0.4,0.9-0.6
		c4.4-0.4,5.3,0,5.4,2.1c0,0.6,0.4,1,1.6,1c1.2,0,2.6,0,3.3-0.5c0.5-0.4-0.4-0.6-1-0.6c-2,0-2.9-0.7-3.8-1.4
		c-1.3-0.9-2.7-1.8-5.2-2.1c-1.1-0.1-2.5-0.4-1.8-1.2C129.3,36.4,128.3,36.1,127.3,35.8z"/>
	<path id="XMLID_3830_" class="cloud3_st43" d="M142,31.1c0.9,0.2,0.8,0.5,0.6,1c-1.3,2.8-0.8,3.1,4.8,3c0.4,0,0.9,0,1.3,0
		c0.6-0.2,1.5-0.3,1.9-0.1c2.5,1.5,6.5,2,9.4,3.3c0.4,0.8-0.7,1.3-1.1,1.9c-2,0.3-3.1,1.5-5.3,1.6c-0.3,0-0.6-0.1-0.9-0.1
		c-0.6-0.3-0.9-0.6-0.5-1c1-0.9,0.1-1.5-1.4-2c-1-0.6-2.6-1-3.2-1.9c-0.4-0.6-1.3-0.6-2.4-0.5c-1.7,0.2-3-0.1-3.7-0.9
		c-0.9-0.2-1.8-0.4-2.7-0.6C141.7,34,140.6,32.3,142,31.1z"/>
	<path id="XMLID_3829_" class="cloud3_st14" d="M138.6,36.5c-0.2-0.1-0.4-0.2-0.6-0.3c0.8-1,2.1-0.4,3.3-0.3c0.5,0.1,1,0.2,1.4,0.4
		c1.8,0.7,4.4,0.7,5.4,2c0.7,0.9,1.3,1.8-0.9,2.3c-2,0.4-3.9,0-4.4-1.1C142.3,38,140.5,37.3,138.6,36.5z"/>
	<path id="XMLID_3828_" class="cloud3_st22" d="M142,36.1c-0.2-0.1-0.5-0.2-0.7-0.3c0-0.1,0-0.2,0-0.3c0.5,0.1,1.1,0.3,1.5,0.3
		c4.1-0.3,6.4,0.9,8.5,2.4c0.2,0.2,0.2,0.3,0,0.5c-0.7,0.3-1.8,0.4-2.1,0.1C147.7,37.1,144.1,37.2,142,36.1z"/>
	<path id="XMLID_3827_" class="cloud3_st44" d="M153.4,41.4c1.2-0.7,1.7-2.2,4.7-1.3c2,0.9,4.9,1,6.9,1.8c0.3,0.1,0.8,0.2,0.9,0.1
		c0.2-0.9,2.1-1.6,1.4-2.6c-2.4-0.8-5.4-0.3-7.9-1c-4.8-0.2-7.9-1.6-10.7-3.3c-2-2-4.9-3.8-6-6c1.6,0.4,2.1,1.2,2.9,2
		c0.6,0.6,1.5,1.6,3,1.3c1.6-0.3,0.5-1.2,0.1-1.9c0.4,0,0.9,0,1.3,0c0.7,0.3,1.2,0.7,2.1,0.9c0.9,0.3,1.3,0.7,1.7,1.2
		c0.4,0.5,0.3,1.3,1.5,1.3c1.3,0.1,0.8-0.9,1.8-1.2c2.6-0.1,5.6,1.1,6.7,2.5c1.5,2.1,2,2.2,6.4,2.2c1,0,2,0.1,3.3-0.2
		c-3-0.6-6.3-0.5-8.5-1.6c-1.3-0.6-3.1-1.1-1.6-2.2c3.3,1.8,8.3,1.3,12.2,2.2c0.4,0.1,1.2-0.1,1.9-0.2c0.3-0.1,0.6,0,0.9,0
		c3.1,1.1,3.3,1.4,1.4,3c-0.5,0.4-0.5,0.7,0.1,1c1.7,1,0.8,1.7-0.8,2.4c-1.7,0.5-3.3,0.1-5,0c-1.9,0-0.6,0.5-0.5,0.8
		c0.2,0.1,0.3,0.3,0.4,0.4c0.4,0.8-0.9,1.2-1.6,1.7c-0.2,0.1-0.4,0.3-0.6,0.4c-1.7,0.8-3.6,1.3-5.9,1.4c-2,0.1-2.6,0.7-2.3,1.6
		c-0.2,0.3-0.6,0.6-1.2,0.8c-2.9,0.2-4.7,0-5.5-1.7c-0.4-1-2.3-1.8-3.2-2.8c-0.2-0.1-0.3-0.3-0.5-0.4
		C152.3,43,152.5,42.2,153.4,41.4z"/>
	<path id="XMLID_3826_" class="cloud3_st50" d="M163.5,33.3c1.3,1.6,4,2.1,7,2.4c2.6,0.3,5.2,0.4,7.4,1.3c-3,1.9-12.3,1.4-15.1,0.1
		c-0.5-0.2-1.3-0.5-1.1-0.8c1.6-2.1-2.4-2.5-4.3-3.6c-1.2-0.1-1.6-0.5-1.7-1.1c-0.1-0.3,0.1-0.6,0.4-0.8c1.5-0.8,2.8-0.5,4,0.2
		C161.8,31.7,162.6,32.5,163.5,33.3z"/>
	<path id="XMLID_3824_" class="cloud3_st51" d="M190.8,31.8c-1-0.6-1.7-0.4-2.7,0.1c-1.2,0.7-2.7,1.3-4,1.9c-1.4-1,0.4-2.5-2-3.3
		c0.2-1-0.4-2,0.8-3l0,0c0.2-0.5,0.6-0.8,1.3-1.1c0.6-0.2,1.3-0.4,2.1-0.2c0.8,0.2,0.8,0.6,0.7,1c-0.5,2.3,1.4,3.1,5.8,2.3
		c1.3-0.2,2-0.1,2.9,0.4c1.3,0.6,2.8,1.1,4.5,0.2c1.1-0.1,1.6,0.2,1.6,0.7c-0.3,0.6-1.2,0.8-2.1,1c-0.5,0.1-1,0.1-1.5,0.1
		C195.8,31.8,193.4,30.9,190.8,31.8z"/>
	<path id="XMLID_3823_" class="cloud3_st52" d="M160.2,31.1c-1.2-0.2-2.3-0.3-3.5,0c-2.5-0.1-1.7-0.8-1.3-1.5c2-1,2.7,0.2,4,0.6
		c0,0-0.1,0-0.1,0C159.6,30.5,159.9,30.8,160.2,31.1z"/>
	<path id="XMLID_3822_" class="cloud3_st43" d="M202,27.2c-0.2,0-0.3,0-0.5-0.1c-2-1.2,1-1,1.7-1.4c0.3,0,0.6,0,1,0c0.4,0-0.1,0,0.3,0
		c1.1,0,2.9,0.7,3.2-0.4c0.2-0.8-1.5-1.1-3.1-1.1c-1.5,0-3,0.4-4.5,0.2c-2.3-0.5-4.1-1.3-5.3-2.3c-1-0.9-1.3-1.9,0.6-2.6
		c1-0.4,2.1-0.7,3.5-0.3c0.2,0.1,0.5,0.2,0.7,0.3c0.2,0.1,0.3,0.2,0.3,0.2c-0.2-0.1-0.3-0.2-0.5-0.3c-0.6-0.5-0.2-1.1-0.2-1.7
		c0-0.2,0.1-0.3,0.3-0.5c0.5-0.3,1.1-0.7,1.8-0.9c2.7-0.2,5.5-0.1,8.2,0c1.5,0,2.7,0.1,3.9-0.5c1.7-0.7,3.6-0.8,5.5-0.3
		c0.2,0.1,0.3,0.3,0.3,0.5c-0.1,0.2-0.3,0.3-0.5,0.4c-2.2,0.1-3.7,0.5-4.1,1.7c-0.1,0.3-0.4,0.6-1,0.8c-3,1.2-3.6,2.5-2.3,4.5
		c0.7,0.6,1.2,1.3,1.8,1.9c0.9,0.9,0.7,1.8-1,2.5c-1,0.4-1.9,0.8-1.3,1.5c0.6,0.8,1.8,0.3,2.8,0.3c0.8,0,1.5,0.1,2.1,0.4
		c1.2,1.1-0.7,1.9-1.2,2.9c-0.2,0.2-0.4,0.3-0.8,0.4c-2.4,0.1-4.8-0.2-7.2-0.5c-2-0.2-3.6-1.1-2.8-2.4
		C204.7,29.3,203.4,28.2,202,27.2z"/>
	<path id="XMLID_3821_" class="cloud3_st53" d="M196.3,19.8c-1.3,2.3,0.1,3.5,4.6,4.3c0.4,0.2,0.4,0.4,0.2,0.6c-4.8-0.5-7.4-2.3-10.1-4.1
		c-0.1-0.1-0.2-0.3-0.1-0.3c4-2.1-2-2.5-2.7-3.8c0-0.1,0-0.2,0-0.3c3.1-1,5.1-0.7,6.1,0.9c0.3,0.5,0.9,1,1.6,1.4
		C196.6,18.9,196.9,19.3,196.3,19.8z"/>
	<path id="XMLID_3820_" class="cloud3_st18" d="M201,24.7c-0.1-0.2-0.1-0.4-0.2-0.6c4.3-1,8.8-0.1,10,2.1c0.4,0.7-0.6,0.8-1.5,0.7
		c-1.8-0.1-3.8-0.1-5.1-0.9c-0.4-0.3,0-0.4,0.4-0.6c-0.5,0.1-0.6,0.4-1,0.6c-0.8,0.3-2.3,0.2-2,1c-1.3-0.2-1.2-0.6-0.7-1.1
		C201.3,25.6,202.2,25.2,201,24.7z"/>
	<path id="XMLID_3819_" class="cloud3_st54" d="M202,27.2c1.9,0.4,3.3,1.2,4.7,1.9c1.7,0.8-0.2,1.2-1.9,1.4c-0.9,0.4-1.7,0.9-3.1,0.5
		c-0.1-0.1-0.2-0.1-0.3-0.2c-0.4-0.2-0.8-0.5-1.2-0.7C201.5,29.2,203,28.4,202,27.2z"/>
	<path id="XMLID_3817_" class="cloud3_st8" d="M196.3,19.8c-1.2-1.1-4.9-1.4-4.1-3.2c0.1-0.3-2.7-0.1-4-0.4c-0.8-0.5-1.3-1-1.3-1.7
		c0.9-0.3,1.9-0.5,2.9-0.1c1.5,0.6,3.3,0.7,5.2,0.7c0.5,0.1,1,0.2,1.3,0.4c1,0.8,2.4,0.6,3.8,0.5c0.9,0.1,1.7,0.2,1.5,0.8
		c-0.4,0.2-0.8,0.5-1.2,0.7c-0.5,0.1-0.5,0.2-0.1,0.3c0,0.6-0.2,1.1-0.7,1.7l0,0C198.5,19.6,197.4,19.7,196.3,19.8z"/>
	<path id="XMLID_3816_" class="cloud3_st55" d="M194.9,15.8c-3.2,0.3-5.2-1.1-8-1.3c0.2-0.4,0.4-0.9,0.6-1.3c0.7,0,1.4,0,2,0
		c0.3,0.3,0.7,0.5,1.4,0.7C192.3,14.4,195.6,14.1,194.9,15.8z"/>
	<path id="XMLID_3815_" class="cloud3_st56" d="M170.8,18.1c0.1-0.5,0.2-1.1,1.5-1.3c0.5-0.1,0.9,0,1,0.3c0.3,0.7-0.7,1.1-1.8,1.4
		C171.2,18.4,171,18.2,170.8,18.1z"/>
	<path id="XMLID_3814_" class="cloud3_st6" d="M159.4,30.2c-1.2,0-1.9-0.9-3.4-0.4c-1,0.6-2.2,0.3-3.3,0.1c0,0,0.1-0.1,0.1-0.1
		C155.3,29,157.7,28.2,159.4,30.2z"/>
	<path id="XMLID_3740_" class="cloud3_st18" d="M38.4,36.5c-1.2-0.5-4.3-0.4-3.8-1.2c0.6-1.1,2.8,0,4.3,0c1.2,0,2.3-0.3,3.5-0.4
		C41.5,35.6,39.8,35.9,38.4,36.5z"/>
	<path id="XMLID_3739_" class="cloud3_st57" d="M36.4,34.4C35.7,34,34,33.7,35,33c0.9-0.6,1.9-1.3,3.7-0.9c1.1,0.2,2.1,0.3,2.9-0.3
		c0.3-0.1,0.6-0.2,1-0.1c1.4,0.6,2.9,1.3,0.4,2.1C40.9,34.1,38.7,34.6,36.4,34.4z"/>
	<path id="XMLID_3738_" class="cloud3_st43" d="M43,33.8c0.9-0.7-0.3-1.3-0.7-1.9c0.2-0.3,0.6-0.5,1.2-0.6c1.7-0.1,3.4-0.3,5.1-0.4
		c4,0.8,4.4,1.1,2.5,2.3c-2.4,0.2-4.9,0.5-7.3,0.7C43.5,33.8,43.3,33.8,43,33.8z"/>
	<path id="XMLID_3737_" class="cloud3_st58" d="M27,34.1c1.2-0.2,2.3-2.2,3.5,0C29.3,34.8,28.1,35.6,27,34.1z"/>
	<path id="XMLID_3736_" class="cloud3_st7" d="M43.7,31.8c-0.5,0-0.9,0.1-1.4,0.1c-0.2,0-0.4-0.1-0.6-0.1c0-0.1-0.1-0.2-0.2-0.3
		c0.5-0.3,1-0.7,1.5-1c0.4-0.8,1.3-1.5,2.6-2c0-0.1,0-0.2-0.1-0.4c0-0.1,0.1-0.2,0.2-0.3c1.3,0,2.3,0.3,3.2,0.6c0.5,0,1-0.1,1.5,0
		c1,0.3,2.4,0.3,3.1,0.9c0.6,0.4,1.3,0.7,1.1,1.2c-0.7,1.1-2.2,1.2-4.1,0.9C48,30.4,45.9,31.4,43.7,31.8z"/>
	<path id="XMLID_3730_" class="cloud3_st32" d="M130,63.4c-1.5-0.4-3-0.7-4.7-0.7c-0.9-0.4-2-0.6-3.3-0.5c-1.1,0.1-2.3,0-3.2-0.4
		c-2.7-1-5.4-1.5-8.7-0.5c-1.4,0.5-3-0.3-4.2-1c2.3,0.1,4.7,0.4,6-1c1.2-0.5,2.3-0.2,3.3,0.1c2.2,0.8,4.7,1.3,7.5,1.3
		c3.7,0.1,6.8,0.8,9.4,2.1c0.1,0.2,0.1,0.3-0.1,0.5C131.4,63.4,130.7,63.4,130,63.4z"/>
	<path id="XMLID_3728_" class="cloud3_st9" d="M130,40.8c2.5,0.1,2.6,1,2.7,1.9c0.2,1.9,1,2.2,4.7,1.9c1.7-0.1,3.5-0.1,5.3-0.2
		c1.8-0.2,3.6-0.4,5.3-0.8c2.1-0.5,4.5-0.4,6.7,0.2l0,0c0.9,1.4,1.9,2.8,2.9,4.1c0.4,0.5,0.6,1.1-0.1,1.7c-0.8,0.6-1.8,0.5-2.4,0
		c-0.8-0.8-2.3-1.4-2.5-2.5c-0.2-1.2-1.8-1.9-4.5-1.7c-2.9,0.2-4.9,1.1-6.7,2.2c-2.8,0.3-5.6-0.3-8.5,0.2c-2,0.3-3.4,0.7-4,1.7
		c-0.5,0.8-1.3,1.4-3.1,1.1c-1.6-0.3-2.6-0.2-2.9,0.6c-0.3,0.7-0.5,1.6,1.5,1.9c1.3,0.2,2.8,0.3,2.8,1.2c-0.1,1-1.5,1.4-3.2,1.6
		c-1.6,0.5-0.3,1.2-0.6,1.8c-0.1,0.2-0.3,0.3-0.5,0.4c-2.6,0.2-5.1,0.1-7.7,0.2c-0.4-0.1-0.9-0.3-1.3-0.4c-0.7-0.3-1.6-0.3-2.5-0.4
		c-1.5-0.1-2.9-0.3-2.9-1.2c-0.1-0.9,1-1.5,2.7-1.6c4.3-0.3,6.1-1.4,6.7-3.5c0.6-2,2.9-3.5,7.1-4.1c1.1-0.1,2.1-0.4,3.1-0.6
		c2-0.3,2.7-0.8,2.1-2c-0.5-1.1-0.4-2.3-0.9-3.5C129.5,40.8,129.8,40.8,130,40.8z"/>
	<path id="XMLID_3727_" class="cloud3_st59" d="M129.3,40.8c1.6,0.6,2.3,1.3,1.9,2.3c-0.1,0.4-0.1,0.8,0.1,1.1c1.4,2.1,1.4,2-2.7,2.6
		c-0.4,0.2-1,0.2-1.5,0.2c-6.1,0.3-8.8,2.4-10.4,5c-0.4,0.6-0.8,1.2-2,1.4c-3.4,0.7-6.3,1.6-8.8,3c-1.5,0.1-3.1,0.1-4.6,0.2
		c-1.9,0.1-4.1-0.2-4.1-1.2c-0.1-1,2-1.4,4-1.5c0.8,0,1.6,0.1,2.3,0c4.9-0.5,8.6-2,9.2-4.3c0.7-2.5,4.3-2.6,7.4-3.2
		c0.8-0.2,1.7-0.2,2.5-0.3c0.4-0.6,1.5-0.6,2.4-0.7c2.6-0.5,3.4-1.4,2.5-2.7c-2-1.2-4.9-0.6-7.3-0.8c-0.3,0-0.6-0.1-0.8-0.2
		c-0.4-0.3-0.6-0.6-0.1-0.9C122.6,41.2,126,39.9,129.3,40.8z"/>
	<path id="XMLID_3726_" class="cloud3_st60" d="M105.9,56.4c-1-2,2.3-2.4,4.7-3c2.1-0.5,5.2-0.5,3.7-2.4c-0.1-0.1,0.1-0.4,0.3-0.4
		c4.3-1.6,7.5-4.2,14-3.8c-0.9,0.4-2.1,0.6-3.3,0.7c-4.4,0.6-6.2,1.9-5.8,4.2c0.1,0.6,1,1.7-0.2,1.9c-2.4,0.4-3.2,1.9-6,1.8
		c-1.3,0-3-0.3-3.3,0.6c-0.3,0.8,1.6,0.7,2.5,1c0.5,0.2,0.9,0.4,1.4,0.7c-2-0.1-3.3,0.4-4.1,1.3c-0.2,0.3-0.8,0.6-1.5,0.5
		c-0.8-0.1-0.8-0.4-1-0.8C106.9,58,106.4,57.2,105.9,56.4z"/>
	<path id="XMLID_3725_" class="cloud3_st61" d="M120,45.8c-0.4,0-0.9,0-1.3,0c-4.5,0.2-8.3-0.7-12.2-1.6c-1.4-0.3-2.5-0.6-2.8-1.4
		c-0.3-1.1,0.9-1.5,2.9-1.5c3,0.1,5.9,0.4,8.9-0.2c0.9-0.2,1.7,0.1,2.5,0.4c1.7,0.5,3.5,1,5.5,1.2c1.8,0.2,3.9,0.4,3.8,1.5
		c-0.1,1.2-2.2,1.6-4.3,1.7c-0.4,0-0.9,0-1.3,0.1C121,45.9,120.4,46,120,45.8z"/>
	<path id="XMLID_3724_" class="cloud3_st62" d="M115.3,58.1c2.1-2.2,4.8-0.6,7.4-0.3c2.9,1,5.2,2.4,8.8,3c1.6,0.3,2.7,1.3,1.5,2.4
		c-0.3,0.1-0.6,0.1-0.9,0c-3.1-0.7-6.7-0.9-9.4-2c-0.2-0.1-0.3-0.1-0.3-0.2c0.1-0.1,0.1-0.1,0.2-0.1c0-1.4-0.5-2.4-4.2-1.8
		C116.9,59.3,115.9,58.8,115.3,58.1z"/>
	<path id="XMLID_3723_" class="cloud3_st37" d="M93.2,48.1c3.6,0.4,7.2,0.3,10.7-0.3c1.1-0.7,0.7-1.3-0.5-2c-0.9-0.4-2.5-0.8-1.5-1.7l0,0
		c0.3-0.2,0.8-0.2,1.2-0.2c0.5,0.1,0.7,0.3,0.8,0.5c0.5,0.3,0.9,0.6,1.4,0.9c2.5,1.3,2.2,2.7-1.2,3.4c-3,0.6-6.3,1.4-9.5,0.1
		C94.1,48.5,93.7,48.3,93.2,48.1z"/>
	<path id="XMLID_3722_" class="cloud3_st38" d="M103.9,44.4c-0.2-0.1-0.4-0.2-0.7-0.3c-0.8-0.4-1.7-0.8-0.8-1.4c0.7-0.2,1.4-0.2,2.1,0.1
		c2.7,1.8,7.2,1.6,10.8,2.4c1,0.2,2.3,0.1,3.3,0.6c-3.5,0.5-6.9,0.6-10-0.7C107.3,44.5,105.6,44.5,103.9,44.4z"/>
	<path id="XMLID_3721_" class="cloud3_st38" d="M120,45.8c0.4,0,0.9,0,1.3,0c1.2-0.3,2.6-0.1,3.8-0.4c1.1-0.3,2.1-0.7,2-1.4
		c-0.1-0.6-1.1-0.9-2.3-1c-1.5-0.1-2.9-0.5-4.4-0.6c-0.9-0.1-2.5-0.1-1.7-1c0.5-0.1,0.9-0.1,1.3,0.1l0,0c1.5,0.3,3.1,0.2,4.5,0.1
		c1.9-0.2,3.2,0.1,4.2,0.9c1.8,2.9,0.5,3.6-6,3.7C121.7,46.1,120.8,46.1,120,45.8z"/>
	<path id="XMLID_3720_" class="cloud3_st38" d="M122.6,60.8c0,0.1,0,0.2,0.1,0.3c-2.4,0.4-4.5,0.1-6.3-0.8c-1.2-0.6-2.6-1-4.4-0.9
		c-0.3-0.2-0.3-0.7,0-0.7C115.4,59.6,119.5,59.6,122.6,60.8z"/>
	<path id="XMLID_3719_" class="cloud3_st44" d="M73.1,20.5c-1.2,2-1.7,4-0.6,6c-0.9,0.8-2.5,0-3.8,0.4c1.3,1.3,2.8,2.6,3.9,4
		c1.1,1.3,4,1,5.9,0.6c2.5-0.6,4.8-0.6,7.4-0.4c1.6,0.1,2.9,0.5,4.4,0.8c0.6,0.1,1.3,0,1.8,0.3c0.2,0.1,0.4,0.3,0.5,0.4
		c-1.2,0.4-2.6,0.4-3.9,0.3c-3.2-0.4-3.7,0.4-3.5,1.7c0.1,0.8,0.4,1.6-1.3,2c-1.6,0.8-3,0.3-4.3-0.2c-2.9-1.2-6-2.3-9.1-3.5
		c-1.2-1.6-2.6-3.1-5.3-4.3c-2.7-1.2-3.1-3.2-0.9-4.3c3-1.5,1.8-2.6-0.1-3.9c-0.6-0.4-1.2-0.8-1.8-1.2c1.3-0.9,3.7-0.5,5.3-1
		C68.6,19.5,71.4,19.7,73.1,20.5z"/>
	<path id="XMLID_3718_" class="cloud3_st28" d="M120,41.4c-0.4,0-0.9,0-1.3,0c-3.6-0.3-7.1,0.4-10.8,0.1c-3.3-0.3-6.3-0.6-9-1.4
		c1.4,0.8,5.6,0.6,3.8,2.6c0.2,0.4,0.4,0.9,0.6,1.3c-0.4,0-0.9,0-1.3,0c-1.2-0.8-2.5-1.6-4.9-1c-1.2,0.3-2,0-2.2-0.6
		C94.2,40.8,93,39.7,89,40c-0.3,0-0.8-0.3-1.2-0.5c1-0.5,2-1,2.9-1.6c0.8-0.6,1.7-1.1-0.2-1.8c-1.5-0.5-1.2-1.4-0.1-1.8
		c1.5-0.7,2.2,0.2,3,0.7c1,0.6,1.4,1.5,3.2,1.8c4.8,2.6,10.8,3.8,17.9,3.7c1.7,0,3.3-0.1,4.9,0.3C119.5,41,119.7,41.2,120,41.4z"/>
	<path id="XMLID_3717_" class="cloud3_st63" d="M70.5,32.8c3.5,0.4,6.5,1.3,9.1,2.5c1.2,0.6,2.6,1,4.3,1.2c0.7,0.9,2.2,2-1.3,2.3
		c-1.1,0.4-2.2,0.5-3.2,0c-1.3-0.6-2.8-0.7-4.5-0.7c-0.9-0.2-1.1-0.5-1-0.9c0.1-0.7-0.5-1.1-1.8-1.1c-1-0.1-2.1-0.1-2.7,0.4
		c-0.7,0.5-0.4,1.1,0.2,1.6c0.7,0.6,2.1,1.3,0.3,2c-0.5,0-0.9,0.1-1.3-0.1c-0.4-0.1-0.9-0.2-1.3-0.3c-1-0.9-1.9-1.9-3-2.7
		c-0.9-0.8-0.5-1.5,0.3-2.2c1-0.8,2.4-0.6,3.8-0.5c0.1,0,0.2,0,0.3,0c1,0.2,2.3,0.6,3.1,0.1C72.5,33.6,70.8,33.3,70.5,32.8z"/>
	<path id="XMLID_3716_" class="cloud3_st35" d="M74.5,37.8c3-0.4,5.2,1,8,1c-1.3,1-2.8,0.6-4.2,0.1c-2-0.6-3.7-0.5-5.1,0.5
		c-1.3,0.9-2.8,1.2-4.7,0.4c0.4,0,0.9,0,1.3,0c0.8-0.3,1-0.8,1.4-1.3C71.8,37.8,72.8,37.3,74.5,37.8z"/>
	<path id="XMLID_3715_" class="cloud3_st41" d="M89.9,32.5c-1.3-0.3-2.7-0.7-4-1c-0.4-0.3-1.2-0.5-0.6-0.9c0.7,0,1.4,0,2,0
		c1.7,0.5,3.6,0.3,5.4,0.3c2.3,0,2.3,0.5,1.2,1.3c-0.5,0.1-0.9,0.2-1.4,0.3c-0.2,0-0.4,0-0.7,0C91.2,32.1,90.5,32.1,89.9,32.5z"/>
	<path id="XMLID_3714_" class="cloud3_st41" d="M131.3,40.4c-0.4,0-0.9,0-1.3,0c-2-0.8-4.3-0.7-6.6-0.7c0,0,0,0,0,0
		c-0.2-1.4,1.9-1.4,3.7-1.4C129.7,38.4,131,39,131.3,40.4z"/>
	<path id="XMLID_3712_" class="cloud3_st64" d="M59.8,30.8c0.2,0.1,0.4,0.2,0.6,0.3c0.5,1,1.1,2.4-1,2.7c-2.1,0.3-3.6-0.9-4.4-2
		c-0.1-0.2-0.1-0.3-0.2-0.5c0.2-0.6,1.2-0.9,2.2-1.2C58,30.4,58.9,30.6,59.8,30.8z"/>
	<path id="XMLID_3711_" class="cloud3_st13" d="M68.3,31.9c0,0.4-0.3,0.6-1,0.5c-1-0.1-1.7-0.5-1.9-1c-0.1-0.3,0.1-0.6,0.8-0.6
		C67.5,30.9,68,31.4,68.3,31.9z"/>
	<path id="XMLID_3710_" class="cloud3_st65" d="M57,30.1c0,0.5-0.4,0.8-1.3,1c-1.3,0.3-1.6-0.2-2-0.7c-0.2-0.3-0.7-0.5-1.3-0.7
		c0.7-0.1,1.4-0.2,2-0.3C55.5,29.5,56.3,29.8,57,30.1z"/>
	<path id="XMLID_3709_" class="cloud3_st13" d="M53.7,30.5c0.7,0.2,1.3,0.5,2,0.7c0.5,0.4,0.9,0.9,1.3,1.3c0.4,0.5,0.6,1.1,1.9,1
		c1.3-0.1,1.3-0.7,1.4-1.2c0.1-0.4,0-0.8,0.1-1.2c1.1,1,0.7,2.2,0.6,3.2c0,0.4-0.4,0.8-1.3,0.9c-0.6,0.1-1-0.1-1.4-0.4
		c-2.9-1.6-3.2-1.6-6.6-0.1c-1-0.5,1.3-1.3-0.7-1.7c0.9-1.3-1-1.4-2.7-1.7c0-0.6,0.6-0.6,1.3-0.3C51.2,31.1,52.6,31,53.7,30.5z"/>
	<path id="XMLID_3708_" class="cloud3_st18" d="M101.9,44.1c0.3,0.7,1.2,1.1,2.2,1.6c1.6,0.7,1.8,1.4-0.2,2.1c-0.2-1.6-2.1-2.9-4.9-3.5
		c-2.9-0.7-7.6,0.5-9.9,2.1c-1.2-0.2-1.9-0.5-1.8-1.2c0.1-0.6,1.1-0.7,2.1-0.9C93.6,43.7,97.7,43.2,101.9,44.1z"/>
	<path id="XMLID_3707_" class="cloud3_st15" d="M98.1,47.8c-1.5,0-2.8-0.2-2.8-0.9c0.1-0.8,1.5-1.4,3.2-1.4c1.7,0,3.1,0.5,3.1,1.4
		C101.5,48.1,99.2,47.6,98.1,47.8z"/>
	<path id="XMLID_3645_" class="cloud3_st66" d="M211.6,3.1c0.9,0.3,1.8,0.7,2.7,1c2.7-0.1,2.7,0.8,2.5,1.7c-0.4,1.4-2.1,2.1-5.3,2.4
		c-0.2,0-0.4-0.1-0.5-0.1c0-0.2,0-0.4,0-0.7c0.2-2.3-3.4-2.6-6.7-3c-2.1,0.5-4,0-6-0.3c2.2-0.1,4.5-0.1,6-1.1c0.8-0.5,1.8-0.3,2.6,0
		C208.4,3.9,210,3.8,211.6,3.1z"/>
	<path id="XMLID_3644_" class="cloud3_st66" d="M194.9,15.8c-1.3-0.7-3.6-0.9-4-2c1.3-0.4,2.6-0.9,4-1.3c1.2,0,1.7,0.3,1.4,0.9
		c2.8,1.4,2.8,1.4,4.9-0.2c0.7-0.6,1.3-1.2,3-1c1,0.1,1.9,0.4,2.6-0.2c0.8-0.6,0.1-1.1-0.6-1.7c3.3,0.1,3-1.6,4.7-2.3c0,0,0,0,0,0
		c2.3,1.6,4.3,3.4,5.3,5.3c0,0.2-0.1,0.3-0.3,0.5c-0.4,0.2-0.8,0.3-1.3,0.3c-2.4,0-4.7,0.1-6.3,1.1c-0.5,0.3-1.3,0.4-2.1,0.3
		c-2.2,0-4.3,0.5-6.5,0.5c-1.4-0.2-2.8,0.4-4.1-0.1C195.3,16,195.1,15.9,194.9,15.8z"/>
	<path id="XMLID_3643_" class="cloud3_st67" d="M204.2,4.5c1.9-0.6,8-0.1,9.1,0.8c0.6,0.4,0.5,0.8-0.3,1.2c-0.7,0.3-1.4,0.7-2.1,1.1
		c-2.1,0.5-3.6,0.3-4.1-1C206.4,5.7,204.5,5.3,204.2,4.5z"/>
	<path id="XMLID_3642_" class="cloud3_st68" d="M196.2,13.4c-0.5-0.3-0.9-0.6-1.4-0.9c-0.2-0.3-0.4-0.7-0.6-1c0.8,0,1.6,0.2,2.2-0.1
		c1.8-1.1,2.7-0.8,3.5,0.4c0.5,0.7,0.6,1.1-1.3,1.2C197.9,13,197.1,13.3,196.2,13.4z"/>
	<path id="XMLID_3641_" class="cloud3_st12" d="M199.6,16.1c2-0.8,4.1-1.2,6.7-1c2.8,1,5.2,1,7.6-0.1c0.5-0.2,1-0.4,1.7-0.4
		c3.4,0,6.8,0.1,10-0.9c1.5-0.4,2.3-0.8,2.5-1.7c0.3-1.7-0.7-3.4,0.8-5.1c0.8-1-1.2-2.4-2.7-3.5c-0.8-0.6-2-0.2-3.1,0
		c-1.2-0.5-2.4-0.7-4.2-0.5c-2.4,0.3-3.7-0.2-2.5-1.5c2.8,0.1,5.5-0.2,8.1-0.4c2.4-0.2,4.1,0.1,5.2,1.1c-0.4,1.5-0.4,2.7,3.4,3.4
		c2.4,0.4,3.9,1.9,6.8,2.3c1.3,0.2,1.2,0.9,0.7,1.4c-0.7,0.9-1.5,1.7-2.2,2.6c-1.6-0.4-1.5-1.1-1.6-1.8c0-0.3-0.2-0.7-0.8-0.8
		c-0.4-0.1-0.9,0-1.2,0.2c-0.6,0.4-0.4,0.7,0.1,1c0.7,0.4,1.5,0.8,0.8,1.4c-3.5-0.2-5.4,0.4-5.6,2.3c-0.1,1.1-0.6,2.2-1.8,3.2
		c-2,1.7-2.2,1.8-5.3,0.5c-1.9-0.4-2.4-1.5-4-2c-2.3-0.1-4.4,0-5.6,1.2c-0.2,0.2-1.1,0.5-1.3,0.4c-3.3-1.2-7.1-0.1-10.5-0.6
		c-0.7-0.1-1.3-0.2-2-0.3c-0.2-0.1-0.2-0.1-0.2-0.2C199.4,16.2,199.5,16.1,199.6,16.1z"/>
	<path id="XMLID_3597_" class="cloud3_st37" d="M45.7,28.5c-0.4,0.8-1.3,1.5-2.6,2C42.2,29.2,43.7,28.8,45.7,28.5z"/>
	<path id="XMLID_3596_" class="cloud3_st53" d="M51.8,24.8c0.9,1.1-0.9,2-0.7,3c-0.7,0.2-1.1,0.6-1.4,1c-0.2-0.1-0.4-0.2-0.6-0.3
		C48.9,27,48.4,25.6,51.8,24.8z"/>
	<path id="XMLID_3595_" class="cloud3_st67" d="M102.6,31.1c1.4,0.7,3,1.2,5,1.6c3.7,0.6,5,2.5,7.6,3.8c0.8,0.4,0.3,1.1-0.4,1.5
		c-0.7,0.5-1.7,0.3-2.7,0.2c-3.4-0.5-6.4-1.4-10.2-1.5c-1.9,0-2.4-1-1.2-1.6c2.9-1.5,0.9-2.2-1.4-2.9
		C99.2,30.8,100.6,30.8,102.6,31.1z"/>
	<path id="XMLID_3594_" class="cloud3_st50" d="M85.2,30.5c0.6,0.3,0.9,0.5,0.6,0.9c-4-0.3-7.2,1.3-11.3,1.1c-2.1-0.1-3.6-0.4-3.9-1.4
		c-0.5-1.4-1.7-2.6-3.6-3.7c-0.8-0.5-1.4-1-1-1.7c0.5-0.9,2.6-1.1,3.9-0.4c0.7,0.4,1.3,0.9,2.5,1c2.9,1.2,4.6,3.2,9.3,3
		c0.4,0.1,0.9,0.3,1.3,0.4C83.8,30.1,84.5,30.3,85.2,30.5z"/>
	<path id="XMLID_3593_" class="cloud3_st69" d="M77.1,23.5c-0.4,0.6-1.6,0.7-2.6,1c-0.5-0.5-1.3-1.2-0.1-1.6C75.6,22.4,76.3,23.1,77.1,23.5
		z"/>
	<path id="XMLID_3592_" class="cloud3_st8" d="M152.7,29.8c1.1,0,2.2-0.1,3.3-0.1c-0.1,0.5-0.4,1,0.7,1.4c0,0.2,0,0.4,0,0.7
		c-0.9,0.8-2.1,1.1-3.7,0.4c-0.7-0.3-1.7-0.1-2.4-0.4c-0.2-0.4-0.5-0.9-0.7-1.3c0.7,0.1,1.5,0.2,2.2,0.2
		C154.1,30.7,153.5,30.3,152.7,29.8z"/>
	<path id="XMLID_3591_" class="cloud3_st70" d="M131.3,40.4c-2.4-1-4.8-2.1-8-0.7c-2.2-0.3-3-1.2-4-2.1c-0.4-0.4-0.5-0.8,0.3-1
		c1.4-0.4,2.1-0.6,1-1.5c-0.8-0.6,0.6-0.6,1.4-0.6c1.6,0.1,2.7,0.7,3.8,1.2c1,0.5,1.9,1.1,3.4,1.2c2,0.3,3.6,1.3,6.1,0.5
		c1-0.3,1.1,0.4,1,0.7c-0.1,1.7,1.4,2.5,4.9,2.5c1.9,0,2.8,0.7,3,1.5c0.3,0.9-1.1,1.1-2.4,1.3c-1,0.1-1.9,0.2-2.9,0.3
		c-4.8,0.5-5.5,0.1-4.6-2.3C135.1,40,132.7,40.6,131.3,40.4z"/>
	<path id="XMLID_3590_" class="cloud3_st71" d="M142,36.1c3.4,0.5,6.8,1,9.4,2.3c1.4-0.1,2,0.3,2.1,0.9c0,0.8-0.7,1.4-2.2,1.6
		c-2.2,0.3-4.4,0.3-6.5-0.2c-3.1-1.1-3.4-3.1-6.1-4.3c2.3,0.4,4,1.2,4.6,2.4c0.3,0.6,0.7,1.1,2.1,1.1c0.7,0,1.4,0,1.6-0.4
		c0.4-0.7,0-1.3-1-1.8C144.8,37.2,142.7,37.1,142,36.1z"/>
	<path id="XMLID_3589_" class="cloud3_st72" d="M154.7,43.8c-4,0.2-8,0.4-12,0.7c4.1-0.4,3.9-1.8,3.3-3.3c2.2,0.3,4.6-0.3,6.7,0.3
		c0.2,0,0.5,0,0.7,0C153.9,42.2,154.3,43,154.7,43.8z"/>
	<path id="XMLID_3588_" class="cloud3_st73" d="M152.7,41.4c-2.4,0.9-4.6,0.3-6.7-0.3c-0.4-0.1-0.9-0.2-1.3-0.3c1.7-0.1,3.5-0.1,5.2-0.3
		c3.1-0.3,3.3-0.6,1.5-2c0-0.1,0-0.2,0-0.3c2.8,0.1,3.5,0.9,2.4,2.1C153.4,40.6,153.1,41,152.7,41.4z"/>
	<path id="XMLID_3587_" class="cloud3_st74" d="M159.4,38.4c3-0.6,5.9-0.2,8.7,0.3c0.5,0.3,2-0.1,2.1,0.5c0.1,0.5-0.8,0.6-1.5,0.7
		c-1.4,0.4-2,0.9-2,1.7c0,0.8-1,1.2-2.6,0.7c-2.2-0.7-5.3-0.8-6-2.4C158,39.5,158.5,38.9,159.4,38.4z"/>
	<path id="XMLID_3586_" class="cloud3_st20" d="M171.5,44.4c0.7-0.4,1.3-0.9,2-1.3c0.7-0.9,2.2-1.1,3.8-0.8c2.8,0.4,5.3-0.5,8-0.4
		c1,0,1.3-0.5,1.9-0.8c3.7-0.2,7,0.7,10.6,0.9c-1.8-0.2-2.5-0.8-1.7-1.6c0.9-0.8,2.1-0.5,3.4-0.2c2,0.4,3,1.6,5.6,1.6
		c0.7,0,0.8,0.6,0.9,1c0,0.3-0.2,0.5-0.5,0.7c-0.4,0.2-0.9,0.4-1.4,0.3c-3.7-0.6-5.2,0.5-6.1,2c-0.3,0.3-0.1,0.6-0.3,0.9
		c-0.1,0.1-0.3,0.3-0.5,0.4c-3.4,0.8-5.9-0.4-6.4-2c-0.1-0.3-0.1-0.5-0.6-0.7c-2-0.8-4.5-0.3-6.6-0.6c-0.9,0.1-1.8,0.2-2.7,0.3
		c-1.5,0-2.3,0.8-3.8,0.9C175.1,45.4,173.3,44.8,171.5,44.4z"/>
	<path id="XMLID_3585_" class="cloud3_st62" d="M178.1,35.5c2.8,0,5,1.3,8.3,0.4c1.4-0.4,0.8,1,1.2,1.5c0.8,0.4,0.7,0.8,0.2,1.2
		c-1.2,0.8-0.5,1.8-0.9,2.6c-0.1,0.2-0.2,0.3-0.4,0.4c-1.8,0.5-3.9,0.2-5.8,0.5c-0.9,0.1-1.7-0.2-1.8-0.7c1-0.8,1-1.5-1.2-1.7
		c-0.8-0.1-1.9,0.2-2-0.5c-0.1-0.5,0.5-0.9,1.4-1C180.5,37.6,179.9,36.6,178.1,35.5z"/>
	<path id="XMLID_3584_" class="cloud3_st75" d="M162,48.4c0.3-0.2,0.5-0.4,0.8-0.7c0.2-0.7,1.1-1.2,2.5-1.3c2.2,0,4.4-0.3,6.6,0.1
		c1,0.2,1.8,0.4,1.9,1c0.1,0.5-0.5,0.8-1.1,1.1c-1.8,0.9-4.1,0.8-6.3,1c-0.3,0.1-0.6,0.3-0.8,0.5c-0.4,0.7-1.1,1.2-2.3,1.6
		c-1.8,0.4-3.3,0.3-4.4-0.5c-0.7-0.7,0.7-1.2,1-1.8C160,48.8,161.3,48.8,162,48.4z"/>
	<path id="XMLID_3583_" class="cloud3_st44" d="M178.9,41.4c2.5-0.1,4.9-0.7,7.4-0.1c0.5-0.1,0.9-0.1,1.2,0.1c1.4,0.9-0.2,0.8-1.2,0.9
		c-4.2,0.6-8.5,0.6-12.8,0.7c-0.2,0-0.5,0-0.7,0c-0.6-1,0.2-1.6,2-2c0.7,0.1,1.5,0.4,2.1,0C178.2,40.3,178.2,41.3,178.9,41.4z"/>
	<path id="XMLID_3582_" class="cloud3_st76" d="M171.5,44.4c1.7-0.5,3.6,0.2,5.3-0.3c1.6,0.4,2.8,0.9,2.9,1.9c-0.1,1.4-2.6,2.1-3.4,3.2
		c-0.7,1,1.4,2.2-1.2,3c-0.4,0-0.7,0-1-0.1c-2.5-0.8-2.8-2.1-1.8-3.3c1.3-1.5,0-2.6-0.9-3.9c0-0.1-0.1-0.2-0.1-0.3
		C171.4,44.6,171.5,44.5,171.5,44.4z"/>
	<path id="XMLID_3581_" class="cloud3_st52" d="M150.8,31.8c2,0,4,0.6,6,0c0.2,0.3,0.4,0.7,0.7,1c0.1,0.1,0.1,0.2,0.2,0.3
		c0.3,0.6,2.2,1.1,1.2,1.9c-0.5,0.4-1.5,0.3-2.4,0.2c-2-0.2-3.6-0.6-4-1.7C152.2,32.9,152.3,32.2,150.8,31.8z"/>
	<path id="XMLID_3580_" class="cloud3_st72" d="M162,48.4c-0.4,0.3-0.9,0.7-1.3,1c-1.2,0.4-2.3,1.2-4,0.3c0.2-2.1-1.8-4-2-6
		c0.8,1.4,3.5,2.3,4,3.8C159,48.3,160.7,48.3,162,48.4z"/>
	<path id="XMLID_3579_" class="cloud3_st77" d="M164.1,42.5c1.2-0.2,1.9-0.6,1.9-1.2c0-0.8,0.5-1.2,2.1-1.4c2-0.3,1-0.7,0-1.1
		c1.3,0.1,2.6-0.2,3.8,0.3c-0.3,0.6-1.5,0.8-2.4,1.1c-1.5,0.4-2.2,1-1.8,1.9c0.2,0.5,0.6,1.2-0.8,1.4
		C165.4,43.7,164.6,43.1,164.1,42.5z"/>
	<path id="XMLID_3578_" class="cloud3_st78" d="M174.8,41.1c0.1,0.9-0.7,1.5-2,2c-1.5,0-2.8-0.2-2.5-1.1c0.2-0.7,0.5-1.7,2-1.9
		C173.9,39.8,174.2,40.6,174.8,41.1z"/>
	<path id="XMLID_3577_" class="cloud3_st79" d="M165.4,46.7c-0.9,0.3-1.8,0.7-2.7,1c-1.1-1.2,0.6-1.6,2.2-1.7c2.3-0.2,4.4-0.7,6.4-1.3
		c0,0,0.1,0.1,0.1,0.1c1,0.9,0.9,1.5-1.7,1.6C168.3,46.4,167,47,165.4,46.7z"/>
	<path id="XMLID_3575_" class="cloud3_st51" d="M196.2,39.1c0-0.1,0-0.2,0-0.3c3.4-0.1,3.9-1.4,4.4-2.6c0.2-0.5-0.2-0.9-1.3-1
		c-2.5,0-3.6-1-5.1-1.7c0.4-0.4,1.3-0.6,1.9-0.4c1.8,0.8,4.1,0.4,6,0.8c1.5,0.6,1.3,1.5,0.9,2.3c-0.6,1.2,0.5,1.7,2.8,1.8
		c1.7,0,3.7-0.1,4.2,1.1c-1,1.3-4.3,1.5-5.5,2.6c-1.2,0.2-2-0.2-2.7-0.6C200.2,40.2,197.8,39.9,196.2,39.1z"/>
	<path id="XMLID_3573_" class="cloud3_st80" d="M201.5,34.5c-2.7,0.1-4.9-0.6-7.4-1c-1.1-0.4-2-0.8-2.7-1.3c0.8-0.8,2-0.7,3.5-0.6
		c1,0.1,2.2,0.4,3.2-0.1c0.4,0,0.9,0,1.3,0C200.4,32.4,202.3,33.2,201.5,34.5z"/>
	<path id="XMLID_3572_" class="cloud3_st59" d="M198.2,31.5c-1.8,1.3-4.4,0.5-6.7,0.7c-0.2-0.1-0.5-0.2-0.7-0.3c0.1-1.4,1.7-1.5,3.8-1.1
		C195.8,30.9,197,31.2,198.2,31.5z"/>
	<path id="XMLID_3571_" class="cloud3_st81" d="M201.5,34.5c-1.8-0.8-4.5-1.5-2-3c0.7-0.2,1.3-0.4,2-0.7c0,0,0.1,0,0.1,0
		c1.4,0.5,1.9,1.3,3.4,1.8c1.1,0.3,1.1,0.9,0.8,1.5c-0.3,0.7-0.7,1.4-0.3,2.1c0.3,0.4,1,0.5,1.5,0.7c0.7,0.1,1.7,0.4,1.3-0.3
		c-0.2-0.5-1.3-0.8-1.8-1.2c-1.6-1.1-0.6-2.2,2.1-2.3c1.6-0.1,3.2,0.3,4.8,0c0-0.1,0-0.2,0-0.3c1.6,0,0.9-1.5,3.1-1.1
		c0.7,0.5,1.4,0.9,2.5,1.2c1.3,0.4,2.3,1,1.6,1.9c-0.4,0.4-1.2,0.5-1.9,0.6c0.6,0.2,1.2,0.2,1.9,0.1c4-0.9,5.9-0.2,5.8,2
		c0,0.3-0.1,0.6-0.4,0.8c-0.6,0.4-1.6,0.3-2.5,0.4c-1.4,0.1-2.2,0.4-2.1,1.1c0.1,0.6-0.3,1.2-1.3,1.4c-3.3,0.7-2.9,2.2-3.2,3.6
		c-1.2,1-2.7,1.1-4.3,0.3c-1.2-0.6-2.8-0.8-4.1-1.4c-1-0.6-0.1-1.2,0.5-1.6c1-0.9,1.4-1.8,0.3-2.8c0-0.1-0.1-0.1-0.1-0.2
		c-1.1-0.5-2.5-0.6-4-0.5c-3,0.2-4-0.2-3.9-1.7C201.8,36.1,202.5,35.2,201.5,34.5z"/>
	<path id="XMLID_3566_" class="cloud3_st82" d="M213.6,33.1c-1.3,0.3-2.6,0.6-4,0.8c-3,0.4-3.2,0.6-0.9,1.9c1.1,0.6,3,1.2,1.4,2.1
		c-1.4,0.8-3.2,0.3-4.6-0.4c0-0.5-0.4-0.7-1.3-0.7c-1.1-0.9-0.2-1.7,0.1-2.6c0.2-0.6,0.4-1.4-1.5-1.3c-4.5,0.3-2.8-0.7-1.6-1.7
		c0.2-0.1,0.3-0.3,0.4-0.5c1-0.3,2.1-0.3,3.3-0.3c0,1.2,0.9,1.9,3.7,1.9C210.3,32.3,211.9,32.8,213.6,33.1z"/>
	<path id="XMLID_3563_" class="cloud3_st41" d="M199.5,19.5c1.7-0.3,3.3-0.3,4.1,0.7c0.5,0.6,0.4,1.1-1,1.3c-1.3,0.2-2.2,0-2.6-0.6
		C199.8,20.4,199.7,19.9,199.5,19.5C199.5,19.5,199.5,19.5,199.5,19.5z"/>
	<path id="XMLID_3562_" class="cloud3_st83" d="M203.6,26.1c0-0.6,0-1.1,1.6-1.2c2.1-0.1,3.1,0.6,4,1.4c-1.9,0.5-3.2-0.6-4.9-0.2
		C204,26.1,203.8,26.1,203.6,26.1z"/>
	<path id="XMLID_3561_" class="cloud3_st0" d="M200.2,17.8c-0.1,0-0.2,0.1-0.3,0.1c-0.9,0.2-0.6,1.2-2.1,1c-0.7-0.1-0.6-0.4-0.4-0.7
		c0.5-0.7,1.3-1.2,2.9-0.8C200.3,17.6,200.3,17.7,200.2,17.8z"/>
	<path id="XMLID_3560_" class="cloud3_st43" d="M199.6,16.1c0,0.1,0,0.2,0,0.3c-1.5,0.3-3,0.6-4.1-0.3C196.8,16,198.2,15.7,199.6,16.1z"/>
	<path id="XMLID_3532_" class="cloud3_st37" d="M132,63.1c0.2,0,0.4,0,0.7,0c3.8-0.6,7.7-0.5,11.5-0.3c2.5,0.1,4,1.2,5.3,2.3
		c1.8,0.8,3.3,2,6.2,0.7c1.2-0.5,4.3,0.4,4,1.1c-0.8,1.4-0.2,3.3-3.9,4c-0.9-0.3-0.8-0.7-0.4-1.1c0.9-0.8,0.5-1.4-1.3-1.7
		c-1.3-0.2-2.6-0.4-3.8-0.6c-1.3-0.3-3.4-0.4-3.8-0.9c-1.9-2.3-6-1.9-9.5-2.2c-1.8-0.1-3.4-0.5-4.9-1C132,63.3,132,63.2,132,63.1z"
		/>
	<path id="XMLID_3531_" class="cloud3_st84" d="M132,71.1c0.2,0.2,0.4,0.4,0.7,0.7c0.3,0.2,0.4,0.4,0.5,0.6c-0.4,0.8-1.5,1.2-3,1.3
		c-1,0.1-1.2,0.4-1.2,0.8c0,0.2,0,0.3,0,0.5c0,0.8-1.5,0.8-2.3,1.1c-1.9,0-3-0.4-3.3-1.3c1.5-0.5,1.2-1.3,1.6-2.1
		c-0.4,0.7-0.1,1.6-1.6,2.1c-0.4-0.3-0.9-0.7-1.3-1c1.2-0.5,0.2-0.7-0.5-1c-2.3-0.9-0.7-1.6,0.9-1.7c2.6-0.3,5.5-0.1,8.1-0.6
		C131.4,70.2,131.8,70.7,132,71.1z"/>
	<path id="XMLID_3530_" class="cloud3_st30" d="M155.4,69.7c0.3,0.3,0.5,0.7,0.8,1c2,0.1,1.2,0.8,1.2,1.3c-0.1,1-0.5,1.9,2.8,1.6
		c1.8-0.1,3.2,0.6,2.7,1.7c-5.5,0.3-8.4-1.9-12.2-3.2c-0.4-0.1-0.5-0.4-0.2-0.6c0.3-0.3,0.9-0.5,1.4-0.3c5.2,1.6,2.5-0.8,3-1.5
		C154.9,69.7,155.2,69.7,155.4,69.7z"/>
	<path id="XMLID_3528_" class="cloud3_st22" d="M162.8,75.4c-0.8-0.5-1.4-1.2-3-1c-3.4,0.3-3.9-0.7-3.7-2c0.1-0.5,0.5-1.1,0-1.6
		c0.7-1,1.3-2,2-3c0.4-0.5,0.4-1-0.6-1.3c-1-0.4-1.4,0-2.2,0.3c-1.8,0.7-5.8,0.1-7.9-1c0.5-0.4,1.3-0.6,2.2-0.5
		c2.5,0.2,4.7-0.2,6.9-0.6c2.3-0.1,4.6,0.2,6.9-0.6c1.7-0.6,3,0.1,3.1,1.4c-0.2,0.6,0.5,0.9,1.7,1.2c1.4,0.3,2.4,0.8,3.1,1.4
		c0,0.2,0,0.3-0.1,0.5c-1.3,0.8-2.9,0.4-4.3,0.2c-1.9-0.2-2.6-0.2-2.3,0.9c0.2,0.6,0,1.3,0.8,1.8c0.2,0.2,0.5,0.4,0.7,0.6
		c0.4-0.2,0.8-0.2,1.3-0.1c-0.5,1.1-1.7,1.4-3.5,0.9c-0.5-0.1-0.8-0.4-1.2-0.6c-0.3-0.2-0.7-0.2-0.9-0.3c2.1,0.8,3.8,1.9,4.3,3.3
		c0,0.1,0,0.2,0,0.3c-0.4,0.2-0.9,0.2-1.3,0C164.1,75.6,163.4,75.5,162.8,75.4z"/>
	<path id="XMLID_3527_" class="cloud3_st85" d="M165.4,71.4c-1.9-0.7-1.2-1.8-1.5-2.8c-0.2-0.7,1-0.7,2.1-0.5c1.6,0.3,3.1,0.6,4.8,0.3
		c0.9-0.6,2.2-0.4,3.4-0.5c2.7-0.1,5.4-0.2,6.8-1.8c0.8-0.9,3.3-0.6,5.1-0.8c2.2,0.3,4.4,0.8,6.7-0.1c0.9-0.3,2.4-0.1,3.5,0
		c1.5,0.2,2.3-0.2,2.8-0.8c0.6-0.6,1.7-1,3-1.2c1.4,2.2-2.5,3.2-4.8,4.3c-2.1,1.1-5.4,0.8-7.7,0c-1.7-0.5-3.3-0.5-5-0.7
		c-0.4,0-1.2,0-1.2,0.1c0.2,2.1-4.3,1-5.7,2.2c-0.8,0.7-2.8,0.6-4.3,0.3c-1.2-0.3-2.5-0.4-3.8-0.5C164.9,69,164.9,69,165.4,71.4z"/>
	<path id="XMLID_3525_" class="cloud3_st42" d="M202,62.4c-0.2,0-0.3,0-0.5,0c-0.9,0.4-0.1,1.3-1.5,1.6c-2.2,0.1-2.1-0.7-2.6-1.4
		c-0.1-0.9,0.3-1.7,1.5-2.4c3.7-0.3,4.8-2,6.7-3.2c0.9-0.1,1.7,0.1,2.5,0.2c1.3,0.2,1,1,2,1.3c1.4,0.6,3.2,0.8,4.6,1.4
		c0.7,0.3,2.4,0.6,0.7,1.3C210.7,61.1,206.2,61.3,202,62.4z"/>
	<path id="XMLID_3522_" class="cloud3_st22" d="M170.7,70.7c1.1-0.3,1.8,0,1.9,0.5c0.2,1.5,1.9,1.6,4.2,1.2c2.7,0.8,5.9,0.8,8.9,0.9
		c1.1,0.1,2.2,0,3.1,0.4l0,0c1.2,0.7,1.3,1.4,0.3,2.1c-0.8,0.4-1.8,0.5-2.7,0.3c-2.8-0.7-5.8-1-9-0.8c-0.6,0-1.3-0.2-1.8-0.4
		c-0.6-0.5-1-1.1-2.4-1.1c-2,0-2.1-0.9-2.8-1.5C169.6,71.8,169.2,71.2,170.7,70.7z"/>
	<path id="XMLID_3519_" class="cloud3_st5" d="M200.2,63.7c0.1-0.5,0.4-1,1.4-1.3c0.2,0.3,0.4,0.7,0.6,1c-0.6,0.4-1.3,0.9-1.9,1.3
		c-0.8,0.9-2.5,1-4.1,0.9c-1.6-0.1-3-0.1-4.5,0.1c-1.1,0.2-2,0.1-2.6-0.4c-0.6-0.5-0.3-0.9,0.6-1.3
		C193.1,63.4,196.7,63.7,200.2,63.7z"/>
	<path id="XMLID_3518_" class="cloud3_st86" d="M188.8,73.8c-3-0.2-6,0.7-8.9-0.2c-1.1-0.3-2.4-0.5-3-1.1c3.4-0.1,6.7,0,10,0.6
		C187.6,73.2,188.5,73.3,188.8,73.8z"/>
	<path id="XMLID_3514_" class="cloud3_st14" d="M202,62.4c2-1.2,4.7-1.6,7.6-1.4c2,0.1,3.9,0.1,5.9,0.1c0.5-0.2,1-0.2,1.4,0
		c-0.2,0.1-0.4,0.2-0.7,0.3C211.3,61,206.8,62.3,202,62.4z"/>
	<path id="XMLID_3512_" class="cloud3_st81" d="M170.7,70.7c-0.3,0.5,0.2,1,0.7,1.4c0.3,0.5-0.3,0.8-1.2,1c-1.5,0.1-2.2-0.4-2.8-1
		c-0.5,0-0.9,0-1.4,0C167.1,71.2,168.2,70.4,170.7,70.7z"/>
	<path id="XMLID_3505_" class="cloud3_st49" d="M169.5,73.8c-2.9,1.6,0.7,2.1,2,3c-2.2-0.1-3.6-0.8-5.4-1.3c-1.5-0.3-2.9-0.7-3.3-1.7
		c-0.3-0.8-1.3-0.9-2.8-0.6c-1.8,0.3-2.4-0.2-2.6-1c-0.2-0.9,0.7-1.1,2.3-1.1c1.7,0,3.1,0.2,4.2,0.8c1.1,0.6,2.2,0.7,3.5,0.3
		c0.9,0.2,1.8,0.4,2.7,0.6C170.9,73.3,169.9,73.5,169.5,73.8z"/>
	<path id="XMLID_3454_" class="cloud3_st5" d="M49.7,31.1c-0.4,0.1-0.9,0.2-1.3,0.3c-1.5,0.4-3.1,0.3-4.7,0.3c1-0.6,1.4-1.3,3.2-1.5
		C48.5,30.2,49.5,30.2,49.7,31.1z"/>
	<path id="XMLID_3453_" class="cloud3_st72" d="M123.3,55.1c2-0.5,4.5-0.8,0.5-1.8c-1.5-0.4-2.9-3-2.2-3.8c0.8-0.9,2.1-0.8,3.4-0.2
		c1,0.5,2.3,1,2.7,0c1.3-2.8,5.6-2.6,9.7-2.5c1.3,0,2.6,0.2,3.9,0.3c1.8-0.4,2.4,0.4,3.4,0.8c0.4,0.3,0.6,0.6,0.1,1
		c-1.1,0.6-2.2,0.3-3.3,0c-2.8-0.6-5.7-1-8.7-0.4c-2.7,0.2-2.1,1.8-4.5,2.5c4.2-0.5,7.5-0.6,10.4,0.7c1.1,0.5,2.3,0.1,3.4-0.1
		c0.3,0,0.7,0,1,0c4.7-0.2,8.1,1.4,12.3,2c0.4,0.1,0.3,0.4,0.2,0.6c-2.4,0.7-5,0.5-7.4,0.2c-1.4-0.1-2.3,0.1-3.3,0.4
		c-3.2,0.2-6.2-0.8-9-0.4c5.7,0.3,5.7,0.3,4.8,1.8c-2.3,0.5-4.8,0.5-7.1,0.7C129.8,56.6,126.4,56.1,123.3,55.1z"/>
	<path id="XMLID_3452_" class="cloud3_st87" d="M156.7,65.1c-2.7,1.6-6,1.2-9.3,0.6c-1.9-2.5-1.9-2.5-7.3-2.2c-2.6,0.1-5.1,0.3-7.4-0.4
		c-0.9-1.7-3.9-2.3-6.4-3.1c-1.8-0.6-3-1.2-3.7-2.2c0-0.1,0-0.2,0-0.3c2.5,0,4.5,0.8,6.8,1.1c1.1,0.3,2.3,0.4,3.5,0.4
		c2.6,0,4.7,0.3,6.4,1.5c2.6,1.9,11.6,1.8,15.2,0.1c0.4-0.1,0.7-0.1,1.1,0c1.9,0.5,2.4,1.3,2,2.2C157.3,63.5,157.2,64.3,156.7,65.1z
		"/>
	<path id="XMLID_3451_" class="cloud3_st82" d="M144,54.4c1.9-0.9,4.2-0.4,6.4-0.4c1.7,0,3.3,0,5,0c0.5-0.5,0.1-0.7-0.8-0.8
		c-1.1-0.1-1.9-0.2-2.2-0.8c0.3-1.3-0.4-2.2-3.5-2.3c-2-0.1-3.7-0.6-3.9-1.8c0-0.2,0.1-0.3,0.2-0.4c0.2-0.1,0.5-0.2,0.7-0.3
		c1.1-0.1,2.3-0.1,3.2-0.5c0.3-0.2,0.6-0.3,0.9-0.5c1.7-0.7,1.9-1.2-0.6-1.4c-0.4,0-0.8-0.1-1.1-0.3c-0.1-0.1-0.1-0.1-0.2-0.2
		c4.5-0.7,5.9-0.3,6.3,2c0.2,1.1,1.7,2,2.4,3c1.3-0.1,2.6-0.2,4-0.3c-0.4,0.4-0.9,0.9-1.3,1.3c-0.2,0.1-0.4,0.3-0.3,0.5
		c0.3,0.4,1,0.3,1.6,0.4c1,0.2,2.6-0.4,3.2,0.4c0.5,0.7-0.8,1-1.5,1.3c-1.5,0.8-2.4,1.8-4.4,2.4c-1.8,0.3-3.3-0.4-4.9-0.5
		c-2.6-0.2-5.1,0-7.7,0.1C144.5,55.1,143.8,54.9,144,54.4z"/>
	<path id="XMLID_3450_" class="cloud3_st29" d="M128.7,59.4c-2.6-0.3-3.9-1.4-6-2c-3.2-1.4-3.1-1.6,0.7-2.3c3.7-0.5,6.5,1.1,10,1
		c0.2,2.1-3.1,1-4.8,1.3C128,58.1,130.1,58.7,128.7,59.4z"/>
	<path id="XMLID_3449_" class="cloud3_st82" d="M144,48.1c-0.9-0.3-1.8-0.7-2.7-1c-0.8-1.4,0.9-1.9,3.1-2.2c1.1-0.2,2.4-0.1,3.6-0.1
		c0,0,0,0,0,0c0.4,0.4,0,0.7-0.7,0.7c-2.9,0.2-3.2,0.9-1.8,2c0.2,0.2,0.1,0.4-0.2,0.6l0,0C144.9,48.3,144.5,48.3,144,48.1z"/>
	<path id="XMLID_3448_" class="cloud3_st28" d="M128.7,42.4c-2.5-1.1-6-0.3-8.7-1c1.5-0.1,3.1,0,4.6-0.2C126.7,41.1,128.1,41.4,128.7,42.4z
		"/>
	<path id="XMLID_3447_" class="cloud3_st85" d="M102.6,42.8c-0.6-1.1-3.1-1.2-4.5-1.8c-0.8-0.4-1.9-0.6-2.3-1.1c-0.4-0.5-1.5-1-0.4-1.5
		c1.4-0.6,1.6,0.3,2.5,0.6c4.6,1.4,9.5,2.7,15.2,2.4c1.9-0.1,3.7-0.1,5.6,0.2c1.5,1,3.9,0.6,5.8,1c1.9,0.4,3.9,0.8,3.7,1.8
		c-0.2,1.1-2.3,1.5-4.5,1.5c-0.8,0-1.6,0-2.3,0c1.6-0.5,4.5-0.5,4.5-1.7c0-1.3-3-0.7-4.5-1.2c-4.4-1.7-9.7-0.5-14.6-1
		c-1.2-0.1-2.1,0.3-2.3,0.9C103.9,42.8,103.3,42.8,102.6,42.8z"/>
	<path id="XMLID_3446_" class="cloud3_st50" d="M89.9,32.5c-0.5-0.6,0-1,1.2-1.2c0.6-0.1,1.4-0.2,1.8,0.1c0.4,0.5-0.7,0.7-1,1.1
		C91.2,32.4,90.5,32.5,89.9,32.5z"/>
	<path id="XMLID_3445_" class="cloud3_st57" d="M74.5,37.8c-2,0.4-1.9,2-4.7,2c-1.4-1-2.9-2-3.2-3.4c-0.1-0.5-0.5-0.8,0.6-1.1
		c1.6-0.5,7.5-0.2,9,0.5C79,37.1,74.9,37.1,74.5,37.8z"/>
	<path id="XMLID_3342_" class="cloud3_st88" d="M163.9,39.6c-0.3,0.6-1.1,0.8-2.2,0.7c-1-0.1-2.2-0.2-2.1-0.8c0.2-0.6,1.5-0.7,2.6-0.7
		C163.3,38.8,163.9,39.1,163.9,39.6z"/>
	<path id="XMLID_3341_" class="cloud3_st35" d="M208.9,43.4c1.6,0.2,3.2,0.5,4.4,1.1c1.1,0.6,2.1,0.6,3-0.1c1-1.4,2.9-1.8,5.1-0.8
		c0.7,0.3,1.3,0.8,1.8,1.2c0.7,1.4,0.3,2.4-3.2,2.5c-1.6,0.1-1.9,0.7-2,1.3c-0.2,1.1-1.4,1.9-2.7,2.7c-1.1,0.7-2.5,1.1-4.4,0.7
		c-1.1-0.9-3.6-0.8-4.5-1.8c0-0.2,0-0.3,0.1-0.5c1-0.6,1.9-1.2,3.2-1.7c1.2-0.4,2.8-0.8,1.9-1.7c-1-0.9-2.5-1.9-4.8-1.7
		c-3.8,0.4-7.7,0.5-11.3,1.2c-0.2-0.1-0.6-0.3-0.5-0.4c1.4-1.2,3.8-2,5.8-2.9c1.4-0.6,2.9,0.1,4.1,0.6c0.9-0.6,2.1-0.4,3.3-0.3
		C208.5,43.2,208.7,43.3,208.9,43.4z"/>
	<path id="XMLID_3340_" class="cloud3_st89" d="M195.6,46.1c0.5-1,2.2-1.3,3.7-1.4c3.1-0.3,6.4-0.5,9.6-0.4c2.7,0.1,4.6,1.2,5.6,2.3
		c0.9,1-1.3,1.8-3.1,2.2c-1.5,0.4-2.3,1.4-4.4,1.3c-2.8-0.4-4.5-1.2-4-2.8c-2.2-0.1-4.3-0.1-6.1-0.9C196.4,46.3,196,46.2,195.6,46.1
		z"/>
	<path id="XMLID_3339_" class="cloud3_st5" d="M180.8,43.5c0.9-0.1,1.8-0.2,2.7-0.4c0.5,0.4,1.3,0.6,1.5,1c2.1,0.9,3.7,2.2,6.8,2.2
		c0.3,0.1,0.5,0.2,0.7,0.3c0.3,0.2,0.6,0.4,0.9,0.5c0.9,0.4,2.1,0.4,3.1,0.6c1.1,0.3,2.3,0.5,2.3,1.3c0,0.8-1.2,1.1-2.5,1.4
		c-0.6,0.1-1.3,0.2-1.9,0.2c-0.3,0-0.6,0-0.9,0c-3.4-0.4-6.1-1.3-8.7-2.3c-1.1-0.8-2.9-1-4.6-1.4c-0.4-0.2-0.6-0.4-0.7-0.6
		C180.1,45.3,179,44.3,180.8,43.5z"/>
	<path id="XMLID_3338_" class="cloud3_st84" d="M196.2,39.1c3.8-0.2,5.4,1.5,8,2.3c1.2-0.2,1.9,0.1,2.2,0.6c0.2,0.5-0.3,0.8-1.5,0.7
		c-2.1-0.7-4.1-1.4-6.2-2c-0.4-0.1-1.1-0.3-1.5,0c-0.4,0.2-0.1,0.5,0.2,0.8c2,1.3,2,1.3-1.5,2.2c0.5-0.5,0.8-0.8,1.4-1.4
		c-3.8,0.4-6.7-0.6-9.9-0.8c-0.4,0-0.8-0.1-1.2-0.1c0-0.1,0-0.2,0-0.3C190.2,41.3,194.5,41.8,196.2,39.1z"/>
	<path id="XMLID_3337_" class="cloud3_st90" d="M204.9,42.8c1.5-0.7,0.1-1-0.7-1.3c-1.1-1-0.6-1.6,1.6-1.8c1.3-0.1,2.5-0.3,3.7-0.5
		c0,0,0,0,0,0c2.3,1.1,2.4,2.9,0.1,3.7c-0.5,0.2-1.1,0.4-1.4,0.7c-1.1,0.4-2.2,0-3.3-0.1C204.9,43.2,204.9,43,204.9,42.8z"/>
	<path id="XMLID_3336_" class="cloud3_st49" d="M196.9,46.4c2.9,0.1,6,0.5,8.6-0.7c0.5-0.2,1.3-0.2,1.7,0.1c0.4,0.4,0.5,0.9-0.2,1.1
		c-5.3,1-1.3,2.1-0.1,3.1c0,0,0,0,0,0c-1.9,1.2-3.6,0.5-5.4-0.1c-2-0.7-2.4-2-4.2-2.8c-0.2-0.1-0.4-0.3-0.4-0.4
		C196.9,46.7,196.9,46.6,196.9,46.4z"/>
	<path id="XMLID_3335_" class="cloud3_st30" d="M183.5,44.4c-0.7-0.4-0.5-0.9,0-1.3c2.4,0.4,5-0.3,7.3,0.3c0.4,0.1,1,0.2,1,0.4
		c-0.3,1,0.2,2,0.3,2.9c-0.2,0-0.4,0-0.6,0c-2.7-0.4-3.9-1.9-6.7-2.2C184.4,44.5,184,44.3,183.5,44.4z"/>
	<path id="XMLID_3334_" class="cloud3_st30" d="M180.8,43.5c0.3,0.9,2.4,2-0.7,2.6c-0.4,0.2-0.9,0.1-1.2,0c-1-0.6-2.2-1.1-2-2
		C178,43.7,179.3,43.5,180.8,43.5z"/>
	<path id="XMLID_3333_" class="cloud3_st91" d="M192.1,46.8c-1.3-1-0.5-2.2-1.3-3.3c0.9-0.2,1.9-0.8,2.9-0.2c0.8,0.5,0.4,0.9-0.7,1.4
		c-2.1,0.9-0.2,1.5,1,1.9c0.7,0.3,1.9,0.2,2.9,0.2c0.2,0,0.4,0,0.6,0c0.7,0.5,0.1,0.9-0.7,0.9c-1.5,0-3.2,0.4-4.6-0.3
		C192.2,47.2,192.1,47,192.1,46.8z"/>
	<path id="XMLID_3332_" class="cloud3_st92" d="M165.4,46.7c1.3-0.3,2.6-0.6,4-0.7c1.6-0.1,1.8-0.6,2.1-1.2c2.2,0.5,1.9,1.5,2,2.4
		c0.2,1.6-1,3.4,1.3,4.9c-1,0.7-2.3,1.3-4.1,1c-2.1-0.4-1.5-1.5-1.9-2.3c-0.2-0.5-0.8-0.8-1.6-1.1c-0.8-0.3-2-0.3-2.4-0.9
		c1.8-0.9,4.3,0.6,6-0.5c0.4-0.3,2-0.2,1.3-0.9c-0.6-0.5-2.1-0.8-2.9-0.4C167.6,47.8,166.6,47.3,165.4,46.7z"/>
	<path id="XMLID_3331_" class="cloud3_st93" d="M158.1,55.1c1.5-1,2.2-2.3,4.7-2.9c-0.8-0.5-1.9-0.3-2.7-0.5c-1.9,0.3-2.6-0.1-2-1
		c0.4,0,0.9,0,1.3,0c0.9,0.6,2,0.8,3.4,0.3c1.7-0.1,2.6,0.3,2.9,1.1c0.4,0.4-2,1.2,0.8,1.1c0.8,0.2,1.4,0.4,1.8,0.8
		c0.1,0.2,0.1,0.3,0.1,0.5c-0.4,1.7-1.2,2.1-4.7,2.4C162,57.2,158.8,56.1,158.1,55.1z"/>
	<path id="XMLID_3330_" class="cloud3_st94" d="M170.2,50.5c-0.7,2.1,1.9,1.9,4.6,1.6c0,0,0.1,0,0.1,0c1.8,1.1,0.5,1.7-1.5,2
		c-1.2,0.2-2.7,0.2-3,1c-0.2,0.1-0.4,0.3-0.6,0.4c-1.8,0.2-1.4-0.7-2.2-1.1l0,0c-1.5-1.6-3.4-3.1-3.4-5c-0.2-0.3,0.2-0.5,0.7-0.7
		c1.1,0,2.3,0,3.3,0.4C166.9,50.3,169.4,50.1,170.2,50.5z"/>
	<path id="XMLID_3329_" class="cloud3_st21" d="M164.1,49.4c1.4,1,0.5,2.7,3.7,3.3c0.3,0-0.2,1.1-0.3,1.7c-0.4-0.2-0.9-0.4-1.3-0.7
		c-1.4-0.2-1.9-0.6-1.4-1.3c-0.2-0.6-1-1-2-1.3C163.7,50.6,164.2,50.1,164.1,49.4z"/>
	<path id="XMLID_3328_" class="cloud3_st95" d="M178.8,46.1c0.4,0,0.8,0,1.2,0c0.3,0.1,0.5,0.2,0.8,0.3c0.8,0.7,2.5,0.9,3.3,1.6
		c0.8,0.4,1.6,0.9,1,1.5c-0.8,0.6-2.1,0.5-3.3,0.5c-2.4,0-3,0.5-1.6,1.6c1.6,1.2,3.4,2.3,6.6,2.6c2.5,0.2,4.4,0.8,5.4,2
		c1.1,1.3,0.2,2.1-2.6,2.5c-1.4-0.6-3.3-0.6-4.6-1.2c-1-0.4-2.1-0.8-3.1-1.2c-2.4-0.7-3.6-1.9-5.5-2.8c-0.2-0.1-0.5-0.3-0.4-0.4
		c0.2-1.4-0.9-2.7-1.1-4.1C174.6,47.6,177.6,47.1,178.8,46.1z"/>
	<path id="XMLID_3327_" class="cloud3_st52" d="M174.8,49.1c0.7,0.9,0.9,1.8,1.6,2.6c1.3,1.7,4.2,2.9,6.5,4.3c-0.3,0.5-1.2,0.6-2,0.8
		c-1.8,0.3-10-1-11.4-1.7c-0.1-1.1-0.1-2.1,3.2-1.8c1.6,0.1,1.9-0.5,2.1-1.2C176.4,51.1,173.2,50.1,174.8,49.1z"/>
	<path id="XMLID_3323_" class="cloud3_st72" d="M204.2,36.8c0.2-0.5-0.1-1.3,1.7-1.1c1.1,0.1,2.1,0.5,2.1,1.1c0,0.9-1.3,0.7-2.4,0.6
		C205.1,37.2,204.7,37,204.2,36.8z"/>
	<path id="XMLID_3315_" class="cloud3_st80" d="M132.6,72.4c0.6,1.8-2.8,1.7-4.6,2.3c-1.8-0.8,0.1-1.6,0.2-2.7
		C129.7,72.8,131.1,73.2,132.6,72.4z"/>
	<path id="XMLID_3314_" class="cloud3_st96" d="M123.3,74.7c0.3-0.9,0.6-1.7,1-2.6c0.1-0.3,0.4-0.6,1.1-0.5c0.7,0.1,0.7,0.4,0.5,0.7
		c-0.5,0.5-0.5,1.1-0.3,1.6C125.9,74.9,124.6,74.9,123.3,74.7C123.3,74.7,123.3,74.7,123.3,74.7z"/>
	<path id="XMLID_3301_" class="cloud3_st97" d="M170.8,68.1c-1.8-0.5-3.6-0.9-5.3-1.5c-0.9-0.3-2-0.8,0-1.2c0.9-0.2,1.8-0.2,2.8-0.2
		c2.7-0.4,4.8-1.3,7.5-1.7c1.7-0.3,3.2-1.5,5-0.8c1.8,0.7,1.6,1.9,1,3c-0.2,0.1-0.5,0.2-0.7,0.3c-3,1-6.1,1.8-9.7,2
		C171.1,68.1,170.9,68.1,170.8,68.1z"/>
	<path id="XMLID_3300_" class="cloud3_st5" d="M186.1,66.1c-2.2,0-3.5,0.4-5.2,1.3c-2.3,1.3-6.4,1.6-10.2,1c0-0.1,0-0.2,0-0.3c0,0,0,0,0,0
		c3.6-0.5,7-1.2,10-2.3l0,0c0.3-0.1,1-0.3,0.7-0.5c-2.2-1.2-0.2-2.2,1.2-2.7c1.7-0.6,4.1-0.1,6.1,0.3c0.8,0.2,1.8,0.5,1.6,1.1
		C188.6,64.5,188.5,65.9,186.1,66.1z"/>
	<path id="XMLID_3299_" class="cloud3_st54" d="M168.1,65.8c-0.9,0-1.9-0.1-2.7-0.3c0.1-0.5-0.6-1.3-1.3-0.8c-2.3,1.7-5,0.3-7.4,0.5
		c-0.8-0.7-0.8-1.4-0.4-2.1c0.5-0.9,0.2-1.6-1-2.3c-0.1-0.1-0.1-0.1-0.2-0.2c0.1-0.2,0.3-0.3,0.6-0.3c0.9-0.1,1.5,0.2,2.1,0.4
		c0.3,0.1,0.5,0.2,0.7,0.3c1.1,0.6-0.4,1.6,1.5,2c2.1-0.1,4.1-0.6,6.1,0c1.1,0.1,1.8,0.6,2.5,1c0.7,0.5,2.7,0.3,2.7,1.2
		C170.8,66,169.6,66,168.1,65.8z"/>
	<path id="XMLID_3298_" class="cloud3_st98" d="M161.1,69c-0.1,0.3-0.1,0.7-0.8,0.6c-0.8-0.1-1.2-0.5-1.2-0.9c-0.1-0.3,0.2-0.6,0.9-0.5
		C160.8,68.2,160.9,68.7,161.1,69z"/>
	<path id="XMLID_3297_" class="cloud3_st99" d="M186.1,66.1c1.2-0.7,1.8-1.8,4-1.9c0.2,0.1,0.3,0.1,0.2,0.2c-0.1,0.1-0.1,0.1-0.2,0.1
		c-0.7,1.2,1.1,1,2.3,1c2.6-0.1,5.2-0.4,7.7-0.6c-0.1,0.7-0.7,1.4-2,1.2C194.1,65.5,190.1,66.8,186.1,66.1z"/>
	<path id="XMLID_3292_" class="cloud3_st100" d="M190.1,64.4c0-0.1,0-0.2,0-0.3c-3.1-1.2-6-1.4-7.5-0.5c-0.5,0.3-1.7,0.6-0.3,1.3
		c1.3,0.7-0.6,0.7-1.5,0.9c-0.2-0.4-0.3-0.9-0.5-1.3c-0.3-0.4,0.9-1.2-0.5-1.3c-1.2-0.1-2.3,0.4-2.8,1c0,0.1-0.1,0.1-0.1,0.2
		c-0.5,0.3-7.9,1.5-8.7,1.4c1.3-0.1,2.3-0.3,2.7-1c-0.4-0.1-0.7-0.3-0.8-0.6c0.1-0.7,1.5-1.2,1.6-1.9c0.7-0.3,1.5-0.6,2.2-0.9
		c1.5,0,2-0.6,2.7-1.1c3.1,0.2,5.4-0.1,4.8-2.1c0-0.1,0.4-0.2,0.7-0.3c0.3-0.1,0.7-0.2,1.2-0.3c0.8-0.2,1.6-0.2,2.3-0.5
		c1.4,0.4,3.5,0.2,4,1.3c0,0.3-0.1,0.6-0.6,0.9c-0.7,0.2-1.3,0.4-1.9,0.7c-1.1,0.4-1.1,0.7-0.2,1.2c3.6,2,5.3,2.2,10.6,1.2
		c0.3-0.1,0.6,0,0.9,0.1c0.7,0.4,0.7,1.1,2,1.3C197,64.6,193.5,64.1,190.1,64.4z"/>
	<path id="XMLID_3291_" class="cloud3_st49" d="M205.6,57.4c-0.1,0.2-0.2,0.4-0.2,0.7c0.1,2.4-0.7,2.7-5.7,2.4c-0.1-0.1-0.1-0.1-0.2-0.2
		c-0.4-0.2,1-0.7-0.4-0.6c-1.1,0.1-1.6,0.7-2.4,1.1c-1.5,0.7-3.1,0.8-4.7,0.1c-1.4-0.7-1.3-1.3-0.5-2.3c1.3-1.6,3.2-2.3,6.4-2.5
		c1.4-0.1,2.4-0.8,3.9-0.9C204,55.4,205.3,56.2,205.6,57.4z"/>
	<path id="XMLID_3290_" class="cloud3_st101" d="M198.2,62.4c-1.7,1.6-4.4,1.6-7.1,0.9c-2.7-0.7-5.9-1.1-7-2.8c-0.4-0.7-1.9-1.8,1.6-1.3
		c0.9,0.1,1.6-0.4,2.3-0.5c1.2,0.2,1.5,0.6,1.4,1.1c-0.2,1.5,1.6,1.6,3.8,1.4c1.4-0.1,2.7-0.2,3.8-0.7c0.7-0.3,1.4-0.6,2.3-0.2
		c0,0,0,0,0,0C199.9,61.2,199.7,61.9,198.2,62.4z"/>
	<path id="XMLID_3289_" class="cloud3_st33" d="M205.6,57.4c-1.3-0.7-2.6-1.3-4-2c-0.2-0.2-0.3-0.3-0.2-0.5c0.6-0.6,1.5-0.7,2.7-0.6
		c1.3,0.1,1.7,0.8,2.8,1.1c0.2,0.8,0.4,1.6,0.7,2.3C206.9,57.7,206.2,57.5,205.6,57.4z"/>
	<path id="XMLID_3288_" class="cloud3_st5" d="M169.5,73.8c-0.4-0.5,0.4-0.7,0.7-1c0.4-0.2,0.9-0.4,1.3-0.7c0.8,0.7,1.6,1.3,3.5,1.4
		c1.1,0,1.5,0.4,1.2,1C173.8,74.4,171.5,74.6,169.5,73.8z"/>
	<path id="XMLID_3258_" class="cloud3_st102" d="M128.7,59.4c-0.8-0.6-1.7-1.1-2.5-1.7c-0.6-0.4-1.8-0.9-0.7-1.4c1-0.5,2.4-0.6,3.6-0.1
		c1.5,0.5,2.9,0.8,4.3-0.1c2.4-0.2,4.9-0.4,7.3-0.3c1.9-0.5,3.1-0.1,4,0.7c0.3,0.2,0.4,0.5,0.6,0.7c1.8,1.5,3.4,3,7.7,2.6
		c1.2-0.1,1.6,0.4,1.7,1c0.4,1.5-1,2-4,2c-3.9,0-7.4-0.6-11.1-0.9c-0.7-0.1-1.9-0.3-2-0.5c-0.9-2.1-4.1-1.5-6.8-1.6
		C130.1,59.7,129.4,59.5,128.7,59.4z"/>
	<path id="XMLID_3257_" class="cloud3_st70" d="M142.7,52.1c-0.2,0-0.4,0-0.7,0c-4-0.1-7-1.5-10.6-2.1c-1.8-0.3-1.4-1.5,0.6-2.6
		c4.6-0.4,8.8,0.2,12.7,1.3c0.3,0.1,0.5,0.2,0.7,0.4C146.8,50.9,146.8,50.9,142.7,52.1z"/>
	<path id="XMLID_3256_" class="cloud3_st44" d="M132,47.4c-1.4,1.2-0.9,2,1.8,2.3c3.2,0.4,5.6,1.4,8.2,2.3c-1.2,0.6-2.6,0.6-3.9,0.1
		c-3.1-1.1-6.3-0.9-9.5-0.3c-0.8,0.2-1.7,0.3-2.5,0.4c-0.7,0.1-1.3,0-1.7-0.4c-0.3-0.4-0.1-0.8,0.5-0.9c3.1-0.6,4.6-1.8,5.7-3.2
		C130.8,47.7,131.5,47.6,132,47.4z"/>
	<path id="XMLID_3255_" class="cloud3_st44" d="M142.7,52.1c0.8-1,3.3-1.7,2-3c3.2,0.9,7.8,0.9,8.7,3.3c0.6,0,1.3,0.1,1.9,0.1
		c1.1,0,2.1,0.2,2.2,0.8c0.1,0.7-1.1,0.7-2.1,0.8c-1.2-0.2-2.3-0.5-3.5-0.4c-2.4,0.1-4.3-0.2-5.8-1.2
		C145.3,52,143.9,52.1,142.7,52.1z"/>
	<path id="XMLID_3254_" class="cloud3_st76" d="M144,56.8c-0.8-0.6-2.3-0.6-3.3-1c-1.4-1-3.3-0.3-4.9-0.4c-1.6-0.1-3.4,0.3-4.6-0.5
		c-0.5-0.4-0.1-0.7,0.5-1c1.4-0.8,3-0.8,4.8-0.4c2.4,0.6,5.4-0.1,7.6,1c0.5,0.1,0.9,0.2,1.4,0.3C145.8,55.6,145.2,56.2,144,56.8z"/>
	<path id="XMLID_3253_" class="cloud3_st52" d="M153.4,52.4c-2.5-1.4-6-2.1-8.7-3.3c0-0.1,0-0.2,0-0.3c-0.2-0.2-0.4-0.5-0.7-0.7
		c0.4,0,0.9,0,1.3,0c0.7,1,2.2,1.6,4.2,1.4c4-0.4,5,0.4,3.9,2.3C153.4,52,153.4,52.2,153.4,52.4z"/>
	<path id="XMLID_3252_" class="cloud3_st73" d="M154.7,60.8c-2.7-0.7-6.1-0.3-8.3-1.6c-0.9-0.5-2.1-0.9-2.4-1.7c1.2-0.3,2.5-0.3,3.3,0.3
		c1.3,0.9,3.1,1.2,5.2,1.2c2,0,3,0.5,2.8,1.6c0,0.1,0,0.2,0,0.3C155.1,60.8,154.9,60.8,154.7,60.8z"/>
	<path id="XMLID_3251_" class="cloud3_st21" d="M155.3,60.5c-0.8-0.3-1.5-0.9-2.3-0.9c-3.7-0.1-6.1-1.3-9-2.2c0-0.2,0-0.4,0-0.6
		c0-0.8,0.5-1.4,1.4-2c4.3-0.6,8.5,0.1,12.7,0.3c1.4,0.4,3.1,0,4.5,0.9c1.3,0.8,4.1-0.1,4.9-1.6c0.7,0.3,1.3,0.7,2,1
		c2.7,0.9,5.7,1.6,8.4,2.5c0.1,0.2,0.2,0.3,0.2,0.5c-2.8,1.7-3.8,1.8-7.1,0.6c-1.6-0.6-3.3-0.9-5.1-0.2c-0.7,0.3-1.6,0.3-2.5,0.4
		c-0.7,0.1-1.3,0-1.9-0.2c-1.6-0.8-2.8-1.9-5.6-1.4c-0.8,0-1.3-0.4-1.9-0.6c-1.1-0.4-2.7-0.7-3.4-0.1c-0.7,0.6,1.2,0.7,2,1
		c1.3,0.3,3,0,4,0.8c1.2,0.9,1.4,1.5-1.1,1.8L155.3,60.5z"/>
	<path id="XMLID_3250_" class="cloud3_st8" d="M145.4,48.1c-3.9-2.2-3.9-2.2,2.7-3.3c0.7,0,1.3,0,2,0c3.1,0.1,3.7,0.7,2.1,2
		c-0.5,0.4-1,0.9-1.5,1.3c-1.6-0.8-3.1-0.8-4.7,0C145.8,48.1,145.6,48.1,145.4,48.1z"/>
	<path id="XMLID_3249_" class="cloud3_st92" d="M146,48.1c0-0.3,0-0.7,0-1c0.1-0.8,0.7-1.3,2.4-1.2c1.5,0,2,0.6,2.1,1.2c0,0.3,0,0.7,0,1
		C149.2,49,147.6,48.7,146,48.1z"/>
	<path id="XMLID_3248_" class="cloud3_st75" d="M158.1,50.8c0.3,0.5,0.9,0.9,2,1c-0.7,0.1-1.5,0.3-2.2,0.3c-1,0-2.2-0.1-2.2-0.7
		C155.7,50.5,156.9,50.6,158.1,50.8z"/>
	<path id="XMLID_3192_" class="cloud3_st81" d="M206.9,55.4c-1.4,0.3-2.1-0.1-2.7-0.7c-1.7-0.8-2.9-1.6-1.3-2.8c1-0.4,2.2-0.6,3.5-0.7
		c1.7,0.1,3.6-1.1,5.2,0.2c4.1,0.4,4.2-1.5,5-2.5c0.8-1.1,1.1-2,4-2.2c1.8-0.1,0.9-1.1,1.7-1.6c1.9-1.8,2.4-2,5.6-0.7
		c2.1,0.8,5.8,0.9,5.7,2.8c-1.2,1.1-2.9,1.6-5.4,1.1c-1.1-0.2-2.1-0.1-2.9,0.4c-1,0.3-2.1,0.6-2.8,0c-1.6-1.2-2.9-0.7-4.2,0.1
		c-0.4,0.8-0.5,1.8-1.3,2.5c-1.5,1.3-4,1.6-7,1.5c-4.6-0.2-4.6-0.1-3.3,2C206.9,55,206.8,55.2,206.9,55.4z"/>
	<path id="XMLID_3191_" class="cloud3_st20" d="M211.6,51.4c-2-0.5-3.1,0.4-4.7,0.7c-3.9-0.8-7.5,0.6-11.3,0.5c-1.7-0.2-3.3-1-5.2-0.4
		c-2.2-0.3-3.4-1.3-5.3-1.8c-0.7-0.2-0.7-0.6-0.3-1c-0.7-0.3-1.3-0.7-2-1c0.5-0.6,1.2-1,2.6-0.6c2.8,0.6,5.9,1.1,8,2.3
		c0.3,0.1,0.4,0.3,0.9,0.3c-0.1-0.1-0.2-0.2-0.2-0.3c0.4-0.1,0.8-0.2,1.2-0.3c0.9-0.1,2.3-0.1,2-0.8c-0.2-0.6-1.3-0.8-2.5-0.8
		c-1.3,0-2.4,0-2.7-0.8c1.7-0.4,3.9,0.4,5.3-0.6c1.3,0.1,2.5,0.3,3,1.1c0.9,1.6,3.1,2.3,6.4,2.2C208.4,50.6,211,50.2,211.6,51.4z"/>
	<path id="XMLID_3190_" class="cloud3_st103" d="M183.5,44.4c2.7-0.6,4.7-0.3,6.1,1c0.5,0.5,1.2,0.9,1.9,1.4c-0.3,0.2-0.6,0.6-1.3,0.3
		C188,46.2,185.1,45.7,183.5,44.4z"/>
	<path id="XMLID_3189_" class="cloud3_st79" d="M185.5,47.8c-0.9,0.2-1.8,0.4-2.6,0.6c-0.9-0.6-2.1-1.1-2-2
		C182.8,46.5,184.8,46.6,185.5,47.8z"/>
	<path id="XMLID_3188_" class="cloud3_st101" d="M194.2,50.1c1.5,0.1,3.1,0.2,4,1c-2.7,0.5-3.5,0.3-4.6-0.9
		C193.7,50.1,193.9,50.1,194.2,50.1z"/>
	<path id="XMLID_3187_" class="cloud3_st20" d="M170.2,50.5c-1.7,0.7-3.1,0.4-3.9-0.5c-0.8-0.8,0.8-0.8,1.8-0.9c0.5,0.3,1.2,0.4,2,0.5
		C172,49.8,170.6,50.2,170.2,50.5z"/>
	<path id="XMLID_3186_" class="cloud3_st104" d="M164.8,52.4c0.5,0.4,0.9,0.9,1.4,1.3c-0.7,0.1-1.5,0.3-2.2,0.2c-0.9,0-2,1-2.7,0.1
		c-0.5-0.7,1-1,2-1.3C163.8,52.7,164.3,52.6,164.8,52.4z"/>
	<path id="XMLID_3185_" class="cloud3_st91" d="M177.5,58.1c-3.8-0.1-6.9-0.6-8-2.7c0-0.1,0-0.2,0-0.3c4.6-0.2,8.7,1.3,13.4,1
		c0.9,0.3,1.8,0.7,2.6,1c-0.2,0.5-0.6,1-1.3,1.3c-0.7-0.3-1.1-0.8-2.3-0.6C180.4,58.2,179.1,58.7,177.5,58.1z"/>
	<path id="XMLID_3184_" class="cloud3_st50" d="M184.8,49.4c2,0.8,4.9,1,6,2.3c2.6,0,4.6,1,7.1,1.2c1.1,0.7,3.1,0.8,3.9,1.6
		c0,0.2,0,0.3-0.2,0.5c0,0.1,0,0.2,0,0.4c-1.9,1-3.2,2.5-6.8,1.8c-0.8-0.2-1.3-0.1-1.4,0.4c0,0.1,0,0.1,0,0.2
		c0.7,0.9-2.9,1.6-0.4,2.5c2.7,0.9,2.6-0.9,4.3-1.2c0.9-0.1,1.7-0.3,2.6-0.3c1.5,0,4-0.4,4.2,0.7c0.2,0.9-2.3,0.4-3.5,0.7
		c-0.3,0.1-0.6,0.1-0.9,0.2c-1.7,1.3-7.6,2.3-10.6,1.7c-1.7-0.3-3.1-0.7-1.4-1.8c0.7-0.4,0.5-1,0.5-1.6c0.4-0.1,0.9-0.2,1.3-0.3
		c2.2-1.1,2.1-2-0.5-2.9c-0.6-0.2-1.4-0.4-2.1-0.4c-4.7,0.1-6.3-1.9-8.7-3.3c-1.1-0.6-0.9-1.6-0.1-2.4c0.7-0.7,1.6-1.5,3.4-0.5
		C182.3,49.5,183.6,49.4,184.8,49.4z"/>
	<path id="XMLID_3166_" class="cloud3_st12" d="M180.8,65.8c-2.6,1.6-5.9,2.4-10,2.3C173.9,67.1,177.4,66.4,180.8,65.8z"/>
	<path id="XMLID_3164_" class="cloud3_st105" d="M170.8,64.1c0,0.2,0,0.4,0,0.7c-1.1,0.2-2.2,0.3-3.3,0c0.9-1.1,0.8-2.1-0.7-3l0,0
		c-0.4-0.3-0.8-0.5-1.2-0.8c-0.9-0.5-1.6-1.1-0.5-1.8c1.1-0.7,2.5-0.8,4.2-0.4c2.4,0.6,4.6,1.3,7.3,1.5c0.1,0.1,0.2,0.1,0.3,0.2
		c-0.4,0.9,1.1,1.5,1.5,2.4c-2,0.1-2.6-1.1-4.3-1.1c-0.7,0.2-1.6,0-2.3,0.3C171.7,62.8,171,63.4,170.8,64.1z"/>
	<path id="XMLID_3163_" class="cloud3_st106" d="M162.2,58.4c-1.4-0.4-3-0.7-5-0.6c1.5,1.1,2.6,2.2,0.2,3.3c-0.6-0.2-1.3-0.5-1.9-0.7
		c1.2-0.6,1-1.2-0.6-1.5c-1.1-0.2-2.3-0.3-3.4-0.5c-1.2-1.2,0.1-1.6,2.2-1.6c0.8,0,1.7,0.1,2.5,0.3C158.7,56.8,161,57,162.2,58.4z"
		/>
	<path id="XMLID_3162_" class="cloud3_st107" d="M166.8,61.8c3.2,1.1,3.4,1.7,0.7,3c-0.5-0.4-0.9-0.9-1.4-1.3
		C166.8,62.9,166.8,62.3,166.8,61.8z"/>
	<path id="XMLID_3161_" class="cloud3_st106" d="M157.4,61.1c2,0.9,1.8,2.1,1.4,3.3C156.5,63.5,158.5,62.1,157.4,61.1z"/>
	<path id="XMLID_3159_" class="cloud3_st28" d="M177.5,58.1c1.7-0.2,3.1-0.6,4-1.3c1.2,0.4,1.8,0.9,1.3,1.7c-0.2,0.1-0.6,0.3-0.6,0.3
		c0.6,0.9,0.4,1.7-1.3,2.3c-1.7,0.6-2.7-0.5-4.1-0.6c0,0,0-0.1,0-0.1c-1-0.8,1-1.2,0.7-1.9C177.5,58.3,177.5,58.2,177.5,58.1z"/>
	<path id="XMLID_3158_" class="cloud3_st108" d="M170.1,61.8c-0.6-0.1-1.5-0.1-1.5-0.5c0-0.4,0.8-0.4,1.5-0.5c1.8-0.1,2.8,0.5,4,1
		c-0.5,0.4-1.1,0.6-2,0.7C170.9,62.6,171,61.8,170.1,61.8z"/>
	<path id="XMLID_3157_" class="cloud3_st54" d="M170.1,61.8c0.7,0.2,1.3,0.4,2,0.7c1.8,1,0.1,1.3-1.3,1.7C169.8,63.4,171.1,62.5,170.1,61.8
		z"/>
	<path id="XMLID_3156_" class="cloud3_st75" d="M182.8,58.4c-1-0.4-1.4-1-1.3-1.7c2.8-0.2,2.3,0.9,2.7,1.7
		C183.7,58.4,183.3,58.4,182.8,58.4z"/>
	<path id="XMLID_3155_" class="cloud3_st1" d="M201.6,55.1c-0.1-0.1-0.1-0.2-0.1-0.2c-0.4-0.5-1-0.8-1.8-1.2c-1.1-0.5-1.2-1.1,0.1-1.5
		c1.2-0.4,2.5-1.2,3.8,0c-0.8,0.9,0.8,1.8,0.6,2.7C203.3,54.9,202.5,55,201.6,55.1z"/>
	<path id="XMLID_3146_" class="cloud3_st107" d="M177.5,58.4c0.9,0.1,2.2,0,2.3,0.6c0.1,1-1.9,0.9-2.9,1.3c-0.9,0.5-2,0.9-3.1,0.3
		c-1.7-1-4.4-0.4-6.3-1.2c-0.8-0.4-1.9,0.1-1.7,0.8c0.2,0.5,0.6,1,1,1.6c-2.4-0.7-3.4-1.7-3.4-3c4.1-1.9,4.1-1.9,9.3,0.1
		C174.5,59.6,175.7,58.2,177.5,58.4z"/>
	<path id="XMLID_3145_" class="cloud3_st85" d="M156.1,57.1c-1.8,0.3-4.1,0-4.7,1.3c-1.4-0.2-2.6-0.6-3.6-1.1c-0.6-0.3-2.1-0.4-1.7-1
		c0.4-0.6,1.7-0.7,2.8-0.6C151.6,55.7,154.5,55.6,156.1,57.1z"/>
	<path id="XMLID_3124_" class="cloud3_st59" d="M203.6,52.1c-1.2-0.4-2.4-0.2-3.2,0.3c-0.9,0.6,0.6,0.7,1,1c0.6,0.5,0.1,0.9,0.1,1.4
		c-1.5-0.4-3.1-0.6-4-1.3c-0.3-0.6-3.1-0.3-2-1.4c1.7-0.2,3.9,0.2,4.5-1.2c0.2-0.4,1.1,0,1.6,0.1c1.8,0.3,3.2,1,5.2,1.1
		C205.8,52.5,204.7,52.4,203.6,52.1z"/>
	<path id="XMLID_3123_" class="cloud3_st48" d="M195.5,52.1c0.7,0.5,1.3,0.9,2,1.4c-2.2-0.5-5.2-0.4-6.7-1.7
		C192.8,50.4,194,51.8,195.5,52.1z"/>
</g>
</svg>
