<svg version="1.1" id="Laag_1" xmlns="http://www.w3.org/2000/svg" xmlns:xlink="http://www.w3.org/1999/xlink" x="0px" y="0px"
	 width="50%" viewBox="0 0 286.7 163.3" style="enable-background:new 0 0 286.7 163.3;" xml:space="preserve">
<defs>
    <filter id="gauss2" x="-20%" y="-20%" width="140%" height="140%">
    <feGaussianBlur stdDeviation="0.9"/></filter>

</defs>

    <style type="text/css">
	.cloud1_st0{fill:#BCBCBC;}
    .cloud1_st1{fill:#949494;}
    .cloud1_st2{fill:#CDCDCD;}
    .cloud1_st3{fill:#ADADAD;}
    .cloud1_st4{fill:#C4C4C4;}
    .cloud1_st5{fill:#848484;}
    .cloud1_st6{fill:#A7A7A7;}
    .cloud1_st7{fill:#8B8B8B;}
    .cloud1_st8{fill:#777777;}
    .cloud1_st9{fill:#BABABA;}
    .cloud1_st10{fill:#979797;}
    .cloud1_st11{fill:#868686;}
    .cloud1_st12{fill:#A1A1A1;}
    .cloud1_st13{fill:#5C5C5C;}
    .cloud1_st14{fill:#838383;}
    .cloud1_st15{fill:#ACACAC;}
    .cloud1_st16{fill:#C1C1C1;}
    .cloud1_st17{fill:#A6A6A6;}
    .cloud1_st18{fill:#383838;}
    .cloud1_st19{fill:#616161;}
    .cloud1_st20{fill:#C6C6C6;}
    .cloud1_st21{fill:#999999;}
    .cloud1_st22{fill:#B9B9B9;}
    .cloud1_st23{fill:#B7B7B7;}
    .cloud1_st24{fill:#C2C2C2;}
    .cloud1_st25{fill:#BDBDBD;}
    .cloud1_st26{fill:#D9D9D9;}
    .cloud1_st27{fill:#D2D2D2;}
    .cloud1_st28{fill:#ECECEC;}
    .cloud1_st29{fill:#959595;}
    .cloud1_st30{fill:#E0E0E0;}
    .cloud1_st31{fill:#DFDFDF;}
    .cloud1_st32{fill:#ABABAB;}
    .cloud1_st33{fill:#DDDDDD;}
    .cloud1_st34{fill:#E7E7E7;}
    .cloud1_st35{fill:#C7C7C7;}
    .cloud1_st36{fill:#919191;}
    .cloud1_st37{fill:#A2A2A2;}
    .cloud1_st38{fill:#747474;}
    .cloud1_st39{fill:#D4D4D4;}
    .cloud1_st40{fill:#8F8F8F;}
    .cloud1_st41{fill:#C8C8C8;}
    .cloud1_st42{fill:#BEBEBE;}
    .cloud1_st43{fill:#939393;}
    .cloud1_st44{fill:#CECECE;}
    .cloud1_st45{fill:#C5C5C5;}
    .cloud1_st46{fill:#AAAAAA;}
    .cloud1_st47{fill:#787878;}
    .cloud1_st48{fill:#D7D7D7;}
    .cloud1_st49{fill:#BFBFBF;}
    .cloud1_st50{fill:#C3C3C3;}
    .cloud1_st51{fill:#9D9D9D;}
    .cloud1_st52{fill:#C9C9C9;}
    .cloud1_st53{fill:#B0B0B0;}
    .cloud1_st54{fill:#DADADA;}
    .cloud1_st55{fill:#E9E9E9;}
    .cloud1_st56{fill:#EAEAEA;}
    .cloud1_st57{fill:#E3E3E3;}
    .cloud1_st58{fill:#CCCCCC;}
    .cloud1_st59{fill:#F1F1F1;}
    .cloud1_st60{fill:#EBEBEB;}
    .cloud1_st61{fill:#9B9B9B;}
    .cloud1_st62{fill:#AEAEAE;}
    .cloud1_st63{fill:#BBBBBB;}
    .cloud1_st64{fill:#D1D1D1;}
    .cloud1_st65{fill:#B1B1B1;}
    .cloud1_st66{fill:#EFEFEF;}
    .cloud1_st67{fill:#B3B3B3;}
    .cloud1_st68{fill:#797979;}
    .cloud1_st69{fill:#888888;}
    .cloud1_st70{fill:#A0A0A0;}
    .cloud1_st71{fill:#969696;}
    .cloud1_st72{fill:#B5B5B5;}
    .cloud1_st73{fill:#D0D0D0;}
    .cloud1_st74{fill:#B4B4B4;}
    .cloud1_st75{fill:#A8A8A8;}
    .cloud1_st76{fill:#D5D5D5;}
    .cloud1_st77{fill:#A4A4A4;}
    .cloud1_st78{fill:#6A6A6A;}
    .cloud1_st79{fill:#C0C0C0;}
    .cloud1_st80{opacity:0.34;fill:#939393;}
    .cloud1_st81{fill:#595959;}
    .cloud1_st82{fill:#818181;}
    .cloud1_st83{fill:#7C7C7C;}
    .cloud1_st84{fill:#909090;}
    .cloud1_st85{fill:#7E7E7E;}
    .cloud1_st86{fill:#E8E8E8;}
    .cloud1_st87{fill:#A9A9A9;}
    .cloud1_st88{fill:#7B7B7B;}
    .cloud1_st89{fill:#989898;}
    .cloud1_st90{fill:#6B6B6B;}
    .cloud1_st91{fill:#878787;}
    .cloud1_st92{fill:#9C9C9C;}
    .cloud1_st93{fill:#858585;}
    .cloud1_st94{fill:#CBCBCB;}
    .cloud1_st95{opacity:0.34;fill:#7B7B7B;}
    .cloud1_st96{opacity:0.34;fill:#6C6C6C;}
    .cloud1_st97{fill:#CFCFCF;}
    .cloud1_st98{fill:#D8D8D8;}
    .cloud1_st99{fill:#8A8A8A;}
    .cloud1_st100{fill:#E6E6E6;}
    .cloud1_st101{fill:#B8B8B8;}
    .cloud1_st102{fill:#808080;}
    .cloud1_st103{fill:#B2B2B2;}
    .cloud1_st104{fill:#AFAFAF;}
    .cloud1_st105{fill:#E2E2E2;}
    .cloud1_st106{fill:#9A9A9A;}
    .cloud1_st107{fill:#696969;}
    .cloud1_st108{fill:#6D6D6D;}
    .cloud1_st109{fill:#B6B6B6;}
    .cloud1_st110{fill:#CACACA;}
    .cloud1_st111{fill:#6E6E6E;}
</style>
<g id="XMLID_1_" filter="url(#gauss2)">
	<path id="XMLID_4369_" class="cloud1_st0" d="M1.3,47.4c0.2,0,0.5,0,0.7-0.1c0.2,0,0.3,0,0.5,0C7,47,7,47,8.6,51.1
		c0.7,1.8-0.5,2.3-1.9,2.4c-1.5,0.2-3.3-0.2-4.1,1.7c-0.2,0.2-0.5,0.3-0.8,0.4c-0.2,0-0.4,0-0.5,0.1C1.3,53,1.3,50.2,1.3,47.4z"/>
	<path id="XMLID_4205_" class="cloud1_st1" d="M2,47.4c4.3-1.8,7,2.2,10.5,3c0.8,0.2,1.6,0.7,2.3,1c0.2,0.2,0.3,0.5,0.3,0.8
		c-0.3,1.2-0.6,2.3-1.5,3.3c-0.2,0.2-0.4,0.4-0.7,0.6c-0.6,0.4-1.2,0.9-2,0.4c-1.2-2-2.8-2.5-5.1-1.8c-1.3,0.4-2.7,0.3-4,0.5
		c-0.4-4.9,3.7-1.3,5.3-3.2c0.2-0.7-1.2-1.1-1.1-2.1c0-1.6-0.8-1.7-2.1-1.1C2.6,49.5,2.1,48.6,2,47.4z"/>
	<path id="XMLID_4050_" class="cloud1_st2" d="M182.2,22.8c0-1.7,1.2-3.4-0.1-5c0.1-1.7-0.7-3.4,0.2-5.1c1.1-0.9,2.2-1.8,3.4-2.7
		c1.4-1,3-1.4,4.7-0.5c0,0-0.1,0.1-0.1,0.1c0.2,0.3,0.2,0.6,0.1,0.9c-0.8,1.1-1.2,1.9,0.3,3.1c1.3,1,2.6,2.4,2.2,4.5
		c-1.2,1.4-2.6,2.2-4.4,0.8c-0.7-0.5-1.4-0.3-2.1,0c-1.7,1.7-1.2,3.3,0.1,4.9c0.1,0.3,0.2,0.6,0.2,1c-1.7,2.8-2.5,2.8-4.1,0
		C182.4,24.1,182.5,23.4,182.2,22.8z"/>
	<path id="XMLID_4039_" class="cloud1_st3" d="M188.6,40.3c-1.1-2.1-4.7-2.7-3.9-6.3c0.1-0.6-2.6-0.3-3.9-0.8c-0.8-0.9-1.2-2-1.3-3.2
		c0.9-0.6,1.8-1,2.9-0.1c1.4,1.2,3.1,1.3,4.8,1.2c1.6,1,3.4,1.3,5.2,1.6c1.7,0.6,2.6,1.5,1.1,3.2c-0.2,0.2-1,0.2-0.3,0.8
		c0.6,1.1,0.1,2.1-0.5,3c-0.2,0.3-0.4,0.5-0.7,0.7C190.8,40.8,189.7,41.3,188.6,40.3z"/>
	<path id="XMLID_4037_" class="cloud1_st4" d="M187.3,32.6c-3.1,0.6-5-2.1-7.7-2.6c0.2-0.9,0.4-1.7,0.6-2.6c0.4-0.7,1-0.9,1.8-0.8
		c0.8,0.2,1.5,0.7,2.1,1.3c0.6,0.8,1.4,1.5,2.3,2.1C187.2,30.7,188,31.4,187.3,32.6z"/>
	<path id="XMLID_4036_" class="cloud1_st5" d="M182.1,27.5c-0.7,0-1.3,0-2-0.1c-0.6-1.1,0.1-2.1,0-3.2c1.2,0.3,1.9-0.2,2-1.4
		c0.2,0.5,0.4,0.9,0.6,1.4C182.9,25.4,184.4,26.8,182.1,27.5z"/>
	<path id="XMLID_4009_" class="cloud1_st6" d="M23.7,82.2c-1.8,0.4-3.4,0-5-0.7c-0.7-0.9-3.6,0.8-2.6-2.2c1-1.1,2.3-0.9,3.5-0.5
		c0,0,0.1-0.1,0.1-0.2c0-0.1,0-0.2-0.1-0.3c0-1.2-1.6-1.8-1.2-3.2c0.6-1.1,1.7-1.2,2.7-1c3.5,1.5,6.4-1.5,9.8-1.4
		c1.6,0.1,3.2-0.4,4.6,0.9C36,75,35,75.5,34,75.9c-1.1,0.5-2.3,0.7-3.2,1.4c-1.6,1.5,0.1,2.4,0.6,3.6c0.4,0.9,1.1,1.8,0.2,2.7
		c-0.7,0.8-1.5,0.3-2.3-0.1C27.5,82.6,25.6,82.6,23.7,82.2z"/>
	<path id="XMLID_4008_" class="cloud1_st7" d="M23.7,82.2c2.4-0.4,4.6,0.6,7.6,1.1c-1.3-1.6-2.2-2.6-3-3.7c-0.5-0.7-2.2-0.4-1.8-1.8
		c0.4-1.3,1.6-2,3-2c3.9,1.5,6.2,4.1,5.9,8.4c-0.5,0.6-1,1.2-1.4,1.7C30.6,84.7,27.2,83.4,23.7,82.2z"/>
	<path id="XMLID_4007_" class="cloud1_st8" d="M16.7,79.6c-0.2,1.6,1.4,1.1,2,1.9c-2.2-0.1-4.8,1.6-6.4-1.3c-0.6-1-1.1-2-0.9-3.2
		c1.4-2.5,2.8-0.7,4.2-0.1C16.5,77.6,16.6,78.6,16.7,79.6z"/>
	<path id="XMLID_4003_" class="cloud1_st9" d="M53.4,90.7c-0.4-0.3-0.9-0.5-1.3-0.8c0.2-1-0.3-2.2,0.5-3.1c1.9-1.7-0.8-1.7-1-2.5
		c-0.4-1.9,0.6-2.3,1.8-2.4c-0.7-0.2-1.7,0.2-2.7,0.3c-1.8,0.2-3.1,0.5-1.4,2.6c0.9,1.2,0.8,2.4-0.5,3.3c-3.6-0.5-6.9-1.9-10.3-3.2
		c-0.4,0-0.8-0.1-1.2-0.1c-0.9-1-1.6-2.1-1-3.5c0.8-1.4,2.5-1.9,3.5-3.1c0.7-0.8,1.7-0.8,2.6-0.2c3.1,2,5.8,0.8,8.4-1
		c0.9-0.7,1.4-1.5,0.8-2.8c-0.4-0.8-1.2-1.5-0.8-2.6c2.2-2.2,6.3-1.4,7.4,1.5c0.9,2.4,1.9,4.6,4.8,5c0.3,0,0.6,0.1,0.9,0.3
		c1.6,1.4,2.5,4.1,5.6,2.8c0.4-0.2,0.9,0.4,1.2,0.9c0.2,0.5,0.3,1,0.3,1.5c0,2.3-1.8,2.9-3.4,2.9c-2.9,0-4.9,1.1-6.3,3.5
		c-0.2,0.3-0.4,0.6-0.7,0.8C58.3,92.4,55.9,92.1,53.4,90.7z"/>
	<path id="XMLID_4002_" class="cloud1_st10" d="M38,81.5c-0.7,1-0.6,2.1-0.6,3.2c-0.6-0.2-1.2-0.4-1.8-0.6c-1.5-0.2-3.1,0.1-2.4-2.7
		c0.5-2.3-2.4-3.7-3.5-5.7c2-0.3,3.9-1.1,5.8-1.9c-0.1-0.8,0.2-1.4,0.7-2c1.1-1.1,2.5-2,3.7-3.1c0.2-0.2,0.5-0.3,0.8-0.5
		c4.4-2.3,10.9,1.4,11.4,6.4c0.1,0.6,0,1.2-0.4,1.8c-2,2.6-5.9,3.6-8.7,1.7c-2.1-1.4-3.1-0.9-3.6,1.3C39,80.2,38.4,80.8,38,81.5z"/>
	<path id="XMLID_4001_" class="cloud1_st11" d="M38.5,84.8c3.7-0.3,6.9,1.7,10.4,2.4c2.1-0.3,2.9,0.6,2.6,2.6c-3.7,0.1-6.8-2.1-10.3-2.6
		C40.3,86.4,39.4,85.6,38.5,84.8z"/>
	<path id="XMLID_4000_" class="cloud1_st12" d="M12.9,73.1c-1.1-2.7-1.2-5.5-0.6-8.3c0.2-0.2,0.5-0.3,0.9-0.3c1.1,0.2,1.2,1.4,2,1.9
		c2.8,3.2,2.8,3.2,0.6,7c-0.5,0.3-0.7,1-1.2,1.3c-0.3,0.1-0.6,0.1-0.9,0C13,74.3,13.3,73.5,12.9,73.1z"/>
	<path id="XMLID_3999_" class="cloud1_st13" d="M12.9,73.1c0.2,0.4,0.5,0.9,0.7,1.3c1.8,0.2,4,0.1,2.8,3.1c-0.3,0.3-0.6,0.4-1,0.2
		c-1.1,0.4-2.1-1.6-3.2-0.1c-1.1,0-2.4,0.6-2.7-1.3C9.7,74.3,13.1,75.5,12.9,73.1z"/>
	<path id="XMLID_3998_" class="cloud1_st14" d="M5.2,66c0.8-1.9,1.7-3.9,2.5-5.8c1.2,0.3,1.5,1.3,1.6,2.4c-0.2,1.2,0.5,2.4-0.3,3.5
		C7.7,66.1,6.5,66.1,5.2,66z"/>
	<path id="XMLID_3997_" class="cloud1_st15" d="M9,66.1c-0.5-1.1-0.6-2.2-0.5-3.3c0.9-0.5,1.8-1.1,2.9-1.1c0.4,0.1,0.7,0.2,1.1,0.3
		c1.2,0.7,1.5,1.6,0.5,2.7c-0.2,0-0.4,0-0.6,0c-1.2-0.9-1.6-0.4-1.8,0.9C10.3,66.7,9.8,66.9,9,66.1z"/>
	<path id="XMLID_3996_" class="cloud1_st16" d="M11,62.9c-0.9,0.6-1.7,0.4-2.5,0c-0.2-0.9-0.5-1.7-0.7-2.6c0.4-1.8,2.9-2,3.3-3.8
		c0.4-0.4,0.8-0.8,1.2-1.2c0.2,0.2,0.4,0.4,0.6,0.6c0.5,1.1,1.6,1.3,2.5,1.7c1,0.4,1.5,1.2,1.3,2.3c-0.2,1.2-1.2,1.3-2.2,1.4
		C13.2,61.4,11.2,60.2,11,62.9z"/>
	<path id="XMLID_3984_" class="cloud1_st17" d="M14.8,51.9c0-0.2,0-0.4,0-0.6c0.9-0.2,1.9,0.3,2.5-0.8c1-2.6,2.6-2.2,4.5-1
		c1,1.2,2.7,0.4,3.9,1.1c3.7,1.9,7.7,2.2,11.7,1.9c2.6-0.3,4.7-1.5,6.3-3.5c2,2.6-0.3,3.8-1.9,4.6c-2.7,1.4-5.9,1.6-8.8,2.5
		c-1,0.4-0.9,1.4-1.4,2.2c-0.2,0.3-0.4,0.5-0.6,0.7c-0.5,0.5-1.2,1-1.7,0.7c-4-2.7-9.9-1.1-13-5.8C15.5,53.5,14.4,53.3,14.8,51.9z"
		/>
	<path id="XMLID_3977_" class="cloud1_st15" d="M31.6,55.1c2-1.6,4.4-0.6,6.6-1.3c2.5-0.8,5.2-1.4,5.6-4.8c0.4-0.6,0.9-1.2,1.3-1.8
		c0.6-0.9,1.3-1.7,1.7-2.6c0.8-1.8,2-3,4-3.2c2.2-0.2,2.9-1.8,2.7-3.6c-0.2-2.2-1.9-1-3-0.9c-2,0.1-2.6-0.6-1.5-2.4
		c1.1-0.4,2.4,0.1,3.5-1c1-1,2.1-0.6,2.9,0.5c0,0,0,0,0,0c1.2,1.3,2.3,2.9,4.4,2.5c0.1,0.1,0.2,0.2,0.3,0.3c0.4,1.2-0.5,2.6,0.3,3.8
		c2.1,3.4,2.7,6.8,0.1,10.3c-0.8,1.1-0.5,2.3-0.4,3.5c0.2,1.3,1.3,2.7-0.3,3.8c-1.4,0.9-2.6-0.1-3.9-0.7c-0.5-0.5-0.7-1.1-0.5-1.7
		c0.7-2,0.6-3.6-1.7-4.5c-0.8-0.3-1.7-1.3-1.4-2.6c0.1-1,2-1.3,1.2-2.6c-0.3-0.5-0.9-0.6-1.4-0.5c-1.5,0.1-1.9,1.1-2.1,2.4
		c0,0.4-0.2,0.8-0.4,1.2c-1.5,2.2-3.5,3.9-5.4,5.7c-2.4-0.1-3.8,1.7-5.8,2.6c-1,0-1.9-0.4-2.9-0.6C34.4,55.7,32.5,56.7,31.6,55.1z"
		/>
	<path id="XMLID_3975_" class="cloud1_st18" d="M55.4,33.9c-1-0.5-1.9-0.7-2.9,0.2c-1.1,0.9-2.3,0.7-3.5,0.3c1.6-0.6,3.1-1.3,4.4-2.4
		C54.1,32.5,55,32.9,55.4,33.9z"/>
	<path id="XMLID_3973_" class="cloud1_st14" d="M73.9,40.4c1.2,0.4,1.6,1.5,2.2,2.5c0.9,1.8,2.1,3.4,4.3,3.8c-0.8,1.7-1.6,3.4-1.8,5.4
		c-0.1,1.7-2,1.5-3.3,1.8c-0.4,0-0.7-0.1-1-0.3c-1.9-2.1,0.6-3.6,0.8-5.4c0.6-1.4-0.8-2.2-1.1-3.4c-0.2-0.8-1-1.3-1-2.2
		C72.9,41.8,73.2,41,73.9,40.4z"/>
	<path id="XMLID_3972_" class="cloud1_st19" d="M75.3,53.1c1.5-0.8,2.9-1.8,3.1-3.6c0.2-1.2,1.1-2,1.9-2.7c0.4,0,0.9,0,1.3,0
		c-0.9,1.9-2.7,3.3-1.7,6c0.6,1.5-2.4,2.3-2.2,4.3C75.3,57,74.8,56.3,75.3,53.1z"/>
	<path id="XMLID_3971_" class="cloud1_st15" d="M59.8,36.4c1.9-2.2,4-2.3,6.4-0.8c1.3,0.8,2.9,1.1,4.4,1.6c0.1,0.2,0.1,0.4,0.2,0.5
		c-0.3,0.8-1,0.9-1.8,1c-1.2,0.2-2.3-0.2-3.5-0.7c-1.6-1.7-3.9-0.6-5.7-1.4L59.8,36.4z"/>
	<path id="XMLID_3970_" class="cloud1_st20" d="M68.9,37.7c0.7,0,1.3,0,2,0c0.8,0.9,1.7,1.7,2.5,2.6c0.1,1.9-1.5,1.6-2.6,2.1
		c-0.4,0-0.7-0.1-1-0.3C68.3,40.9,68.2,39.4,68.9,37.7z"/>
	<path id="XMLID_3969_" class="cloud1_st6" d="M70.7,41.6c0.9-0.4,1.8-0.9,2.7-1.3c0.2,0.1,0.4,0.1,0.5,0.2c0,0.8,0.1,1.6,0.1,2.4
		C72.3,44.2,71.1,44.1,70.7,41.6z"/>
	<path id="XMLID_3961_" class="cloud1_st21" d="M122.3,68.3c0.8-0.3,2.2,0,2-1.4c-0.2-1-1.4-0.6-2.2-0.9c-1-0.3-2.1-0.2-3.1,0.1
		c-0.7-0.3-1.8-0.4-1.6-1.6c0.1-0.9,0.7-1.2,1.6-1c3.2,1.9,5.9-0.8,9-0.7c1.4,0.2,2.7,0.6,4,0.9c2.5,0.5,2.9,1.5,1.2,3.2
		c-1.2,1.2,0.2,0.9,0.4,1.4c0.8,0.7,2.2,0.8,2.6,2c0.1,0.3,0.1,0.7,0,1c-0.9,1.4-2.8,0.8-3.9,1.8c-1.5-0.1-3-0.2-4.6,0.1
		c-1.2,0.2-2.3,0-3.1-1C124.3,70.6,122.2,70.1,122.3,68.3z"/>
	<path id="XMLID_3960_" class="cloud1_st22" d="M133.1,69.3c-0.4,0.1-0.8,0.2-1.2,0.2c-1.7-0.1-3.5-0.7-3.5-2.4c0-1.4,1.9-1.6,3.4-1.5
		c0.4,0,0.9,0.2,1.2-0.6c-1.7-0.7-4.3,0.4-5-2.3c0.2-0.4,0.5-0.7,0.7-1.1c1.5-1.5,1.4-4.5,4.3-4.6c0.8-0.7,2.2-0.5,2.1,0.2
		c-0.4,2.3,2.2,3.2,2.2,5.1c0,0.7,0.1,1.5,0.1,2.2C137.3,67.3,136.2,69.3,133.1,69.3z"/>
	<path id="XMLID_3959_" class="cloud1_st23" d="M103.4,60.3c0,0.6-0.1,1.1-0.1,1.7c-0.1,0.3-0.2,0.6-0.5,0.8c-1.8,0.8-2.9-0.7-4.1-1.4
		c-1-0.6-1.8-1.1-2.9-0.6c-5,2.5-10.1,1.9-15.3,0.6c-0.4-0.2-0.8-0.6-0.9-1.1c-0.1-0.3,0-0.6,0.3-0.9c3.6,0.7,7.4-1.3,11,0.5
		c0.8,0.4,1.4-0.6,1.7-1.5c0.2-0.8,0.5-1.7,0.7-2.5c0.3-1,0.9-1.7,2-1.8c1.1-0.1,1.3,0.9,1.8,1.5c1.2,1.5,1.8,3.8,4.5,3.2
		C102.3,59.4,102.8,59.9,103.4,60.3z"/>
	<path id="XMLID_3953_" class="cloud1_st24" d="M17.4,52.6c1.1-0.4,1.3,0.1,1.7,1.1c0.9,2.2,2.5,3.6,5.1,2.5c1.2-0.5,2.3-0.8,3,1
		c0.3,0.8,1.7,1.5,3.1,1.1c1-0.1,1.1,0.6,0.9,1.2c-0.3,0.9-1,1.5-1.9,1.3c-4.2-0.9-8.8,0.1-12.5-2.8c-1.3-1-3.4-0.8-4.5-2.3
		c0-0.2,0-0.4,0-0.6c0.2,0,0.4,0,0.6-0.1C14.4,54.3,15.6,53,17.4,52.6z"/>
	<path id="XMLID_3952_" class="cloud1_st25" d="M17.4,52.6c-1.2,1.3-2.4,2.8-4.5,2.5c0.9-0.9-0.4-3.2,1.9-3.2
		C15.7,52.1,16.5,52.3,17.4,52.6z"/>
	<path id="XMLID_3798_" class="cloud1_st26" d="M231.7,32.6c-1.7,0-2.4,1.1-2.2,2.5c0.2,1.7-0.4,3.1-0.9,4.6c-2,0.7-2.2-1.1-2.8-2.1
		c-1.7,2.8-1.6,5,0.4,7.4c0.7,0.8,1.7,1.3,2.3,2.3c1.2,2.7,0.4,3.9-2.5,5.1c-2.4,1-4.5,2.9-7.1,3.7c-0.6,0.1-1.3,0.1-1.9-0.1
		c-1.2-0.3-2.3-1-3.5-1.5c-2.5-1-2.8-3.3-0.5-4.8c1-0.6,2-1.3,2.8-2.1c1.6-1.1,3.4,1.6,5-0.2c0.8-1,0.7-2.2,0.2-3.1
		c-1.6-2.8-0.8-5.8-1.2-8.8c-0.1-1.2-0.2-2.4,0.9-3.3c0.9-0.8,1-1.8,1-2.9c0.2-4.2,1.6-5.2,5.7-4.1c1.6,0.1,2-2.5,3.9-1.9
		c1.3,5,4.6,4.6,8.4,3.3c0.4-0.1,0.8,0,1.2,0.1c0.3,0.2,0.5,0.4,0.7,0.7c-0.2,2.4-1.3,4-3.7,4.5c-0.8,0-1.6,0.4-2.4,0.1
		C234.2,31.7,232.9,32.3,231.7,32.6z"/>
	<path id="XMLID_3780_" class="cloud1_st27" d="M136.4,62.2c-0.7-0.8-1.4-1.4-2.4-0.5c-0.8,0.8-1.6,1.2-2.4,0.2c-0.9-1.2,0.3-1.9,0.9-2.7
		c0.4-0.5,1.2-0.6,1.5-1.1c0.6-1-0.5-0.9-1-1.1c1.3-3.9,3.3-4.1,6.6-0.6c-0.7,0.7-0.6,1.5-0.2,2.3c0.1,3.2,1.2,6,3.4,8.3
		c1.1,1.2,1.5,2.3,0.1,3.6c-0.2,0.1-0.4,0.2-0.6,0.2c-7.2,1.1-7.1-0.3-5.7-7.4C136.7,62.9,136.7,62.5,136.4,62.2z"/>
	<path id="XMLID_3779_" class="cloud1_st28" d="M137.1,58.3c-0.8-2.8,0.9-2.4,2.6-1.9c0.6,0.5,1.3,0.9,1.9,1.4c1.1,0.8,2.1,1.6,2.6,3
		c0.1,1.8,1.4,4.3-1,5c-2.3,0.7-3-2-3.9-3.6C138.5,61,138,59.5,137.1,58.3z"/>
	<path id="XMLID_3778_" class="cloud1_st27" d="M142.9,60.9c-0.4-1-0.9-2.1-1.3-3.1c1.8-0.4,2.9,1.3,4.4,1.4c0.3,0.1,0.6,0.2,0.8,0.3
		c0.2,0.1,0.3,0.1,0.5,0.2c0.8,0.3,1.2,0.9,1,1.7c-0.2,0.8-0.9,1.1-1.7,1.1c-0.9,0-1.6-0.3-2.4-0.8
		C143.8,61.4,143.3,61.2,142.9,60.9z"/>
	<path id="XMLID_3777_" class="cloud1_st29" d="M190.3,10.1c0-0.2,0-0.3,0-0.5c0.9-0.2,2-0.2,2.6-1c3.1-3.9,7.1-4.9,11.9-4.1
		c0.3,0,0.6-0.2,0.9-0.3c0.3,0,0.6,0.2,0.8,0.5c0.4,2.1-0.8,3.3-2.4,4.3c-1.4,1.4-3.1,1.8-4.9,0.9c-1.1-0.6-2.2-0.3-3.3,0.2
		c-1.5,0.7-3.1,1.4-4.9,0.8C190.7,10.6,190.5,10.4,190.3,10.1z"/>
	<path id="XMLID_3775_" class="cloud1_st30" d="M192.4,17.8c-1.5-1.3-2.4-3.1-4.7-3.5c-1-0.2-1.5-1.7-1.2-2.7c0.6-1.7,2.4-1.4,3.8-1.6
		c0,0,0.2,0.1,0.2,0.1c2,0.5,3.9,0.2,5.9-0.1c1.5,1,3.1,1.8,3.9,3.5c0.8,1.6,2.7,0.9,3.6,2.2c0.3,0.5,0.3,0.9,0.2,1.5
		c-0.1,0.5-0.4,1-0.7,1.4c-1.1,2.4-1.8,5.3-5.4,4.9c-1.9-0.5-3.3-2-5.1-3C192,20,191.8,18.9,192.4,17.8z"/>
	<path id="XMLID_3774_" class="cloud1_st9" d="M192.4,17.8c1.2,2.4,4.7,1.9,5.8,4.5c1.2,0.7,2.7,1.2,2.2,3c-0.4,1.6-1.4,2.6-3.1,2.8
		c-1.6,0.1-2.8,0.9-3.9,1.9c-2.5,2.4-4,2-5.6-1.5c1.1-1.7,1.1-3-1.2-3.6c-0.2-0.2-0.4-0.4-0.6-0.7l-0.1,0c-1.1-2.1-0.7-4.3,0-6.4
		c0.8-1.1,2-1.2,2.8-0.6C190,18.2,191.2,17.9,192.4,17.8z"/>
	<path id="XMLID_3773_" class="cloud1_st31" d="M185.9,17.8c3,2.2,1.5,4.3,0,6.4c-1.3-0.8-2.8-5.4-2.1-6.5
		C184.5,16.6,185.2,17.5,185.9,17.8z"/>
	<path id="XMLID_3772_" class="cloud1_st32" d="M186,24.2c0.2,0,0.4,0,0.6,0c0.6,0.6,1.3,1.1,1.1,2.1c-0.9,1.8-1.9,3.4-4.4,2.4
		c-0.6-0.2-1.1-0.6-1.3-1.2c0.7-1,0.6-2.2,0.7-3.3C183.9,25.4,184.9,26.4,186,24.2z"/>
	<path id="XMLID_3771_" class="cloud1_st33" d="M142.9,60.9c0.4,0,0.8,0,1.3,0c0.7,0.6,1.2,1.4,2,1.7c2,1,1.3,3.8,3,5
		c1.3-0.4,0.8-2,1.8-2.5c2.4-0.2,5.2,1.8,6.4,4.5c2.1,4.7,2.1,4.7,7.2,4.6c0.6,0,1.3,0.1,2.2-0.4c-2.9-1.2-6-0.9-8.2-3
		c-1.2-1.2-3-2.1-1.5-4.2c3.1,3.5,8,2.5,11.7,4.3c0.4,0.2,1.2-0.3,1.8-0.4c0.3-0.1,0.6-0.1,0.9,0c2.9,2,3.2,2.8,1.4,5.8
		c-0.5,0.8-0.5,1.4,0.1,2c1.7,1.9,0.7,3.3-0.8,4.6c-1.6,1-3.2,0.3-4.8-0.1c-1.8,0-0.6,0.9-0.5,1.5c0.2,0.3,0.3,0.5,0.4,0.8
		c0.3,1.5-0.9,2.3-1.6,3.4c-0.2,0.3-0.4,0.5-0.6,0.7c-0.9,0.6-1.6,1.6-2.6,1.8c-3.3,0.5-6,1.9-7.3,5.2c-2.3,0.6-3.4-0.2-4.2-2.6
		c-0.8-2.5-2.6-4.5-3.7-6.9c-1.1-1.6-0.5-3.2-0.3-4.9c1.1-4.2,1.7-4.6,4.8-3.4c1.3,2.8,4.5,2.8,6.6,4.4c0.3,0.1,0.8,0.4,0.8,0.3
		c0.4-1.7,1.9-3.1,1.5-5.1c-2.4-1.4-5.1-1.1-7.7-0.9c-5.5-0.2-8.4-2.2-10.2-7.4c-1.9-3.9-4.7-7.3-5.8-11.6c1.5,0.9,2,2.4,2.8,3.8
		c0.6,1.2,1.5,3,2.9,2.4C144.3,63.9,143.2,62.2,142.9,60.9z"/>
	<path id="XMLID_3770_" class="cloud1_st34" d="M157.1,66.5c1.2,3,3.9,4.1,6.7,4.7c2.5,0.6,5,0.8,7.1,2.4c-2.8,3.7-11.8,2.7-14.5,0.2
		c-0.5-0.4-1.2-0.9-1-1.5c1.5-4.1-2.3-4.9-4.1-7c-1.2-0.2-1.5-1-1.7-2c-0.1-0.6,0.1-1.1,0.4-1.6c1.5-1.6,2.7-1,3.9,0.4
		C155.4,63.2,156.3,64.8,157.1,66.5z"/>
	<path id="XMLID_3767_" class="cloud1_st35" d="M153.9,62.1c-1.1-0.5-2.2-0.5-3.3,0c-2.4-0.1-1.6-1.6-1.3-2.9c1.9-1.9,2.6,0.5,3.8,1.1
		c0,0-0.1,0-0.1,0C153.3,61,153.6,61.6,153.9,62.1z"/>
	<path id="XMLID_3766_" class="cloud1_st36" d="M192.4,52.5c1.2-0.7,1.7-1.8,1.4-3.2c3-3.3,5.5-3.1,7.9,0.6c0.4,0.6,0.8,1.3,1.2,1.9
		c0.6,0.8,0.9,1.7,0.2,2.6c-0.6,0.9-1.5,1.2-2.5,0.9c-1-0.3-2.1-0.2-3.1-0.7c-1.3-0.8-2.7-0.6-4,0.1c-0.3,0.2-0.7,0.2-1,0
		C191.8,53.9,191.9,53.2,192.4,52.5z"/>
	<path id="XMLID_3765_" class="cloud1_st37" d="M193.7,61.5c-0.4-0.4-0.8-0.9-1.2-1.3c0-0.4,0-0.8,0-1.2c0.9-1.4,1.3-3.1,2.2-4.6
		c2.9-0.1,6.2,2.8,5.7,5.2c-0.3,1.5-1,2.6-2.8,2.5c-1.2-0.1-2.4,0.4-3.6-0.2C193.9,61.8,193.8,61.7,193.7,61.5z"/>
	<path id="XMLID_3764_" class="cloud1_st38" d="M194.4,55.1c0,1.6,0.6,3.6-1.9,4c-0.5-1.5,1.6-3,0-4.5c0.2,0,0.5-0.1,0.7-0.1
		C193.9,54,194.3,54.1,194.4,55.1z"/>
	<path id="XMLID_3762_" class="cloud1_st35" d="M194.4,55.1c-0.4-0.2-0.9-0.4-1.3-0.6c0.8-2,2.3-2,4-1.6c0.9,0.2,1.8,0.7,2.7,1
		c0.7,0.2,1.5,0.6,2.1-0.1c0.7-0.8-0.1-1.3-0.4-2c-1.4-2.6-3.2-4-6.2-2.6c-0.5,0.2-1.1,0.1-1.6,0.1c-5.3-2.6-6.4-4.4-5.1-8.9
		c1-0.2,2.1-0.4,3.1-0.7c0.2,0.2,0.4,0.4,0.6,0.6c-0.2-0.2-0.4-0.4-0.6-0.6c0.5-1,0.7-2.1,0.6-3.2c-0.2-0.2-0.1-0.4,0.1-0.6
		c1.2-1.2,0.7-1.8-0.8-2c-0.1-2.8,1.1-4.2,3.7-4.1c1.1,0,2.1,0.1,3.1,0.4c1.5,0.6,1.6,3.1,3.8,2.8c1.4,0.3,2.4-0.5,3.6-0.9
		c1.6-0.6,3.2-1,4.7,0.3c0.1,0.3,0.1,0.6,0.1,0.9c-0.1,0.3-0.3,0.5-0.6,0.7c-1.9,0.1-3.4,0.8-3.8,3c-0.1,0.7-0.4,1.4-1.1,1.9
		c-2.8,2.3-3.5,4.8-2.1,8.7c0.6,1.1,1,2.3,1.6,3.5c0.9,2,0.8,3.7-1,5.2c-1,0.8-1.7,1.7-1.2,3c0.6,1.7,1.8,0.4,2.7,0.3
		c0.8,0,1.5,0.1,2,0.8c1.2,2.2-0.7,3.7-1.2,5.6c-0.2,0.3-0.4,0.6-0.8,0.8c-2.3,0.2-4.4-0.6-6.7-0.8c-2.7-0.3-3.3-2.5-1.8-4.9
		c1.1-0.2,2.2-0.4,2.3-1.7c0.1-1.2-1-1.6-1.8-1.9C196.2,56.8,195.9,55.1,194.4,55.1z"/>
	<path id="XMLID_3761_" class="cloud1_st39" d="M198.9,31.3c-2.6,0.1-5.7-1-7.1,2.5c-1.8,0.9-3.5,0.9-4.5-1.2c-1.3-1.3-3.5-1.7-3.8-3.9
		c1.3-0.8,2.5-1.7,3.8-2.5c1.2,0.1,1.6,0.7,1.4,1.8c2.7,2.7,2.7,2.7,4.7-0.3c0.7-1.1,1.3-2.3,2.9-1.8c0.9,0.3,1.8,0.8,2.5-0.3
		c0.8-1.3,0.1-2.2-0.6-3.2c3.1,0.1,2.8-3.2,4.5-4.5c2.3,3.2,4.1,6.6,5.2,10.3c0,0.3-0.1,0.7-0.3,0.9c-0.3,0.4-0.8,0.6-1.3,0.7
		c-1.9-0.1-3.8,0.3-5.5,1.4C200.2,31.6,199.6,31.9,198.9,31.3z"/>
	<path id="XMLID_3760_" class="cloud1_st40" d="M192.5,35.8c0,0.2-0.1,0.4-0.1,0.6c-0.1,0.1-0.2,0.1-0.2,0.2c-0.9,0.5-0.5,2.2-2,2
		c-0.7-0.1-0.6-0.8-0.4-1.3C190.2,36,191,35.1,192.5,35.8z"/>
	<path id="XMLID_3743_" class="cloud1_st24" d="M36.7,72.5c-0.4,0.4-0.9,0.9-1.3,1.3c-3.2,0.5-6.5,0.2-9.5,2.1c-1.5,1-3.3,0.4-4.7-0.8
		c0-0.1,0.1-0.3,0.1-0.4c1.4-0.9,1.5-2.3,2-3.7c0.4-1.3,0.2-3.1,2.1-3.5c1.4,0.6,2.7,0.2,3.9-0.4c1.8-0.6,3.6-0.1,5.3-0.3
		c2.2,0.7,4.2-0.9,6.4-0.3c0.3,0.1,0.6,0.3,0.8,0.6c0.6,1.4-0.6,1.7-1.3,2.3l0,0C39.4,70.5,37.2,70.5,36.7,72.5z"/>
	<path id="XMLID_3742_" class="cloud1_st41" d="M12.9,64.8c-0.1-0.9-0.4-1.6-1.3-1.9c1-1.9,3.8-2.7,5.2-1.1c1.4,1.6,3.1,2.1,5,2.3
		c1.6,0.1,2.9,1.1,2.5,2.7c-0.7,2.9-0.7,6.1-3.1,8.3c0,0,0,0.1,0,0.1c-0.9,0-1.8,0.1-2.6,0.6c-2,1.3-2.8-1.3-4.4-1.3
		c0-0.6,0-1.3-0.1-1.9c0.4-0.4,1-0.4,1.4-0.5c1.1-0.3,1.7-1.1,1.8-2.2c0-1.4-1-1.7-2.1-1.8c-0.6-0.1-1.2-0.2-1.7-0.7
		C13.3,66.5,13.1,65.6,12.9,64.8z"/>
	<path id="XMLID_3741_" class="cloud1_st42" d="M15.5,77.7c0.2,0,0.4,0,0.5-0.1c1.5-1.5,3-1.9,4.5,0c1.7,0.1,3.8,0.8,3.4,2.4
		c-0.4,1.6-2.5,0.7-3.9,0.4c-1.1-0.2-2.3-0.6-3.4-0.9C15.8,79.2,15.5,78.6,15.5,77.7z"/>
	<path id="XMLID_3740_" class="cloud1_st43" d="M20.6,77.6c-1.5-0.4-3-0.4-4.5,0c0.3-1.9-1.4-2.3-2.4-3.2c0.2,0,0.4,0,0.6,0
		c1.6-0.1,2.9,0.9,4.4,1.3C19.8,75.8,21,75.8,20.6,77.6z"/>
	<path id="XMLID_3739_" class="cloud1_st2" d="M51.5,89.8c-0.9-0.9-1.7-1.8-2.6-2.6c-0.5-1.8-2-2.7-3.1-4c-1-1.2-1.1-2.1,0.8-2.3
		c3.1-0.4,6.2,0,9.3,0.1c1.4,0.1,2.2,1,2,2.4c-0.4,1.9-1.7,1-2.8,0.7c-1-0.3-2.1-1.6-3,0.2c0.7,0.9,2.6,1.4,1.3,3.1
		c0,1.1-0.2,2.1-1.3,2.6c0,0-0.3,0-0.3,0L51.5,89.8z"/>
	<path id="XMLID_3738_" class="cloud1_st44" d="M56,56.4c1,0.1,2.1,0.3,3.6,0.5c-1.5-3.4-0.5-6.3,1-9.3c1.2-2.4-0.3-4.9-1.4-7.2
		c-0.9-1.7,0-2.5,1.5-3c2.1,1.9,3.4,4.5,4.8,6.9c0.7,1.3,0.1,2.8-0.9,4.1c-3,4-3,4.5,0.4,8.4c1.8,2,1.4,5,3.3,7
		c0.2,0.4,0.6,0.7,0.7,1c0.5,1.3,1.9,2.7,0.8,4.1c-1.1,1.4-2.6,0.8-4.1,0.4c-1.1-0.3-2.3-0.5-3.2,0.7c-0.9,1.2-0.2,2,0.2,3.1
		c0.6,1.8,2,3.4,2.1,5.4c-0.3,0.4-0.6,0.8-1.1,0.5c-0.2,0-0.4,0-0.6,0c-2.9-1.8-5-4.1-4.9-7.9c0.1-2.6,1.2-5.6-1.7-7.6
		c-0.6-1-1.5-1.6-2.5-2.1c-0.8-0.7-1.9-1.2-2.5-2.3c-0.2-0.8,0.1-1.4,0.7-1.9C53.4,56.7,54.6,55.7,56,56.4z"/>
	<path id="XMLID_3737_" class="cloud1_st45" d="M63.7,78.9c0.2-0.2,0.4-0.4,0.6-0.6c0.5-0.5,1.1-0.4,1.7-0.4c1.4,0,2.5-0.7,3.6-1.3
		c1.8-1.1,3.4-1.7,5.4-0.6c1.1,0.6,2.1-0.2,3-0.6c1.5-0.8,0.9-2.7,1.8-3.8c0.6-1.7,0.3-3.4,0.4-5.1c0.2-2,1.2-3.1,3.1-3
		c2.4,0.1,4.7-0.4,7-0.9c3-0.7,4.1,0.2,4.5,3.3c0.2,1.4,0,2.7-0.1,4.1c-0.1,2.1,0.7,3.8,3.1,4c1.5,0.1,2.8,0.8,4.2,1.4
		c5.3,2.4,10.9,2.7,16.7,2c1.9,0.8,4.1-0.1,5.9,1.3c0.5,0.6,0.9,1.2,0.7,2c-0.2,0.3-0.4,0.6-0.8,0.7c-3.4-0.8-6.8,1.5-10.2,0.3
		c-3.4-1.1-7-0.4-10.4-0.9c-4.6-0.7-7.8-3.3-10.9-6.2c-0.2-0.2-0.5-0.4-0.8-0.5c-1.1-1.4-1.1-3.2-1.6-4.8c-0.6-2.2-2.1-2-3.8-1.6
		c-1.9,0.4-1.9,1.5-1.5,3.1c1.2,4.9,0.9,4.5-3.4,7.8c-3.6,2.7-7.4,3.3-11.5,3.5C66.8,83.6,64.7,82.3,63.7,78.9z"/>
	<path id="XMLID_3736_" class="cloud1_st43" d="M60.5,89.2c1.4-2.4,3.5-3.6,6.2-3.9c1.5-0.1,2.6-0.7,3.5-1.9c1.2-1.9,3.3-1.6,5.1-2
		c1.2-0.3,2.5-0.2,3.6-0.8c0.4-0.1,0.8-0.4,1.2-0.4c1.8-0.2,3.8-1.1,5.3,0.6c1.6,1.9,0.2,3.8-0.7,5.3c-1,1.9-0.6,4-1.5,5.8
		c-1.6,0.9-2.8,0.1-3.6-1.1c-1.1-1.6-2.4-1.6-3.9-1.1c-1.7,0.6-3.4,0.5-4.6-0.5c-2-1.7-3.8-1.4-6-0.6C63.7,89.4,62.2,90.5,60.5,89.2
		z"/>
	<path id="XMLID_3735_" class="cloud1_st46" d="M40.5,69.3c0.4-0.6,0.9-1.3,1.3-1.9c1.3-3.1,4.2-1.9,6.5-2.5c2.4,0,2.9,1.6,3,3.6
		c0.3,1.1,0.7,2.2,0.1,3.4c0.5,0.8,1,1.6,1.5,2.4c1,1.7,0.7,2.7-1.3,3.7c-3,1.4-5.9,2.7-9.3,1.2c-2.2-1-2.7,2-4.5,2.3
		c0-0.5,0.2-1.1,0-1.6c-0.6-1.4-2.3-3.2,0-4c1.7-0.6,4-1.4,5.7,0.9c2,2.5,3.9,1,5.7-0.5c1.8-1.5,1.5-3.1,0.1-4.7
		C46.9,68.5,44.2,67.8,40.5,69.3z"/>
	<path id="XMLID_3734_" class="cloud1_st15" d="M79.2,81.5c-2.7,2-6.1,0.7-9,2c0-0.4,0-0.9,0-1.3c2-1.1,4-1.8,6.3-2.1c3.4-0.4,5.7-3,8.3-5
		c1.1-0.9-0.1-2.2-0.5-3.2c-1-2.4-1.3-4.2,1.8-5.2c3.1-1,4.3-0.5,5.5,2.8c0.4,1.2,0.8,2.4,1.1,3.7c-0.3,0.3-0.7,0.5-1.1,0.5
		c-0.8-0.1-1.2-0.5-1.8-1c-0.5-0.5-0.2,0.3-0.2,0.4c0,0.8-0.5,1.4-0.7,2.1c-0.7,2.1-2.5,3-4.2,4C82.9,79.9,81,80.7,79.2,81.5z"/>
	<path id="XMLID_3733_" class="cloud1_st45" d="M51.5,71.8c-0.7-0.9-1.3-1.7-2-2.6c1.9-4.2,3-4.6,7.3-2.2c0-1.6-0.6-3-0.3-4.4
		c0.1-0.5,0.4-0.8,0.7-1.2c2.6,0.6,2.6,3,2.3,4.6c-0.8,4.9,0,9.1,3.5,12.8c-3.6,0.8-4.1-2.5-5.2-4.4C56.3,71.7,54.3,71,51.5,71.8z"
		/>
	<path id="XMLID_3732_" class="cloud1_st47" d="M60.5,89.2c1.3-0.4,2.7-0.8,4-1.3c1.9-0.7,3.9-1.2,5.7-0.4c2.3,1,4.5,1.7,7.1,1.1
		c1.1-0.3,2.1,0.4,2.8,1.3c0.8,0.9,1.7,1.6,3,1.8c1-0.6,2-0.3,3.1-0.1c1.2,0.5,1.6,1.4,1.3,2.6c-2.2,1.8-4.6,1.6-6.8-0.6
		c-0.7-0.7-1.2-1.4-2-1.9c-0.6-1.3-1.6-1.2-2.7-0.8c-2,0.8-4.1,0.5-5.6-0.9c-1.6-1.3-3-1.3-4.7-0.5c-1.7,0.8-3.4,1.4-5.1,0.2
		C60.5,89.6,60.5,89.4,60.5,89.2z"/>
	<path id="XMLID_3731_" class="cloud1_st10" d="M53.4,87.3c-0.4-1-1.4-1.9-1.3-3.1c1,0,1.9,0.3,2.6,1c0.7,0.7,2.2,1.3,1.4,2.5
		C55.4,88.9,54.4,87.6,53.4,87.3z"/>
	<path id="XMLID_3730_" class="cloud1_st32" d="M36.7,72.5c-1.2-1-4.1-0.7-3.7-2.3c0.6-2,2.7,0,4.1-0.1c1.1,0,2.2-0.5,3.4-0.8
		C39.7,70.8,38.1,71.5,36.7,72.5z"/>
	<path id="XMLID_3729_" class="cloud1_st23" d="M13.5,67.3c0.9,0,1.7,0,2.6,0c1.3,0.1,3.1-0.3,3.5,1.5c0.4,2-1.5,2.7-2.9,3.3
		c-0.7,0.3-1.7,0.2-2.5,0.3C17,70.4,15.6,68.8,13.5,67.3z"/>
	<path id="XMLID_3728_" class="cloud1_st48" d="M21.3,75c-0.1-2.2,0.4-4.2,1.2-6.2c1-2.4,0.1-3.4-2.4-3.4c-1.3,0-2.6,0-3.8-0.1
		c-0.6,0-1.3-0.1-1.5-0.9c-0.5-2.7-0.5-2.7-3.3-1.6c-0.2,0-0.4,0-0.6,0c-0.9-0.7-1.5-1.6-0.7-2.7c0.7-1.1,1.7-0.6,2.6-0.3
		c0.8,0.2,1.6,0.6,2.6-0.2c-1-1.3-3.4-1.7-3.2-3.9c3.3-0.3,6.1,1.4,9.1,2.3c2.8,0.8,5.9,0.8,8.8,1.2c0,0,0.1-0.6,0.2-0.8
		c0-0.2,0-0.4-0.1-0.6c1.3-2.5,3.6-1.3,5.5-1.3c1.7,0,3,0.6,4.3,1.7c1.6,1.3-0.4,3.1,0.7,4.4c0.1,0.3,0.1,0.6,0.1,0.9
		c-0.3,1.5-1.1,2.6-2.8,2.6c-1.9,0-2.5,1.3-3.3,2.6c-1.9-0.2-3.8-0.4-5.7-0.7c-1.1-0.3-2.2,0.5-3.3,0c-0.4,1.4-0.9,2.8-1.1,4.3
		C24.4,74.4,23.4,75.3,21.3,75z"/>
	<path id="XMLID_3724_" class="cloud1_st24" d="M36.7,57c-2.2,0.2-4.4-0.4-6.5,0.7c-1.4-1.8,1.3-1.5,1.3-2.5c1.5-0.1,3-0.1,4.5,0.6
		C36.4,56.1,37.1,56.3,36.7,57z"/>
	<path id="XMLID_3723_" class="cloud1_st49" d="M22,52.3c1.7-0.8,2.5-0.4,3.2,0.5c0.3,0.4,0.2,0.9-0.3,1C23.8,54,23.1,53.2,22,52.3z"/>
	<path id="XMLID_3720_" class="cloud1_st50" d="M48.9,48.6c-2.2-1.1-1.5-2.4-0.3-3.8c1.5-1.8,4.8-2.1,6.7-0.8c1.3,0.9,1.6,2.3,1.1,3.7
		c-0.7,1.9-2.3,0.8-3.6,0.9c-0.2,0.3-0.5,0.5-0.8,0.7C50.8,49.6,49.7,49.8,48.9,48.6z"/>
	<path id="XMLID_3719_" class="cloud1_st17" d="M36.7,57c-0.2-0.4-0.5-0.8-0.7-1.3c0.9,0.2,1.7,0.4,2.6,0.6c1.7-0.5,3.3-1.8,5.1-0.6
		c0.2,0.2,0.4,0.5,0.5,0.8c-0.5,1.7-2.2,2.9-2.2,4.8c-0.5,0.9-1.1,1.5-2.2,1.5c-1.2-0.6-4.9,0-1-2.9C40.6,58.6,38,57.7,36.7,57z"/>
	<path id="XMLID_3718_" class="cloud1_st51" d="M48.9,48.6c1.1,0,2.1,0,3.2,0c0.2,0.3,0.3,0.5,0.2,0.9c-0.5,0.8-1.5,1.1-2.2,1.6
		c-1.7,0.7-1.6,2.5-2.1,3.9c-0.3,0.8,0,1.9-1,2.4c-1.8,0.6-2.4-1.2-3.5-1.8c-0.4-0.7-0.4-1.4,0.3-1.9C45.4,52,46.6,49.8,48.9,48.6z"
		/>
	<path id="XMLID_3717_" class="cloud1_st17" d="M52,49.5c0-0.3,0.1-0.5,0.1-0.8c0.2,0,0.4,0,0.6,0c0.8,0.6,1.6,1.3,2.5,1.9
		c2.6,1.8,2.8,3.3,0.7,5.8c-1,0.7-2,1.4-3.4,1.2c-1.3-1.3,0.4-2.5,0-3.8C52.8,52.3,50.8,51.1,52,49.5z"/>
	<path id="XMLID_3716_" class="cloud1_st20" d="M61.2,37.7c-1.2,0.4-1.7,1.4-1.9,2.6c-3-1.9-0.4-2.7,0.7-3.7c2-0.6,4-1.5,5.7,0.5
		c-0.2,0.8-0.7,1.4-1.4,1.8C62.9,39.2,61.9,39,61.2,37.7z"/>
	<path id="XMLID_3715_" class="cloud1_st52" d="M43.8,53.8c0,0.7,0,1.3,0,2c0.2,0.2,0.1,0.4-0.2,0.5c-1.7,0-3.3,0.5-5,0.1
		C40.2,55.2,41.1,52.7,43.8,53.8z"/>
	<path id="XMLID_3714_" class="cloud1_st53" d="M75.3,53.1c0.8,1.4,0.6,3.3,2.5,3.9c0.9,0.6,1.8,1.2,2.1,2.3c-0.1,0.1-0.1,0.2-0.2,0.3
		c-0.4,0.4-0.9,0.5-1.5,0.3c-0.3-0.2-0.6-0.3-0.9-0.6c-3.2-2.3-6.3-4.6-7.5-8.6c-0.3-1.1-0.6-2.2-0.6-3.3c0-3.3,0.5-3.9,3.8-3.7
		c0.8,0,1.6,0.2,2.4,0.3c1.4,1,1.2,2.4,1.3,3.9c-0.7,0.7-1.4,1.1-2.4,0.8c-0.4-0.1-0.8-0.1-0.9,0.5c0.8,1.2,0.7,2.7,1.4,3.8
		C74.9,53.1,75.1,53.1,75.3,53.1z"/>
	<path id="XMLID_3713_" class="cloud1_st2" d="M75.3,44.2c-0.2,0.1-0.4,0.2-0.6,0.3c-1.4,0.9-4.2-0.5-4.4,2.1c-0.3,2.7,0.5,5.3,2.5,7.5
		c1.7,1.9,3.5,3.6,5.6,5c-1.4,1.6-3,0.7-4.3,0.1c-1.2-0.5-2.5-1.1-3.6-1.9c-0.4-0.4-0.7-0.8-1-1.2c-0.6-1.6-1.2-3.1-2-4.6
		c-1.2-2.2,0.3-8.3,2.2-9.7c0.2,0,0.3,0,0.5,0c0.2,0,0.4,0,0.6,0c0.8,1.1,2,1.3,3.3,1.2C74.5,43.3,74.9,43.7,75.3,44.2z"/>
	<path id="XMLID_3712_" class="cloud1_st21" d="M74,47.4c0.9,0.2,1.7,0.4,2.6,0.6c0.2,2-1.8,3.2-1.9,5.1c-2.1-0.5-2.3-2.4-3.3-3.8
		C71.6,47.7,73,47.8,74,47.4z"/>
	<path id="XMLID_3711_" class="cloud1_st44" d="M64.4,37.7c0.4-0.2,0.9-0.4,1.3-0.6c1.1,0.2,2.1,0.4,3.2,0.6c0.4,1.3,0.9,2.6,1.3,3.9l0,0
		C67,42.3,64.9,40.9,64.4,37.7z"/>
	<path id="XMLID_3697_" class="cloud1_st31" d="M64.4,37.7c1.9,1.3,3.8,2.6,5.8,3.9c-1.1,4.6-2.5,9.1,0.7,13.5c-0.6,1.2-1.9,0.4-2.8,0.8
		c3.2,8.3,4,8.7,12,4.9c0.2-0.1,0.3-0.3,0.4-0.5c3,0.4,6,0.7,9,0.6c0.6,0,1.3,0,1.9-0.1c5.8-1.2,5.8-1.2,11,1.4
		c1.9,1,3.9,1.9,5.7,3.1c1.6,1,3.5,2.1,5.7,1.5c0.9-0.3,1.9-0.1,2.7,0.6c1.3,0.7,2.6,1.4,3.9,2.1c1,0.1,2,0.3,2.9,0.7
		c0.8,1,2.1,1.8,1.6,3.4c-1.1,1.7-2.3,1.2-3.7,0.3c-0.8-0.6-1.4-2.3-2.8-1.2c-1.4,1-1.8,2.5-0.8,4.2c0.3,0.5,0.5,1.1,0.8,1.7
		c0,0.1,0,0.3,0.1,0.4c-6.2,1-12.2,0.4-18-2.4c-0.9-0.4-1.7-1.1-2.6-1.3c-3.5-0.9-4.7-3.2-4.6-6.7c0.1-5.1,0-5.1-5-3.7
		c-0.8,0.2-1.7,0.6-2.5,0.4c-3.9-0.9-4.4,1.1-3.9,4.2c0.2,1.3-0.2,2.3-1.4,3c-1.1,0.7-2.3,1.1-3.3,0.2c-3.4-2.9-7.5-5-10.3-8.6
		c-1.1-3.4-2.1-6.7-5.1-9.3c-1.6-1.3-1.9-4.4,0.4-6.2c2.5-2,2.4-3.9,0.4-6.2c-1.1-1.3-2.3-2.6-1.4-4.6
		C62.2,37.7,63.3,37.7,64.4,37.7z"/>
	<path id="XMLID_3696_" class="cloud1_st49" d="M116.4,67.4c-0.1,0-0.2,0-0.3,0c-6.2,2.5-9.8-1.9-13.8-5.2c0.3-0.1,0.7-0.1,1-0.2
		C107.7,63.8,112.1,65.6,116.4,67.4z"/>
	<path id="XMLID_3695_" class="cloud1_st22" d="M122.3,71.2c-0.6-0.6-1.3-1.2-1.9-1.8c0.7-0.4,1.3-0.8,2-1.2c1.5,0.4,2.7,1.1,2.5,2.9
		C124,71.8,123.1,71.6,122.3,71.2z"/>
	<path id="XMLID_3694_" class="cloud1_st54" d="M122.3,71.2c0.9,0,1.7,0,2.6,0c2.5,1.2,5.2-0.5,7.7,0.7c0.5-0.1,0.9-0.1,1.4,0.1
		c2.6,2.3,3.8,5.6,6.1,8.2c0.5,0.5,1,1,1.2,1.7c0.1,0.4,0.1,0.9,0.2,1.3c1.1,3.5,0.7,4.2-2.7,5.3c-0.5,0.2-1,0.3-1.5,0.4
		c-2,0.3-3.9,1-6,1.1c-2.2,0.2-4-0.5-4.4-2.7c-0.4-2.2-1.6-4.2-1.9-6.4c-0.2-0.4-0.4-0.9-0.7-1.3c0.1-0.3,0.3-0.6,0.5-0.8
		c5-0.6,5.8-0.1,6.2,4.6c0.1,1,0.5,1.7,1.5,1.7c1.2,0.1,2.5,0.1,3.2-1c0.5-0.8-0.3-1.2-0.9-1.2c-1.9,0-2.7-1.4-3.7-2.6
		c-1.3-1.8-2.7-3.4-5-4.1c-1-0.3-2.4-0.7-1.7-2.4C124.2,72.5,123.2,71.8,122.3,71.2z"/>
	<path id="XMLID_3693_" class="cloud1_st52" d="M142.9,69.9c2.7,3.3,5.7,6.1,10.3,6.4c0.5,1.4-0.2,2.4-1.3,3.2c-2.7-1.3-3.4,0.5-3.9,2.6
		c-0.3,0.4-0.8,0.5-1.2,0.4c-0.8-0.4-1-1.2-0.7-1.9c0.9-1.8-0.1-2.8-1.4-3.7c-1-1.2-2.5-1.9-3-3.6c-0.3-1.1-1.3-1.2-2.3-0.9
		c-1.7,0.4-2.9-0.3-3.6-1.8c-0.9-0.4-1.7-0.8-2.6-1.3c2.9-1.5,2-4.9,3.3-7.1c0.9,0.4,0.7,1.1,0.5,1.9c-1.2,5.3-0.7,5.9,4.6,5.9
		C142,69.9,142.4,69.9,142.9,69.9z"/>
	<path id="XMLID_3692_" class="cloud1_st47" d="M133.2,72.5c-0.2-0.2-0.4-0.4-0.6-0.7c0.7-1.8,2.1-0.9,3.2-0.7c0.5,0.1,1,0.4,1.4,0.7
		c1.8,1.4,4.5,1.5,5.3,4.2c0.5,1.7,0.9,3.3-1,4.1c-1.8,0.7-3.5,0-4.1-1.9C136.7,75.8,135.1,74,133.2,72.5z"/>
	<path id="XMLID_3691_" class="cloud1_st22" d="M136.4,71.8c-0.2-0.2-0.5-0.4-0.7-0.6c0-0.2,0-0.4,0-0.7c0.5,0.2,1,0.6,1.5,0.5
		c3.9-0.6,6.2,1.8,8.2,4.6c0.2,0.3,0.2,0.6,0,0.9c-0.6,0.5-1.7,0.7-2,0.2C141.9,73.9,138.4,73.9,136.4,71.8z"/>
	<path id="XMLID_3690_" class="cloud1_st55" d="M80.5,60.3c1.1,1,2.5,2.2-0.4,2.5c-2.3,0.2-3.9,2-6.3,2.1c-3.2,0.1-5.1-1.4-6-4.2
		c-0.7-2-1.2-4-2.9-5.6c-0.7-0.7-1.3-1.6-0.4-2.5c0.9-1,2-0.5,2.8,0.3c1,1,2.2,1.6,3.5,2.2c0.2,0.2,0.4,0.4,0.6,0.6
		c1.7,2.6,4.1,3.8,7.1,3.8c0.4,0.1,0.8,0.1,1.2,0.2C80,60,80.2,60.1,80.5,60.3z"/>
	<path id="XMLID_3548_" class="cloud1_st56" d="M228.4,54.5c0.4,0.5,0.9,0.9,1.3,1.4c0.4,0.4,0.5,0.8,0.4,1.3c-4.6,3.8-4.7,4-1,9.1
		c2.4,3.3,3.4,7.3,4.8,11c1.1,2.7,2.5,3.1,4.7,3.2c1.3,0,2.8-0.6,3.7,1c0.2,2.7-2,2.7-3.7,3c-3.5,0.6-6.7-0.7-9.4-2.9
		c-1.2-1-2.3-1.5-3.7-1.1c-1.7-0.2-3.5,1.7-5.2,0.3c-1.7-1.5-0.1-3.2-0.1-4.8c0-0.9-0.4-1.6-0.5-2.5c-0.5-4.5,0.2-5.1,4.3-4.4
		c-2.3,0.2-3.5-2.8-6-2.8c-0.6-0.4-0.8-1-0.7-1.7c0.9-1.1,1.3-2.6,2-3.8c1.4-0.5,2.1-1.3,2-3c-0.2-2.6,2.2-3.2,3.9-4.2
		C226.7,52.4,227.7,53.3,228.4,54.5z"/>
	<path id="XMLID_3536_" class="cloud1_st57" d="M209.8,33.2c0.2,0,0.4,0,0.6,0c2.8-1.3,3.4,1,4,2.6c0.6,1.6,0.5,3.4-0.6,4.9
		c-0.7,1-1.2,2-0.6,3.3c0.5,1.4,1.9,1.5,2.9,2.2c0.4,0.6,0.3,1.1,0.1,1.7c0,1.7-0.3,3-2.4,3.1c-0.7,0-1.2,0.5-1,1.3
		c0.2,0.7,0.8,1.1,1.5,0.9c1.4-0.4,2.5-0.2,3.3,1.2c-1.3,2.2-3.9,2.3-5.8,3.4c-4.4,0.2-4.7-3.9-6.5-6.4c-0.2-0.7-0.8-1.5-0.5-2.1
		c1.4-2.2,0.7-4-0.8-5.8c-0.4-0.5-0.6-1.4-0.3-1.8C206.1,39.3,205.8,34.7,209.8,33.2z"/>
	<path id="XMLID_3535_" class="cloud1_st58" d="M215.5,46.8c-1.4,0-2.8-0.3-3.8-1.3c-1.1-1.4-0.5-2.9,0.5-3.7c1.8-1.5,1.9-3.4,1.9-5.3
		c4.3-0.7,5-4.4,6.1-7.6c1.6-4.9,1.5-4.9,6.5-4.9c0.5,0.1,0.9,0.4,1.1,0.9c0.5,1.1-0.3,2.2,0,3.3c-1,0.5-1.6,0.1-1.9-0.9
		c-0.2-0.8-0.6-1.5-1.5-1.2c-0.8,0.2-1.3,0.8-1.4,1.6c-0.8,4.7-2.6,9.2-1.4,14.1c0.3,1,0.4,2.3,1,3c2.1,2.2,1.1,3.2-1.2,4
		c-1.4-1.6-1.1-4.1-3.3-5.3c-1.7-0.9-1.9-0.9-2.1,1.3c0.2,0.5,0.2,0.9,0.1,1.4C216,46.4,215.8,46.6,215.5,46.8z"/>
	<path id="XMLID_3533_" class="cloud1_st59" d="M211.7,57.1c1.1-2.7,3.5-2.6,5.8-2.6c0.4,0.2,0.9,0.4,1.3,0.7c0.8,1.8,1.5,3.7,1.3,5.8
		c0,1.4,0,2.9-1.9,3.2c-2.4-1.5-4.4-3.5-6.7-5c-0.2-0.3-0.3-0.5-0.4-0.8C211.1,57.7,211.3,57.3,211.7,57.1z"/>
	<path id="XMLID_3532_" class="cloud1_st49" d="M215.5,46.8c0-0.2,0-0.5,0-0.7c0.2-0.2,0.6-0.5,0.4-0.8c-0.3-0.5-0.7-0.1-1.1,0.1
		c-1-0.1-2-0.3-1.9-1.6c0.1-1,1-1.3,1.8-1.6c1.5-0.6,2.9-0.7,4.1,0.5c1.7,1.6,3.6,3.1,2.4,5.9c-1.9,0.9-3.5,0-5.2-0.6
		C216,47.6,215.8,47.2,215.5,46.8z"/>
	<path id="XMLID_3518_" class="cloud1_st52" d="M205.3,1.1c2,0.5,2.3,2.2,2.6,3.8c0.2,1,1,1.6,1.9,1.3c2.4-0.8,4,0.6,5.8,1.7
		c0.4,0.4,0.6,0.8,0.7,1.3c-0.5,2.1,0.4,4.9-2,5.9c-2.6,1.1-3.6-2-5.4-3.1c-1-0.6-1.9-1.1-3-1.2c-1.8-0.1-2.4-1.3-2.4-2.9
		c1.3-1,2.3-2.2,2.6-3.8c0.5-2.2-2.2-1.8-2.6-3.2C204,1.1,204.6,1.1,205.3,1.1z"/>
	<path id="XMLID_3517_" class="cloud1_st15" d="M146.7,59.7c1.1-0.1,2.1-0.1,3.2-0.2c-0.1,1-0.4,2,0.7,2.7c0,0.4,0,0.9,0,1.3
		c-0.9,1.5-2,2.2-3.5,0.8c-0.7-0.6-1.7-0.2-2.3-0.9c-0.2-0.8-0.5-1.7-0.7-2.5c0.7,0.2,1.4,0.4,2.1,0.4
		C148,61.3,147.5,60.5,146.7,59.7z"/>
	<path id="XMLID_3516_" class="cloud1_st39" d="M203.3,8.1c0.9,0.6,1.7,1.3,2.6,1.9c2.5-0.1,2.6,1.7,2.4,3.4c-0.4,2.9-2.1,4-5,3.7
		c0-0.4,0-0.9,0-1.3c-0.7-4-4-4.4-7.1-5.2c-2,0.9-3.9,0.1-5.8-0.5c2.1-0.3,4.3-0.2,5.8-2.2c0.8-1,1.8-0.6,2.5,0.1
		C200.3,9.5,201.8,9.4,203.3,8.1z"/>
	<path id="XMLID_3515_" class="cloud1_st25" d="M203.3,17.1c4.1-1.8,4.8-3.8,2.6-7.1c0.7-1.3,1.6-1.3,2.5-0.4c0.5,0.5,0.9,1.3,1.5,1.6
		c1.3,0.8,1.9,3.3,3.6,2.5c1.4-0.6,1.2-2.8,1.3-4.4c2.6-0.1,5.1,2.5,5.1,5.2c0,2.1-1.6,3.1-4.7,3c-2.2-0.1-4.4-0.6-6.6-0.7
		c-2.2,0.8-3.5,1.6-1.9,4.4c1,1.7,2.4,3.6,1.9,5.9c-0.3,0.6-0.8,1-1.5,0.9c-1.1-3.6-4.2-6.3-4.4-10.3
		C202.9,17.6,203.1,17.4,203.3,17.1z"/>
	<path id="XMLID_3514_" class="cloud1_st60" d="M196.3,10.7c2-1.2,7.8-0.2,8.8,1.6c1.1,1.9-1.1,2.4-1.7,3.6c-2.2,1.5-3.9,1.8-4.7-1.4
		C198.3,13,196.5,12.3,196.3,10.7z"/>
	<path id="XMLID_3513_" class="cloud1_st61" d="M188.6,28c-0.5-0.6-0.9-1.2-1.4-1.8c-0.2-0.7-0.4-1.3-0.6-2c0.7,0.1,1.6,0.4,2.1-0.3
		c1.7-2,2.6-1.5,3.4,0.8c0.5,1.4,0.6,2.1-1.2,2.3C190.1,27.2,189.4,27.7,188.6,28z"/>
	<path id="XMLID_3512_" class="cloud1_st20" d="M164.8,87.9c0.6-0.9,1.3-1.7,1.9-2.6c0.5-1.5,1.8-2.1,3-1.7c2.7,0.9,5.2-0.7,7.8-0.5
		c1.3,0.1,1.7-1,2.4-1.7c3.6-0.4,6.9,1.4,9.5,1.5c-1.2-0.8-1.7-1.8-0.9-3.1c1.1-1.8,2.4-0.6,3.6,0c1.8,0.9,2.7,2.9,5.1,3
		c0.7,0,0.8,1.2,0.9,1.9c0,0.5-0.2,0.9-0.4,1.3c-0.4,0.4-0.9,0.8-1.4,0.6c-3.6-1.2-5,0.9-5.9,3.8c-0.3,0.5-0.1,1.1-0.3,1.7
		c-0.1,0.3-0.3,0.5-0.5,0.8c-4.2,0.9-5,0.3-6.7-5.2c-1.9-1.6-4.3-0.5-6.3-1.2c-0.8,0.2-1.7,0.5-2.6,0.5c-1.5,0.1-2.2,1.6-3.6,1.7
		C168.2,89.7,166.5,88.6,164.8,87.9z"/>
	<path id="XMLID_3511_" class="cloud1_st62" d="M171.2,70.6c2.6-0.1,4.8,2.5,8,0.8c1.3-0.7,0.8,1.9,1.1,3c0.7,0.5,0.8,1.4,0.3,1.9
		c-1.2,1.7-0.7,3.6-1,5.4c-0.1,0.3-0.2,0.6-0.4,0.8c-1.8,0.9-3.9,0.5-5.7,1c-0.8,0.2-1.5-0.5-1.6-1.5c1-1.6,1-2.9-1.2-3.2
		c-0.8-0.1-1.8,0.3-1.9-1c-0.1-1,0.5-1.6,1.3-2C173.4,74.7,172.8,72.8,171.2,70.6z"/>
	<path id="XMLID_3510_" class="cloud1_st63" d="M151.9,79.5c-0.1-1.3,0.4-2.3,1.3-3.2c2.9-1.1,5.6-0.4,8.4,0.6c0.5,0.7,1.9-0.2,2,1
		c0.1,0.9-0.8,1.1-1.5,1.4c-1.3,0.7-1.9,1.7-1.9,3.3c0,1.6-0.9,2.3-2.5,1.4C155.5,82.8,152.6,82.6,151.9,79.5z"/>
	<path id="XMLID_3509_" class="cloud1_st33" d="M171.9,82.1c2.4-0.2,4.7-1.3,7.1-0.1c0.5-0.3,0.9-0.2,1.2,0.2c1.3,1.7-0.2,1.5-1.2,1.8
		c-4,1.1-8.1,1.2-12.3,1.3c-0.2,0-0.5,0-0.7,0c-0.6-1.9,0.2-3.1,1.9-3.9c0.7,0.2,1.5,0.8,2,0.1C171.2,79.9,171.3,81.9,171.9,82.1z"
		/>
	<path id="XMLID_3508_" class="cloud1_st58" d="M146.7,82.1c0.4,0,0.9,0,1.3,0c0,1.5,0,3.1,0.7,4.5c-0.1,0.2-0.2,0.3-0.3,0.5
		c-3.7,1.4-7.4,2.6-11.3,0.8c3.9-0.7,3.7-3.5,3.2-6.4C142.4,81.6,144.7,81.1,146.7,82.1z"/>
	<path id="XMLID_3507_" class="cloud1_st35" d="M144.8,63.4c1.9,0,3.8,1.1,5.8,0.1c0.2,0.6,0.4,1.3,0.6,1.9c0.1,0.2,0.1,0.4,0.2,0.6
		c0.3,1.3,2.1,2.1,1.1,3.7c-0.6,0.9-1.7,0.7-2.6,0.5c-1.8-0.5-3.5-1.4-3.6-3.5C146.3,65.3,146.1,64.2,144.8,63.4z"/>
	<path id="XMLID_3506_" class="cloud1_st58" d="M148.7,86.6c0.8,2.7,3.4,4.4,3.9,7.4c0.2,1.2,1.5,1.4,2.5,1.7c0.1,0.2,0.2,0.3,0.3,0.5
		c0.2,2.3-1.6,2.6-3.1,3c-0.8,0-1.5,0-2.1-0.6C149.3,94.6,147,90.9,148.7,86.6L148.7,86.6z"/>
	<path id="XMLID_3505_" class="cloud1_st64" d="M157.6,84.1c1.1-0.3,1.8-1.1,1.9-2.3c0-1.4,0.5-2.3,2-2.7c1.9-0.6,0.9-1.4,0-2.1
		c1.2,0.1,2.5-0.4,3.7,0.5c-0.3,1.2-1.4,1.6-2.3,2.1c-1.5,0.9-2.1,2-1.8,3.7c0.2,1,0.6,2.3-0.7,2.8
		C158.9,86.5,158.1,85.4,157.6,84.1z"/>
	<path id="XMLID_3504_" class="cloud1_st65" d="M164.8,87.9c1.6-1,3.5,0.3,5.1-0.7c1.5,0.8,2.7,1.8,2.8,3.7c-1.2,2.9-3.2,4.4-6.4,4.2
		c-1.4-1.9-0.1-4.4-1.6-6.2c0-0.2,0-0.3-0.1-0.5C164.7,88.3,164.7,88.1,164.8,87.9z"/>
	<path id="XMLID_3503_" class="cloud1_st66" d="M168,81.5c0.1,1.7-0.7,2.9-1.9,3.9c-1.4,0-2.6-0.5-2.4-2.2c0.2-1.4,0.6-2.9,1.9-3.5
		C167.1,78.9,167.3,80.6,168,81.5z"/>
	<path id="XMLID_3502_" class="cloud1_st67" d="M155,95.6c0.7-3.1,2.3-4.9,5.7-5.3c1.4-0.1,2.6-1.2,3.9-1.9c0,0,0.1,0.1,0.1,0.1
		c1.1,1.8,0.8,2.9-1.5,3.4c-1.2,0.2-2.5,0.7-3.5,1.5c-1.2,0.8-2.1,1.9-3.4,2.7c-0.5,0-0.9-0.1-1.2-0.5L155,95.6z"/>
	<path id="XMLID_3500_" class="cloud1_st68" d="M188.5,77.6c0-0.2,0-0.4,0-0.6c3.3-0.2,3.8-2.7,4.2-5.1c0.2-0.9-0.2-1.8-1.3-1.9
		c-2.4-0.1-3.5-1.9-4.9-3.3c0.4-0.7,1.3-1.2,1.8-0.8c1.7,1.5,4,0.8,5.8,1.6c1.4,1.2,1.2,2.8,0.8,4.4c-0.6,2.4,0.5,3.3,2.7,3.4
		c1.7,0.1,3.5-0.2,4.1,2.1c-1,2.5-4.1,2.8-5.4,5.1c-1.1,0.2-1.8-0.3-2.6-1.1C192.4,79.9,190.2,79.2,188.5,77.6z"/>
	<path id="XMLID_3498_" class="cloud1_st69" d="M193.7,68.6c-2.6,0.3-4.7-1.2-7.1-1.9c-1-0.7-1.9-1.5-2.6-2.6c0.6-1.5,1.8-1.3,3.1-1.2
		c1.1,0.1,2.3,0.9,3.3-0.1c0.4,0,0.9,0,1.3,0C192.6,64.7,194.5,66.2,193.7,68.6z"/>
	<path id="XMLID_3497_" class="cloud1_st70" d="M190.5,62.8c-1.7,2.6-4.3,0.9-6.4,1.3c-0.2-0.2-0.5-0.4-0.7-0.6c0.1-2.6,1.6-2.9,3.7-2.2
		C188.2,61.8,189.3,62.3,190.5,62.8z"/>
	<path id="XMLID_3496_" class="cloud1_st71" d="M193.7,68.6c-1.7-1.6-4.3-2.9-1.9-5.8c0.6-0.4,1.3-0.9,1.9-1.3c0,0,0.1,0,0.1,0
		c1.3,1,2,2.6,3.4,3.6c1,0.7,0.9,1.7,0.6,2.8c-0.4,1.3-0.5,2.7-0.2,4.1c0.3,0.7,1,1,1.5,1.4c0.7,0.3,1.6,0.7,1.2-0.6
		c-0.3-1-1.4-1.6-2-2.5c-1.2-1.9-0.3-3.9,1.9-4.2c1.7-0.3,3.3,0.4,5,0c0-0.2,0-0.4,0-0.6c1.5,0.1,0.9-3,3-2.1
		c0.7,0.9,1.4,1.7,2.4,2.3c1.2,0.7,2.2,2,1.6,3.7c-0.4,0.7-1.1,0.9-1.8,1.2c0.6,0.3,1.2,0.4,1.8,0.1c3.7-1.8,5.5-0.7,5.5,3.5
		c0,0.6,0,1.3-0.4,1.8c-0.6,0.8-1.5,0.7-2.4,0.7c-1.4,0.1-2.1,0.7-2,2.2c0.1,1.1-0.2,2.3-1.2,2.7c-3.2,1.5-2.9,4.3-3,7
		c-1,1.8-2.5,2.1-3.9,0.8c-1.3-1.1-2.9-1.7-4.2-2.8c-1-1.3,0-2.4,0.6-3.5c0.8-1.7,1.2-3.4,0.2-5.1c0-0.1,0-0.3-0.1-0.4
		c-1.1-1-2.4-1.2-3.8-1c-2.9,0.4-3.9-0.4-3.7-3.4C193.9,71.7,194.6,70.1,193.7,68.6z"/>
	<path id="XMLID_3494_" class="cloud1_st72" d="M205.3,66c-1.3,0.5-2.5,1.2-3.8,1.5c-2.9,0.8-3,1.2-0.9,3.6c1,1.1,2.8,2.4,1.4,4
		c-1.4,1.5-3.1,0.7-4.4-0.7c0-0.9-0.4-1.3-1.3-1.3c-1.1-1.7-0.2-3.3,0.1-5c0.2-1.2,0.3-2.7-1.4-2.5c-4.3,0.5-2.7-1.4-1.5-3.3
		c0.2-0.3,0.3-0.6,0.4-0.9c1-0.5,2.1-0.7,3.2-0.6c0,2.4,0.8,3.7,3.6,3.6C202.1,64.6,203.7,65.5,205.3,66z"/>
	<path id="XMLID_3493_" class="cloud1_st25" d="M214.3,8.8c-1.2-1-2.4-1.4-4.1-0.9c-2.3,0.6-3.6-0.4-2.4-3c2.7,0.2,5.2-0.4,7.8-0.8
		c2.3-0.4,3.9,0.1,5.1,2.1c-0.3,2.9-0.3,5.2,3.2,6.5c2.3,0.9,3.8,3.6,6.5,4.4c1.2,0.3,1.1,1.7,0.7,2.7c-0.7,1.7-1.4,3.3-2.1,5
		c-1.5-0.7-1.4-2-1.5-3.3c0-0.8-0.1-1.6-0.9-1.8c-0.5-0.2-0.9,0.1-1.1,0.5c-0.4,0.8-0.1,1.4,0.4,2c0.7,0.7,1.2,1.5,0.6,2.6
		c-3.4-0.4-5.2,0.8-5.4,4.5c-0.1,2.1-0.6,4.2-1.7,6.1c-1.9,3.3-2.1,3.5-5.1,1c-1.1-1.5-1.4-3.8-3.9-3.9c-2.1-0.1-3.9,0.1-5.3,2.1
		c-1.3,1.9-2.3,0.4-3.1-0.8c1.4-1.6,3.3-2.7,5.2-3.5c3.3-0.1,6.5,0.1,9.6-1.7c1.5-0.8,2.1-1.7,2.2-3.2c0.3-3.3-0.7-6.5,0.8-10
		c0.9-2-1.2-4.7-2.7-6.7C216.4,7.7,215.3,8.4,214.3,8.8z"/>
	<path id="XMLID_3492_" class="cloud1_st26" d="M209.8,33.2c-3,2.1-1.9,6.3-4.5,8.6c-0.5,0.5-0.1,1.3,0.4,1.7c2.4,2.3,3.5,4.6,0.3,7.1
		c-2.9,1.5-3.5-0.8-4.5-2.6c-1.5-2.8,0.3-5.8-0.7-8.6c0-0.1,0.1-0.3,0.1-0.3C204.7,38.5,205.7,33.6,209.8,33.2z"/>
	<path id="XMLID_3491_" class="cloud1_st73" d="M201.4,48c1.1,1.5,2.4,2.8,4.5,2.6c1.1,0.7,2.2,1.5,2.4,2.8c0.3,2.1,1.6,3,3.4,3.6
		c0,0.4,0,0.8,0,1.3c-1.4,1.5-2.8,2.9-5.1,1.9c-0.2,0.1-0.4,0.2-0.5,0.4c-1,0.7-0.7,3.1-2.7,2.5c-2.9-0.9-2.5-3.6-3.1-5.8
		c-0.5-2,0.9-1.9,2.1-2.4c1.9-0.8,2-2.1,0.8-3.6C202.3,50.3,201.4,49.4,201.4,48z"/>
	<path id="XMLID_3490_" class="cloud1_st72" d="M206.6,60.3c1.5-1.3,2.9-2.7,5.1-1.9c0,0,0,0,0,0c1,1.5,2.1,2.8,3.8,3.7
		c1.3,0.7,2.1,1.7,1.8,3.3c-2.5,1.9-5,0-7.5-0.2c-0.8-0.4-1.3-1.1-2-1.7c-0.8,0.8-0.7,2.6-2.6,2C205.9,63.8,206.6,62.1,206.6,60.3z"
		/>
	<path id="XMLID_3489_" class="cloud1_st74" d="M207.2,31.3c-1.5,1.4-3,2.5-5.2,2.6c-0.7,0.1-1.5,0.3-2.2,0.3c-0.8,0-1.8,0-2.2-0.9
		c-0.5-1,0.8-1.3,1.2-2c0.8-0.7,1.7-1.3,2.3-2.1c1.5-2.2,3-2.2,4.8-0.4C206.1,29.7,206.7,30.5,207.2,31.3z"/>
	<path id="XMLID_3488_" class="cloud1_st31" d="M191.8,39.6c1.3-0.3,2.7-0.8,3.7,0.8c0.5,0.7,0.9,1.5,0.4,2.4c-0.5,0.8-1.3,1.1-2.2,1
		c-1,0-1.5-0.8-1.6-1.7C191.8,41.3,191.8,40.5,191.8,39.6C191.8,39.6,191.8,39.6,191.8,39.6z"/>
	<path id="XMLID_3487_" class="cloud1_st26" d="M210.4,32.6c3.6-1.1,3.6,1.6,3.9,3.9c0.1,2,0.8,4.1-1.5,5.5c-1.1,0.7-1,2.2-1,3.5
		c-2.3-2-0.2-3.4,0.7-4.8c2-3.1,1.4-5.6-2-7.4C210.4,33,210.4,32.8,210.4,32.6z"/>
	<path id="XMLID_3486_" class="cloud1_st6" d="M207.2,31.3c-1.1,0.1-2.1,0.2-3.2,0.3c-0.9,0.1-2.1,0.5-2.2-1c-0.1-1.1,0.8-1.7,1.9-1.7
		c0.7,0,1.5-0.1,2.2-0.2c0.4,0,0.8,0,1.2-0.1c2.2,0.3,4.2-0.4,6.1-1.3c1.6-0.3,3.8-0.2,4.1-2.3c0.3-1.8-0.6-3.3-2.2-4.7
		c-1.8-1.6-3.7-2.2-5.7-2.9c-0.6-0.5-1.4-0.7-1.5-1.6c0.7-1,1.7-1.4,2.8-0.7c1.8,1.2,3.7,1.3,5.7,0.6c0.8-0.3,1.9,0.2,2.2-1.1
		c0.2-1.2-0.2-2.1-1.1-2.8c-1-0.6-1.8-1.4-2.5-2.4c-0.2-0.2-0.4-0.4-0.6-0.7c0.1-1.4-0.1-3,1.9-3.1c1.9-0.1,2.9,1,3.2,2.8
		c0.3,2.1,0.4,4.2,3,5.2c1.3,0.5,0.8,1.9-0.1,2.7c-2,1.8-2.3,4.1-2.3,6.7c0.2,6.3-1,6.4-7.7,8.1C210.7,31.6,208.9,31.3,207.2,31.3z"
		/>
	<path id="XMLID_3485_" class="cloud1_st11" d="M213.6,29.4c-1.1,0.4-2.2,0.8-3.3,1c-1.6,0.4-2.7-0.1-3.2-1.7c0-0.2,0-0.4,0-0.6
		c0.3-0.4,0.5-0.9,0.8-1.3c0.7-1.2-0.5-2.4-0.1-3.6c0.4-0.8,0.9-1.6,1.2-2.6c0.7-2.6,2.3-3.2,4.6-1.8c0.7,0.4,1.3,1,2,1.5
		c2.8,2.1,3,4.9,0.3,7.2C215.1,28.2,214.5,28.9,213.6,29.4z"/>
	<path id="XMLID_3462_" class="cloud1_st30" d="M34.8,68.6c-0.7-0.8-2.3-1.4-1.2-2.8c0.8-1,1.8-2.3,3.5-1.8c1.1,0.4,2.1,0.6,2.9-0.5
		c0.3-0.3,0.6-0.4,0.9-0.2c1.4,1.2,2.8,2.4,0.4,4C39.1,68,37,68.9,34.8,68.6z"/>
	<path id="XMLID_3461_" class="cloud1_st52" d="M41.2,67.3c0.8-1.4-0.3-2.5-0.7-3.7c0.2-0.6,0.6-0.9,1.1-1.2c1.6-0.3,3.3-0.5,4.9-0.8
		c1,0.3,2,0.6,2.8,1.4c1.2,1.1,1,2.2-0.4,3c-2.3,0.4-4.7,0.9-7,1.3C41.6,67.3,41.4,67.3,41.2,67.3z"/>
	<path id="XMLID_3460_" class="cloud1_st75" d="M25.7,68c1.1-0.5,2.2-4.2,3.3,0C27.9,69.3,26.8,70.7,25.7,68z"/>
	<path id="XMLID_3459_" class="cloud1_st76" d="M66.9,64.1c4.5,2.8,9,5.6,13.5,8.4c0.6,1.8,2.1,3.9-1.3,4.5c-1,0.8-2.1,0.9-3.1,0
		c-1.2-1.2-2.7-1.4-4.3-1.4c-0.8-0.3-1.1-1-1-1.8c0.1-1.3-0.4-2-1.7-2.2c-1-0.1-2-0.2-2.6,0.7c-0.7,1-0.4,2.1,0.2,3
		c0.7,1.2,2.1,2.4,0.3,3.8c-0.5,0.1-0.9,0.1-1.3-0.3c-0.4-0.2-0.9-0.4-1.3-0.6c-1-1.8-1.9-3.6-2.9-5.3c-0.9-1.5-0.5-2.8,0.3-4.2
		c1-1.6,2.4-1,3.8-0.8c0.4,0.1,0.8,0.3,1.2,0.4c0.7,0.2,1.6,0.4,2-0.3c0.4-0.7-0.3-1.1-0.6-1.7C67.7,65.6,67.3,64.9,66.9,64.1z"/>
	<path id="XMLID_3457_" class="cloud1_st77" d="M57.3,61.5c0.2,0.2,0.4,0.4,0.6,0.7c0.5,1.9,1.1,4.6-1,5.2c-1.8,0.6-3.3-1.7-4.1-3.6
		c-0.2-0.4-0.3-0.8-0.3-1.2c0.2-1.2,1.2-1.8,2.1-2.3C55.5,60.7,56.4,61.1,57.3,61.5z"/>
	<path id="XMLID_3456_" class="cloud1_st9" d="M64.5,64.9c-1.1-0.4-1.6-1.2-1.8-2.3c-0.1-0.6,0.2-1.1,0.9-1c1.1,0.2,1.7,1.1,1.8,2.2
		C65.5,64.5,65.2,64.8,64.5,64.9z"/>
	<path id="XMLID_3455_" class="cloud1_st78" d="M54.7,60.3c0,0.9-0.4,1.6-1.2,1.9c-1,0.6-1.8,0.3-2.5-0.5c-0.5-0.6-0.8-1.3-0.8-2.1
		c0.7-0.2,1.3-0.4,2-0.6C53.2,59.1,53.9,59.7,54.7,60.3z"/>
	<path id="XMLID_3454_" class="cloud1_st79" d="M148.6,86.7c0.2,3.9,2.1,7.6,2,11.6c-2.5-0.8-3.4-2.9-3.8-5.2c-0.5-2.5-1.7-3.8-4.4-3.4
		c-2.8,0.4-4.7,2-6.3,4.1c-2.8,0.6-5.6-0.5-8.5,0.5c-1.8,0.6-3,1.4-3.7,3c-0.7,1.6-1.4,3.2-3.8,2c-1-0.5-1.7,0.2-1.9,1.4
		c-0.3,1.5-0.5,3,1.3,3.6c1.3,0.5,3,0.5,2.8,2.3c-0.1,1.8-1.5,2.7-3.2,3.1c-1.5,0.9-0.2,2.3-0.5,3.4c-0.1,0.3-0.3,0.5-0.5,0.8
		c-2.9-0.1-5.6,1.9-8.6,1.1c-0.3-0.1-0.5-0.3-0.8-0.4c-0.8-0.5-1.6-0.9-2.3-1.4c-1.4-0.9-2.3-2-1.9-3.7c0.4-1.7,1.7-2.2,3.4-2.3
		c2.7-0.2,4.6-2.3,4.9-4.3c0.8-6.1,3.8-9.7,9.7-11.1c0.2,0,0.4-0.2,0.6-0.3c2-0.5,2.6-1.5,2.1-3.7c-0.5-2.2,0-4.7-0.9-7
		c0.2,0,0.5,0,0.7,0c2.3,0.2,2.5,1.8,2.6,3.7c0.2,3.7,0.9,4.2,4.5,3.8c1.7-0.2,3.4-0.2,5.1-0.3C140.9,87.5,144.8,87.1,148.6,86.7z"
		/>
	<path id="XMLID_3453_" class="cloud1_st70" d="M124.2,80.9c1.5,1.1,2.2,2.5,1.8,4.4c-0.2,0.8-0.2,1.7,0.1,2.5c1.4,3.6,1.4,3.6-2.6,4.7
		c-0.3,0.3-0.7,0.5-1.2,0.5c-6.3,0.2-8.7,4.7-10.3,9.7c-0.8,2.5-2.7,3.2-4.6,4c-2.2,0.9-3.9,2.1-4.9,4.4c-0.1,0.3-0.3,0.5-0.6,0.8
		c-2.3,0.6-4.5,1.4-6.9,0.6c-2-0.6-3.8-1.7-3.4-4c0.4-2.1,2.2-3.4,4.3-3.6c6.5-0.7,9.1-2.9,10.8-9.4c0.3-1.3,1.1-2.4,2.5-2.7
		c2.8-0.5,5.2-2.4,8.1-2.4c5.1-0.9,5.9-1.9,5-5.7c-2-2.2-4.7-1.1-7-1.5c-0.3-0.1-0.6-0.2-0.8-0.4c-0.4-0.6-0.5-1.1-0.1-1.7
		C117.8,81.7,121,79.1,124.2,80.9z"/>
	<path id="XMLID_3452_" class="cloud1_st80" d="M114.6,80.8c0.2,0.4,0.4,0.9,0.6,1.3c-0.2,0.5-0.5,0.7-1,0.9c-6.7,0.4-13.3-0.1-19.4-3.4
		c2.3,1.1,4.7,2,4.8,5.1c0.2,1,0.7,1.9-0.1,2.9c-0.4,0.3-0.9,0.5-1.4,0.4c-1.8-0.8-3.4-2.2-5.7-1.3c-1.2,0.5-2-0.8-2.4-1.7
		c-1-2.2-2.4-3.9-4.9-4.6c-1-0.3-1.6-1.1-0.7-2.2c0.9-0.9,1.9-1.8,2.6-2.8c0.8-1.2,1.9-2.4-0.1-3.7c-1.5-1-1-2.7,0.2-3.6
		c1.4-1.1,2,0.5,2.7,1.4c1,1.3,1.4,3,3.1,3.6c4.6,5.1,10.4,7.4,17.2,7.1C111.5,80.2,113.1,80.1,114.6,80.8z"/>
	<path id="XMLID_3451_" class="cloud1_st44" d="M71.4,75.1c2.9-0.7,5,2,7.7,1.9c-1.2,1.9-2.7,1.1-4.1,0.3c-1.9-1.1-3.5-1-4.9,0.9
		c-1.2,1.7-2.7,2.3-4.5,0.7c0.4,0,0.9,0,1.3,0c0.8-0.6,1-1.5,1.3-2.4C68.8,75.1,69.8,74.1,71.4,75.1z"/>
	<path id="XMLID_3450_" class="cloud1_st31" d="M124.8,79.6c-0.2,0-0.4,0-0.7,0c-1.8-0.9-3.8-0.6-5.7-0.6c0,0,0,0,0,0
		c-0.1-2.8,1.9-2.7,3.7-2.6C124.1,76.4,125.4,77.3,124.8,79.6z"/>
	<path id="XMLID_3449_" class="cloud1_st51" d="M84.3,78.3c0.4,0.7,0.9,1.3,1.7,1.1c3.1-0.6,4.2,1.3,4.7,3.8c0.4,1.7,0.9,2.7,3,1.9
		c2-0.8,3.1,0.8,4.1,2.2c-0.1,0.1-0.2,0.3-0.2,0.4c-1.2,0.7-2.4,0.8-3.7,0.4c-2.5-0.8-4.8,0.3-7.2,0.8c-1.8,0.4-1.2,1.7-0.8,2.8
		c0,0.3-0.1,0.6-0.4,0.8c-0.9-0.2-1.7-0.4-2.6-0.7c-2.1-2.4,0-4.5,0.6-6.6c1.2-4.4,1.3-4.4-3.2-3.8c-0.4,0.1-0.9,0.1-1.3,0.1
		C80.7,80.2,82.2,78.7,84.3,78.3z"/>
	<path id="XMLID_3448_" class="cloud1_st9" d="M51.5,60.9c0.6,0.4,1.3,0.9,1.9,1.3c0.4,0.9,0.9,1.7,1.3,2.6c0.4,0.9,0.6,2,1.8,1.9
		c1.2-0.1,1.2-1.3,1.3-2.3c0.1-0.7,0-1.5,0.1-2.2c1.1,2,0.6,4.2,0.5,6.3c0,0.8-0.3,1.5-1.2,1.6c-0.6,0.1-1-0.3-1.3-0.7
		c-2.8-3-3.1-3-6.3-0.1c-0.9-0.9,1.2-2.5-0.6-3.2c0.9-2.4-1-2.7-2.6-3.2c-0.3-0.9,0.3-1.2,0.9-1.5C48.6,61,50,60.4,51.5,60.9z"/>
	<path id="XMLID_3447_" class="cloud1_st22" d="M85.6,92.4c0-0.2,0-0.4,0-0.6c-0.4-0.7-0.4-1.4,0-2.1c1.1-1.8,7.6-3.5,10.1-2.7
		c2.6,0.8,5.1,5.1,4.7,7.8c-3.3,2.2-6.9,2.2-10.6,1.2c-1-0.4-1.9-1-2.9-1.6c0,0,0,0,0,0C86.7,93.5,86.2,92.9,85.6,92.4z"/>
	<path id="XMLID_3446_" class="cloud1_st14" d="M51.5,60.9c-1.1,1.1-2.4,1.3-3.9,1.3c-0.9-1.1-1.8-0.7-2.8-0.1c-0.9,0.5-1.9,1-3,1.4
		c-0.4,0.1-0.9,0.1-1.3,0.2c-0.2-0.1-0.4-0.1-0.6-0.1c0-0.2-0.1-0.4-0.1-0.6c0.5-0.7,1-1.3,1.5-2c0.4-1.6,1.3-2.8,2.5-3.9
		c0-0.2,0-0.5-0.1-0.7c0-0.2,0.1-0.4,0.2-0.5c1.2,0,2.2,0.6,3.1,1.2c0.4,0,0.4,0.4,0.6,0.7c0.4,1.2,1.5,1.7,2.6,1.9
		C50.8,59.8,51.3,60.3,51.5,60.9z"/>
	<path id="XMLID_3441_" class="cloud1_st51" d="M43.7,57c-0.4,1.6-1.3,2.9-2.5,3.9C40.4,58.6,41.8,57.6,43.7,57z"/>
	<path id="XMLID_3440_" class="cloud1_st81" d="M55.9,53.9c-0.5-0.2-1.1-0.3-1.4-0.6c-2-1.9-3.4-1.2-4.2,1.1c-0.2,0.6-0.7,1-1.3,1.3
		c-1.5-2.1,0-3.9,0.7-5.7c0.8-0.2,1.6-0.3,2.5-0.5C52.8,51.4,55.2,51.9,55.9,53.9z"/>
	<path id="XMLID_3439_" class="cloud1_st38" d="M49.6,50c0.8,2-0.8,3.8-0.7,5.7c-0.7,0.5-1.1,1.2-1.3,2c-0.2-0.2-0.4-0.4-0.6-0.7
		C46.8,54.3,46.4,51.4,49.6,50z"/>
	<path id="XMLID_3438_" class="cloud1_st31" d="M78.6,59.6c-3.7,1.2-5.8-0.6-7.1-3.8c2.3,1.3,4,3.6,7,3.3C78.5,59.2,78.5,59.4,78.6,59.6z"
		/>
	<path id="XMLID_3437_" class="cloud1_st82" d="M74,47.4c-0.4,1.2-1.5,1.4-2.5,1.9c-0.5-1.1-1.2-2.3-0.1-3.1C72.5,45.4,73.2,46.8,74,47.4z"
		/>
	<path id="XMLID_3435_" class="cloud1_st83" d="M124.8,124.6c-1.4-0.8-2.9-1.4-4.5-1.3c-0.9-0.8-2-1.2-3.2-1c-1.4,0.2-2.7-0.3-3.8-1.2
		c-2.2-1.7-4.4-2.3-7-0.6c-2,1.2-3.3-0.4-4.7-1.6c0.1-0.1,0.1-0.3,0.2-0.4c1.8-1,4.4-0.2,5.7-2.4c1.6-0.4,3-0.1,4.1,1.1
		c1.8,1.8,4,2.3,6.4,2c3.3,1.1,6.6,2,9,4.7c0.1,0.4,0,0.7-0.3,1C126.1,125.2,125.4,125,124.8,124.6z"/>
	<path id="XMLID_3433_" class="cloud1_st83" d="M99.1,118.2c1.4-3.7-1.1-4.6-3.9-5.1c1.8-1,3.7-2.2,5.5-0.4c1.8,1.7,2.5,3.8,1,6.2
		c0,0-0.1,0.1-0.1,0.1C100.8,118.7,99.9,118.4,99.1,118.2z"/>
	<path id="XMLID_3432_" class="cloud1_st84" d="M101.7,118.8c-0.1-0.3-0.3-0.6-0.3-0.9c-0.4-4.8-1.4-5.6-6.2-4.8c-0.2,0-0.4,0-0.6,0
		c-0.4-0.5-1.1-0.2-1.6-0.5c-2-0.3-1.4-2.3-2.3-3.3c-0.2-0.2-0.4-0.4-0.6-0.7c-1.2-0.6-1-1.9-1.3-2.9c0.7-3.1,0.6-6.3,1.5-9.4
		c2.6-0.2,5,0.6,7.7-0.4c3.2-1.1,4.2-2.8,1.9-5.6c-0.9-1.1-1.2-1.9-0.1-2.9c2.2-0.8,3.9,0.2,5.6,1.4c2.7,1.7,5.4,2.2,8.2,0.3
		c0.6-0.1,1.1,0,1.6,0.2c1,0.4,2,1,2.5,2c-1.1,0.7-2.6,0.3-3.7,0.9c-2.5,1.4-5.4,1.9-5.9,6.1c-0.6,5.1-5.5,8.3-11,8.3
		c-2,0-4,0.9-4,2.8c0.1,2.1,2.3,2.5,4.3,2.3c1.4-0.1,2.8-0.2,4.2-0.4c1.8,3.1,5.2,1.5,7.7,2.5l0,0c1.3,0.9,2.4,1.9,4.2,1.2
		c3.6-1.3,5.4,0.4,4.8,4.3c-2.5,0.7-4.6,0.1-6.7-1.4c-1.2-0.9-2.5-2.2-4.2-1C106.2,119.5,103.9,119.1,101.7,118.8z"/>
	<path id="XMLID_3431_" class="cloud1_st85" d="M90.7,96.3c0.7,3.3,0.5,6.5-0.6,9.6c-1.3,3.5-4,2.2-6.5,2c-0.9-0.7-2.3-1.3-2-2.6
		c0.4-1.7,1.9-0.8,3-0.9c3.3-0.1,3.5-2.4,3.5-4.9c1.2-2.1-0.2-3.6-1.3-5.2c0.9,0,1.8,0.1,2.6,0.7C89.9,95.4,90.7,95.5,90.7,96.3z"/>
	<path id="XMLID_3430_" class="cloud1_st83" d="M83.7,107.9c1.8-1.9,4.7,0,6.5-2c0,0.9,0,1.7,0,2.6C87.7,110.5,85.6,110.1,83.7,107.9z"/>
	<path id="XMLID_3429_" class="cloud1_st83" d="M93.3,112.4c0.4,0.2,0.8,0.4,1.3,0.6c-1.4,0.1-2.7,0.3-4.1,0.3c-0.9,0-2.1,0.7-2.4-0.6
		c-0.4-1.5,1-1.6,2-1.8C91.2,111.3,92.3,111.8,93.3,112.4z"/>
	<path id="XMLID_3428_" class="cloud1_st85" d="M93.3,112.4c-1.3,0-2.6,0.1-3.3-1.3c0.2-0.6,0.5-1.2,0.7-1.9
		C92.2,109.8,92.4,111.3,93.3,112.4z"/>
	<path id="XMLID_3427_" class="cloud1_st86" d="M124.8,79.6c-1.9-2.4-4.1-2.7-6.4-0.6c-2-0.5-2.8-2.2-3.7-3.8c-0.6-0.9-0.6-1.8,0.5-2.5
		c0.6-0.3,1.5-0.5,1.1-1.6c-0.3-0.7-1.5-1.4-0.2-2.1c0.9-0.4,1.9,0.2,2.7,0.7c1.9,1.1,3,3.5,5.3,4c1.9,0.6,3.5,2.5,5.9,1
		c0.8-0.5,1,0.5,1,1.1c-0.1,3.4,1.2,5.2,4.8,5.1c1.8,0,2.6,1.3,2.9,2.9c0.3,1.7-1.1,2.1-2.4,2.4c-0.8,0.2-1.7,0.3-2.5,0.5
		c-4.9,0.9-5.5,0.4-4.6-4.5c0.2-1.3-0.2-1.8-1.3-2C126.9,80.1,125.9,79.8,124.8,79.6z"/>
	<path id="XMLID_3426_" class="cloud1_st60" d="M110.8,73.5c-0.1,1.9-0.6,3.1-3,2.4c-3.3-1-6.4-2.9-10.1-3c-1.8,0-2.2-1.8-1.1-3.1
		c1.6-1.8,1.8-3.3-0.2-4.9c-0.7-0.6-1.1-1.4-0.4-2.2c0.7-0.7,1.5-0.7,2.3-0.2c4.3,2.4,8.6,4.8,11.6,9
		C110.4,72.1,110.9,72.7,110.8,73.5z"/>
	<path id="XMLID_3425_" class="cloud1_st87" d="M136.4,71.8c3.3,1,6.5,2,9,4.5c1.3-0.1,2,0.5,2,1.9c0,1.6-0.7,2.6-2.2,3.1
		c-2.2,0.8-4.1,0-6.2-0.5c-3-2-3.3-6-5.9-8.3c2.2,0.9,3.8,2.3,4.5,4.7c0.3,1.1,0.7,2.1,2,2.2c0.7,0.1,1.3-0.1,1.6-0.8
		c0.4-1.3,0-2.6-1-3.5C139.1,73.9,137,73.7,136.4,71.8z"/>
	<path id="XMLID_3424_" class="cloud1_st0" d="M139,80.8c1.7-0.2,3.4-0.3,5-0.6c3-0.5,3.2-1.3,1.4-3.9c0-0.2,0-0.4,0-0.6
		c2.7,0.3,3.4,1.7,2.3,4.1c-0.3,0.8-0.7,1.5-1,2.3c-2.3,1.8-4.4,0.6-6.4-0.6C139.9,81.3,139.4,81,139,80.8z"/>
	<path id="XMLID_3293_" class="cloud1_st22" d="M159.6,147.8c0,0.2,0,0.4,0,0.6c-0.3,0.4-0.7,0.7-1.2,0.8c-0.8,0-1.6-0.1-2.4-0.3
		c-0.9-0.4-1.4-1.4-2.6-1.6c-3.9-0.7-4.8-2-4.4-5.9c0.1-0.9,0.1-1.9,0.1-2.9c-0.1-1.9,2-3.7,0.7-5.4c-1.1-1.3-3.4-0.4-5.1-1
		c-1.7-0.6-3.6-0.7-3.4-3.2c0.5-0.8,1.3-1.1,2.1-0.9c2.5,0.5,4.8-0.2,7-1.1c2.2-0.2,4.4,0.5,6.6-1.1c1.7-1.3,3.1,0.1,3.1,2.7
		c-0.1,1.2,0.6,1.8,1.6,2.2c1.3,0.5,2.3,1.5,2.9,2.7c0,0.3,0,0.6-0.1,0.9c-1.2,1.5-2.8,0.7-4.1,0.4c-1.8-0.4-2.5-0.4-2.2,1.8
		c0.2,1.2,0,2.5,0.8,3.5c0.2,0.4,0.4,0.8,0.7,1.2c0.4-0.3,0.8-0.4,1.3-0.2c-0.4,2.2-1.8,2.9-3.6,1.7c-0.7-0.5-1-1.4-1.7-1.5
		C157.5,143,159.2,144.9,159.6,147.8z"/>
	<path id="XMLID_3292_" class="cloud1_st88" d="M158.9,140.1c-1.8-1.4-1.2-3.5-1.4-5.3c-0.2-1.4,0.9-1.4,2-1c1.5,0.6,3,1.1,4.6,0.5
		c0.7-1.1,1.8-0.8,2.8-0.9c2.8-0.2,5.5-0.2,6.9-3.6c0.7-1.7,3.2-1.1,4.9-1.4c2.1,0.5,4.2,1.5,6.4-0.1c0.8-0.6,2.3-0.3,3.4,0.1
		c1.4,0.4,2.2-0.3,2.7-1.5c0.6-1.2,1.6-1.9,2.9-2.2c1.3,4.3-2.4,6.1-4.6,8.3c-2,2.1-5.1,1.5-7.4,0c-1.6-1-3.2-1-4.8-1.4
		c-0.4-0.1-1.2,0.1-1.2,0.1c0.2,4-4.1,2-5.5,4.2c-0.8,1.3-2.7,1.1-4.2,0.5c-1.1-0.4-2.2-0.8-3.4-0.9
		C158.5,135.2,158.5,135.2,158.9,140.1z"/>
	<path id="XMLID_3291_" class="cloud1_st50" d="M194.2,122.6c-0.2,0-0.3,0-0.5,0.1c-0.9,0.8-0.1,2.5-1.5,3.1c-2.1,0.3-2-1.5-2.6-2.7
		c-0.7-1.8,0.6-3.1,1.3-4.5c0.5-0.6,1.2-0.8,1.9-1c1.6-0.5,3.1-1,3.1-3.2c0-0.9,0.8-1.7,1.7-2.1c0.8-0.2,1.6,0.1,2.4,0.3
		c1.3,0.4,1,1.9,1.9,2.6c1.4,1.3,3.3,1.7,4.6,2.9c0.7,0.6,2,1.2,0.5,2.4C202.5,120.1,198.2,120.5,194.2,122.6z"/>
	<path id="XMLID_3288_" class="cloud1_st22" d="M164,138.7c1-0.6,1.8,0,1.8,0.9c0.2,2.9,1.8,3.1,4.1,2.4c2.5,1.6,5.5,1.4,8.3,1.8
		c1.1,0.2,2.3-0.2,3.2,0.8l0,0c1.5,1.2,1.2,2.6,0.3,4c-0.7,0.8-1.7,1.1-2.6,0.6c-2.8-1.4-5.6-2-8.7-1.5c-0.6,0.1-1.2-0.3-1.7-0.8
		c-0.6-0.8-0.8-2-2.2-2c-2,0-2.2-1.6-2.8-2.9C162.9,140.8,162.6,139.6,164,138.7z"/>
	<path id="XMLID_3285_" class="cloud1_st12" d="M192.4,125.2c0.1-1,0.4-1.9,1.3-2.6c0.2,0.7,0.4,1.3,0.6,2c-0.6,0.8-1.2,1.7-1.9,2.5
		c-0.5,1.4-1.8,1.7-3,1.7c-2,0-3.9-0.1-5.9,0.3c-1.9,0.4-2.4-1.1-1.2-3.3C185.6,124.7,189,124.8,192.4,125.2z"/>
	<path id="XMLID_3280_" class="cloud1_st47" d="M194.2,122.6c1.9-2.3,4.5-3,7.3-2.7c1.9,0.2,3.8,0.3,5.7,0.2c0.5-0.3,0.9-0.3,1.4,0
		c-0.2,0.2-0.4,0.4-0.6,0.7C203.1,119.9,198.8,122.3,194.2,122.6z"/>
	<path id="XMLID_3278_" class="cloud1_st71" d="M164,138.7c-0.3,1,0.2,1.8,0.7,2.7c0.3,1-0.2,1.6-1.1,2c-1.5,0.2-2.1-0.8-2.7-1.9
		c-0.4,0-0.9-0.1-1.3-0.1C160.6,139.6,161.7,138.1,164,138.7z"/>
	<path id="XMLID_3266_" class="cloud1_st26" d="M162.8,144.6c-2.8,3,0.7,4,1.9,5.7c-2.1-0.1-3.5-1.6-5.2-2.6c-1.1-0.6-2.5-0.9-2.9-2.4
		c-0.4-1.9-1.2-2.7-3.4-2c-1.5,0.5-1.9-0.9-2-2.1c-0.1-1.3,0.4-2,1.8-2c1.7-0.1,3.2,0.3,4.4,1.5c1,1.1,2.1,1.4,3.4,0.6
		c0.9,0.4,1.7,0.8,2.6,1.2C164.2,143.6,163.3,144,162.8,144.6z"/>
	<path id="XMLID_3243_" class="cloud1_st30" d="M224.6,78.3c0.2,0,0.4,0,0.7,0c0.5,2.1,0.4,3.9-2.2,4.5c-2,0.5-4.8-1.2-5.6-3.3
		c-0.3-0.8-0.3-1.7-0.2-2.5c0.6-1.5,1.7-2.8,1.3-4.5c0-0.3,0-0.6,0-0.9c0.6-2-1.9-4.2,0.3-6.1c1-0.4,2.1-0.9,3,0.1
		c1,1.1,2.1,1.6,3.6,1.7c1.4,0.1,2.3,1.5,3,2.7c0.3,0.6,0.5,1.2-0.1,1.8c-0.6,0.6-1.2,0.2-1.7-0.2c-0.2-0.1-0.3-0.3-0.5-0.4
		c-1.6-0.5-3.5-1.6-4.8-0.6c-1.4,1.1-0.1,2.9,0.4,4.4c0.3,0.7,0.3,1.5,0.5,2.2c0.3,1.1-2,1.8-0.6,2.7
		C222.8,80.4,223.6,78.7,224.6,78.3z"/>
	<path id="XMLID_3242_" class="cloud1_st2" d="M218.8,65.4c-0.1,2.2,2.3,4.1,0.7,6.4c-1-2-3.4-3.3-2.7-6c0-0.2,0.1-0.3,0.1-0.5
		c-0.3-0.5-0.6-1.4-1-1.5c-3.5-0.4-3.8-3-4.1-5.6c2.7,1.3,5.7,2.3,6.4,5.8C218.4,64.5,218.6,65,218.8,65.4z"/>
	<path id="XMLID_3235_" class="cloud1_st3" d="M215,45.4c0.2-1.1,0.6-1.9,1.9-1.6c1.3,0.3,2.4,1.1,3,2.2c0.4,0.7-0.4,1.1-1,1.2
		c-1.3,0.2-2.2-0.5-3.2-1.2C215.4,45.9,215.2,45.7,215,45.4z"/>
	<path id="XMLID_3226_" class="cloud1_st6" d="M208.5,23.6c0,1.1,0,2.2-0.6,3.2c-0.8-1.8-1.1-3.8-2.3-5.2c-2.2-2.5-1.5-3.9,1.2-5.1
		c0.4-0.2,0.7-0.4,1.1-0.7c0.6,0.2,1.3,0.4,1.9,0.6C209.5,18.9,209.1,21.2,208.5,23.6z"/>
	<path id="XMLID_3225_" class="cloud1_st44" d="M200.8,86c1.6,0.4,3.1,1,4.2,2.1c1.1,1.1,2,1.1,2.9-0.2c0.9-2.8,2.8-3.4,4.9-1.6
		c0.7,0.6,1.2,1.5,1.8,2.3c0.5,3.6,0.3,4.1-2.9,4.9c-1.4,0.3-1.9,1.2-2,2.4c-0.1,1.9-1.1,3.4-2.1,4.9c-1.1,1.6-2.6,2.7-4.7,1.9
		c-1.1-1.6-3.4-1.6-4.4-3.4c0-0.3,0-0.6,0.1-0.9c1-1.1,1.9-2.4,3.1-3.2c1.1-0.8,2.7-1.6,1.7-3.3c-1-1.8-2.5-3.7-4.7-3.2
		c-3.6,0.8-7.3,0.9-10.7,2.4c-0.2-0.3-0.6-0.6-0.5-0.8c1.3-2.4,3.6-3.9,5.6-5.6c1.3-1.2,2.8,0.3,3.9,1.2c0.9-1.2,2-0.8,3.2-0.5
		C200.4,85.6,200.6,85.8,200.8,86z"/>
	<path id="XMLID_3224_" class="cloud1_st57" d="M187.9,91.1c0.5-1.9,2.2-2.5,3.6-2.8c3-0.6,6.1-1,9.2-0.9c2.6,0.1,4.5,2.4,5.4,4.5
		c0.8,1.9-1.3,3.4-3,4.3c-1.5,0.8-2.2,2.8-4.2,2.6c-2.8-0.8-4.5-2.3-3.8-5.4c-2.2,0.1-4.2-0.1-5.9-1.6
		C188.8,91.6,188.3,91.4,187.9,91.1z"/>
	<path id="XMLID_3223_" class="cloud1_st12" d="M173.7,86.1c0.9-0.2,1.7-0.5,2.6-0.7c0.5,0.7,1.2,1.1,1.4,2c2,1.6,3.5,4.1,6.6,4.2
		c0.3,0.1,0.5,0.3,0.7,0.5c0.3,0.4,0.5,0.8,0.9,1c0.8,0.7,1.9,0.8,2.9,1.2c1.1,0.5,2.4,1,2.3,2.6c-0.1,1.6-1.3,2-2.5,2.5
		c-0.6,0.2-1.2,0.3-1.8,0.3c-0.3,0-0.6,0-0.9,0c-3.2-0.7-5.9-2.5-8.4-4.5c-1-1.4-2.6-1.9-4-2.7c-0.4-0.3-0.6-0.6-0.7-1.1
		C172.9,89.6,172,87.6,173.7,86.1z"/>
	<path id="XMLID_3222_" class="cloud1_st89" d="M188.5,77.6c3.7-0.4,5.2,3,7.7,4.5c1.2-0.4,1.9,0.1,2.1,1.2c0.2,1-0.3,1.6-1.4,1.4
		c-2-1.3-3.9-2.7-6-3.9c-0.4-0.2-1-0.5-1.5,0c-0.4,0.5-0.1,1,0.2,1.4c1.9,2.5,1.9,2.5-1.5,4.4c0.4-0.6,0.6-1,0.7-1.3
		c0.2-0.3,0.3-0.7,0.7-1.4c-3.6,0.7-6.4-1.1-9.4-1.6c-0.4-0.1-0.8-0.2-1.2-0.2c0-0.2,0-0.4,0-0.5C182.8,81.9,186.9,82.8,188.5,77.6z
		"/>
	<path id="XMLID_3221_" class="cloud1_st90" d="M196.9,84.7c1.5-1.3,0.1-1.9-0.6-2.6c-1.1-1.9-0.5-3,1.5-3.5c1.2-0.3,2.4-0.6,3.6-1
		c0,0,0,0,0,0c2.2,2.1,2.3,5.5,0.1,7.2c-0.5,0.4-1,0.7-1.3,1.3c-1.1,0.8-2.1,0-3.2-0.1C197,85.6,196.9,85.1,196.9,84.7z"/>
	<path id="XMLID_3220_" class="cloud1_st26" d="M189.2,91.8c2.8,0.1,5.8,1,8.2-1.3c0.5-0.5,1.3-0.5,1.7,0.2c0.4,0.7,0.5,1.8-0.2,2
		c-5,2-1.3,4-0.1,6.1c0,0,0,0,0,0c-1.9,1.7-3.5,1.5-5.5-0.3c-1.6-1.5-2.2-3.8-3.8-5.3c-0.2-0.3-0.3-0.5-0.4-0.9
		C189.2,92.2,189.2,92,189.2,91.8z"/>
	<path id="XMLID_3219_" class="cloud1_st84" d="M184.6,92.4c-0.2,0-0.4,0-0.6,0c-2.6-0.8-3.7-3.7-6.5-4.3c-0.4-0.1-0.8-0.4-1.2-0.2
		c-0.6-0.8-0.4-1.6,0-2.5c2.3,0.8,4.8-0.5,7,0.6c0.4,0.1,1,0.3,1,0.7C184,88.7,184.5,90.5,184.6,92.4z"/>
	<path id="XMLID_3218_" class="cloud1_st84" d="M173.7,86.1c0.4,1.7,1.9,3.4,0,5.1c-0.7,0.5-1.3,0.5-1.9-0.2c-1.1-1.1-2.2-2.1-2-3.8
		C171.1,86.5,172.3,86,173.7,86.1z"/>
	<path id="XMLID_3217_" class="cloud1_st65" d="M184.6,92.4c-1.3-1.9-0.5-4.3-1.3-6.3c0.9-0.5,1.8-1.6,2.8-0.4c0.8,1,0.4,1.8-0.7,2.6
		c-2,1.7-0.2,2.8,1,3.7c0.7,0.5,1.8,0.3,2.8,0.4c0.2,0,0.4,0,0.6,0.1c0.7,1,0.2,1.8-0.7,1.8c-1.5-0.1-3.1,0.7-4.4-0.5
		C184.7,93.3,184.6,92.8,184.6,92.4z"/>
	<path id="XMLID_3216_" class="cloud1_st91" d="M155.6,80.1c-0.9-0.1-2.1-0.2-2.2-1.3c-0.1-1.4,1.3-1.5,2.3-1.6c0.9-0.1,1.8,0.1,1.8,1.2
		C157.5,79.5,156.6,79.9,155.6,80.1z"/>
	<path id="XMLID_3215_" class="cloud1_st23" d="M142.2,88.6c4.4-1.3,5.7-0.5,6,3.8c0.2,2.2,1.7,3.9,2.4,5.8c0.6,0,1.3,0,1.9,0
		c0.6,1.1-0.7,1.7-0.7,2.6c0.3,1.2,1.1,0.7,1.7,0.5c1.5-0.4,2.5,0.2,2.8,1.7c-1.1,2.6-2.3,5.1-4.7,6.7c-1.7,0.5-3.1-0.6-4.6-0.9
		c-2.6-0.5-5,0-7.6,0c-0.8-0.2-1.4-0.5-1.6-1.4c0.4-3.4,3.2-2.4,5.2-2.9c1-0.3,2.1,0.5,3.1-0.1c0-0.3,0.1-0.6,0-0.9
		c0.5-2.7-0.4-4-3.4-4.4c-1.9-0.2-3.9-1.1-4.1-3.7c0.1-0.3,0.2-0.6,0.4-0.8c0.2-0.2,0.5-0.3,0.8-0.4c1.1-0.1,2.2-0.1,3.1-1
		c0.2-0.3,0.4-0.5,0.6-0.7c2.1-1.9,2.1-2.1-0.6-3c-0.3-0.1-0.6-0.2-0.8-0.5C142.3,88.8,142.3,88.7,142.2,88.6z"/>
	<path id="XMLID_3214_" class="cloud1_st75" d="M149.3,100.1c0.6-1.4,2.2-1.1,3.2-1.9c1-0.7,2.1-1.4,2.7-2.6c0.4,0,0.8,0,1.1,0
		c2.1,3-1,3.9-2.4,5.2C152.4,102.4,150.6,101.9,149.3,100.1z"/>
	<path id="XMLID_3213_" class="cloud1_st92" d="M158.9,92.4c1.3-0.5,2.5-1.2,3.8-1.4c1.5-0.2,1.8-1.2,2-2.4c2.8,1.5,1.6,4.2,1.9,6.4
		c0.3,0.2,0.5,0.4,0.7,0.7c-0.1,2.5,1.7,4.8,1,7.4c-0.4,0.5-1.1,0.6-1.6,0.9c-2.9,1.5-4.1,0.8-4.3-2.6c0-0.4-0.2-0.8-0.3-1.2
		c-0.2-0.9-0.8-1.5-1.6-2.1c-0.8-0.6-2-0.6-2.6-1.6c0.8-1.7,0.8-1.7,2.9-1.7C159.4,94.7,158.7,93.9,158.9,92.4z"/>
	<path id="XMLID_3212_" class="cloud1_st35" d="M166.7,95.6c0-0.2,0-0.4,0-0.6c0.5-2.9,3.5-2.5,5.2-3.9c0.6,0.1,1.3,0.1,1.9,0.2
		c0.2,0.2,0.4,0.4,0.6,0.6c0.3,0.6,0.4,1.2,0,1.8c-1,1.3-0.2,3.8-2.6,4.3c-1.7,0.3-2.8-0.8-4.2-1.5C167.3,96.3,167,96,166.7,95.6z"
		/>
	<path id="XMLID_3211_" class="cloud1_st93" d="M158.9,92.4c0.9,0.6,1.7,2.2,2.9,1c1.3-1.3,2.3-0.6,3.4,0c0.4,0.2,0.6,0.9,0.2,1.1
		c-1.2,0.5-1.9,2.2-3.4,1.7c-1.3-0.4-2.5-0.5-3.7,0.2c0.1,0.6,0.4,1.2,0.3,1.9c0.1,1.9-0.6,3.5-2,4.7c-0.3,0.1-0.6,0.1-0.9-0.1
		c-1.5,0-2.9,0-4.4-0.1c-1.5-0.1-2.9-0.5-2-2.6c4,0.2,5.6-0.8,7-4.5C156.7,94.2,157.8,93.2,158.9,92.4z"/>
	<path id="XMLID_3209_" class="cloud1_st17" d="M210.4,63.5c2.2,0.3,4.4,1,6.5,1.9c0,0,0,0,0,0c1.7,3.1,1.7,6.5,1.9,9.9
		c-0.2,0.3-0.5,0.6-0.8,0.7c-0.4,0.1-0.7,0-1-0.3c0,0-0.1,0-0.1,0c-0.1-1.1-0.1-2.2-0.4-3.1c-0.6-1.8-1.9-2.2-3.5-0.9
		c-0.7,0.6-1.5,1.4-2.5,0.9c-1.8-0.9-5.2-0.9-4.4-3.6c0.5-2,3.1,0,4.8,0.1c0.3,0,0.6,0.1,0.9,0.2c1.4-1.3,0.3-2.3-0.5-3.2
		C210.5,65.3,209.7,64.7,210.4,63.5z"/>
	<path id="XMLID_3208_" class="cloud1_st82" d="M210.4,63.5c1.2,1.2,3,1.9,3.1,3.9c0.1,1.2,0.3,2.6-1.7,1.9c-0.5-0.9-0.9-2-1.9-2.3
		c-1.7-0.6-2-1.9-1.9-3.4C208.7,63.5,209.5,63.5,210.4,63.5z"/>
	<path id="XMLID_3207_" class="cloud1_st58" d="M196.3,73.1c0.2-1-0.1-2.4,1.6-2.1c1.1,0.2,2,0.9,2,2.2c0,1.6-1.3,1.4-2.3,1.2
		C197.1,74,196.7,73.6,196.3,73.1z"/>
	<path id="XMLID_3206_" class="cloud1_st68" d="M200.2,86.1c2.2-2.6,3.2-5.3,1.2-8.5c1.4-0.4,2.2,0.4,2.1,1.6c0,2.6,0.7,5.6-2.8,6.8
		C200.6,86,200.4,86.1,200.2,86.1z"/>
	<path id="XMLID_3205_" class="cloud1_st21" d="M208.5,23.6c0-0.1,0-0.2-0.1-0.3c-2.9-2.9-1.6-5,1.4-6.8c3.3,0.1,5.5,2.2,7.5,4.4
		c2.8,3.2,1.4,6.3-3.6,8.4c0.6-0.8,1.3-1.7,1.9-2.5c1.9-2.4,1.5-4.8-1.2-6.4c-1.7-1-3.6-2-4.2,1.2C210,22.6,209.2,23.1,208.5,23.6z"
		/>
	<path id="XMLID_3192_" class="cloud1_st12" d="M41.8,63.5c0.9-1.1,1.4-2.5,3.1-2.9c1.5-0.3,2.5-0.1,2.7,1.6c-0.4,0.2-0.9,0.4-1.3,0.7
		C44.9,63.5,43.4,63.5,41.8,63.5z"/>
	<path id="XMLID_3191_" class="cloud1_st30" d="M71.4,75.1c-1.9,0.8-1.8,3.9-4.5,3.9c-1.3-2-2.8-3.9-3.1-6.5c-0.1-1.1-0.4-2,0.9-2.3
		c2.5-0.6,5.1-0.7,7.5,0.5C74.5,71.7,74.3,72.7,71.4,75.1z"/>
	<path id="XMLID_3190_" class="cloud1_st58" d="M149.3,106.6c-2.5,0-4.9,0.2-7.4-0.4c-1.4-0.3-2.5,0.3-3.6,1c-2.8,0.9-5.6-0.5-8.2,0
		c5.7,0.4,5.7,0.4,4.8,3.4c-2.2,1-4.6,1-6.9,1.4c-3.4-0.7-6.7-1.7-9.7-3.6c2.1-0.9,4.3-1.6,0.5-3.5c-1.7-0.8-2.9-5.6-2.1-7.3
		c0.8-1.8,2.1-1.6,3.3-0.4c1.1,1.1,2.1,1.4,2.6-0.3c1.4-5.2,5.4-4.7,9.3-4.5c1.3,0.1,2.5,0.4,3.8,0.6c1.7-0.7,2.3,0.7,3.1,1.6
		c0.1,0.6,0.5,1.2,0.2,1.9c-1.1,1.1-2.1,0.5-3.2,0c-2.7-1.1-5.4-1.8-8.3-0.8c-2.6,0.5-2,3.4-4.2,4.8c3.9-0.9,7-1.2,9.7,1.4
		c1,1,2.2,0.2,3.3-0.2c0.3,0,0.6-0.1,1-0.1c4.5-0.5,7.9,2.7,11.8,3.9C149.5,105.8,149.4,106.3,149.3,106.6z"/>
	<path id="XMLID_3189_" class="cloud1_st94" d="M150.6,127.8c-2.6,3-5.8,2.3-9,1.2c-0.2,0-0.5,0-0.6-0.1c-1.6-4.2-5.2-3.3-8.5-3.2
		c-2,0.1-3.8-0.5-5.3-1.7c-1.9-2.3-4.7-3.1-6.9-4.9c-1.7-1.4-3.1-3-2.5-5.4c0-0.2,0-0.4,0-0.7c2.3,0.2,4.3,1.4,6.5,2.1
		c1,0.5,2,0.8,3.1,0.8c2.8-0.1,4.8,0.7,6.7,3.2c2.6,3.5,11,3.1,14.4-0.1c0.3-0.1,0.7-0.1,1,0c1.8,0.9,2.3,2.4,1.9,4.3
		C151.1,124.7,151.1,126.3,150.6,127.8z"/>
	<path id="XMLID_3188_" class="cloud1_st62" d="M101.7,110.4c-0.6-3.4,2.3-4,4.3-5c2.1-1.1,5.2-1,3.8-4.8c-0.1-0.2,0-0.5,0.2-0.6
		c4.3-3,7.2-8.4,13.6-7.6c-0.7,0.9-1.7,1.1-2.8,1.4c-4.5,1.1-6.3,3.5-6,8c0.2,3.7-2.7,7-6.3,7.2c-0.9,0.1-2-0.2-2.5,0.9
		c-0.5,1.4,0.8,1.8,1.5,2.4C104.3,113.9,104.3,113.9,101.7,110.4z"/>
	<path id="XMLID_3187_" class="cloud1_st62" d="M117.8,113.7c0.7,3.2,3.6,4.3,5.9,5.8c1.8,1.2,3,2.6,3.8,4.5c-0.2,0.3-0.4,0.3-0.6,0
		c-3-1.4-6.4-1.7-9-3.9c-0.2-0.1-0.3-0.3-0.3-0.4c0.1-0.2,0.1-0.2,0.2-0.2c0-2.6-0.4-4.7-4-3.4c-2,0.7-3.3-0.8-4.3-2.4
		c0.6,0.1,1.7,0.5,1.8,0.3C113.3,110.6,115.6,113.2,117.8,113.7z"/>
	<path id="XMLID_3186_" class="cloud1_st48" d="M123.6,116.9c-2.5-0.5-3.8-2.7-5.8-3.9c-3.1-2.7-3-3.1,0.6-4.5c3.5-1,6.3,2.1,9.7,2
		c0.3,4.2-3,1.8-4.6,2.6C123,114.4,125,115.6,123.6,116.9z"/>
	<path id="XMLID_3185_" class="cloud1_st62" d="M101.7,110.4c1.8,1,3.5,2.2,5.8,1.9c0.6,0.4,1.3,0.9,1.9,1.3c-2-0.2-3.2,0.7-3.9,2.5
		c-0.2,0.6-0.8,1.1-1.5,1c-0.8-0.1-0.7-0.9-0.9-1.5c-0.4-1.5-0.9-3-1.4-4.5C101.7,110.9,101.7,110.7,101.7,110.4z"/>
	<path id="XMLID_3184_" class="cloud1_st23" d="M138.4,95c-0.9-0.6-1.7-1.3-2.6-1.9c-0.7-2.6,0.8-3.7,3-4.3c1.1-0.3,2.3-0.1,3.5-0.2
		c0,0,0,0,0,0c0.4,0.8,0,1.4-0.7,1.4c-2.8,0.3-3,1.7-1.7,3.8c0.2,0.4,0.1,0.8-0.2,1.2l0,0C139.2,95.4,138.8,95.4,138.4,95z"/>
	<path id="XMLID_3183_" class="cloud1_st5" d="M117.8,91.2c-0.9,0-1.8-0.1-2.6-0.6c0.1-0.5,0.4-0.8,0.9-1.1c1.1-0.6,2.2-0.3,3.4-0.1
		c1,0.2,1.6-0.4,1.9-1.2c0.3-0.8-0.2-1.5-0.9-1.8c-1.5-0.7-2.7-2-4.6-1.9c-1.4,0.1-2.6-0.3-2-2.2c0.4,0,0.9,0,1.3,0c0,0,0,0,0,0
		c1.4,0.6,3,0.5,4.4,0.2c1.9-0.4,3.1,0.2,4,1.7C125.2,89.6,124,91.1,117.8,91.2z"/>
	<path id="XMLID_3182_" class="cloud1_st43" d="M123.6,84.1c-2.4-2.2-5.8-0.5-8.4-1.9c1.5-0.1,3-0.1,4.5-0.3C121.7,81.4,123,82,123.6,84.1z
		"/>
	<path id="XMLID_3181_" class="cloud1_st95" d="M113.9,82.1c1.4,1.9,3.8,1.2,5.6,2c1.8,0.7,3.8,1.5,3.5,3.4c-0.2,2.1-2.2,3-4.3,2.9
		c-0.7,0-1.5,0-2.2,0c0.5-3.7,0.6-4-3.5-5.1c-4.2-1-8.6-1.3-12.8,0.1c-0.7,0-1.2-0.4-1.7-0.9c-0.6-2.2-2.9-2.3-4.3-3.5
		c-0.8-0.7-1.8-1.1-2.2-2.2c-0.4-1-1.4-2-0.3-2.9c1.4-1.2,1.6,0.6,2.4,1.1c4.5,2.8,9.1,5.2,14.6,4.6
		C110.4,81.6,112.1,81.6,113.9,82.1z"/>
	<path id="XMLID_3180_" class="cloud1_st51" d="M90.7,96.3c-0.4-0.4-0.8-0.9-1.3-1.3c3.5,0.7,6.9,0.6,10.3-0.6c1.1-1.4,0.7-2.6-0.5-3.8
		c-0.8-0.8-2.4-1.6-1.4-3.3c0,0,0,0,0,0c0.4,0,0.9,0,1.3,0c0.4,0.1,0.6,0.3,0.6,0.6c0.4,0.6,0.8,1.2,1.3,1.7
		c2.4,2.5,2.1,5.2-1.2,6.5C97,97.4,93.8,98.8,90.7,96.3z"/>
	<path id="XMLID_3179_" class="cloud1_st5" d="M99.7,87.9c-0.2-0.2-0.4-0.4-0.6-0.6c-0.2-0.9-0.4-1.7-0.6-2.6c0.6,0,1.3,0,1.9,0
		c4.4,0.5,8.3,2.5,12.5,3.5c0.9,0.2,1.5,1.2,1,2.3c-3.4,0.9-6.7,1.2-9.6-1.3C103,88.1,101.4,87.9,99.7,87.9z"/>
	<path id="XMLID_3178_" class="cloud1_st32" d="M97.8,87.3c0.3,1.3,1.2,2.2,2.1,3c1.6,1.4,1.7,2.8-0.1,4c-0.2-3.2-2-5.5-4.7-6.7
		c-2.8-1.3-7.3,1-9.5,4.1c-1.1-0.4-1.9-1.1-1.7-2.4c0.2-1.2,1.2-1.3,2.1-1.6C89.9,86.6,93.8,85.6,97.8,87.3z"/>
	<path id="XMLID_3177_" class="cloud1_st2" d="M94.2,94.5c-1.5,0.1-2.9-0.3-2.7-1.7c0.1-1.6,1.5-2.6,3.2-2.6c1.6,0,2.8,1.1,2.8,2.6
		C97.5,95,95.3,94,94.2,94.5z"/>
	<path id="XMLID_3176_" class="cloud1_st51" d="M126.8,124c0.2,0,0.4,0,0.6,0c2.3,1.3,4.7,1,7.1,0.8c5.3-0.5,5.3-0.5,7,4.3
		c2.4,2.5,5.4,3.1,8,1.4c0.7-0.4,1.1-0.5,1.7-0.1c0.8,0.6,0.9,1.4,0.6,2.3c-0.7,2-1.3,4-2,6.1c-1.6-0.2-1.1-1.1-0.7-2
		c0.9-1.6,0.4-2.7-1.2-3.2c-1.2-0.4-2.5-0.7-3.6-1.2c-1.3-0.5-3.2-0.8-3.6-1.8c-1.8-4.4-5.8-3.6-9.2-4.2c-1.7-0.3-3.3-1-4.7-1.8
		C126.8,124.4,126.8,124.2,126.8,124z"/>
	<path id="XMLID_3175_" class="cloud1_st5" d="M117.7,119.5c0,0.2,0,0.4,0.1,0.6c-2.3,0.7-4.3,0.2-6.1-1.5c-1.2-1.1-2.5-1.9-4.2-1.8
		c-0.3-0.5-0.3-1.4,0-1.3C110.8,117.2,114.7,117.1,117.7,119.5z"/>
	<path id="XMLID_3174_" class="cloud1_st96" d="M113.9,90.5c-2.8-0.9-5.7-1.9-8.5-2.8c-1.9-0.6-3.9-1.1-5-3c0.5-2.3,2.2-2,3.8-1.7
		c2,0.4,4,0.7,6-0.2c1.6-0.7,2.6,0.6,3.8,1.1c1.7,0.7,3.4,1.2,5.1,1.7c0.8,0.3,1.8,0.4,1.9,1.4c0.2,1-0.6,1.6-1.3,2
		c-1,0.6-2.1,1-3.1,1.5c-0.4,0-0.9,0-1.3,0C114.8,90.5,114.3,90.5,113.9,90.5z"/>
	<path id="XMLID_3093_" class="cloud1_st97" d="M164.1,133.6c-1.7-0.9-3.4-1.8-5-2.8c-1.3-0.8-1.2-1.1-0.1-2.3c0.9-0.4,1.8-0.4,2.7-0.4
		c2.6-0.7,4.6-2.6,7.2-3.4c1-0.3,1.8-1,2.9-1.3c1.8-0.6,3-0.1,3,2c0,1.2,1,2.5-0.1,3.7c-0.2,0.2-0.4,0.4-0.7,0.6
		c-2.9,1.9-5.8,3.6-9.4,3.9C164.4,133.6,164.3,133.6,164.1,133.6z"/>
	<path id="XMLID_3092_" class="cloud1_st12" d="M178.8,129.7c-2.2-0.1-3.4,0.7-5,2.5c-2.2,2.5-6.1,3.1-9.8,2c0-0.2,0-0.4,0-0.6c0,0,0,0,0,0
		c3.5-0.9,6.8-2.3,9.7-4.5l0,0c0.3-0.3,1-0.6,0.7-0.9c-2.2-2.3-0.1-4.3,1.1-5.2c1.6-1.2,4-0.2,5.9,0.6c0.8,0.3,1.8,0.9,1.6,2.1
		C181.3,126.7,181.1,129.3,178.8,129.7z"/>
	<path id="XMLID_3091_" class="cloud1_st37" d="M161.5,129.1c-0.9,0-1.8-0.1-2.6-0.7c0.1-1-0.5-2.6-1.2-1.5c-2.2,3.3-4.8,0.6-7.2,0.9
		c-0.7-1.3-0.8-2.6-0.4-4c0.4-1.7,0.2-3.1-0.9-4.4c-0.1-0.1-0.1-0.3-0.2-0.4c0.1-0.3,0.3-0.5,0.6-0.6c0.9-0.1,1.4,0.5,2.1,0.8
		c0.2,0.2,0.5,0.4,0.7,0.6c1,1.1-0.4,3.1,1.4,3.9c2-0.1,3.9-1.2,5.9,0c1.1,0.3,1.7,1.2,2.4,2c0.7,0.9,2.6,0.5,2.6,2.3
		C164.1,129.5,162.9,129.7,161.5,129.1z"/>
	<path id="XMLID_3090_" class="cloud1_st84" d="M156.4,147.8c-5.3,0.6-8-3.7-11.7-6.3c-0.4-0.3-0.5-0.7-0.3-1.1c0.3-0.5,0.9-0.9,1.3-0.6
		c5,3,2.4-1.4,2.9-2.9c0.2,0,0.4,0,0.6-0.1c0.2,0.7,0.5,1.3,0.7,2c0,0.6,0.2,1.3,0.1,1.9c-0.4,4.2-0.4,4.2,3.9,5
		C155.2,145.9,155.7,146.9,156.4,147.8z"/>
	<path id="XMLID_3089_" class="cloud1_st98" d="M154.1,136.6c-0.8-0.2-1.1-0.9-1.3-1.6c-0.1-0.5,0-1.2,0.6-1.2c0.9,0,1.1,0.8,1.3,1.5
		C154.8,135.8,154.7,136.3,154.1,136.6z"/>
	<path id="XMLID_3088_" class="cloud1_st99" d="M178.8,129.7c1.2-1.4,1.7-3.4,3.9-3.8c0.2,0.1,0.3,0.3,0.2,0.4c-0.1,0.1-0.1,0.2-0.2,0.2
		c-0.6,2.3,1.1,2,2.2,1.8c2.5-0.3,5-0.8,7.4-1.2c-0.1,1.3-0.7,2.7-2,2.4C186.5,128.7,182.7,131.1,178.8,129.7z"/>
	<path id="XMLID_3087_" class="cloud1_st100" d="M171.2,97c1.5-0.9,0.8-3.2,2.6-3.9c1.3,0,2.3,0.6,3.1,1.7c1.2,1.2,2.5,2.3,4.2,2.8
		c1.8,0.5,2.4,2.3,3.2,3.8c1.5,2,4,2.2,6.1,3.1c1,1.4,2.9,1.7,4,3c0.1,0.3,0.3,0.6,0.4,0.9c0.1,0.3,0.2,0.6,0.2,0.9
		c-0.8,3.9-1.8,4.8-6.4,5.8c1.5-0.3,3.3-1,5.3-0.9c1.3,0.1,2.2,0.5,2.9,1.7c0.9,1.6,0.4,2.3-1.3,2.7c-1.2,0.3-2.5-0.2-3.7,0.3
		c0.5,1.6-0.5,2.7-1.3,3.8c-0.1,2.4-1,2.9-3.6,3c-3.5,0.1-5.8-2.2-8.7-3c-2.1-0.6-2.3-4.6-0.6-6.2c1-0.9,1.9-2,3.2-2.6
		c1.1-1,1.2-1.9,0-2.9c-0.4-0.3-0.8-0.8-1.3-0.9c-4.6-0.3-6.5-3.9-9.1-6.8C168.9,101.8,169.4,98.5,171.2,97z"/>
	<path id="XMLID_3085_" class="cloud1_st101" d="M182.1,114.9c-4.3,2.2-5.5,4.8-2.9,6.8c1.9,1.5,4,2.7,6.6,3c2.3,0.3,3.7-0.2,4.7-2.1
		c0.7,0.8,0.7,2.1,1.9,2.6c-3.1,1.7-6.5,0.6-9.7,1.3c0-0.2,0-0.4,0-0.6c-3-2.4-5.7-2.8-7.2-1c-0.5,0.7-1.6,1.1-0.3,2.5
		c1.2,1.3-0.6,1.4-1.5,1.6c-0.2-0.8-0.3-1.7-0.5-2.5c-0.2-0.7,0.7-1.9-0.6-2.2c-1-0.2-1.9,0.4-2.4,1.3c-0.1,0.2-0.2,0.4-0.3,0.6
		c-0.5,0.7-7.5,3-8.4,2.8c1.3-0.1,2.3-0.6,2.6-2c-0.4-0.3-0.7-0.6-0.8-1.1c0.1-1.4,1.5-2.3,1.5-3.7c0.7-0.6,1.4-1.1,2.2-1.7
		c1.5,0,1.9-1.3,2.6-2.2c0.4-0.2,0.8-0.5,1.2-0.3c2.8,1.3,3.8,0.4,3.1-2.6c-0.2-0.8,0.5-1.3,1.1-1.8c0.3-0.3,0.8-0.5,1.2-0.7
		c0.9-0.4,1.4-1.5,2.5-1.6C180.7,111.8,183.4,111.5,182.1,114.9z"/>
	<path id="XMLID_3084_" class="cloud1_st26" d="M191.8,118.8c0.5-0.2,1-0.4,1.5-0.6c1-0.3,2.9,0.3,2.8-1.3c0-1.8-1.9-1.3-3.1-1.4
		c-2-0.1-3.8,0.2-5,2.1c-0.5,0.9-1.3,1.5-2.4,0.8c-1.2-0.7-1.1-1.6-0.4-2.7c0.4-0.6,0.6-1.4,0.6-2.1c0-1.5,0.5-1.5,1.8-1.1
		c2.4,0.7,5.2-1,6.1-3.6c2.8-0.2,3.6,1.6,3.8,3.9c-0.1,0.4-0.2,0.8-0.2,1.3C197.4,118.8,196.7,119.5,191.8,118.8z"/>
	<path id="XMLID_3083_" class="cloud1_st49" d="M197.5,113c-1.3-1.3-2.5-2.6-3.8-3.9c0-0.2,0-0.5,0-0.7c0.4-1.1,1.2-1.7,2.4-1.4
		c1.2,0.3,1.6,1.6,2.7,2.2c0.2,1.5,0.4,3,0.6,4.5C198.8,113.5,198.2,113.2,197.5,113z"/>
	<path id="XMLID_3056_" class="cloud1_st25" d="M218.1,75.7c-0.4-3.4-0.9-6.9-1.3-10.3c1.6,1.8,2.3,4.1,2.6,6.4c0,0.2,0,0.4,0,0.6
		c-0.7,0.8,0.1,1.3,0.2,2C219.9,75.8,219.4,76.3,218.1,75.7z"/>
	<path id="XMLID_3055_" class="cloud1_st2" d="M218.1,75.7c1.6-0.6,0.4-2.3,1.3-3.2c0.2,0.4,0.3,0.8,0.5,1.2c0.4,0.8,1.6,1.5,0.9,2.5
		c-0.6,0.9-1.8,0.1-2.7,0.2c-0.2-0.2-0.4-0.4-0.6-0.6C217.7,75.7,217.9,75.7,218.1,75.7z"/>
	<path id="XMLID_3048_" class="cloud1_st20" d="M203.3,101.5c-1.9-1-3,0.8-4.5,1.3c-3.8-1.2-7.3,1.1-11,0.9c-1.6-0.2-2.7-2-4.5-1.5
		c-1.5-3.4-5.9-3.4-7.7-6.5c0.5-1.1,1.2-1.9,2.6-1.3c2.7,1.2,5.7,2,7.7,4.5c0.2,0.2,0.4,0.5,0.7,0.6c0-0.2,0-0.4-0.1-0.6
		c0.4-0.2,0.7-0.4,1.1-0.5c0.8-0.3,2.2-0.2,2-1.5c-0.2-1.1-1.3-1.6-2.4-1.6c-1.3,0.1-2.3,0-2.6-1.5c1.6-0.8,3.8,0.7,5.1-1.2
		c1.3,0.3,2.4,0.6,2.9,2.1c0.9,3.1,3,4.5,6.2,4.3C200.3,99.9,202.8,99,203.3,101.5z"/>
	<path id="XMLID_3047_" class="cloud1_st102" d="M176.4,87.9c2.6-1.2,4.5-0.6,5.9,1.9c0.5,0.9,1.2,1.7,1.8,2.6c-0.3,0.4-0.6,1.1-1.2,0.6
		C180.6,91.3,177.9,90.4,176.4,87.9z"/>
	<path id="XMLID_3046_" class="cloud1_st67" d="M178.2,94.4c-0.9,0.4-1.7,0.8-2.6,1.3c-0.6-0.9-1.3-1.7-1.9-2.6c0.2-0.4,0.4-0.8,0.6-1.3
		C176.1,91.9,177.7,92.4,178.2,94.4z"/>
	<path id="XMLID_3045_" class="cloud1_st54" d="M186.6,98.8c1.4,0.3,2.9,0.4,3.8,1.8c-2.6,0.9-3.3,0.6-4.4-1.8
		C186.2,98.8,186.4,98.8,186.6,98.8z"/>
	<path id="XMLID_3044_" class="cloud1_st21" d="M139.7,107.9c4.1-1.1,8.2,0.2,12.2,0.6c1.8-0.7,3.5-1.2,5.5-0.3c1.5,0.7,2.4-0.9,3.5-1.5
		c1.3-0.1,2,0.8,2.8,1.6c0.9,2.1,2.6,3.3,4.6,4.2c1,0.4,2.1,0.6,2.7,1.6c0.1,0.3,0.2,0.6,0.1,0.9c-2.7,3.3-3.7,3.4-6.9,1.1
		c-1.6-1.1-3.1-1.8-4.9-0.3c-0.7,0.5-1.6,0.7-2.4,0.8c-0.7,0.1-1.3,0-1.8-0.3c-1.5-1.5-2.6-3.7-5.4-2.8c-0.8-0.1-1.2-0.8-1.8-1.2
		c-1.1-0.8-2.6-1.4-3.3-0.2c-0.7,1.2,1.2,1.3,2,1.9c0.9,0.4,1.9,0.2,2.7,0.6c1,0.5,1.8,1.4,1.9,2.6c0.1,1.2-0.8,1.5-1.8,1.7
		l-0.1,0.1c-4.5-0.9-8.8-2.3-12.1-5.7c-0.2-0.5-0.4-1-0.3-1.6C137.1,109.9,137.8,108.4,139.7,107.9z"/>
	<path id="XMLID_3043_" class="cloud1_st33" d="M149.3,106.6c-1.1-0.3-2.2-0.9-3.3-0.8c-2.3,0.1-4.1-0.4-5.6-2.2c-0.8-1-2.1-0.7-3.3-0.8
		c-1.5-2.6,0.4-4.2,1.9-5.9c3,2,7.6,1.9,8.4,6.6c0.6,0.1,1.2,0.2,1.9,0.2c1.1,0,2,0.4,2.1,1.5C151.4,106.4,150.2,106.4,149.3,106.6z
		"/>
	<path id="XMLID_3042_" class="cloud1_st103" d="M139.7,107.9c-0.9,1.1-1.4,2.4-1.3,3.9c-1.8,0.6-3.2,0.5-3.2-1.9c-1.3-1.9-3.1-0.6-4.7-0.7
		c-1.5-0.1-3.3,0.5-4.4-1.1c-0.5-0.7-0.1-1.4,0.5-2c1.3-1.5,2.9-1.5,4.6-0.7c2.3,1.2,5.2-0.2,7.3,1.9
		C138.8,107.4,139.2,107.7,139.7,107.9z"/>
	<path id="XMLID_3041_" class="cloud1_st15" d="M139.6,95c-3.8-4.3-3.8-4.3,2.6-6.4c0.8,0,1.7-0.1,2.5,0.1c2.3,0.4,3,1.8,1.7,3.7
		c-0.6,0.9-1.1,1.8-1.7,2.6c-1.5-1.5-3-1.5-4.5,0C140.1,95,139.9,95,139.6,95z"/>
	<path id="XMLID_3040_" class="cloud1_st40" d="M160.9,107.2c-1,3.8-2.5,4.4-5.7,1.9c-1-0.8-2.3,0.3-3.3-0.6c1.3-1.9,2.5-3.8,3.8-5.8
		c0.2,0,0.5,0,0.7,0c0.1,0.1,0.3,0.1,0.4,0.2c0.7,1.1,0.9,2.8,2.9,2.2c0.9,0.2,1.3,0.7,1.3,1.6C160.9,106.9,160.9,107.1,160.9,107.2
		z"/>
	<path id="XMLID_3039_" class="cloud1_st35" d="M147.4,103.4c-2.4-2.6-5.8-4-8.3-6.5c-0.2-0.1-0.2-0.3-0.2-0.4c0-0.1,0.1-0.2,0.2-0.2
		c-0.2-0.4-0.4-0.9-0.6-1.3c0.4,0,0.8,0,1.3,0c0.7,1.9,2.1,2.8,4.1,2.8c4.4,0,4.3,0,3.7,4.3C147.4,102.5,147.4,103,147.4,103.4z"/>
	<path id="XMLID_3038_" class="cloud1_st92" d="M140.3,95c0-0.6,0-1.3,0-1.9c0.1-1.5,0.7-2.5,2.4-2.4c1.5,0.1,2,1.1,2,2.4
		c0,0.6,0,1.3,0,1.9C143.3,96.7,141.8,96.1,140.3,95z"/>
	<path id="XMLID_3037_" class="cloud1_st104" d="M162.8,109.2c-0.6-0.6-1.3-1.3-1.9-1.9c0,0,0,0,0,0c-0.3-0.3-0.2-0.9-0.5-1.1
		c-2.2-2.4-2.9-5.3-2.8-8.5c-0.2-0.6,0.2-1,0.6-1.3c1.1,0.1,2.2,0,3.2,0.7c-1.1,2.3,1.3,1.8,2,2.6c-0.6,4,1.8,3.7,4.4,3.1
		c0.1,0.1,0.3,0.1,0.4,0.2c1.3,2.3,0,3.3-1.9,3.8c-1.2,0.3-2.5,0.5-2.8,2C163.3,108.9,163.1,109.1,162.8,109.2z"/>
	<path id="XMLID_3036_" class="cloud1_st20" d="M163.5,99.6c-1.6,1.3-3,0.7-3.8-0.9c-0.7-1.6,0.8-1.5,1.7-1.7c0.5,0.6,1.1,0.8,1.9,1
		C165.2,98.3,164,99,163.5,99.6z"/>
	<path id="XMLID_3035_" class="cloud1_st65" d="M166.7,95.6c0.4,0,0.8,0,1.2,0c0.4,0.3,0.7,0.7,0.9,1.2c0.8,1.4,0.6,2.9,0.6,4.4
		c0,0.9-0.3,1.8-1.5,1.5c0,0-0.1,0-0.1,0C166.5,100.5,166.2,98.1,166.7,95.6z"/>
	<path id="XMLID_3034_" class="cloud1_st98" d="M167.9,96.9c0-0.4,0-0.8,0-1.2c1.4-0.3,2.1,1.2,3.3,1.3c-1.4,4.9,1.9,10.3,6.9,11
		c1.8,0.3,3.5,0.8,4.7,2.5c1.3,1.8,1.5,3.3-0.7,4.5c-0.4-2.1-2.5-1.8-3.8-2.6c-1.4,0.6-2.1-0.6-3-1.1
		C169.4,108.2,168.5,102.6,167.9,96.9z"/>
	<path id="XMLID_3033_" class="cloud1_st21" d="M157.7,97.6c1.3,2,0.5,5.2,3.5,6.4c0.3,0.1-0.2,2.1-0.3,3.3c-0.4-0.4-0.8-0.9-1.3-1.3
		c-1.7-0.5-2.4-1.9-3.2-3.2c0,0,0,0,0,0C156.8,101,157.2,99.3,157.7,97.6z"/>
	<path id="XMLID_3019_" class="cloud1_st105" d="M135.1,109.8c1,0.7,2.4,0.9,3.2,1.9c0,0.4,0,0.8,0,1.3c2.2,2.5,4.4,4.9,8.2,4.7
		c1.1-0.1,1.6,0.9,2,1.7c0.4,2.9-1,3.8-3.8,3.9c-3.7,0.1-7.1-1.2-10.7-1.7c-0.7-0.1-1.8-0.6-1.9-1c-0.8-4-4-3-6.5-3.2
		c-0.7-0.1-1.4-0.4-2.1-0.6c-0.8-1.1-1.7-2.2-2.4-3.3c-0.6-0.8-1.7-1.7-0.7-2.7c1-1,2.3-1.1,3.5-0.2c1.4,1,2.8,1.5,4.1-0.1
		C130.4,110,132.7,109.7,135.1,109.8z"/>
	<path id="XMLID_3018_" class="cloud1_st86" d="M139,96.3c0,0.2,0,0.4,0,0.6c1.2,2.6-1.1,3.9-2,5.8c-0.2,0-0.4,0-0.6,0
		c-3.8-0.3-6.8-2.7-10.2-4c-1.8-0.6-1.4-2.8,0.5-5C131.2,92.9,135.2,94.1,139,96.3z"/>
	<path id="XMLID_3017_" class="cloud1_st33" d="M126.8,93.7c-1.4,2.3-0.8,3.9,1.7,4.5c3.1,0.8,5.4,2.8,7.9,4.5c-1.2,1.2-2.5,1.2-3.8,0.3
		c-3-2.1-6-1.8-9.1-0.5c-0.8,0.3-1.6,0.6-2.4,0.7c-0.7,0.1-1.3-0.1-1.6-0.8c-0.3-0.7-0.1-1.5,0.5-1.7c3-1.1,4.4-3.5,5.5-6.2
		C125.6,94.1,126.3,94,126.8,93.7z"/>
	<path id="XMLID_3016_" class="cloud1_st0" d="M148.6,119.5c-2.6-1.3-5.9-0.6-8-3.2c-0.8-1.1-2-1.8-2.3-3.3c2.8,1.6,5.1,4,8.7,4.2
		c0.8,0,1.4,1.1,2.2,1.7c0,0.2,0,0.4,0,0.6C149,119.5,148.8,119.5,148.6,119.5z"/>
	<path id="XMLID_2996_" class="cloud1_st98" d="M224,117.6c-1.3,2.2-4.2,1.7-6,3.3c-0.6,0.5-1.1-1.2-1.3-2.1c0.2-0.9-0.2-1.7-0.7-2.5
		c0.1-0.9,0.4-1.6,0.9-1.8c-0.7,0.4-1.9,0.6-3,0.4c-0.8-0.1-1.6-0.6-1.1-1.5c1.4-2.6,1-5-0.8-7.3c-0.2-0.2,0-0.6,0.2-0.9
		c0.3-0.4,0.5-0.7,0.8-1.1c0,0,0,0,0,0c0.3-0.4,0.7-0.5,1.1-0.7c2.7-0.1,4.4,2.2,6.7,3c1.3,0.5,2.5,1.6,3.6,2.7
		c0.3,0.2,0.5,0.4,0.8,0.6c2.1,1.7,1,3.7,0.3,5.5C225.2,116.1,224.2,116.6,224,117.6z"/>
	<path id="XMLID_2995_" class="cloud1_st94" d="M212.3,105.2c1.8,2.2,2.4,4.7,1.7,7.5c-0.5,1.7,0.6,1.7,1.5,1.1c1.2-0.8,2.5-1.2,3.8-1.6
		c1-0.3,2.3-0.9,2.7,0.6c0.3,1.2-0.6,2.3-1.9,2.6c-1.3,0.4-2.7,0.6-4.1,0.9c-2.6-0.9-4.9-1.8-3.3-5.4
		C213.7,109.1,211,107.3,212.3,105.2z"/>
	<path id="XMLID_2994_" class="cloud1_st25" d="M173.8,129.1c-2.5,3-5.7,4.6-9.7,4.5C167.1,131.7,170.4,130.4,173.8,129.1z"/>
	<path id="XMLID_2992_" class="cloud1_st106" d="M164.1,125.9c0,0.4,0,0.9,0,1.3c-1.1,0.3-2.1,0.7-3.2,0.1c0.8-2.1,0.7-4-0.6-5.8l0,0
		c-0.4-0.6-0.8-1.2-1.3-1.8c-0.8-1-1.3-2.1-0.3-3.2c1-1.1,2.2-1.7,3.7-1c2.4,1.1,4.6,2.7,7.4,3.1c0.1,0.1,0.2,0.3,0.2,0.4
		c-0.3,1.7,1,2.9,1.5,4.6c-2,0.1-2.5-2.2-4.1-2.1c-0.7,0.4-1.6,0-2.2,0.6C164.9,123.4,164.3,124.6,164.1,125.9z"/>
	<path id="XMLID_2990_" class="cloud1_st107" d="M160.2,121.4c3.1,2.2,3.2,3.3,0.6,5.8c-0.4-0.8-0.9-1.7-1.3-2.5
		C160.2,123.7,160.2,122.5,160.2,121.4z"/>
	<path id="XMLID_2989_" class="cloud1_st108" d="M151.2,120.1c1.9,1.8,1.7,4.1,1.3,6.4C150.3,124.7,152.2,122.1,151.2,120.1z"/>
	<path id="XMLID_2988_" class="cloud1_st70" d="M187.9,102.7c1.6-0.4,3.7,0.4,4.4-2.2c0.2-0.8,1.1,0,1.6,0.2c1.7,0.6,3.1,2,5,2.1
		c-1.1,0.7-2.1,0.5-3.2,0c-1.4,0.4-1.5,1.4-1,2.5c0.5,1.3-0.1,2-1,2.7c-1.4-0.7-3-1.1-3.8-2.6C189.6,104.2,186.8,104.8,187.9,102.7z
		"/>
	<path id="XMLID_2987_" class="cloud1_st11" d="M193.6,108c0-0.9,0.5-1.8-0.1-2.7c-0.4-0.6-1.8-0.9-0.9-1.9c0.8-1,1.9-1.3,3.1-0.6
		c-0.7,1.8,0.7,3.4,0.6,5.2c-0.8,0.2-1.7,0.3-2.5,0.5C193.7,108.3,193.7,108.1,193.6,108z"/>
	<path id="XMLID_2986_" class="cloud1_st109" d="M187.9,102.7c0.6,0.9,1.3,1.8,1.9,2.6c-2.2-1-5-0.7-6.4-3.3
		C185.3,99.5,186.5,102.1,187.9,102.7z"/>
	<path id="XMLID_2984_" class="cloud1_st65" d="M176.3,110.5c0.6,0.6,1.3,1.3,1.9,1.9c-0.2,1-0.6,1.8-1.3,2.6c-0.6-0.5-1-1.6-2.2-1.1
		c-1.4,0.7-2.7,1.7-4.2,0.4c-3.6-0.1-6.7-1.1-7.7-5.1c0-0.2,0-0.5,0-0.7c2.6-2.1,5.5-1.8,8-0.3C172.6,109.2,174.4,109.8,176.3,110.5
		z"/>
	<path id="XMLID_2983_" class="cloud1_st43" d="M170.5,114.3c1.6-0.3,3-1.1,3.9-2.6c1.1,0.8,1.7,1.8,1.3,3.2c-0.2,0.2-0.6,0.5-0.5,0.7
		c0.5,1.8,0.3,3.4-1.3,4.4c-1.7,1.1-2.6-0.9-3.9-1.1c0,0,0-0.2,0-0.2c-1-1.5,1-2.4,0.7-3.8C170.5,114.7,170.5,114.5,170.5,114.3z"/>
	<path id="XMLID_2982_" class="cloud1_st110" d="M163.5,121.4c-0.6-0.2-1.4-0.1-1.4-1c0-0.8,0.8-0.8,1.4-0.9c1.7-0.3,2.7,1,3.8,1.9
		c-0.5,0.7-1.1,1.1-1.9,1.3C164.2,123,164.3,121.5,163.5,121.4z"/>
	<path id="XMLID_2981_" class="cloud1_st37" d="M163.5,121.4c0.6,0.4,1.3,0.9,1.9,1.3c1.7,1.9,0.1,2.5-1.3,3.2
		C163.2,124.5,164.4,122.8,163.5,121.4z"/>
	<path id="XMLID_2980_" class="cloud1_st93" d="M175.7,114.9c-0.9-0.9-1.3-1.9-1.3-3.2c2.7-0.4,2.2,1.7,2.6,3.2
		C176.5,114.9,176.1,114.9,175.7,114.9z"/>
	<path id="XMLID_2974_" class="cloud1_st88" d="M150,112.4c-1.7,0.5-4,0-4.5,2.6c-1.3-0.4-2.5-1.2-3.5-2.2c-0.6-0.6-2-0.8-1.7-2
		c0.4-1.2,1.7-1.3,2.7-1.2C145.7,109.7,148.4,109.5,150,112.4z"/>
	<path id="XMLID_2973_" class="cloud1_st111" d="M156.4,102.7c1.4,0.7,2.9,1.4,3.2,3.2c-1.5,0.4-3.8,1.5-4.3,1
		C153.9,105.6,156.6,104.4,156.4,102.7z"/>
	<path id="XMLID_2972_" class="cloud1_st35" d="M176.3,110.5c-4.7,0.6-8.8-2.4-13.5-2c-0.1-2.2-0.1-4.1,3.1-3.5c1.5,0.3,1.9-1,2-2.2
		c1.5-1.9-1.5-3.9,0-5.8c0.7,1.7,0.9,3.6,1.5,5.2C170.9,105.4,173.4,108.2,176.3,110.5z"/>
	<path id="XMLID_2964_" class="cloud1_st73" d="M214.2,104c1.5-1,3.1-1.9,4.6-2.9c0.9-0.6,1.8-0.6,2.7,0c1,0.6,1.2,1.7,0.8,2.5
		c-1.7,2.8,0.3,4.4,1.8,6.2c-2.3-0.8-3.9-2.9-6.8-2.5C215.5,107.5,215.8,104.6,214.2,104z"/>
</g>
</svg>
