<?xml version="1.0" encoding="utf-8"?>
<!-- Generator: Adobe Illustrator 19.0.0, SVG Export Plug-In . SVG Version: 6.00 Build 0)  -->
<svg version="1.1" id="Laag_1" xmlns="http://www.w3.org/2000/svg" xmlns:xlink="http://www.w3.org/1999/xlink" x="0px" y="0px"
	 width="30px" height="20px" viewBox="0 0 28.4 18.3" style="enable-background:new 0 0 28.4 18.3;" xml:space="preserve">
<style type="text/css">
	.st0{fill:#464C81;}
	.st1{fill:#FFFFFF;}
	.st2{fill:#8A1812;}
</style>
<g id="XMLID_4_">
	<rect id="XMLID_14_" x="0.1" y="0.1" class="st0" width="28" height="18"/>
	<g id="XMLID_10_">
		<polygon id="XMLID_13_" class="st1" points="28.1,1.9 28.1,0.1 24.4,0.1 0.1,16.4 0.1,18.1 3.7,18.1 		"/>
		<polyline id="XMLID_12_" class="st2" points="15.2,8.6 27.9,0.1 25.9,0.1 14.5,7.8 		"/>
		<polyline id="XMLID_11_" class="st2" points="13.9,9 0.2,18.1 2.1,18.1 14.3,10 		"/>
	</g>
	<polygon id="XMLID_9_" class="st1" points="3.7,0.1 0.1,0.1 0.1,2 24.6,18.1 28.1,18.1 28.1,16.3 	"/>
	<polyline id="XMLID_8_" class="st2" points="12.8,8.1 0.8,0.1 0.1,0.1 0.1,1 12.3,9 	"/>
	<polyline id="XMLID_7_" class="st2" points="13.7,9.1 27.3,18.1 28.1,18.1 28.1,17.4 14.5,8.4 	"/>
	<polygon id="XMLID_6_" class="st1" points="28.1,6.6 16.7,6.6 16.7,0.1 11.6,0.1 11.6,6.6 0.1,6.6 0.1,11.7 11.6,11.7 11.6,18.1 
		16.7,18.1 16.7,11.7 28.1,11.7 	"/>
	<polygon id="XMLID_5_" class="st2" points="28.1,7.5 15.8,7.5 15.8,0.1 12.4,0.1 12.4,7.5 0.1,7.5 0.1,10.8 12.4,10.8 12.4,18.1 
		15.8,18.1 15.8,10.8 28.1,10.8 	"/>
</g>
</svg>
