<?xml version="1.0" encoding="utf-8"?>
<!-- Generator: Adobe Illustrator 19.0.0, SVG Export Plug-In . SVG Version: 6.00 Build 0)  -->
<svg version="1.1" id="Laag_1" xmlns="http://www.w3.org/2000/svg" xmlns:xlink="http://www.w3.org/1999/xlink" x="0px" y="0px"
	 viewBox="0 0 128 235" style="enable-background:new 0 0 128 235;" xml:space="preserve">
<style type="text/css">
	.st0{fill-rule:evenodd;clip-rule:evenodd;fill:#010202;}
	.st1{fill-rule:evenodd;clip-rule:evenodd;fill:none;}
	.st2{fill-rule:evenodd;clip-rule:evenodd;fill:url(#SVGID_1_);stroke:#030203;stroke-miterlimit:10;}
	.st3{fill-rule:evenodd;clip-rule:evenodd;fill:url(#SVGID_2_);}
	.st4{fill-rule:evenodd;clip-rule:evenodd;fill:url(#SVGID_3_);}
	.st5{fill-rule:evenodd;clip-rule:evenodd;fill:url(#SVGID_4_);}
	.st6{fill-rule:evenodd;clip-rule:evenodd;fill:url(#SVGID_5_);}
	.st7{fill-rule:evenodd;clip-rule:evenodd;fill:url(#SVGID_6_);}
	.st8{fill-rule:evenodd;clip-rule:evenodd;fill:url(#SVGID_7_);}
	.st9{fill-rule:evenodd;clip-rule:evenodd;fill:url(#SVGID_8_);}
	.st10{fill-rule:evenodd;clip-rule:evenodd;fill:url(#SVGID_9_);}
	.st11{fill-rule:evenodd;clip-rule:evenodd;fill:url(#SVGID_10_);}
	.st12{fill-rule:evenodd;clip-rule:evenodd;fill:url(#SVGID_11_);}
	.st13{fill-rule:evenodd;clip-rule:evenodd;fill:url(#SVGID_12_);}
	.st14{fill-rule:evenodd;clip-rule:evenodd;fill:url(#SVGID_13_);}
	.st15{fill-rule:evenodd;clip-rule:evenodd;fill:url(#SVGID_14_);}
	.st16{fill-rule:evenodd;clip-rule:evenodd;fill:url(#SVGID_15_);}
	.st17{fill-rule:evenodd;clip-rule:evenodd;fill:url(#SVGID_16_);}
	.st18{fill-rule:evenodd;clip-rule:evenodd;fill:url(#SVGID_17_);}
	.st19{fill-rule:evenodd;clip-rule:evenodd;fill:url(#SVGID_18_);}
	.st20{fill-rule:evenodd;clip-rule:evenodd;fill:url(#SVGID_19_);}
	.st21{fill-rule:evenodd;clip-rule:evenodd;fill:url(#SVGID_20_);}
	.st22{fill-rule:evenodd;clip-rule:evenodd;fill:url(#SVGID_21_);}
	.st23{fill-rule:evenodd;clip-rule:evenodd;fill:url(#SVGID_22_);}
	.st24{fill-rule:evenodd;clip-rule:evenodd;fill:url(#SVGID_23_);stroke:#030203;stroke-miterlimit:10;}
</style>
<path class="st0" d="M14,32l1-12l4-7l5-1l6,1l5,1l9-1c0,0,4.2-0.2,5-1s7-4,7-4s4.1-2.2,5-3s7.1-3.4,8-3s9.2,1.2,10,1s9,4,9,4
	s6.4,7,7,8s3.8,9.4,4,10s2.1,7.7,3,9c0.9,1.3,6.9,7.9,8,9c1.1,1.1,6.3,8.6,6,9c-0.3,0.4-2.6,7-3,8c-0.4,1-5.1,3.7-6,4
	c-0.9,0.3-4,0-4,0s3,7,3,7c0,0,3,9,3,9v7c0,0-1.8,6.4-2,7c-0.2,0.6-3.8,7.6-4,8c-0.2,0.4-5,5-5,5s-5.5,3.5-6,4c-0.5,0.5-4-1-4-1v-5
	l-5,2h-5l5,8l3,7l1,12l1,7l-1,7l-1,6l-1,5l-2,6v6v7l-3,4l-5,2l-2,2l-4-1l-2-1h-3l-2-2l-1-1l-1-2c0,0-4.2,0.4-4,1s-1,4-1,4v8l1,7l2,7
	l2,7l5,6l2,5c0,0,0.4,5.9,0,6s-4,3-4,3l-4-1l-3-3l-2-2l-1,2l-2,3l-4-1l-5-4l-5-4l-3-7c0,0-3.1-7.5-4-7s-3-7-3-7l-1-9l-1-8v-11l-3-6
	l-2-8v-9v-8l3-9l3-9l4-7l4-5l7-6l-4-3l-3-3l-4-1l-4-6v-4l-1-3l-2-5l2-5l4-3c0,0,4.6-3.4,4-3c-0.6,0.4,0-8,0-8l1-13l-7-3l-6-4l-5-6
	L14,32z"/>
<path class="st1" d="M0.3,171.3c0-3.5,0-6.9,0-10.4"/>
<linearGradient id="SVGID_1_" gradientUnits="userSpaceOnUse" x1="81.2245" y1="174.8666" x2="98.4104" y2="174.8666">
	<stop  offset="0" style="stop-color:#775D3E"/>
	<stop  offset="0.5" style="stop-color:#503617"/>
	<stop  offset="1" style="stop-color:#312D17"/>
</linearGradient>
<path class="st2" d="M83.4,169.8c11.5,0,15-1.2,15,11.4c0-0.1,0-0.1,0-0.2c0,0-11.5-1.6-17.2-2.5c0.9-3.3,1.8-6.6,2.7-9.9"/>
<path class="st1" d="M53,196c1.4,10.2,8.3,23.1,8,22.3c-0.3-0.7,5.1,7.2,3.9,7.7c-3.5,1.4-7.4-2-7.9-3c-0.5-0.9-2-5.4-5-6
	c-1.6-0.3-1.2,0.9,0,2s2,3,1,3s-2.4-0.9-4-3s-1.1-4.6-4-7.1c-3.1-2.7-2.8-1.7-1,2.1c1.8,3.6,3.3,5.9,5,7c1.7,1.1,3.1,1.8,2,4
	c-0.8,1.6-7-2-7-2c-7.9-4.4-7.4-7.9-11-16c-4.3-9.6-5-18.5-5-24s-0.9-7.1,0-10s7.7-1.2,9,0.1c3,2.9,3.3,6.2,5,6.9
	c2.1,0.9,7.9,0.5,9.7,2.6C53.4,184.4,52.9,195,53,196"/>
<path class="st1" d="M29,169c0,0-2.5,0.2-4-5s-2.9-15.3-1-16c3.2-1.2,4.5,5.7,6,5c2.6-1.2,5.1,1.2,6-1s3.1-2,5,0s9,1,9,1
	c0-0.7-6.4,5.6-8,6.9c-2.8,2.3-2.6,4.9-3,10.1c-0.3,3.5-5.4-8.3-5-6C34.3,165.8,31.8,169.2,29,169z"/>
<path class="st1" d="M43.1,177.1c-1.3-0.5-3-9.3-1.8-12.4c1.1-2.7,1.2-4.8,3.7-3.7c2.5,1.1,2.1,6.6,2,8
	C46.9,171.3,47.5,178.7,43.1,177.1z"/>
<path class="st1" d="M56,176l1-7l-1-7l2,3l1,6l-1,3L56,176z"/>
<path class="st1" d="M47,160c-0.4-1.1,5.3,8.4,2,17c-0.5,1.2,0.8,2.9,3,1s3-12,2-15s-2.3-4.4-4-5C48.2,157.3,47,160,47,160z"/>
<path class="st1" d="M65,163c2.6,0,3,6.3,3,8c0,2.2,0.1,5.1-2,6.3C60.5,180.4,58.9,163.1,65,163z"/>
<path class="st1" d="M69,179c0-2.5,2.9-10.1,1-14c-1.3-2.6,2-4.4,3-3c1.4,1.9,3.5,9.4,0.4,15.9C73,178.8,69,181.4,69,179z"/>
<path class="st1" d="M76.9,165.5c-0.6-3,5,2.1,4.1,7.3c-0.5,3.1-1.9,5.2-4,5.1C76.7,178,77.5,168.4,76.9,165.5z"/>
<path class="st1" d="M25.1,145.7c-2.6-1.5,0.6-11.2,1.9-13.7c1.4-2.7,3.1,1.8,6,5c0.3,0.3,5.2,2.6,7-1c2.2-4.3,3.5-2.8,6,0
	c1,1.1,3.1,3.6,7,1.6c3.4-1.7,1.9-2,1.9,1.1c0,1.8,1,7.3-5,11c-2.9,1.8-2.9,1.8-8.9-1.6c-2.6-1.5-4.1-1.9-6.1-0.1
	c-1.4,1.2-4.5,2.3-5.4,1.1C26.9,145.3,28.4,147.6,25.1,145.7z"/>
<path class="st1" d="M27.9,129.8c2.4-9,11.2-19.2,18.1-22.8c7.1-3.8,11.5,23.1,8.4,25.5c-4.6,3.6-5.7,3.8-7.4,1.5
	c-2.2-3-4.5-4.6-8-2c-3,2.2-4.4,3.9-5.3,1.8C30.9,127.5,27.8,130.4,27.9,129.8z"/>
<path class="st1" d="M52,104"/>
<path class="st1" d="M51,156c0.6-0.7,8.5-15.3,8-26c-1-21.7-9-25.2-8-26c2.6-2,4,6.4,22,5c4.4-0.4,9.8,26.9,7.5,32.5
	c-3.5,8.6-6.2,17.9-11.7,19c-4.6,0.9-5.4,0-5.8,0.5l-2,3c-1.2-1.3-0.6-0.9-4-4C56.8,159.8,51,156,51,156S50.6,156.4,51,156z"/>
<path class="st1" d="M69.6,105.5C61.2,104.7,56.5,97.8,53,93c-4.7-6.4-1.1-16-2.7-20c-3.2-8.3-6.1-6.1-7.3-12c-1.9-9.5,0.5-18,1-17
	c2.8-5.8,8-5,8-5s4,0.2,6,1c2,0.8,6.3,5.1,7,7s3,8,3,8s-0.4,6.1,1,6s5.2-4.8,8-6c2.8-1.2,7.1,1,6,0c-0.5,0.3,3.2-1.2,1-4
	c-2-2.6-11.1-5.5-9-5c-0.4,0.1-7.8-3.5-10-4c-2.2-0.5-8-8-8-8l-6-3h-7c-0.9-2.8-7.9,14.1-7,19c0.1,0.6,0.6,22,0,22c-0.6,0-8,7-8,7v6
	l2,2v6l3,2l3-1l2-3v6l3,4c0.1,0.1,3.2,3.2,5.5,0.9C49.7,99.7,49,97,49,97h2l1,4c0,0,1.6,2.1,4,3c2.4,0.9,2,0.7,8,2
	C69.6,107.2,76,106.1,69.6,105.5z"/>
<path class="st1" d="M47,63c-1,0-2.7-7.4-3-10c-0.7-4.9,2.3-8.3,3-9c0.9-0.9,5.1-3.1,6-3c0.3,0,12.3,2.3,13,16c0.1,1.6,0.2,7.8,0,8
	c-0.2,0.2-2.4-6.9-2-6c0.4,0.9-2.3-3.5-3-4s-2.1-0.9-4-1s0,0,0,0s-0.4-0.2-1,0s-5.1,1.5-4,1s-2.6,1.9-3,3C48.6,59.1,47.8,63,47,63z"
	/>
<path class="st1" d="M54,62h-3v-3v-2h3l2,2v2L54,62z"/>
<path class="st1" d="M58,76c-0.8-0.3,1.3-2.4,2-3c0.7-0.6,4,0,4,0s2.8,0.4,3,1c0.2,0.6-1,2-1,2l-3,1l1,5l3,4c0,0,3.7,1.6,4,2
	c0.3,0.4,5,2,5,2l6,1l4,2l4,2l3,5v2l2,3c0,0,2.6-3.3,3-3c0.4,0.3,4-3,4-3l2-6l1-7l1-6c0,0-0.1-7.8-1-8c-0.9-0.2-5-8-5-8
	s-5.6-5.2-6-5s-8-2-8-2s-6.6-0.3-7,0s-6,3-6,3l-4,4l-2,3h-5l-4,2l-4,4l-1,5v6l2,7l3,3l4,5c0,0,5,1.8,5,2c0,0.2,4.7,0.8,5,1
	c0.3,0.2,6,1,6,1l5-1l4-2l-1-3l-4-2h-6l-6-2l-5-4l-4-4v-4l-1-3l1-3l-3,3l-1-1C57,77,58.8,76.3,58,76z"/>
<path class="st1" d="M61,28c-0.3,0.5,2-3,2-3l2,1l2,1l1,2l-1,2l-1,2h-3v-3v-2l-1,1C62,29,61.3,27.5,61,28z"/>
<path class="st1" d="M82,39l1,2c0,0,0.7,1.1,1,1s2,0,2,0v-3h1l1,2h1v-2v-3h-3l-2-1l-1,2L82,39z"/>
<path class="st1" d="M89,25l2,1h2l1-1v-2l-2-1v-2l-1-2h-2l-1,2l-1,1c0,0-0.7,0.8,0,1c0.7,0.2,1,2,1,2L89,25z"/>
<path class="st1" d="M67,11h-2v2l1,1l2,1l1,1h2v-2l1-1v-3c0,0-1.2-1.1-1-1s-2,0-2,0v3h-2V11z"/>
<path class="st1" d="M70,20c-0.4,0.4,0,4,0,4h1v3h-1v4h1v-2h2v2v1h2v-2h1v4h2v-2h1l1,1v2h1l1-2v-3c0,0,0.6,0,1,0c0.4,0,2-1,2-1l1-1
	l1-3l-1-2c0,0,0.6-3.5,0-3s-1.6-2.5-2-2s-2-1-2-1l-2-2h-3h-3l-2,2l-2,1C70,18,70.4,19.6,70,20z"/>
<path class="st1" d="M71,22v-3l1-1l1-1h2l2,1v1h1v1l1,1l1-1h1h2v1l1,1l1,1v2v2l-1,1h-2l-2,1l-1-1v-1h-1v-1h-2h-1v-1h-2v-1l-1-1
	L71,22z"/>
<path class="st1" d="M76,159l3,4l2-2l1-5l2-6l1-7v-7v-7v-4l-2-2l1,5v6v6l-2,7l-2,6L76,159z"/>
<linearGradient id="SVGID_2_" gradientUnits="userSpaceOnUse" x1="27.6034" y1="198.8776" x2="65.1252" y2="198.8776">
	<stop  offset="0" style="stop-color:#5E4F9C"/>
	<stop  offset="0.5" style="stop-color:#312783"/>
	<stop  offset="1" style="stop-color:#463A6A"/>
</linearGradient>
<path class="st3" d="M53,196c1.4,10.2,8.3,23.1,8,22.3c-0.3-0.7,5.1,7.2,3.9,7.7c-3.5,1.4-7.4-2-7.9-3c-0.5-0.9-2-5.4-5-6
	c-1.6-0.3-1.2,0.9,0,2s2,3,1,3s-2.4-0.9-4-3s-1.1-4.6-4-7.1c-3.1-2.7-2.8-1.7-1,2.1c1.8,3.6,3.3,5.9,5,7c1.7,1.1,3.1,1.8,2,4
	c-0.8,1.6-7-2-7-2c-7.9-4.4-7.4-7.9-11-16c-4.3-9.6-5-18.5-5-24s-0.9-7.1,0-10s7.7-1.2,9,0.1c3,2.9,3.3,6.2,5,6.9
	c2.1,0.9,7.9,0.5,9.7,2.6C53.4,184.4,52.9,195,53,196"/>
<linearGradient id="SVGID_3_" gradientUnits="userSpaceOnUse" x1="23.0558" y1="159.2643" x2="50" y2="159.2643">
	<stop  offset="0" style="stop-color:#47C1F0"/>
	<stop  offset="0.5" style="stop-color:#00A0E4"/>
	<stop  offset="1" style="stop-color:#008CD3"/>
</linearGradient>
<path class="st4" d="M29,169c0,0-2.5,0.2-4-5s-2.9-15.3-1-16c3.2-1.2,4.5,5.7,6,5c2.6-1.2,5.1,1.2,6-1s3.1-2,5,0s9,1,9,1
	c0-0.7-6.4,5.6-8,6.9c-2.8,2.3-2.6,4.9-3,10.1c-0.3,3.5-5.4-8.3-5-6C34.3,165.8,31.8,169.2,29,169z"/>
<linearGradient id="SVGID_4_" gradientUnits="userSpaceOnUse" x1="40.8675" y1="168.9923" x2="47.0767" y2="168.9923">
	<stop  offset="0" style="stop-color:#F2D888"/>
	<stop  offset="0.5" style="stop-color:#EAC43F"/>
	<stop  offset="1" style="stop-color:#E5B900"/>
</linearGradient>
<path class="st5" d="M43.1,177.1c-1.3-0.5-3-9.3-1.8-12.4c1.1-2.7,1.2-4.8,3.7-3.7c2.5,1.1,2.1,6.6,2,8
	C46.9,171.3,47.5,178.7,43.1,177.1z"/>
<linearGradient id="SVGID_5_" gradientUnits="userSpaceOnUse" x1="56" y1="169" x2="59" y2="169">
	<stop  offset="0" style="stop-color:#F2D888"/>
	<stop  offset="0.5" style="stop-color:#EAC43F"/>
	<stop  offset="1" style="stop-color:#E5B900"/>
</linearGradient>
<path class="st6" d="M56,176l1-7l-1-7l2,3l1,6l-1,3L56,176z"/>
<linearGradient id="SVGID_6_" gradientUnits="userSpaceOnUse" x1="46.982" y1="168.3589" x2="54.4154" y2="168.3589">
	<stop  offset="0" style="stop-color:#E4D0A3"/>
	<stop  offset="0.5" style="stop-color:#D2B569"/>
	<stop  offset="1" style="stop-color:#C7A443"/>
</linearGradient>
<path class="st7" d="M47,160c-0.4-1.1,5.3,8.4,2,17c-0.5,1.2,0.8,2.9,3,1s3-12,2-15s-2.3-4.4-4-5C48.2,157.3,47,160,47,160z"/>
<linearGradient id="SVGID_7_" gradientUnits="userSpaceOnUse" x1="61.1111" y1="170.3298" x2="68.0097" y2="170.3298">
	<stop  offset="0" style="stop-color:#F2D888"/>
	<stop  offset="0.5" style="stop-color:#EAC43F"/>
	<stop  offset="1" style="stop-color:#E5B900"/>
</linearGradient>
<path class="st8" d="M65,163c2.6,0,3,6.3,3,8c0,2.2,0.1,5.1-2,6.3C60.5,180.4,58.9,163.1,65,163z"/>
<linearGradient id="SVGID_8_" gradientUnits="userSpaceOnUse" x1="69" y1="170.748" x2="74.9934" y2="170.748">
	<stop  offset="0" style="stop-color:#EDD3A4"/>
	<stop  offset="0.5" style="stop-color:#E7C88C"/>
	<stop  offset="1" style="stop-color:#D6A439"/>
</linearGradient>
<path class="st9" d="M69,179c0-2.5,2.9-10.1,1-14c-1.3-2.6,2-4.4,3-3c1.4,1.9,3.5,9.4,0.4,15.9C73,178.8,69,181.4,69,179z"/>
<linearGradient id="SVGID_9_" gradientUnits="userSpaceOnUse" x1="76.8593" y1="171.3189" x2="81.107" y2="171.3189">
	<stop  offset="0" style="stop-color:#E4D0A3"/>
	<stop  offset="0.5" style="stop-color:#D2B569"/>
	<stop  offset="1" style="stop-color:#C7A443"/>
</linearGradient>
<path class="st10" d="M76.9,165.5c-0.6-3,5,2.1,4.1,7.3c-0.5,3.1-1.9,5.2-4,5.1C76.7,178,77.5,168.4,76.9,165.5z"/>
<linearGradient id="SVGID_10_" gradientUnits="userSpaceOnUse" x1="76" y1="143" x2="85" y2="143">
	<stop  offset="0" style="stop-color:#47C1F0"/>
	<stop  offset="0.5" style="stop-color:#00A0E4"/>
	<stop  offset="1" style="stop-color:#008CD3"/>
</linearGradient>
<path class="st11" d="M76,159l3,4l2-2l1-5l2-6l1-7v-7v-7v-4l-2-2l1,5v6v6l-2,7l-2,6L76,159z"/>
<linearGradient id="SVGID_11_" gradientUnits="userSpaceOnUse" x1="60.9749" y1="29" x2="68" y2="29">
	<stop  offset="0" style="stop-color:#F7F7FA"/>
	<stop  offset="0.5" style="stop-color:#E6E7EE"/>
	<stop  offset="1" style="stop-color:#D5D8E3"/>
</linearGradient>
<path class="st12" d="M61,28c-0.3,0.5,2-3,2-3l2,1l2,1l1,2l-1,2l-1,2h-3v-3v-2l-1,1C62,29,61.3,27.5,61,28z"/>
<linearGradient id="SVGID_12_" gradientUnits="userSpaceOnUse" x1="82" y1="38.501" x2="89" y2="38.501">
	<stop  offset="0" style="stop-color:#F7F7FA"/>
	<stop  offset="0.5" style="stop-color:#E6E7EE"/>
	<stop  offset="1" style="stop-color:#D5D8E3"/>
</linearGradient>
<path class="st13" d="M82,39l1,2c0,0,0.7,1.1,1,1s2,0,2,0v-3h1l1,2h1v-2v-3h-3l-2-1l-1,2L82,39z"/>
<linearGradient id="SVGID_13_" gradientUnits="userSpaceOnUse" x1="86.6959" y1="22" x2="94" y2="22">
	<stop  offset="0" style="stop-color:#F7F7FA"/>
	<stop  offset="0.5" style="stop-color:#E6E7EE"/>
	<stop  offset="1" style="stop-color:#D5D8E3"/>
</linearGradient>
<path class="st14" d="M89,25l2,1h2l1-1v-2l-2-1v-2l-1-2h-2l-1,2l-1,1c0,0-0.7,0.8,0,1c0.7,0.2,1,2,1,2L89,25z"/>
<linearGradient id="SVGID_14_" gradientUnits="userSpaceOnUse" x1="65" y1="12.4989" x2="72" y2="12.4989">
	<stop  offset="0" style="stop-color:#F7F7FA"/>
	<stop  offset="0.5" style="stop-color:#E6E7EE"/>
	<stop  offset="1" style="stop-color:#D5D8E3"/>
</linearGradient>
<path class="st15" d="M67,11h-2v2l1,1l2,1l1,1h2v-2l1-1v-3c0,0-1.2-1.1-1-1s-2,0-2,0v3h-2V11z"/>
<linearGradient id="SVGID_15_" gradientUnits="userSpaceOnUse" x1="69.8114" y1="25" x2="87" y2="25">
	<stop  offset="0" style="stop-color:#F7F7FA"/>
	<stop  offset="0.5" style="stop-color:#E6E7EE"/>
	<stop  offset="1" style="stop-color:#D5D8E3"/>
</linearGradient>
<path class="st16" d="M70,20c-0.4,0.4,0,4,0,4h1v3h-1v4h1v-2h2v2v1h2v-2h1v4h2v-2h1l1,1v2h1l1-2v-3c0,0,0.6,0,1,0c0.4,0,2-1,2-1l1-1
	l1-3l-1-2c0,0,0.6-3.5,0-3s-1.6-2.5-2-2s-2-1-2-1l-2-2h-3h-3l-2,2l-2,1C70,18,70.4,19.6,70,20z"/>
<path class="st0" d="M71,22v-3l1-1l1-1h2l2,1v1h1v1l1,1l1-1h1h2v1l1,1l1,1v2v2l-1,1h-2l-2,1l-1-1v-1h-1v-1h-2h-1v-1h-2v-1l-1-1
	L71,22z"/>
<linearGradient id="SVGID_16_" gradientUnits="userSpaceOnUse" x1="53" y1="80.9342" x2="106" y2="80.9342">
	<stop  offset="0" style="stop-color:#E4D0A3"/>
	<stop  offset="0.5" style="stop-color:#D2B569"/>
	<stop  offset="1" style="stop-color:#C7A443"/>
</linearGradient>
<path class="st17" d="M58,76c-0.8-0.3,1.3-2.4,2-3c0.7-0.6,4,0,4,0s2.8,0.4,3,1c0.2,0.6-1,2-1,2l-3,1l1,5l3,4c0,0,3.7,1.6,4,2
	c0.3,0.4,5,2,5,2l6,1l4,2l4,2l3,5v2l2,3c0,0,2.6-3.3,3-3c0.4,0.3,4-3,4-3l2-6l1-7l1-6c0,0-0.1-7.8-1-8c-0.9-0.2-5-8-5-8
	s-5.6-5.2-6-5s-8-2-8-2s-6.6-0.3-7,0s-6,3-6,3l-4,4l-2,3h-5l-4,2l-4,4l-1,5v6l2,7l3,3l4,5c0,0,5,1.8,5,2c0,0.2,4.7,0.8,5,1
	c0.3,0.2,6,1,6,1l5-1l4-2l-1-3l-4-2h-6l-6-2l-5-4l-4-4v-4l-1-3l1-3l-3,3l-1-1C57,77,58.8,76.3,58,76z"/>
<linearGradient id="SVGID_17_" gradientUnits="userSpaceOnUse" x1="43.906" y1="53.0007" x2="66.1268" y2="53.0007">
	<stop  offset="0" style="stop-color:#F7F7FA"/>
	<stop  offset="0.5" style="stop-color:#E6E7EE"/>
	<stop  offset="1" style="stop-color:#D5D8E3"/>
</linearGradient>
<path class="st18" d="M47,63c-1,0-2.7-7.4-3-10c-0.7-4.9,2.3-8.3,3-9c0.9-0.9,5.1-3.1,6-3c0.3,0,12.3,2.3,13,16c0.1,1.6,0.2,7.8,0,8
	c-0.2,0.2-2.4-6.9-2-6c0.4,0.9-2.3-3.5-3-4s-2.1-0.9-4-1s0,0,0,0s-0.4-0.2-1,0s-5.1,1.5-4,1s-2.6,1.9-3,3C48.6,59.1,47.8,63,47,63z"
	/>
<linearGradient id="SVGID_18_" gradientUnits="userSpaceOnUse" x1="51" y1="59.5" x2="56" y2="59.5">
	<stop  offset="0" style="stop-color:#F7F7FA"/>
	<stop  offset="0.5" style="stop-color:#E6E7EE"/>
	<stop  offset="1" style="stop-color:#D5D8E3"/>
</linearGradient>
<path class="st19" d="M54,62h-3v-3v-2h3l2,2v2L54,62z"/>
<linearGradient id="SVGID_19_" gradientUnits="userSpaceOnUse" x1="29" y1="68.6192" x2="84.6963" y2="68.6192">
	<stop  offset="0" style="stop-color:#BD5F3F"/>
	<stop  offset="0.5" style="stop-color:#A0220A"/>
	<stop  offset="1" style="stop-color:#731103"/>
</linearGradient>
<path class="st20" d="M69.6,105.5C61.2,104.7,56.5,97.8,53,93c-4.7-6.4-1.1-16-2.7-20c-3.2-8.3-6.1-6.1-7.3-12c-1.9-9.5,0.5-18,1-17
	c2.8-5.8,8-5,8-5s4,0.2,6,1c2,0.8,6.3,5.1,7,7s3,8,3,8s-0.4,6.1,1,6s5.2-4.8,8-6c2.8-1.2,7.1,1,6,0c-0.5,0.3,3.2-1.2,1-4
	c-2-2.6-11.1-5.5-9-5c-0.4,0.1-7.8-3.5-10-4c-2.2-0.5-8-8-8-8l-6-3h-7c-0.9-2.8-7.9,14.1-7,19c0.1,0.6,0.6,22,0,22c-0.6,0-8,7-8,7v6
	l2,2v6l3,2l3-1l2-3v6l3,4c0.1,0.1,3.2,3.2,5.5,0.9C49.7,99.7,49,97,49,97h2l1,4c0,0,1.6,2.1,4,3c2.4,0.9,2,0.7,8,2
	C69.6,107.2,76,106.1,69.6,105.5z"/>
<linearGradient id="SVGID_20_" gradientUnits="userSpaceOnUse" x1="50.8288" y1="133.8354" x2="81.0366" y2="133.8354">
	<stop  offset="0" style="stop-color:#A2523D"/>
	<stop  offset="0.5" style="stop-color:#7A1307"/>
	<stop  offset="1" style="stop-color:#510B00"/>
</linearGradient>
<path class="st21" d="M51,156c0.6-0.7,8.5-15.3,8-26c-1-21.7-9-25.2-8-26c2.6-2,4,6.4,22,5c4.4-0.4,9.8,26.9,7.5,32.5
	c-3.5,8.6-6.2,17.9-11.7,19c-4.6,0.9-5.4,0-5.8,0.5l-2,3c-1.2-1.3-0.6-0.9-4-4C56.8,159.8,51,156,51,156S50.6,156.4,51,156z"/>
<linearGradient id="SVGID_21_" gradientUnits="userSpaceOnUse" x1="27.9322" y1="121.086" x2="55.4171" y2="121.086">
	<stop  offset="0" style="stop-color:#BD5F3F"/>
	<stop  offset="0.5" style="stop-color:#A0220A"/>
	<stop  offset="1" style="stop-color:#731103"/>
</linearGradient>
<path class="st22" d="M27.9,129.8c2.4-9,11.2-19.2,18.1-22.8c7.1-3.8,11.5,23.1,8.4,25.5c-4.6,3.6-5.7,3.8-7.4,1.5
	c-2.2-3-4.5-4.6-8-2c-3,2.2-4.4,3.9-5.3,1.8C30.9,127.5,27.8,130.4,27.9,129.8z"/>
<path class="st1" d="M52,104"/>
<linearGradient id="SVGID_22_" gradientUnits="userSpaceOnUse" x1="24.1168" y1="141.053" x2="55.2323" y2="141.053">
	<stop  offset="1.123600e-02" style="stop-color:#44AFCD"/>
	<stop  offset="0.5" style="stop-color:#008EB4"/>
	<stop  offset="0.9944" style="stop-color:#00747D"/>
</linearGradient>
<path class="st23" d="M25.1,145.7c-2.6-1.5,0.6-11.2,1.9-13.7c1.4-2.7,3.1,1.8,6,5c0.3,0.3,5.2,2.6,7-1c2.2-4.3,3.5-2.8,6,0
	c1,1.1,3.1,3.6,7,1.6c3.4-1.7,1.9-2,1.9,1.1c0,1.8,1,7.3-5,11c-2.9,1.8-2.9,1.8-8.9-1.6c-2.6-1.5-4.1-1.9-6.1-0.1
	c-1.4,1.2-4.5,2.3-5.4,1.1C26.9,145.3,28.4,147.6,25.1,145.7z"/>
<linearGradient id="SVGID_23_" gradientUnits="userSpaceOnUse" x1="0" y1="169.0002" x2="40.749" y2="169.0002">
	<stop  offset="0" style="stop-color:#775D3E"/>
	<stop  offset="0.5" style="stop-color:#503617"/>
	<stop  offset="1" style="stop-color:#312D17"/>
</linearGradient>
<path class="st24" d="M0.3,162.5c11.4,1.1,22.7,2.1,34.1,3.2c0.7,0.5,1.4,1,2.2,1.5c0.4-0.3,0.9-0.7,1.3-1c0,0,2-0.1,2.9-0.2
	c-0.1,3.2-0.2,6.3-0.2,9.5c-13.5-1.7-27-3.3-40.5-5"/>
</svg>
