<?xml version="1.0" encoding="utf-8"?>
<!-- Generator: Adobe Illustrator 19.0.0, SVG Export Plug-In . SVG Version: 6.00 Build 0)  -->
<svg version="1.1" id="Laag_1" xmlns="http://www.w3.org/2000/svg" xmlns:xlink="http://www.w3.org/1999/xlink" x="0px" y="0px"
	 viewBox="0 0 365.2 365" style="enable-background:new 0 0 365.2 365;" xml:space="preserve">
<style type="text/css">
	.st0{fill:#FEFEFE;}
	.st1{fill:#600000;}
	.st2{fill:#FAF7F7;}
	.st3{fill:#0C0B0B;}
	.st4{fill:#303203;}
	.st5{fill:#555555;}
</style>
<g id="XMLID_1_">
	<path id="XMLID_530_" class="st0" d="M234.9,364.2c0.6,1.1,1.7,0.9,2.6,0.9c37.1,0,74.3,0.1,111.4,0c7.5,0,16.1-9.1,16.1-16.6
		c0-110.4-0.1-220.9,0.2-331.3C365.2,9,355.3,0,348,0c-37.3,0.1-74.6,0.1-111.9,0.1c-34.7,0-69.5,0-104.2,0c-38,0-76-0.1-114,0
		c-7.2,0-13.5,2.7-16.4,9.5C-0.4,14.1,0,19.4,0,24.4C0,132.7,0,241,0,349.3c0,8.1,7.6,15.8,15.5,15.8c37.3,0,74.6,0,112,0
		c1.5,0,3.3,0.8,4.6-0.8C166.4,364.2,200.7,364.2,234.9,364.2z"/>
	<path id="XMLID_525_" class="st1" d="M132.2,364.2c-1.3,1.7-3.1,0.8-4.6,0.8c-37.3,0.1-74.6,0-112,0c-8,0-15.5-7.7-15.5-15.8
		C0,241,0,132.7,0,24.4c0-5-0.4-10.3,1.5-14.8C4.4,2.8,10.7,0.1,18,0.1c38,0,76,0,114,0c0.1,0.3,0.2,0.6,0.4,1
		c-1.1,4.2,0.7,8.2,0.7,12.3c-0.1,23.1,0,46.2,0,69.3c0,18.1,0.1,36.2,0.2,54.4c0,1.6,0,3.1,0,4.7c-7.2,12.8-12.1,26.1-11,41.1
		c0.1,0.8,0.1,1.7,0,2.5c-0.7,8.2,2.7,15.6,4.9,23.2c1.2,4.3,5.6,7.6,4.4,12.7c-0.1,3.3-0.4,6.6-0.4,9.9
		c-0.1,30.9-0.2,61.8-0.2,92.7c-1.1,6.5-1.1,12.9,0,19.4c0.1,0.7,0.3,1.4,0.4,2.1C131.5,351.6,132.6,357.9,132.2,364.2z M48,294.1
		L48,294.1c0.5,2.6,1.6,4.7,4,6l0,0c1.8,3.4,0.9,6.7-0.3,10c-2.2,3.3-4.5,6.6-6.7,9.9c-0.9,1.6-3.8,2.4-2.6,4.8
		c1.1,2,3.4,2.4,5.7,2.4c4.6,0,9.3,0.1,13.9-0.1c3.1-0.1,4.9,1.1,6.3,3.8c1.4,2.6,2,5.7,4.6,7.5c1.9,4,4.2,4.8,7.4,1.1
		c2-2.3,3.9-4.5,4.8-7.4c1.2-3.7,3.6-5.1,7.6-4.9c4.8,0.3,9.6,0.2,14.5,0c3.7-0.1,5.6-2.4,4.1-4.8c-2.9-4.6-5.9-9.2-9.3-13.4
		c-2-2.5-2.4-4.6-0.8-7.2c2.9-4.5,5.8-9,8.7-13.5c2.6-3.8,1.8-5.8-2.5-6c-4.8-0.2-9.6-0.3-14.4,0c-4,0.3-6.1-1.4-7.8-4.6
		c-1.4-2.7-2.2-6-5.3-7.6c-0.2-0.3-0.5-0.6-0.7-0.9c-0.3-1.7-0.3-3.9-2.7-3.9c-2.3,0-2.4,2.1-2.7,3.9c-0.3,0.3-0.5,0.7-0.8,1
		c-2.8,0.7-2.6,3.5-3.7,5.4c-2.4,4.4-5.3,7.2-10.9,6.6c-4.3-0.5-8.6-0.2-12.9,0c-1.8,0.1-3.7,0.8-4.2,2.9c-0.4,2,1.6,2.2,2.7,3.1
		c0.3,0.6,0.7,1.2,1,1.8C45.2,292,46.4,293.2,48,294.1z M73.1,151c0,0.3-0.1,0.6-0.1,1c-3.1,0.6-4,3.4-4.8,5.7
		c-1.3,3.7-3.5,4.8-7.1,4.6c-4.8-0.2-9.7-0.3-14.5,0c-2.5,0.1-6.6,1.3-4.7,4.3c2.6,4.3,4.9,9,8.4,12.7c3.4,3.7,3.7,6.9,0.8,11
		c-2.3,3.3-5.8,6.1-6.1,10.6c-2,0.6-4,1.6-3.5,4c0.4,2.3,2.7,2.9,4.7,2.9c4.6,0.2,9.3,0.4,13.9,0c4.6-0.4,6.9,1.8,8.9,5.5
		c1.3,2.5,1.5,6,5.1,6.8c0.2,1.9-0.2,4.4,2.4,4.6c3,0.2,3.1-2.6,3.7-4.7c3-1.6,4.4-4.6,5.5-7.5c1.3-3.6,3.4-4.8,7.1-4.7
		c5,0.2,10,0.2,14.9,0c3.7-0.1,5.3-2.5,3.7-5c-3-4.5-6-9.1-9.3-13.4c-2.3-2.9-2.2-5.2-0.2-8c2.8-3.9,5.4-7.9,8.2-11.8
		c1.2-1.6,3-3,1.7-5.2c-1.3-2.1-3.5-2.3-5.7-2.3c-4.3,0-8.6-0.1-12.9,0.1c-3.9,0.2-6.6-0.8-7.9-5c-0.8-2.5-1.4-5.7-4.9-6.4
		c0-0.3,0-0.5,0-0.8c-0.9-1.6-1.1-4.2-3.6-3.9C73.9,146.6,73.5,149,73.1,151z M108.2,49.2c1.8-0.4,3.3-1.2,2.6-3.4
		c-0.5-1.7-2.1-1.9-3.7-1.9c-5,0-10-0.2-15,0.1c-3.5,0.2-5.5-1.4-6.9-4.4c-1.2-2.6-1.3-6-4.3-7.6c-0.6-0.9-1.2-1.9-1.9-2.8
		c-0.2-1.5-0.8-3.1-2.6-2.8c-1.9,0.3-2.1,2.2-2.6,3.8c-0.3,0.3-0.6,0.7-0.9,1c-2.3,1.2-2.9,3.6-3.8,5.7c-2,4.6-4.6,7.4-10.2,6.5
		c-3.6-0.6-7.3-0.1-11-0.1c-2.6,0-5.5,0-6.5,2.6c-1.1,2.7,1.8,3.9,3.5,5.3l0,0c1.6,3.6,3.3,7.1,6.1,10.1c3,3.2,3.1,6.7,0,9.7
		c-1.6,1.6-2.1,3.3-2.4,5.2c-0.2,0.3-0.4,0.5-0.7,0.8c-1.7,1.1-3.1,2.6-3.9,4.4c-0.7,1.7-3.8,2.5-2.3,4.9c1.4,2.3,3.9,2.9,6.5,2.8
		c4.1-0.1,8.3,0.2,12.4-0.1c3.7-0.3,5.8,1.3,7.5,4.3c1.5,2.7,1.9,6.1,4.9,7.9c0.3,0.3,0.6,0.6,0.9,0.9c0.3,1.9,1,3.8,3.2,3.7
		c1.9-0.1,1.7-2.1,1.9-3.6c0.3-0.3,0.6-0.7,0.9-1c2.8-1.3,3.8-4.2,4.8-6.7c1.6-4.1,4.2-5.9,8.7-5.5c4.4,0.4,8.9,0.3,13.4,0
		c4.2-0.2,6.4-3.1,4.3-5.5c-3.3-3.8-5.1-8.5-8.6-12.1c-3.4-3.6-3.2-6.8,0-10.4c2.5-2.8,5-5.7,5.3-9.7
		C108.1,50.4,108.1,49.8,108.2,49.2z"/>
	<path id="XMLID_520_" class="st1" d="M236.1,0.1c37.3,0,74.6,0.1,111.9-0.1c7.2,0,17.2,9,17.2,17.2C365,127.6,365,238,365,348.5
		c0,7.4-8.6,16.5-16.1,16.6c-37.1,0.1-74.3,0-111.4,0c-0.9,0-2,0.3-2.6-0.9c-0.4-6.9,0.6-13.7,1-20.6c0-46,0-92-0.1-137.9
		c0-2-0.2-4-0.2-6c0.3-2.4,2-2.4,3.9-2.8c3.7-0.7,5.9-2.8,5.5-6.9c-0.3-4.1-2.7-6.2-6.5-6.9c-1.5-0.3-2.9-0.4-4.4-0.6
		c-0.1-0.5-0.1-1-0.2-1.5c0.1-0.6,0.3-1.3,0.3-1.9c0-41.9,0-83.9-0.1-125.8c0-17.4,0.1-34.9,0.8-52.3C235.4,0.7,235.7,0.4,236.1,0.1
		z M261,173.1c0.3,0.4,0.7,0.8,1,1.3c-0.1,0.2-0.1,0.3,0,0.5c-0.3,2.5,0.8,4.2,3.1,5.2l0,0c2.7,4.5,1.4,8.1-2,11.8
		c-1.8,2-2.8,4.8-4.1,7.2c-0.4,0.5-0.8,1-1.2,1.6c-0.9,1.6-3.5,2.5-2.2,5c1.3,2.5,3.8,2.3,6.1,2.3c3.7,0,7.4,0.3,11-0.1
		c5.1-0.5,7.6,1.6,9.9,6.2c1.6,3.3,2.6,8.1,7.5,8.9c1.2,0,2.3,0.1,3-1.2c1.8-3,4.1-5.8,5.4-8.9c1.7-4.1,4.3-5.3,8.5-5
		c4.5,0.3,9,0.2,13.5,0c4.4-0.2,5.5-2.5,3.2-6.1c-2.7-4.1-5.3-8.4-8.3-12.3c-2.3-3-2.1-5.4,0-8.4c2.2-3.2,5.5-5.8,5.9-10.1
		c0.3-0.6,0.7-1.2,1-1.8c2.1-0.4,3.3-1.6,2.8-3.8c-0.4-2-2.1-2.3-3.8-2.3c-4.3,0-8.6-0.3-12.9,0.1c-5.2,0.5-8.4-1.5-10.4-6.3
		c-0.9-2.3-1.5-5.3-4.7-5.9c0-0.3-0.1-0.6-0.1-0.9c0.1-2.1-0.6-4.4-2.7-4.5c-2.5-0.1-3.3,2.2-3.2,4.5c-0.4,0.7-0.7,1.3-1.1,2
		c-2.2,0.9-3.1,3-3.9,5c-1.8,4.3-4.6,6.5-9.6,6.1c-4.5-0.4-9-0.1-13.5-0.1c-1.7,0-3.5,0.3-3.9,2.3c-0.4,2.2,0.5,3.5,2.9,3.7l0,0
		C258,171.1,258.4,173,261,173.1L261,173.1z M315,300L315,300c3.4-2.5,5-6.1,6.3-10c0.2-0.3,0.5-0.6,0.7-0.9
		c1.5-1.2,3.7-2.3,2.6-4.7c-0.9-2.1-2.9-2.5-5-2.5c-4.7,0.1-9.3-0.2-14,0.1c-3.6,0.2-5.6-1.1-6.9-4.4c-1.2-3.1-2.8-6.1-5.8-7.9
		c-0.1-2.2-0.5-4.8-2.9-5.2c-2.2-0.4-2.4,2.4-3.3,3.8c-2.1,3.4-4.1,6.8-6.2,10.2c-1.5,2.5-3.6,3.6-6.7,3.4c-4.8-0.2-9.7-0.2-14.5,0
		c-4.2,0.2-5.5,2.3-3.6,5.3c3,4.5,6.1,9,9.3,13.4c1.6,2.2,2.4,4.5,0.4,6.8c-3.5,4-5.7,8.9-8.8,13.1c-0.9,1.2-2.3,2.1-1.5,3.9
		c0.9,1.8,2.5,2.5,4.6,2.5c3.3-0.1,6.7,0.3,10-0.1c6.4-0.8,10.9,0.8,13,7.5c0.6,2.1,2.7,3.7,4.1,5.6c0.5,1.9,0.8,4.5,3,4.5
		c2.3,0,2.6-2.5,3-4.4c0,0,0,0,0,0c2.8-1.6,4-4.5,5-7.2c1.7-4.9,4.8-6.5,9.8-6c3.8,0.4,7.6,0,11.4,0.1c2.3,0,4.5-0.1,5.5-2.5
		c1-2.4-1.2-3.4-2.6-4.7c-0.2-0.3-0.4-0.6-0.7-0.8c-1.6-4.2-3.4-8.3-7.3-11l0,0C312.7,305.2,313.3,302.5,315,300z M268.5,43.1
		C268.5,43.2,268.5,43.2,268.5,43.1c-3,0.1-6-0.2-9,0.1c-4.5,0.6-5.4,3.2-2.8,6.9c2.6,3.6,4.9,7.5,7.8,10.9c2.9,3.5,2.5,6.5,0.1,9.8
		c-2.8,3.9-5.6,7.8-8.4,11.7c-2.3,3.2-0.9,5,2.2,6c2.6,0.8,5.2,0.2,7.9,0c12.8-1.1,12.8-1.4,17,8c1.2,2.6,3.2,4.5,4.4,7.2
		c1.4,3.1,3.7,2.6,5-0.3c1.7-4,4.9-7,6.4-11.1c1.4-3.8,4.8-4.8,8.7-3.8c4.1,1,8.3,0.7,12.4,0.4c4.8-0.3,5.8-3.1,3.1-7
		c-3-4.2-5.8-8.5-8.8-12.6c-1.6-2.2-1.7-4,0-6.3c2.9-4,5.6-8.2,8.5-12.2c1.1-1.5,2.8-2.8,1.8-4.8c-1-2.2-3.2-2.7-5.5-2.7
		c-4.7,0-9.3-0.2-14,0.1c-3.6,0.2-5.8-1.2-6.8-4.5c-1.2-3.9-4.2-6.7-5.9-10.3c-1-2.1-3.2-3.2-4.5-0.5c-1.6,3.3-4.6,5.8-5.7,9.3
		c-1.7,5-4.8,6.8-9.8,6.1C271.1,43,269.8,43.1,268.5,43.1z"/>
	<path id="XMLID_518_" class="st2" d="M236.1,0.1c-0.4,0.3-0.7,0.7-1.1,1c-34.2,0-68.5,0-102.7,0c-0.1-0.3-0.2-0.6-0.4-1
		C166.6,0.1,201.4,0.1,236.1,0.1z"/>
	<path id="XMLID_517_" class="st0" d="M132.3,1.1c34.2,0,68.5,0,102.7,0c-0.7,17.4-0.9,34.9-0.8,52.3c0.1,41.9,0.1,83.9,0.1,125.8
		c0,0.6-0.2,1.3-0.3,1.9c-14.1,0-28.3-0.1-42.4,0c-5.8,0-7.9,2.5-7,7.8c0.4,0.8,0.4,1.5,0,2.3c-0.9,5.4,1,7.6,7,7.9
		c9.8,0.5,12.5,3.1,12.5,12.8c0,1.5,0,3,0,4.5c0,8.3-0.2,7.8-8.1,11.1c-11.1,4.7-19.3-0.6-27.6-6.6c-4.6-3.4-6.8-8.7-10.5-12.8
		c-0.7-1-0.7-2-0.3-3.1c1.7-3-2.3-4.8-1.5-7.8c0.8-2.9-0.7-5.4-3.3-7.1c-0.8-6.7-0.8-13.3,0-20c1.8-0.8,3.2-2.6,3.1-4.2
		c-0.3-7.3,4.2-12.6,7-18.6c4.1-8.8,17-16,26.2-14c3.2,0.7,6,3.6,9.2,4.6c4.4,1.4,6.7,4.4,8.6,8.2c1.6,3.1,2.3,6.9,5.5,9.1
		c0.5,0.7,0.5,1.4,0.2,2.1c-1.8,2.5,1,3.9,1.6,5.8c1.8,5.3,6,7.3,11.5,6c4.8-1.2,6.4-4.6,6.4-9.4c-0.1-11.3,0-22.6,0-33.9
		c0-9.7-6.7-13.6-15.1-8.8c-1.7,1-3.1,1.5-5,0.5c-5.6-3.1-11.5-4.8-17.9-4.3c-8.5,0.6-16.9-0.4-25.6,1.6c-7,1.6-12.7,5.1-18.7,8.3
		c-6.4,3.5-11.1,9.2-16.5,14c-0.1-18.1-0.1-36.2-0.2-54.4c0-23.1-0.1-46.2,0-69.3C133,9.2,131.1,5.2,132.3,1.1z"/>
	<path id="XMLID_511_" class="st3" d="M235.6,199.7c-4,0.3-5.1,2.6-4.9,6.4c0.3,8,0.1,16,0.1,24c0,5.4-3.7,10.1-9,10.7
		c-3.3,0.4-6.4,1.9-9.3,3.1c-12.2,5.1-24.9,5.7-37.4,4.3c-10.4-1.2-21.1-3.8-28.9-12.1c-4.8-5-9.8-9.9-14.6-14.8
		c1.2-5.2-3.2-8.4-4.4-12.7c-2.2-7.6-5.6-15-4.9-23.2c0.1-0.8,0.1-1.7,0-2.5c-1.2-15,3.8-28.3,11-41.1c1.7-4.3,5.3-7.1,8.2-10.4
		c2.5-2.9,6.2-3.9,8.8-6.3c7.4-6.8,16.9-9.4,26-10.5c12.1-1.4,24.8-2.3,36.2,4.5c2,1.2,4,0.7,5.9-0.9c2.7-2.3,6-2,8.9-0.6
		c2.8,1.3,3.6,4,3.6,7.1c-0.1,11.6-0.1,23.3,0,34.9c0,4-1.4,6.9-5.5,7.7c-4.1,0.8-7.6-0.2-9.5-4.4c-0.9-1.9-2.1-3.7-3.1-5.6
		c0.3-0.7,0.3-1.5-0.2-2.1c-2.7-10-7.8-17.5-18.3-21.3c-9.5-3.5-26.5,0.5-31.2,9.1c-4.7,8.6-8.8,17.4-10.3,27.2
		c-0.7,6.7-0.8,13.3,0,20c-0.3,2.9,2.7,4.8,2.1,7.8c-0.6,2.8,0.8,5.1,2.7,7c-0.3,1.1-0.4,2.1,0.3,3.1c2.4,11.9,20.8,25.1,34.4,22.7
		c2.7-0.5,4.5-2.6,7.4-2.7c3.7-0.1,5.7-2.5,5.7-6.2c0.1-5.8,0-11.7,0-17.5c0-1.3,0.1-3.4-1.3-3.4c-3.8-0.1-6.6-3.4-10.3-3.1
		c-5,0.4-7.7-2.1-9.1-6.6c0.4-0.8,0.4-1.5,0-2.3c1.4-4.9,4.7-6.6,9.7-6.5c13.3,0.3,26.6,0.1,39.9,0.1c1.5,0.2,2.9,0.4,4.4,0.6
		c3.8,0.7,6.2,2.8,6.5,6.9c0.3,4.1-1.9,6.2-5.5,6.9C237.6,197.2,235.9,197.3,235.6,199.7z M210.5,231.1c4.7-0.5,6.1-4.5,6.3-7.8
		c0.4-5.9-0.5-11.9-0.9-17.8c-0.1-1.3-1-2.2-2.3-2.2c-1.6,0-2.4,1.1-2.5,2.5c-0.2,6.4-0.4,12.8-0.5,19.3c-2.2,6-10.6,10.8-17.9,10.3
		c-4.5-0.3-8.9,0-13,1.9c2.1,0.8,4.2,1.4,6.3,1.5C195.1,239.4,203.7,238.1,210.5,231.1z M188.7,119c-10-0.2-18.6,1.1-27.1,5.4
		c-7.4,3.8-14.2,7.9-20.1,13.6c-0.8,0.8-1.8,1.6-2.2,2.6c-2.2,6-6.6,10.7-8.4,17.3c-2,7.6-5.1,14.6-3.1,22.7c0.2,0.9,0,2,0.1,3
		c0.2,1.5-0.9,3.9,1.5,4.1c2.5,0.2,3.4-2.4,3.3-4.2c-0.3-6,1.8-11.5,3.3-17c2.7-9.9,6.6-19.2,13.8-26.8c7-7.4,14.5-13.7,25.2-16
		c12.5-2.8,23.7-0.9,34.3,5.7c6.6,4.1,9.3,3.7,13-3.1c0.6-1.2,2.5-2.6,0.8-3.9c-1.5-1.1-2.6,0.7-3.7,1.6c-1.8,1.5-2.9,3.7-6.2,1.9
		C205.4,121.5,197.3,117.6,188.7,119z M231.3,189c-6.7-2.8-34.9-2.4-39.9,0.3c0.5,0.3,0.8,0.7,1.2,0.7c7.2,0,14.1,1.4,20.6,4.7
		c1.5,0.8,3.2,0.6,4.8,0C222.2,192.8,226.4,191,231.3,189z"/>
	<path id="XMLID_510_" class="st4" d="M109.9,288.1c-2.9,4.5-5.8,9-8.7,13.5c-1.6,2.6-1.3,4.7,0.8,7.2c3.4,4.2,6.4,8.8,9.3,13.4
		c1.5,2.4-0.4,4.7-4.1,4.8c-4.8,0.2-9.7,0.3-14.5,0c-3.9-0.2-6.4,1.2-7.6,4.9c-0.9,2.9-2.9,5.1-4.8,7.4c-3.2,3.7-5.4,2.9-7.4-1.1
		c0.6-4.1-3.6-7-3-11.1c1.9,1.7,2.7,4.1,3.7,6.3c0.7,1.7,0.9,4.1,2.8,4.3c2.4,0.3,2.1-2.5,2.9-4c3.2-6,5.7-12.6,14.7-11.6
		c3.4,0.4,8.7,1.9,10.2-0.9c1.6-3-2.9-6.2-4.8-9.2c-4.7-7.4-4.9-7.4-0.2-14.3c1.2-1.8,2.5-3.5,3.6-5.4c0.8-1.4,2.3-2.8,1.7-4.5
		c-0.8-1.9-2.9-1-4.5-1.1c-2.5-0.1-5-0.3-7.5,0.1c-4.2,0.6-7.1-0.9-9.1-4.5c0.2-0.2,0.4-0.3,0.5-0.5c5.6,5.1,12.5,3.6,18.8,2.8
		C107,284.1,108.6,285,109.9,288.1z"/>
	<path id="XMLID_509_" class="st2" d="M212.6,157.2c1,1.9,2.2,3.7,3.1,5.6c2,4.2,5.4,5.2,9.5,4.4c4.1-0.8,5.5-3.7,5.5-7.7
		c-0.1-11.6-0.1-23.3,0-34.9c0-3.1-0.8-5.8-3.6-7.1c-2.9-1.4-6.2-1.7-8.9,0.6c-1.9,1.7-4,2.1-5.9,0.9c-11.4-6.7-24.1-5.9-36.2-4.5
		c-9.1,1.1-18.6,3.7-26,10.5c-2.6,2.4-6.3,3.4-8.8,6.3c-2.9,3.3-6.4,6.2-8.2,10.4c0-1.6,0-3.1,0-4.7c5.4-4.8,10.1-10.6,16.5-14
		c6-3.2,11.7-6.7,18.7-8.3c8.6-2,17.1-1,25.6-1.6c6.4-0.5,12.4,1.2,17.9,4.3c1.9,1.1,3.3,0.5,5-0.5c8.4-4.8,15.1-0.9,15.1,8.8
		c0,11.3-0.1,22.6,0,33.9c0.1,4.8-1.5,8.2-6.4,9.4c-5.5,1.3-9.6-0.7-11.5-6C213.6,161.1,210.8,159.7,212.6,157.2z"/>
	<path id="XMLID_508_" class="st3" d="M80,150.9c3.4,0.7,4.1,3.9,4.9,6.4c1.4,4.2,4,5.2,7.9,5c4.3-0.2,8.6,0,12.9-0.1
		c2.2,0,4.4,0.3,5.7,2.3c1.4,2.2-0.5,3.6-1.7,5.2c-2.8,3.9-5.4,7.9-8.2,11.8c-2.1,2.8-2.1,5.1,0.2,8c3.4,4.2,6.3,8.8,9.3,13.4
		c1.7,2.5,0,4.9-3.7,5c-5,0.2-10,0.2-14.9,0c-3.7-0.2-5.8,1.1-7.1,4.7c-1,2.9-2.5,5.8-5.5,7.5c0,0,0,0,0,0c0.3-2.4,0.7-4.8,1-7.2
		c0,0-0.1-0.3-0.1-0.3l0.3-0.2c1.8-0.4,2.1-1.7,1.8-3.3l0,0c0.9-0.2,1.2-0.8,1.1-1.7l0.2-0.3c0.3-0.3,0.5-0.5,0.8-0.8l0.2-0.2
		c0.3-0.3,0.5-0.5,0.8-0.8l0.2-0.2c6.1,0,12.2,0,18.3,0c1.4,0,3.2,0.3,3.4-1.8c0.2-2-0.8-3.1-2.9-3.1l0,0c-0.2-0.4-0.5-0.8-0.7-1.2
		c-0.3-0.1-0.4-0.4-0.3-0.6c-0.2-0.4-0.5-0.8-0.7-1.1L103,197l0-0.3c0.1-1.5-0.1-2.7-2-2.7l0-0.1c0.1-1.5,0.2-2.9-1.9-2.9L99,191
		c0-0.6-0.2-0.9-0.8-0.9l-0.1-0.2c-0.4-2.6-0.7-5.2-1.1-7.8l0,0c3.8-0.8,4.8-3.6,5-6.9l0,0c0.3-0.3,0.6-0.7,0.9-1l0,0
		c2.7-0.2,2-2.2,2.1-3.7l0.1-0.2c2-0.2,3.6-1.3,3.4-3.4c-0.2-1.6-1.9-1.8-3.2-1.4c-6,1.7-12.2,0.3-18.3,0.9l0,0
		c-0.3-0.3-0.7-0.7-1-1l0,0c-0.3-0.3-0.7-0.7-1-1l0,0c-0.3-0.3-0.6-0.7-1-1l0,0c-0.2-3-0.8-5.7-3.9-7L80,156
		c0.2-0.9-0.1-1.6-0.9-2.1c-0.3-0.1-0.3-0.3-0.2-0.5C79.3,152.5,79.7,151.7,80,150.9z"/>
	<path id="XMLID_507_" class="st3" d="M108,51c-0.3,4-2.9,6.9-5.3,9.7c-3.2,3.6-3.4,6.9,0,10.4c3.4,3.6,5.3,8.3,8.6,12.1
		c2.1,2.5-0.1,5.3-4.3,5.5c-4.5,0.2-9,0.3-13.4,0c-4.5-0.4-7.1,1.4-8.7,5.5c-1,2.5-2,5.4-4.8,6.7c0-1.9,0-3.9,0-5.8
		c0,0,0.1-0.2,0.1-0.2c2.6-0.3,1.9-2.2,1.9-3.8l0.1-0.2c2-0.1,2.1-1.4,1.9-2.9l0.1-0.1c0.6,0,0.9-0.4,0.9-1l0.1-0.1
		c0.6,0,0.9-0.3,0.9-1l0-0.1c0.6,0,0.9-0.3,0.9-1l0.1,0c5.7,0.6,11.5-0.7,17.2,0.9c1.5,0.4,3.2,0.1,3.6-1.7c0.5-2-0.6-3.1-2.7-3.1
		L105,81c-0.2-0.3-0.4-0.7-0.7-1c-0.3-0.2-0.4-0.5-0.3-0.8c0.2-1.6,0.1-3-2.1-3l0,0c0-0.6-0.2-0.9-0.8-1l-0.1-0.2
		c0.1-0.9-0.1-1.5-1-1.8l0-0.1c0.1-0.6-0.1-0.9-0.7-1L99,72l0-0.3c-0.2-0.2-0.4-0.4-0.6-0.6c-0.3,0-0.4-0.1-0.4-0.4
		c-0.2-0.2-0.4-0.5-0.6-0.7c-0.3-0.1-0.5-0.3-0.4-0.6c0.4-2.6,0.7-5.3,1.1-7.9l0-0.3l0.3,0c0.2-0.2,0.4-0.5,0.7-0.7l0.2-0.3
		c0.6-0.1,0.8-0.4,0.8-1l0,0c1-0.3,1.2-1,1-1.9l0.1-0.1c0.3-0.3,0.6-0.7,0.9-1l0,0c2.2,0,2.2-1.4,2.1-3c-0.1-0.3,0-0.6,0.3-0.8
		c0.2-0.4,0.5-0.7,0.7-1.1l0-0.1C106.1,51.1,107,51,108,51z"/>
	<path id="XMLID_506_" class="st3" d="M45,201c0.3-4.5,3.8-7.3,6.1-10.6c2.8-4.1,2.6-7.3-0.8-11c-3.5-3.7-5.8-8.4-8.4-12.7
		c-1.8-3.1,2.2-4.2,4.7-4.3c4.8-0.3,9.7-0.3,14.5,0c3.7,0.2,5.9-0.9,7.1-4.6c0.8-2.3,1.7-5.1,4.8-5.7c0,1.7,0,3.5,0.1,5.2
		c0.1,0.3,0,0.6-0.3,0.7c-0.2,0.4-0.5,0.8-0.7,1.2c0,0,0,0.1,0,0.1c-1,0.3-1.2,1-1,1.9l0,0.1c-0.9,0.3-1.1,0.9-1,1.7
		c0,0-0.2,0.2-0.2,0.2c-0.3,0.3-0.5,0.6-0.8,0.8c0,0-0.2,0.2-0.2,0.2c-0.3,0.3-0.6,0.6-0.8,0.8c0,0-0.2,0.2-0.2,0.2
		c-0.3,0.3-0.6,0.6-0.8,0.8l-0.2,0.1c-6.3-0.3-12.6,0.6-18.9-0.5c-2-0.3-3.5,0.9-2.7,2.3c1.9,3.2,2.7,7.7,7.5,8.5
		c0.3,0.1,0.4,0.4,0.2,0.6c0.1,4.5,5.2,8.2,2.1,13.2l0,0c-3.5,0.2-3,2.7-3,5l0,0c-0.3,0.3-0.7,0.7-1,1l0,0
		C47.6,196,47.8,200.4,45,201L45,201z"/>
	<path id="XMLID_505_" class="st4" d="M45,290c-0.3-0.6-0.7-1.2-1-1.8c1.6-1,0.4-4.9,3.9-4c6.3,1.7,12.8,0.3,19.2,0.9
		c-1.1,2-3,1.7-4.8,1.6c-3.3-0.1-6.6-0.1-10-0.1c-1.3,0-2.9-0.5-3.7,0.7c-1,1.6,0.7,2.7,1.4,3.9c2,3,4,6.1,6.3,8.9
		c2.3,2.9,2.6,5.4,0.1,8.4c-2.5,3.1-4.5,6.5-6.8,9.8c-2.2,3-1.2,4,2.2,3.9c3.5-0.1,7,0,10.5-0.1c2.4,0,4.7,0.3,5.9,2.8
		c-6.2-0.9-12.3-1.5-18.5-0.1c-4,0.9-4.8-1.7-4.5-5c2.2-3.3,4.5-6.6,6.7-9.9c2.9-1.2,4.4-3.5,4.2-6.6c-0.2-2.1-1.3-3.8-3.9-3.4
		c0,0,0,0,0,0c0.2-3.1-0.4-5.5-4-6c0,0,0,0,0,0C48.2,291.8,47.7,290.1,45,290z"/>
	<path id="XMLID_504_" class="st4" d="M80,95.2c0,1.9,0,3.9,0,5.8c-0.3,0.3-0.6,0.7-0.9,1c-1.7,0-3.4-0.1-5.1-0.1
		c-0.3-0.3-0.6-0.6-0.9-0.9c0-1,0.1-2-0.1-3c-0.9-5.9-5.6-11.8-9.6-12c-4.8-0.2-9.6,0-14.4,0.2c-1.3,0.1-2.7,1-3.5-0.7
		c-0.7-1.6-1-3.3,0.7-4.5c1.5-1.1,2-2.5,1.8-4.3c0.2-0.3,0.4-0.5,0.7-0.8c3.6,0.3,2.7-5.2,6.3-4.9c-0.9,1.7-1.7,3.6-2.8,5.2
		c-1.4,2.1-4.7,4.1-3.5,6.5c1.3,2.5,4.9,0.7,7.4,1.1c0.3,0.1,0.7,0,1,0c10.3,0,12.6,1.5,16.7,11c0.7,1.6,0.6,3.9,2.9,4.1
		C79.3,99.2,78.3,96,80,95.2z"/>
	<path id="XMLID_503_" class="st3" d="M73.9,220.2c-3.6-0.8-3.8-4.3-5.1-6.8c-2-3.7-4.3-5.9-8.9-5.5c-4.6,0.4-9.2,0.2-13.9,0
		c-2-0.1-4.3-0.7-4.7-2.9c-0.4-2.3,1.5-3.4,3.5-4c0,0,0.1,0.1,0.1,0.1c-0.5,3.4,1.3,4,4.3,4.1c6.6,0.1,13.4-1.4,19.8,1.8l0,0
		c0.3,0.3,0.7,0.7,1,1l0,0c0,4.4,3.5,7.7,3.9,12.1L73.9,220.2z"/>
	<path id="XMLID_502_" class="st3" d="M48,76.8c0.2,1.8-0.3,3.2-1.8,4.3c-1.6,1.2-1.4,2.9-0.7,4.5c0.8,1.6,2.2,0.7,3.5,0.7
		c4.8-0.2,9.6-0.4,14.4-0.2c4.1,0.1,8.7,6.1,9.6,12c0.2,1,0.1,2,0.1,3c-2.9-1.8-3.4-5.2-4.9-7.9c-1.7-3-3.7-4.6-7.5-4.3
		c-4.1,0.4-8.3,0.1-12.4,0.1c-2.6,0-5.1-0.5-6.5-2.8c-1.5-2.4,1.6-3.2,2.3-4.9C44.9,79.4,46.4,78,48,76.8z"/>
	<path id="XMLID_501_" class="st4" d="M79.1,29.2c0.6,0.9,1.2,1.9,1.9,2.8c-1.6,1.3-0.5,3.2-0.9,4.8c-1.7-0.8-0.8-4-3.3-3.7
		c-2.3,0.2-2.3,2.6-2.9,4.2c-3,7.3-7.2,12.7-16.3,11c-1.1-0.2-2.3,0-3.5,0c-6.6,0-6.6,0-3.9,5.8c-2.5,0.4-2.6-3.4-5.1-2.9
		c0,0,0,0,0,0c-0.3-3.9,0-6.5,5.3-5.2c3.6,0.9,7.6,0,11.4,0.3c3.3,0.3,5.5-1.2,7.2-3.6c2.3-3.4,4.6-7,4.1-11.5
		c0.3-0.3,0.6-0.7,0.9-1C75.7,29.9,77.6,30.7,79.1,29.2z"/>
	<path id="XMLID_500_" class="st3" d="M73.1,31.1c0.5,4.5-1.8,8-4.1,11.5c-1.6,2.4-3.9,3.9-7.2,3.6c-3.8-0.3-7.8,0.6-11.4-0.3
		c-5.3-1.3-5.6,1.3-5.3,5.2c-1.7-1.5-4.6-2.6-3.5-5.3c1.1-2.6,4-2.6,6.5-2.6c3.7,0,7.4-0.4,11,0.1c5.6,0.9,8.2-1.9,10.2-6.5
		C70.2,34.7,70.8,32.3,73.1,31.1z"/>
	<path id="XMLID_499_" class="st3" d="M67,285.1c-6.4-0.5-12.8,0.8-19.2-0.9c-3.5-0.9-2.2,3-3.9,4c-1-0.9-3.1-1.2-2.7-3.1
		c0.5-2.1,2.4-2.8,4.2-2.9c4.3-0.2,8.7-0.5,12.9,0c5.6,0.6,8.5-2.2,10.9-6.6c1-1.9,0.8-4.7,3.7-5.4c0.8,4.4-3.8,7.5-3,11.9l-0.1,0.1
		c-0.6,0.1-0.9,0.4-0.9,1l0,0c-0.6,0-0.9,0.4-1,1l0,0C67.4,284.1,67.1,284.5,67,285.1L67,285.1z"/>
	<path id="XMLID_498_" class="st3" d="M80,36.8c0.4-1.6-0.7-3.4,0.9-4.8c3,1.7,3.1,5,4.3,7.6c1.5,3.1,3.4,4.6,6.9,4.4
		c5-0.2,10-0.1,15-0.1c1.6,0,3.2,0.2,3.7,1.9c0.6,2.1-0.8,3-2.6,3.4c-0.1-1.8-0.5-3.6-2.8-3c-6.1,1.5-12.2,0.3-18.3,0.9L87,47
		c0-0.6-0.3-0.9-0.9-0.9L86,46c0-0.6-0.3-0.9-0.9-0.9L85,45c0-0.6-0.3-0.9-0.9-0.9L84,43.9c-0.3-2.8-0.9-5.5-3.9-6.9L80,36.8z"/>
	<path id="XMLID_497_" class="st3" d="M109.9,288.1c-1.3-3.1-2.9-4-6.7-3.5c-6.3,0.8-13.2,2.4-18.8-2.8c-0.7-4.2-4.1-7.5-4.4-11.9
		c3,1.6,3.9,4.9,5.3,7.6c1.7,3.3,3.8,5,7.8,4.6c4.8-0.4,9.6-0.3,14.4,0C111.7,282.3,112.5,284.3,109.9,288.1z"/>
	<path id="XMLID_496_" class="st3" d="M45,319.9c-0.2,3.2,0.5,5.9,4.5,5c6.2-1.4,12.3-0.8,18.5,0.1c0,0,0,0.1,0,0.1
		c0,0.6,0.4,0.9,1,1l0,0c0.3,0.3,0.6,0.7,0.9,1l0,0c-0.7,4.2,3.6,7,3,11.1c-2.7-1.8-3.3-4.9-4.6-7.5c-1.4-2.6-3.2-3.9-6.3-3.8
		c-4.6,0.2-9.3,0-13.9,0.1c-2.2,0-4.6-0.3-5.7-2.4C41.2,322.3,44.2,321.5,45,319.9z"/>
	<path id="XMLID_495_" class="st3" d="M45,51c2.5-0.5,2.7,3.3,5.1,2.9c0,0,0,0.1,0,0.1c0,0.6,0.3,1,0.9,1l0,0c0,0.6,0.4,0.9,1,1l0,0
		c0,2.3-0.5,4.8,3,5l0,0c0.9,3.3,0.9,6.7,0,10l0,0.1c-3.6-0.3-2.7,5.3-6.3,4.9c0.3-2,0.8-3.6,2.4-5.2c3-3,2.9-6.5,0-9.7
		C48.3,58.2,46.7,54.6,45,51z"/>
	<path id="XMLID_494_" class="st4" d="M80,269.9c0.2,4.4,3.7,7.7,4.4,11.9c-0.2,0.1-0.4,0.3-0.5,0.5c-2.5-2.3-3.2-5.6-4.8-8.5
		c-0.5-1-0.6-2.4-2-2.5c-1.7-0.1-2,1.5-2.5,2.6c-1.2,2.8-2.2,5.8-4.4,8.1c-0.8-4.4,3.8-7.5,3-11.9c0.3-0.3,0.5-0.7,0.8-1
		c1.8,0,3.6,0,5.4,0C79.5,269.3,79.8,269.6,80,269.9z"/>
	<path id="XMLID_493_" class="st4" d="M87.1,47.1c6.1-0.6,12.2,0.7,18.3-0.9c2.4-0.6,2.7,1.2,2.8,3c0,0.6-0.1,1.2-0.2,1.8
		c-1,0-2,0-3,0c0.5-3.1-1.6-2.8-3.6-3C96.7,47.6,91.7,49.6,87.1,47.1z"/>
	<path id="XMLID_492_" class="st3" d="M52,300c2.6-0.3,3.7,1.4,3.9,3.4c0.2,3-1.2,5.3-4.2,6.6C52.9,306.7,53.8,303.4,52,300z"/>
	<path id="XMLID_491_" class="st3" d="M80,220c-0.6,2.1-0.8,5-3.7,4.7c-2.5-0.2-2.2-2.8-2.4-4.6c0,0,0.1-0.1,0.1-0.1
		C76,220.8,78,220.8,80,220L80,220z"/>
	<path id="XMLID_490_" class="st4" d="M73.1,157.2c0-1.7,0-3.5-0.1-5.2c0-0.3,0-0.6,0.1-1c2.3-0.5,4.5-1.4,6.9-0.9
		c0,0.3,0,0.5,0,0.8c-0.4,0.8-0.7,1.6-1.1,2.4C73.8,149.8,75.2,156.1,73.1,157.2z"/>
	<path id="XMLID_489_" class="st3" d="M80,150.1c-2.4-0.5-4.6,0.4-6.9,0.9c0.4-2.1,0.8-4.5,3.3-4.8C78.9,145.9,79.1,148.5,80,150.1z
		"/>
	<path id="XMLID_488_" class="st5" d="M130.9,323.9c0.6,6.5,0.7,13,0,19.4C129.8,336.8,129.7,330.3,130.9,323.9z"/>
	<path id="XMLID_487_" class="st3" d="M79.3,269c-1.8,0-3.6,0-5.4,0c0.2-1.8,0.4-3.9,2.7-3.9C78.9,265.1,79,267.3,79.3,269z"/>
	<path id="XMLID_486_" class="st3" d="M79.1,29.2c-1.5,1.6-3.4,0.8-5.2,0.9c0.4-1.5,0.6-3.5,2.5-3.8C78.3,26,78.8,27.6,79.1,29.2z"
		/>
	<path id="XMLID_485_" class="st3" d="M74,101.9c1.7,0,3.4,0.1,5.1,0.1c-0.2,1.4,0.1,3.4-1.9,3.6C75,105.8,74.3,103.9,74,101.9z"/>
	<path id="XMLID_484_" class="st3" d="M48,294c3.6,0.5,4.2,3,4,6C49.7,298.8,48.5,296.6,48,294z"/>
	<path id="XMLID_483_" class="st3" d="M45,290c2.6,0.1,3.2,1.8,3,4C46.4,293.2,45.2,292,45,290z"/>
	<path id="XMLID_480_" class="st4" d="M268.5,43.1c1.3,0,2.7-0.2,4,0c5,0.7,8.2-1.1,9.8-6.1c1.2-3.4,4.1-5.9,5.7-9.3
		c1.3-2.7,3.5-1.6,4.5,0.5c1.7,3.6,4.7,6.5,5.9,10.3c1,3.2,3.3,4.7,6.8,4.5c4.7-0.2,9.3-0.1,14-0.1c2.3,0,4.4,0.5,5.5,2.7
		c0.9,2-0.8,3.3-1.8,4.8c-2.9,4-5.6,8.2-8.5,12.2c-1.7,2.2-1.6,4.1,0,6.3c3.1,4.1,5.8,8.4,8.8,12.6c2.8,3.9,1.7,6.7-3.1,7
		c-4.1,0.3-8.3,0.6-12.4-0.4c-3.9-1-7.3,0.1-8.7,3.8c-1.5,4.1-4.7,7.2-6.4,11.1c-1.3,2.8-3.6,3.4-5,0.3c-1.2-2.7-3.2-4.6-4.4-7.2
		c-4.2-9.4-4.2-9.1-17-8c-2.7,0.2-5.3,0.8-7.9,0c-3-1-4.5-2.9-2.2-6c2.9-3.9,5.6-7.8,8.4-11.7c2.4-3.3,2.9-6.3-0.1-9.8
		c-2.9-3.4-5.2-7.3-7.8-10.9c-2.6-3.7-1.7-6.3,2.8-6.9C262.4,42.9,265.5,43.2,268.5,43.1C268.5,43.2,268.5,43.2,268.5,43.1z
		 M308.1,83.9c2.5,0,4,0.1,5.5,0c1.5-0.2,3.6,1,4.5-1c0.7-1.7-0.6-3.4-1.7-4.5c-8.6-8.3-8.7-16.5,0-24.8c1.1-1,2.4-2.8,1.7-4.5
		c-0.8-2-2.9-0.9-4.4-1c-2-0.2-4-0.3-6,0c-6.7,1.2-10.2-2.5-12.9-7.7c-0.5-1-0.8-2.2-1.5-3.1c-1-1.4-0.7-4.1-2.9-4.2
		c-2.6-0.1-2.6,2.7-3.3,4.3c-3.1,7.4-7.4,12.6-16.5,10.7c-1.1-0.2-2.3-0.1-3.5,0c-1.6,0.2-3.6-0.9-4.7,0.7c-1.3,1.9,0.6,3.5,1.5,4.9
		c8.3,12.3,8.3,12.3,0,24.6c-0.9,1.3-2.4,2.7-1.7,4.5c0.8,2.1,2.9,1,4.4,1.1c2.3,0.2,4.7,0.4,7,0c5.6-0.9,8.8,2,11.2,6.3
		c0.9,1.6,1.5,3.3,2.5,4.9c0.8,1.5,0.7,4,3.1,3.9c2.1-0.1,2-2.5,2.7-3.8C296.2,88.3,299.4,81.6,308.1,83.9z"/>
	<path id="XMLID_479_" class="st4" d="M287,340c-1.4-1.8-3.4-3.5-4.1-5.6c-2.1-6.7-6.6-8.3-13-7.5c-3.3,0.4-6.7,0-10,0.1
		c-2,0-3.6-0.6-4.6-2.5c-0.9-1.7,0.6-2.7,1.5-3.9c3.1-4.3,5.3-9.1,8.8-13.1c2-2.3,1.2-4.6-0.4-6.8c-3.2-4.4-6.3-8.9-9.3-13.4
		c-2-2.9-0.6-5.1,3.6-5.3c4.8-0.2,9.7-0.2,14.5,0c3,0.1,5.2-1,6.7-3.4c2.1-3.4,4.1-6.8,6.2-10.2c0.9-1.5,1.1-4.2,3.3-3.8
		c2.4,0.4,2.8,3,2.9,5.2c-0.1,1.5,0.6,2.7,1.1,4.1c1.1,3.1,4.2,5.4,3.8,9.2c-3-1.7-3.4-5.1-5-7.7c-0.9-1.4-0.7-4.2-3.1-4
		c-1.8,0.2-1.9,2.5-2.7,3.9c-0.4,0.7-0.7,1.5-1,2.3c-2.8,6.3-6.8,10.6-14.5,9.2c-1.9-0.4-4,0.1-6-0.1c-4.6-0.4-4.4,1.6-2.5,4.6
		c0.5,0.8,1.2,1.6,1.8,2.4c7.7,9.9,7.7,9.9,1.1,20.3c-0.6,1-1.5,1.8-2.1,2.8c-0.8,1.4-2.6,2.7-1.9,4.4c0.8,2,2.9,0.9,4.4,1
		c2.5,0.2,5,0.3,7.5,0c4.5-0.7,7.4,1.6,9.6,5c1.7,2.6,2.9,5.6,4.3,8.4c0.5,1,0.9,2.4,2.3,2.2c1.1-0.1,1.3-1.3,1.8-2.2
		c1.6-2.8,2.2-6.3,4.9-8.5c0.3,1.7-0.3,3.1-1,4.7c-1.2,2.7-3,5.2-2.9,8.3c0,0,0,0,0,0C291,340,289,340,287,340z"/>
	<path id="XMLID_478_" class="st4" d="M290,223c-4.9-0.9-5.9-5.6-7.5-8.9c-2.2-4.6-4.7-6.7-9.9-6.2c-3.6,0.4-7.3,0.1-11,0.1
		c-2.4,0-4.8,0.2-6.1-2.3c-1.3-2.5,1.3-3.4,2.2-5c0.3-0.6,0.8-1.1,1.2-1.6c2.7,0.6,2.9-3.5,5.5-2.9c-3.5,7-3.5,7,4.5,7
		c1.3,0,2.7,0.2,4,0c6.2-1.1,9.6,2.2,12.2,7.1c0.8,1.5,1.4,3,2.1,4.5c0.7,1.3,0.7,3.1,2.5,3.5c2.4,0.5,2-2.3,3.4-3
		C293.7,218.4,291.6,220.6,290,223z"/>
	<path id="XMLID_477_" class="st3" d="M290,223c1.6-2.4,3.7-4.6,3-7.9c0,0,0.1-0.1,0.1-0.1c2.7-0.3,1.9-2.3,1.9-4l0-0.1
		c2.1-0.1,2.1-1.5,1.9-3l0,0c4.1-2.7,8.7-3.4,13.5-3c2.3,0.2,4.6,0.1,7,0.1c1.4,0,3.2,0.4,3.5-1.8c0.2-1.9-0.7-3.2-2.8-3.3l-0.1-0.2
		c0.1-2.3,0.2-4.6-3.1-4.8l0,0c0.1-1.5,0.2-3-1.9-3l0-0.1c-0.2-3.7-4.1-6.8-2-11l0-0.1c0.6,0,0.9-0.4,0.9-1l0,0
		c2.4-0.1,2.1-1.7,2-3.3l0-0.3l0.3-0.2c0.3-0.4,0.5-0.8,0.8-1.1l0.1-0.1c0.6,0,0.9-0.3,0.9-1l0.1-0.1c2.2,0,2.1-1.5,1.9-3
		c0,0,0-0.1,0-0.1c1,0,2.1,0.1,3.1,0.1c-0.4,4.3-3.7,6.9-5.9,10.1c-2.2,3.1-2.3,5.4,0,8.4c3,3.9,5.6,8.2,8.3,12.3
		c2.3,3.6,1.2,5.9-3.2,6.1c-4.5,0.2-9,0.3-13.5,0c-4.2-0.3-6.8,1-8.5,5c-1.3,3.2-3.6,5.9-5.4,8.9C292.3,223.1,291.2,223,290,223z"/>
	<path id="XMLID_476_" class="st4" d="M322,289.2c-0.2,0.3-0.5,0.6-0.7,0.9c-3.5,2.4-6.4,5.3-6.3,10c0,0,0,0,0,0
		c-2.7,0.3-4,1.9-4,4.5c0,2,0.8,3.4,3,3.5c0,0,0,0,0,0c0.4,5,3.6,8.2,7.3,11c0.2,0.3,0.4,0.6,0.7,0.8c0.6,4.2-1.2,5.5-5.3,5.2
		c-5.9-0.4-11.8-0.2-17.8-0.2c0.9-2.6,3-2.7,5.2-2.7c3.3,0,6.6,0.1,10,0c4.6,0,5-0.7,2.4-4.7c-1.9-2.9-3.8-5.8-6-8.5
		c-2.5-3.1-2.4-5.9,0-9c2.4-3.1,4.5-6.5,6.7-9.8c1.7-2.6,0.7-3.6-2.1-3.5c-3.6,0.1-7.3,0.1-11,0.2c-2.2,0-4.4,0-5.3-2.7
		c5.9,1.5,12,1.5,17.8,0.5C321.5,283.9,322.4,285.1,322,289.2z"/>
	<path id="XMLID_475_" class="st3" d="M293.1,150.9c3.2,0.6,3.8,3.6,4.7,5.9c2,4.8,5.1,6.8,10.4,6.3c4.3-0.4,8.6-0.1,12.9-0.1
		c1.8,0,3.4,0.3,3.8,2.3c0.5,2.2-0.7,3.4-2.8,3.8c-1.6-1-0.4-4.9-3.9-4c-6,1.6-12.1,0.3-18.2,0.9l0-0.1c0-0.6-0.3-0.9-0.9-1L299,165
		c0-0.6-0.3-0.9-0.9-0.9L298,164c0-0.6-0.3-0.9-0.9-0.9l-0.1-0.1c-0.2-0.3-0.5-0.7-0.7-1c-0.3-0.1-0.4-0.3-0.3-0.6
		c0.2-1.6,0-3-1.8-3.5l-0.2-0.2l0.1-0.3c0.2-1.6,0.1-3-1.8-3.5c-0.3-0.2-0.3-0.4-0.2-0.7C292.4,152.4,292.7,151.7,293.1,150.9z"/>
	<path id="XMLID_474_" class="st2" d="M234.2,182.5c-13.3,0-26.6,0.2-39.9-0.1c-5.1-0.1-8.3,1.6-9.7,6.5c-0.9-5.3,1.1-7.8,7-7.8
		c14.1-0.1,28.3,0,42.4,0C234,181.6,234.1,182.1,234.2,182.5z"/>
	<path id="XMLID_473_" class="st4" d="M293.1,150.9c-0.4,0.7-0.7,1.5-1.1,2.2c-4-2.9-4.1,1.1-4.8,2.9c-3.1,7.9-7.6,13.3-17.1,11.3
		c-1.4-0.3-3,0.1-4.5-0.1c-4.6-0.4-4.4,1.6-2.4,4.6c1.7,2.6,4,4.9,4.9,8c-1,0-2,0.1-3.1,0.1c0,0,0,0,0,0c0.6-2.7-0.8-4.2-3.1-5.2
		c0-0.2,0-0.3,0-0.5c-0.3-0.4-0.7-0.8-1-1.3c0,0,0,0,0,0c0-2.1-1.4-3.1-3-4c0,0,0,0,0,0c0.1-2.4,0.3-4.2,3.7-3.4
		c2.9,0.6,5.9,0.3,8.9,0.3c9.2,0,14.1-4.4,15.4-14c0.4-0.7,0.7-1.3,1.1-2c2,0,3.9,0,5.9,0C293,150.3,293,150.6,293.1,150.9z"/>
	<path id="XMLID_472_" class="st3" d="M322,289.2c0.4-4.1-0.6-5.3-5.3-4.5c-5.8,1-11.9,1-17.8-0.5l0-0.1c-0.3-0.3-0.7-0.7-1-1
		l-0.1,0c0.4-3.7-2.7-6-3.8-9.2c-0.5-1.4-1.2-2.6-1.1-4.1c3,1.9,4.5,4.8,5.8,7.9c1.3,3.2,3.3,4.6,6.9,4.4c4.6-0.3,9.3,0,14-0.1
		c2.2,0,4.1,0.4,5,2.5C325.7,286.9,323.6,288,322,289.2z"/>
	<path id="XMLID_471_" class="st3" d="M286,152.1c-1.4,9.6-6.2,14-15.4,14c-3,0-6,0.3-8.9-0.3c-3.4-0.7-3.7,1-3.7,3.4
		c-2.3-0.2-3.3-1.6-2.9-3.7c0.4-2.1,2.1-2.3,3.9-2.3c4.5,0,9-0.3,13.5,0.1c5,0.4,7.8-1.7,9.6-6.1C282.9,155,283.8,153,286,152.1z"/>
	<path id="XMLID_470_" class="st3" d="M299,324.9c5.9,0,11.9-0.2,17.8,0.2c4.1,0.3,5.9-1,5.3-5.2c1.5,1.3,3.7,2.3,2.6,4.7
		c-1,2.3-3.2,2.5-5.5,2.5c-3.8-0.1-7.6,0.3-11.4-0.1c-5-0.6-8.1,1-9.8,6c-0.9,2.7-2.1,5.6-5,7.2c-0.1-3.1,1.7-5.7,2.9-8.3
		c0.7-1.6,1.3-3,1-4.7c0,0,0.1,0,0.1,0c0.3-0.3,0.6-0.7,1-1c0,0,0,0,0,0C298.3,325.7,298.6,325.3,299,324.9
		C299,325,299,324.9,299,324.9z"/>
	<path id="XMLID_469_" class="st3" d="M265,180.1c1,0,2-0.1,3.1-0.1c0,0,0,0.1,0,0.1c0.3,3,0.7,6.1,1,9.1l0,0
		c-3.8,0.5-3.8,3.5-4,6.3c-0.2,0.2-0.4,0.4-0.7,0.7c-2.6-0.5-2.8,3.6-5.5,2.9c1.3-2.4,2.3-5.2,4.1-7.2
		C266.4,188.2,267.7,184.6,265,180.1z"/>
	<path id="XMLID_468_" class="st4" d="M300,166.1c6-0.6,12.2,0.7,18.2-0.9c3.5-0.9,2.3,2.9,3.9,4c-0.3,0.6-0.7,1.2-1,1.8
		c-1,0-2.1-0.1-3.1-0.1c0.7-2.8-0.4-3.5-3.2-3.7C309.8,166.8,304.7,169.1,300,166.1z"/>
	<path id="XMLID_467_" class="st3" d="M321.3,319.1c-3.7-2.8-6.9-6-7.3-11C318,310.7,319.8,314.8,321.3,319.1z"/>
	<path id="XMLID_466_" class="st3" d="M292.9,150.1c-2,0-3.9,0-5.9,0c-0.1-2.4,0.7-4.6,3.2-4.5C292.4,145.7,293.1,147.9,292.9,150.1
		z"/>
	<path id="XMLID_465_" class="st3" d="M287,340c2,0,4,0,6.1,0c-0.4,1.9-0.8,4.4-3,4.4C287.7,344.5,287.5,341.9,287,340z"/>
	<path id="XMLID_464_" class="st3" d="M315,300c-0.1-4.7,2.8-7.5,6.3-10C320,293.9,318.4,297.5,315,300z"/>
	<path id="XMLID_463_" class="st3" d="M314,308.1c-2.3-0.1-3.1-1.5-3-3.5c0.1-2.6,1.3-4.2,4-4.5C313.3,302.5,312.7,305.2,314,308.1z
		"/>
	<path id="XMLID_462_" class="st3" d="M262,174.9c2.3,1,3.7,2.5,3.1,5.2C262.8,179,261.7,177.3,262,174.9z"/>
	<path id="XMLID_461_" class="st3" d="M258,169.1c1.6,0.9,3,1.9,3,4C258.4,173,258,171.1,258,169.1z"/>
	<path id="XMLID_460_" class="st3" d="M261,173.1c0.3,0.4,0.7,0.8,1,1.3C261.7,173.9,261.3,173.5,261,173.1z"/>
	<path id="XMLID_459_" class="st2" d="M184.6,191.2c1.3,4.5,4,7,9.1,6.6c3.7-0.3,6.5,2.9,10.3,3.1c1.4,0,1.3,2.1,1.3,3.4
		c0,5.8,0,11.7,0,17.5c0,3.7-2,6.2-5.7,6.2c-2.9,0-4.7,2.2-7.4,2.7c-13.6,2.4-32.1-10.8-34.4-22.7c3.7,4.1,5.9,9.4,10.5,12.8
		c8.3,6,16.5,11.2,27.6,6.6c7.9-3.3,8.1-2.8,8.1-11.1c0-1.5,0-3,0-4.5c0-9.6-2.6-12.3-12.5-12.8
		C185.6,198.8,183.6,196.6,184.6,191.2z"/>
	<path id="XMLID_458_" class="st2" d="M152.6,170.1c1.5-9.8,5.6-18.7,10.3-27.2c4.7-8.6,21.8-12.6,31.2-9.1
		c10.4,3.9,15.5,11.4,18.3,21.3c-3.2-2.2-3.9-5.9-5.5-9.1c-1.9-3.7-4.2-6.8-8.6-8.2c-3.2-1-6-3.9-9.2-4.6c-9.3-2-22.1,5.2-26.2,14
		c-2.8,6-7.3,11.3-7,18.6C155.8,167.5,154.4,169.2,152.6,170.1z"/>
	<path id="XMLID_457_" class="st2" d="M157.4,204.9c-2-1.9-3.3-4.3-2.7-7c0.7-3.1-2.4-5-2.1-7.8c2.6,1.7,4.1,4.2,3.3,7.1
		C155.1,200.2,159.1,201.9,157.4,204.9z"/>
	<path id="XMLID_456_" class="st5" d="M188.7,119c8.6-1.5,16.7,2.5,24.5,6.8c3.4,1.9,4.4-0.4,6.2-1.9c1.1-0.9,2.2-2.7,3.7-1.6
		c1.7,1.3-0.1,2.7-0.8,3.9c-3.7,6.8-6.5,7.2-13,3.1c-10.6-6.5-21.8-8.4-34.3-5.7c-10.7,2.4-18.1,8.6-25.2,16
		c-7.2,7.6-11.1,16.9-13.8,26.8c-1.5,5.6-3.6,11-3.3,17c0.1,1.8-0.8,4.4-3.3,4.2c-2.4-0.2-1.3-2.6-1.5-4.1c-0.2-1,0.1-2-0.1-3
		c-2-8,1.1-15.1,3.1-22.7c1.7-6.6,6.2-11.3,8.4-17.3c0.4-1,1.4-1.8,2.2-2.6c5.9-5.8,12.7-9.9,20.1-13.6
		C170.1,120.1,178.8,118.8,188.7,119z"/>
	<path id="XMLID_455_" class="st5" d="M231.3,189c-4.8,2.1-9,3.9-13.2,5.7c-1.6,0.7-3.3,0.8-4.8,0c-6.5-3.3-13.4-4.7-20.6-4.7
		c-0.4,0-0.8-0.4-1.2-0.7C196.3,186.5,224.6,186.1,231.3,189z"/>
	<path id="XMLID_454_" class="st4" d="M210.5,225.1c0.2-6.4,0.3-12.8,0.5-19.3c0.1-1.5,0.9-2.6,2.5-2.5c1.3,0,2.2,0.9,2.3,2.2
		c0.4,5.9,1.2,11.9,0.9,17.8c-0.2,3.4-1.5,7.3-6.3,7.8c0.9-1.4,2.1-2.6,2.6-4.1C213.8,224.7,212.7,224,210.5,225.1z"/>
	<path id="XMLID_453_" class="st5" d="M210.5,225.1c2.2-1.1,3.3-0.4,2.5,1.9c-0.5,1.5-1.7,2.7-2.6,4.1c-6.8,7-15.4,8.3-24.6,7.6
		c-2.1-0.2-4.2-0.7-6.3-1.5c4.2-1.9,8.6-2.2,13-1.9C199.9,235.8,208.3,231.1,210.5,225.1z"/>
	<path id="XMLID_452_" class="st2" d="M70.1,282c2.2-2.3,3.2-5.2,4.4-8.1c0.5-1.2,0.8-2.7,2.5-2.6c1.4,0.1,1.5,1.5,2,2.5
		c1.6,2.9,2.3,6.2,4.8,8.5c2,3.6,4.9,5.1,9.1,4.5c2.4-0.4,5-0.2,7.5-0.1c1.5,0.1,3.7-0.9,4.5,1.1c0.7,1.6-0.9,3.1-1.7,4.5
		c-1.1,1.9-2.4,3.6-3.6,5.4c-4.7,7-4.6,6.9,0.2,14.3c1.9,3,6.4,6.2,4.8,9.2c-1.5,2.9-6.8,1.3-10.2,0.9c-9-1-11.5,5.7-14.7,11.6
		c-0.8,1.5-0.5,4.3-2.9,4c-2-0.2-2.1-2.7-2.8-4.3c-1-2.2-1.8-4.6-3.7-6.3c0,0,0,0,0,0c0-0.6-0.3-1-0.9-1c0,0,0,0,0,0
		c0-0.6-0.3-1-1-1c0,0,0-0.1,0-0.1c-1.2-2.5-3.5-2.8-5.9-2.8c-3.5,0-7-0.1-10.5,0.1c-3.4,0.1-4.4-0.8-2.2-3.9
		c2.3-3.2,4.3-6.7,6.8-9.8c2.5-3,2.2-5.5-0.1-8.4c-2.3-2.8-4.3-5.9-6.3-8.9c-0.8-1.2-2.5-2.3-1.4-3.9c0.8-1.2,2.4-0.7,3.7-0.7
		c3.3,0,6.7,0,10,0.1c1.8,0,3.7,0.3,4.8-1.6c0,0,0-0.1,0-0.1c0.7,0,1-0.3,1-1l0,0c0.7,0,1-0.3,1-1c0,0,0,0,0,0
		C69.7,283.1,70.1,282.8,70.1,282L70.1,282z"/>
	<path id="XMLID_451_" class="st2" d="M73.1,157.2c2.1-1,0.7-7.4,5.9-3.9c-0.1,0.3-0.1,0.4,0.2,0.5c-0.2,0.9,0,1.7,0.9,2.1
		c0,0,0.1,0.1,0.1,0.1c0.8,2.6,1.6,5.2,3.9,7c0,0,0,0,0,0c-0.1,0.7,0.3,1,1,1c0,0,0,0,0,0c0,0.7,0.3,1,1,1c0,0,0,0,0,0
		c0,0.7,0.3,1,1,1c0,0,0,0,0,0c1,2,2.8,1.3,4.4,1.3c3.6,0.1,7.3,0,10.9-0.1c2.1-0.1,3.1,0.7,2.9,2.8c0,0-0.1,0.2-0.1,0.2
		c-1.3,0.9-1.7,2.3-2.1,3.7c0,0,0,0,0,0c-0.7,0-1,0.4-0.9,1c0,0,0,0,0,0c-1.7,2.3-3.3,4.6-5,6.9c0,0,0,0,0,0c-2.7,3-1.6,5.5,1.1,7.8
		c0,0,0.1,0.2,0.1,0.2c-0.1,0.6,0.2,0.9,0.8,0.9c0,0,0.1,0.1,0.1,0.1c0.3,1.2,0.8,2.3,1.9,2.9c0,0,0,0.1,0,0.1
		c0.1,1.3,0.9,2.1,2,2.7l0,0.3c0,0,0.2,0.1,0.2,0.1c0.2,0.4,0.5,0.8,0.7,1.1c-0.1,0.3,0,0.5,0.3,0.6c-0.1,0.6,0,1.1,0.7,1.2l0,0
		c0.4,2.4-0.7,3.1-3,3c-3.8-0.2-7.5-0.1-11.3-0.1c-1.8,0-3.7-0.2-4.5,2c0,0-0.2,0.2-0.2,0.2c-0.5,0-0.8,0.2-0.8,0.8
		c0,0-0.2,0.2-0.2,0.2c-0.6-0.1-0.9,0.2-0.8,0.8c0,0-0.2,0.3-0.2,0.3c-0.8,0.3-1.2,0.8-1.1,1.7c0,0,0,0,0,0
		c-1.4,0.7-1.8,1.9-1.8,3.3l-0.3,0.2c0,0,0.1,0.3,0.1,0.3c-0.5,0.6-1,1.2-1.5,1.9c-0.9,1.2-0.5,3.6-2.8,3.5
		c-2.1-0.1-2.1-2.2-2.7-3.6c-1.1-2.3-1.8-4.9-3.9-6.6c0,0,0,0,0,0c0-0.7-0.3-1.1-1-1c0,0,0,0,0,0c-0.5-1.9-2.1-3.3-3.8-3.6
		c-3.2-0.5-6.6-0.3-9.9-0.3c-7.9,0-7.9,0-4.4-7c0,0,0,0,0,0c0.7,0,1-0.3,1-1c0,0,0,0,0,0c1.7-1.2,2.1-3.3,3-5c0,0,0,0,0,0
		c4-2.7,4.1-5.9,1-9.4c-1.1-1.2-2-2.5-3-3.8c0.1-0.3,0.1-0.5-0.2-0.7c-0.2-1.8-2.1-2.5-2.7-4c-0.5-1.3-2.4-2.4-1.6-3.9
		c0.8-1.6,2.6-1.1,4.1-1.1c2.2,0,4.3,0.2,6.5,0c2.6-0.3,5.6,1.5,7.9-1.3c0,0,0.2-0.1,0.2-0.1c0.6,0.1,0.9-0.2,0.8-0.8
		c0,0,0.2-0.2,0.2-0.2c0.6,0.1,0.9-0.2,0.8-0.8c0,0,0.2-0.2,0.2-0.2c0.6,0,0.9-0.2,0.8-0.8c0,0,0.2-0.2,0.2-0.2
		c0.9-0.3,1.1-0.9,1-1.7c0,0,0-0.1,0-0.1c0.8-0.4,1.1-1,1-1.9c0,0,0-0.1,0-0.1c0.7-0.1,0.9-0.5,0.7-1.2
		C73.1,157.7,73.2,157.5,73.1,157.2z"/>
	<path id="XMLID_450_" class="st4" d="M86.3,205.1c0.8-2.2,2.7-2,4.5-2c3.8,0,7.5-0.1,11.3,0.1c2.3,0.1,3.4-0.6,3-3
		c2.1,0,3.1,1.1,2.9,3.1c-0.2,2.2-2,1.8-3.4,1.8C98.4,205.1,92.3,205.1,86.3,205.1z"/>
	<path id="XMLID_449_" class="st4" d="M70.1,208c2.1,1.7,2.8,4.3,3.9,6.6c0.7,1.4,0.6,3.5,2.7,3.6c2.3,0.1,1.9-2.3,2.8-3.5
		c0.5-0.6,1-1.2,1.5-1.9c-0.3,2.4-0.7,4.8-1,7.2c-2,0.8-4,0.7-6,0C73.6,215.7,70.1,212.4,70.1,208z"/>
	<path id="XMLID_448_" class="st4" d="M105.2,170.1c0.2-2.1-0.8-2.9-2.9-2.8c-3.6,0.2-7.3,0.2-10.9,0.1c-1.5,0-3.4,0.7-4.4-1.3
		c6.1-0.6,12.3,0.8,18.3-0.9c1.3-0.4,3-0.1,3.2,1.4C108.8,168.8,107.2,169.8,105.2,170.1z"/>
	<path id="XMLID_447_" class="st4" d="M97,182c1.7-2.3,3.3-4.6,5-6.9C101.8,178.4,100.8,181.2,97,182z"/>
	<path id="XMLID_446_" class="st4" d="M98.1,189.9c-2.7-2.3-3.8-4.8-1.1-7.8C97.3,184.7,97.7,187.3,98.1,189.9z"/>
	<path id="XMLID_445_" class="st4" d="M84,163.1c-2.3-1.8-3.1-4.4-3.9-7C83.2,157.4,83.8,160.1,84,163.1z"/>
	<path id="XMLID_444_" class="st4" d="M103,174c0.4-1.4,0.8-2.8,2.1-3.7C105,171.9,105.6,173.8,103,174z"/>
	<path id="XMLID_443_" class="st4" d="M81.2,212.3c0-1.4,0.4-2.6,1.8-3.3C83.3,210.6,83,211.9,81.2,212.3z"/>
	<path id="XMLID_442_" class="st4" d="M103.1,196.8c-1.1-0.5-1.9-1.4-2-2.7C102.9,194.1,103.2,195.3,103.1,196.8z"/>
	<path id="XMLID_441_" class="st4" d="M101,194c-1.2-0.6-1.7-1.7-1.9-2.9C101.2,191.1,101.2,192.5,101,194z"/>
	<path id="XMLID_440_" class="st4" d="M83,209c-0.1-0.9,0.3-1.4,1.1-1.7C84.2,208.2,83.9,208.8,83,209z"/>
	<path id="XMLID_439_" class="st4" d="M80,156c-1-0.4-1.1-1.2-0.9-2.1C79.9,154.4,80.3,155,80,156z"/>
	<path id="XMLID_438_" class="st4" d="M99,191c-0.6,0-0.9-0.3-0.8-0.9C98.8,190.1,99.1,190.4,99,191z"/>
	<path id="XMLID_437_" class="st4" d="M104,198.2c-0.2-0.4-0.5-0.8-0.7-1.1C103.5,197.5,103.8,197.9,104,198.2z"/>
	<path id="XMLID_436_" class="st4" d="M105,200.1c-0.7-0.1-0.8-0.6-0.7-1.2C104.5,199.3,104.7,199.7,105,200.1z"/>
	<path id="XMLID_435_" class="st4" d="M87,166.1c-0.7,0-1-0.4-1-1C86.3,165.4,86.6,165.8,87,166.1z"/>
	<path id="XMLID_434_" class="st4" d="M85.3,206.1c-0.1-0.6,0.2-0.8,0.8-0.8C85.8,205.6,85.5,205.8,85.3,206.1z"/>
	<path id="XMLID_433_" class="st4" d="M84.3,207.1c-0.1-0.6,0.2-0.9,0.8-0.8C84.8,206.5,84.5,206.8,84.3,207.1z"/>
	<path id="XMLID_432_" class="st4" d="M86,165.1c-0.7,0-1-0.3-1-1C85.3,164.4,85.6,164.8,86,165.1z"/>
	<path id="XMLID_431_" class="st4" d="M85,164.1c-0.7,0-1-0.3-1-1C84.3,163.4,84.7,163.8,85,164.1z"/>
	<path id="XMLID_430_" class="st4" d="M102,175c0-0.7,0.3-1,0.9-1C102.7,174.4,102.3,174.7,102,175z"/>
	<path id="XMLID_429_" class="st2" d="M87.1,47.1c4.6,2.5,9.6,0.5,14.4,1c2,0.2,4.1-0.1,3.6,3c0,0,0,0.1,0,0.1
		c-0.6,0.1-0.8,0.5-0.7,1.1c-0.3,0.2-0.4,0.4-0.3,0.8c-1,0.8-1.8,1.7-2.1,3c0,0,0,0,0,0c-0.7,0-0.9,0.4-0.9,1l-0.1,0.1
		c-0.9,0.3-1.1,1-1,1.9c0,0,0,0,0,0c-0.6,0-0.8,0.4-0.8,1c0,0-0.2,0.3-0.2,0.3c-0.5,0-0.7,0.2-0.7,0.7l-0.3,0c0,0,0,0.3,0,0.3
		c-2.8,2.3-3.8,4.9-1.1,7.9c-0.1,0.3,0,0.5,0.4,0.6c-0.1,0.5,0.1,0.8,0.6,0.7c0,0.3,0.1,0.4,0.4,0.4c-0.1,0.5,0.1,0.7,0.6,0.6l0,0.3
		c0,0,0.3,0.1,0.3,0.1c-0.1,0.6,0.1,0.9,0.7,1c0,0,0,0.1,0,0.1c-0.1,0.9,0.2,1.5,1,1.8c0,0,0.1,0.2,0.1,0.2c-0.1,0.6,0.2,1,0.8,1
		c0,0,0,0,0,0c0.3,1.3,1.1,2.2,2.1,3c-0.1,0.3,0,0.6,0.3,0.8c-0.1,0.6,0,1,0.7,1c0,0,0.1,0.1,0.1,0.1c0.4,3.1-1.7,2.7-3.7,2.9
		c-4.8,0.6-9.7-1.6-14.3,1c0,0-0.1,0-0.1,0c-0.7,0-1,0.3-0.9,1c0,0,0,0.1,0,0.1c-0.6,0-0.9,0.3-0.9,1c0,0-0.1,0.1-0.1,0.1
		c-0.6,0-1,0.3-0.9,1c0,0-0.1,0.1-0.1,0.1c-1.1,0.7-1.9,1.5-1.9,2.9c0,0-0.1,0.2-0.1,0.2c-1.2,1-1.7,2.4-1.9,3.8
		c0,0-0.1,0.2-0.1,0.2c-1.7,0.8-0.8,4-3.2,3.8c-2.3-0.2-2.3-2.5-2.9-4.1c-4-9.5-6.3-11-16.7-11c-0.3,0-0.7,0-1,0
		c-2.5-0.4-6.1,1.4-7.4-1.1c-1.2-2.4,2.1-4.4,3.5-6.5c1.1-1.6,1.8-3.5,2.8-5.2c0,0,0-0.1,0-0.1c4.4-4.5,4.4-5.6,0-10c0,0,0,0,0,0
		c-1.1-1.6-1.3-3.7-3-5c0,0,0,0,0,0c0-0.6-0.3-1-1-1c0,0,0,0,0,0c0-0.6-0.2-1.1-0.9-1c0,0,0-0.1,0-0.1c-2.7-5.8-2.7-5.8,3.9-5.8
		c1.2,0,2.4-0.2,3.5,0c9.1,1.8,13.3-3.6,16.3-11c0.6-1.6,0.6-3.9,2.9-4.2c2.6-0.3,1.6,3,3.3,3.7c0,0,0.1,0.3,0.1,0.3
		c0.7,2.6,1.6,5.1,3.9,6.9c0,0,0.1,0.1,0.1,0.1C84.1,44.7,84.4,45,85,45c0,0,0.1,0.1,0.1,0.1c0,0.6,0.3,0.9,0.9,0.9
		c0,0,0.1,0.1,0.1,0.1C86.1,46.7,86.3,47,87.1,47.1L87.1,47.1z"/>
	<path id="XMLID_428_" class="st4" d="M87.1,85c4.6-2.6,9.6-0.5,14.3-1c2-0.2,4.2,0.2,3.7-2.9c2,0.1,3.2,1.1,2.7,3.1
		c-0.4,1.8-2.1,2.1-3.6,1.7C98.5,84.3,92.8,85.6,87.1,85z"/>
	<path id="XMLID_427_" class="st4" d="M97,69.3c-2.7-3-1.7-5.6,1.1-7.9C97.7,64,97.4,66.6,97,69.3z"/>
	<path id="XMLID_426_" class="st4" d="M80.1,95.1c0.3-1.5,0.7-2.8,1.9-3.8C82,92.8,82.7,94.8,80.1,95.1z"/>
	<path id="XMLID_425_" class="st4" d="M82.1,91.1c0-1.4,0.8-2.3,1.9-2.9C84.2,89.6,84.1,91,82.1,91.1z"/>
	<path id="XMLID_424_" class="st4" d="M104,79.1c-1-0.8-1.8-1.7-2.1-3C104.1,76.1,104.2,77.5,104,79.1z"/>
	<path id="XMLID_423_" class="st4" d="M102,56c0.2-1.3,1.1-2.2,2.1-3C104.2,54.6,104.1,56,102,56z"/>
	<path id="XMLID_422_" class="st4" d="M100,59c-0.1-0.9,0.2-1.5,1-1.9C101.2,58,101,58.7,100,59z"/>
	<path id="XMLID_421_" class="st4" d="M101.1,74.9c-0.8-0.3-1.1-0.9-1-1.8C101,73.4,101.2,74,101.1,74.9z"/>
	<path id="XMLID_420_" class="st4" d="M84.1,88c-0.1-0.7,0.3-1,0.9-1C85,87.7,84.7,88,84.1,88z"/>
	<path id="XMLID_419_" class="st4" d="M85.1,87c0-0.6,0.3-0.9,0.9-1C86,86.7,85.7,87,85.1,87z"/>
	<path id="XMLID_418_" class="st4" d="M98,70.6c-0.6,0.1-0.7-0.2-0.6-0.7C97.6,70.2,97.8,70.4,98,70.6z"/>
	<path id="XMLID_417_" class="st4" d="M102,76.1c-0.7,0-0.9-0.4-0.8-1C101.7,75.2,102,75.5,102,76.1z"/>
	<path id="XMLID_416_" class="st4" d="M105,81c-0.6-0.1-0.8-0.5-0.7-1C104.6,80.3,104.8,80.6,105,81z"/>
	<path id="XMLID_415_" class="st4" d="M86,86c0-0.6,0.3-1,0.9-1C87,85.7,86.7,86,86,86z"/>
	<path id="XMLID_414_" class="st4" d="M100,73c-0.6,0-0.8-0.4-0.7-1C99.9,72.1,100.1,72.5,100,73z"/>
	<path id="XMLID_413_" class="st4" d="M98.4,61.1c-0.1-0.5,0.1-0.7,0.7-0.7C98.8,60.6,98.6,60.8,98.4,61.1z"/>
	<path id="XMLID_412_" class="st4" d="M99.2,60.1c-0.1-0.6,0.1-1,0.8-1C100.1,59.6,99.8,60,99.2,60.1z"/>
	<path id="XMLID_411_" class="st4" d="M101.1,57c-0.1-0.6,0.2-1,0.9-1C101.7,56.3,101.4,56.7,101.1,57z"/>
	<path id="XMLID_410_" class="st4" d="M99,71.7c-0.5,0.1-0.7-0.1-0.6-0.6C98.7,71.3,98.9,71.5,99,71.7z"/>
	<path id="XMLID_409_" class="st4" d="M104.3,52.2c-0.1-0.6,0-1,0.7-1.1C104.8,51.5,104.6,51.9,104.3,52.2z"/>
	<path id="XMLID_408_" class="st4" d="M51.1,196.1c-3.5,7-3.5,7,4.4,7c3.3,0,6.6-0.2,9.9,0.3c1.7,0.2,3.2,1.6,3.8,3.6
		c-6.3-3.2-13.1-1.7-19.8-1.8c-3-0.1-4.8-0.7-4.3-4.1C47.8,200.4,47.6,196,51.1,196.1z"/>
	<path id="XMLID_407_" class="st4" d="M66.9,166c-2.2,2.7-5.2,0.9-7.9,1.3c-2.1,0.3-4.3,0-6.5,0c-1.5,0-3.3-0.5-4.1,1.1
		c-0.7,1.6,1.1,2.6,1.6,3.9c0.6,1.5,2.6,2.2,2.7,4c-4.8-0.7-5.6-5.2-7.5-8.5c-0.8-1.4,0.7-2.7,2.7-2.3
		C54.2,166.6,60.6,165.7,66.9,166z"/>
	<path id="XMLID_406_" class="st4" d="M53,177c1,1.3,2,2.6,3,3.8c3.1,3.5,3.1,6.6-1,9.4C58.3,185.1,53.1,181.4,53,177z"/>
	<path id="XMLID_405_" class="st4" d="M55.1,190.1c-0.9,1.7-1.3,3.8-3,5C52.1,192.8,51.6,190.3,55.1,190.1z"/>
	<path id="XMLID_404_" class="st4" d="M71,161.1c0.1,0.8-0.1,1.5-1,1.7C69.9,162,70.1,161.3,71,161.1z"/>
	<path id="XMLID_403_" class="st4" d="M72,159.1c0.1,0.9-0.2,1.5-1,1.9C70.9,160.1,71.1,159.4,72,159.1z"/>
	<path id="XMLID_402_" class="st4" d="M72.8,157.9c0.1,0.6,0,1.1-0.7,1.2C72.3,158.7,72.5,158.3,72.8,157.9z"/>
	<path id="XMLID_401_" class="st4" d="M52.1,195.1c0,0.7-0.3,1-1,1C51.4,195.8,51.8,195.5,52.1,195.1z"/>
	<path id="XMLID_400_" class="st4" d="M67.9,165.1c0.1,0.6-0.2,0.9-0.8,0.8C67.3,165.6,67.6,165.3,67.9,165.1z"/>
	<path id="XMLID_399_" class="st4" d="M68.9,164.1c0.1,0.6-0.2,0.9-0.8,0.8C68.3,164.6,68.6,164.3,68.9,164.1z"/>
	<path id="XMLID_398_" class="st4" d="M69.8,163c0.1,0.6-0.2,0.9-0.8,0.8C69.3,163.6,69.5,163.3,69.8,163z"/>
	<path id="XMLID_397_" class="st4" d="M69.1,207c0.7,0,1,0.3,1,1C69.8,207.7,69.4,207.3,69.1,207z"/>
	<path id="XMLID_396_" class="st4" d="M70,282.1c0.1,0.7-0.3,1-0.9,1C69.1,282.5,69.4,282.1,70,282.1z"/>
	<path id="XMLID_395_" class="st4" d="M69,283.1c0,0.7-0.3,1-1,1C68.1,283.5,68.4,283.1,69,283.1z"/>
	<path id="XMLID_394_" class="st4" d="M68,284.1c0,0.7-0.3,1-1,1C67.1,284.5,67.4,284.1,68,284.1z"/>
	<path id="XMLID_393_" class="st4" d="M84,43.9c-2.2-1.8-3.1-4.3-3.9-6.9C83.1,38.4,83.7,41.1,84,43.9z"/>
	<path id="XMLID_392_" class="st4" d="M87,47c-0.7,0-0.9-0.3-0.9-0.9C86.7,46.1,87,46.4,87,47z"/>
	<path id="XMLID_391_" class="st4" d="M86,46c-0.6,0-0.9-0.3-0.9-0.9C85.7,45.1,86,45.4,86,46z"/>
	<path id="XMLID_390_" class="st4" d="M85,45c-0.6,0-1-0.3-0.9-0.9C84.7,44.1,85,44.4,85,45z"/>
	<path id="XMLID_389_" class="st4" d="M68.1,325c0.7,0,1,0.3,1,1C68.4,326,68.1,325.6,68.1,325z"/>
	<path id="XMLID_388_" class="st4" d="M69.1,326c0.7,0,1,0.3,0.9,1C69.7,326.7,69.4,326.4,69.1,326z"/>
	<path id="XMLID_387_" class="st4" d="M55.1,61c4.4,4.4,4.4,5.5,0,10C56,67.7,56,64.4,55.1,61z"/>
	<path id="XMLID_386_" class="st4" d="M52.1,56.1c1.7,1.2,1.9,3.4,3,5C51.6,60.8,52.1,58.3,52.1,56.1z"/>
	<path id="XMLID_385_" class="st4" d="M51.1,55.1c0.7,0,1,0.3,1,1C51.4,56,51.1,55.7,51.1,55.1z"/>
	<path id="XMLID_384_" class="st4" d="M50.1,54c0.7,0,0.9,0.4,0.9,1C50.4,55,50.1,54.6,50.1,54z"/>
	<path id="XMLID_383_" class="st2" d="M308.1,83.9c-8.7-2.4-11.9,4.4-15.2,11.2c-0.7,1.4-0.6,3.7-2.7,3.8c-2.4,0.1-2.3-2.4-3.1-3.9
		c-0.9-1.6-1.6-3.3-2.5-4.9c-2.4-4.4-5.6-7.3-11.2-6.3c-2.3,0.4-4.7,0.2-7,0c-1.5-0.1-3.6,1-4.4-1.1c-0.7-1.8,0.8-3.1,1.7-4.5
		c8.4-12.3,8.3-12.3,0-24.6c-1-1.4-2.8-3-1.5-4.9c1-1.5,3.1-0.5,4.7-0.7c1.2-0.1,2.4-0.2,3.5,0c9.1,1.9,13.4-3.3,16.5-10.7
		c0.7-1.7,0.7-4.5,3.3-4.3c2.2,0.1,1.9,2.8,2.9,4.2c0.7,0.9,1,2.1,1.5,3.1c2.7,5.2,6.2,9,12.9,7.7c1.9-0.4,4-0.2,6,0
		c1.5,0.1,3.6-1,4.4,1c0.7,1.7-0.6,3.4-1.7,4.5c-8.7,8.4-8.6,16.5,0,24.8c1.1,1,2.4,2.7,1.7,4.5c-0.9,2-2.9,0.8-4.5,1
		C312,84.1,310.5,83.9,308.1,83.9z"/>
	<path id="XMLID_382_" class="st2" d="M299,284.2c0.9,2.6,3.1,2.7,5.3,2.7c3.7,0,7.3,0,11-0.2c2.9-0.1,3.8,0.9,2.1,3.5
		c-2.2,3.3-4.3,6.7-6.7,9.8c-2.4,3.1-2.5,5.8,0,9c2.2,2.7,4.1,5.6,6,8.5c2.5,4,2.2,4.7-2.4,4.7c-3.3,0-6.6,0-10,0
		c-2.2,0-4.4,0.1-5.2,2.7c0,0,0,0.1,0,0.1c-0.7,0-1,0.3-1,1c0,0,0,0,0,0c-0.7,0-1,0.4-1,1c0,0-0.1,0-0.1,0c-2.8,2.2-3.3,5.6-4.9,8.5
		c-0.5,0.9-0.7,2.1-1.8,2.2c-1.4,0.2-1.8-1.2-2.3-2.2c-1.4-2.8-2.6-5.8-4.3-8.4c-2.2-3.3-5.1-5.6-9.6-5c-2.4,0.4-5,0.2-7.5,0
		c-1.5-0.1-3.6,1.1-4.4-1c-0.7-1.7,1.1-3,1.9-4.4c0.6-1,1.4-1.8,2.1-2.8c6.7-10.4,6.7-10.4-1.1-20.3c-0.6-0.8-1.2-1.6-1.8-2.4
		c-2-3-2.1-5,2.5-4.6c2,0.2,4.1-0.3,6,0.1c7.8,1.5,11.7-2.9,14.5-9.2c0.3-0.8,0.6-1.6,1-2.3c0.8-1.4,0.8-3.8,2.7-3.9
		c2.4-0.2,2.1,2.6,3.1,4c1.7,2.6,2.1,6,5,7.7c0,0,0.1,0,0.1,0C298,283.8,298.3,284.1,299,284.2L299,284.2z"/>
	<path id="XMLID_381_" class="st2" d="M300,166.1c4.7,3,9.8,0.7,14.7,1.1c2.8,0.2,3.9,0.9,3.2,3.7c0,0,0,0.1,0,0.1
		c-1.3,0.6-1.5,1.9-1.9,3c0,0-0.1,0.1-0.1,0.1c-0.6,0-1,0.3-0.9,1c0,0-0.1,0.1-0.1,0.1c-0.7,0.1-0.9,0.5-0.8,1.1l-0.3,0.2
		c0,0,0,0.3,0,0.3c-1.1,0.8-1.7,2-2,3.3c0,0,0,0,0,0c-0.7,0-1,0.4-0.9,1c0,0,0,0.1,0,0.1c-3.5,4.3-3.3,5.4,2,11c0,0,0,0.1,0,0.1
		c0.2,1.3,0.6,2.5,1.9,3c0,0,0,0,0,0c1,1.6,2.1,3.2,3.1,4.8c0,0,0.1,0.2,0.1,0.2c0.1,1.9-0.1,3.2-2.6,3.1c-3.3-0.2-6.7,0.2-10-0.1
		c-4.2-0.4-7,1.1-8.6,5c0,0,0,0,0,0c-1.4,0.5-1.9,1.6-1.9,3c0,0,0,0.1,0,0.1c-1.3,1-1.7,2.5-1.9,4c0,0-0.1,0.1-0.1,0.1
		c-1.4,0.7-1,3.5-3.4,3c-1.7-0.4-1.8-2.2-2.5-3.5c-0.8-1.5-1.4-3-2.1-4.5c-2.6-4.9-6-8.3-12.2-7.1c-1.3,0.2-2.6,0-4,0
		c-8,0-8,0-4.5-7c0.2-0.2,0.5-0.4,0.7-0.7c1.9-1.8,3-4,4-6.3c0,0,0,0,0,0c4.4-3.6,2.2-6.4-1-9.1c0,0,0-0.1,0-0.1
		c-0.9-3.1-3.2-5.4-4.9-8c-2-3-2.1-5,2.4-4.6c1.5,0.1,3-0.2,4.5,0.1c9.5,1.9,14.1-3.4,17.1-11.3c0.7-1.8,0.9-5.9,4.8-2.9
		c-0.1,0.3,0,0.5,0.2,0.7c0,1.5,0.6,2.6,1.8,3.5l-0.1,0.3c0,0,0.2,0.2,0.2,0.2c0,1.5,0.6,2.7,1.8,3.5c-0.1,0.3,0,0.5,0.3,0.6
		c-0.1,0.6,0,1,0.7,1c0,0,0.1,0.1,0.1,0.1c-0.1,0.7,0.3,0.9,0.9,0.9c0,0,0.1,0.1,0.1,0.1c0,0.6,0.3,0.9,0.9,0.9c0,0,0.1,0.1,0.1,0.1
		C299,165.7,299.3,166.1,300,166.1L300,166.1z"/>
	<path id="XMLID_380_" class="st4" d="M297,208c1.6-3.9,4.4-5.4,8.6-5c3.3,0.3,6.7-0.1,10,0.1c2.5,0.1,2.7-1.2,2.6-3.1
		c2.1,0.1,3,1.3,2.8,3.3c-0.2,2.2-2.1,1.7-3.5,1.8c-2.3,0-4.7,0.2-7-0.1C305.6,204.5,301.1,205.3,297,208z"/>
	<path id="XMLID_379_" class="st4" d="M313,192c-5.3-5.5-5.5-6.6-2-11C308.9,185.2,312.8,188.3,313,192z"/>
	<path id="XMLID_378_" class="st4" d="M318.1,199.9c-1-1.6-2.1-3.2-3.1-4.8C318.3,195.3,318.1,197.6,318.1,199.9z"/>
	<path id="XMLID_377_" class="st4" d="M293.1,215c0.2-1.5,0.6-3,1.9-4C295,212.7,295.7,214.7,293.1,215z"/>
	<path id="XMLID_376_" class="st4" d="M295,211c0-1.4,0.6-2.5,1.9-3C297.1,209.5,297.1,211,295,211z"/>
	<path id="XMLID_375_" class="st4" d="M315,195.1c-1.4-0.5-1.8-1.7-1.9-3C315.2,192.2,315.1,193.6,315,195.1z"/>
	<path id="XMLID_374_" class="st4" d="M312,180c0.3-1.3,0.9-2.5,2-3.3C314.1,178.3,314.4,179.9,312,180z"/>
	<path id="XMLID_373_" class="st4" d="M316.1,174c0.4-1.2,0.6-2.5,1.9-3C318.1,172.5,318.2,174,316.1,174z"/>
	<path id="XMLID_372_" class="st4" d="M314.2,176.3c-0.1-0.6,0.1-1,0.8-1.1C314.8,175.5,314.5,175.9,314.2,176.3z"/>
	<path id="XMLID_371_" class="st4" d="M315.1,175c0-0.6,0.3-1,0.9-1C316,174.7,315.7,175,315.1,175z"/>
	<path id="XMLID_370_" class="st4" d="M311,181c0-0.6,0.3-1,0.9-1C312,180.6,311.6,181,311,181z"/>
	<path id="XMLID_369_" class="st4" d="M294,157.3c-1.1-0.9-1.8-2-1.8-3.5C294.1,154.3,294.2,155.7,294,157.3z"/>
	<path id="XMLID_368_" class="st4" d="M296,161.3c-1.3-0.8-1.9-2-1.8-3.5C296,158.3,296.2,159.7,296,161.3z"/>
	<path id="XMLID_367_" class="st4" d="M297,162.9c-0.6-0.1-0.8-0.4-0.7-1C296.6,162.2,296.8,162.6,297,162.9z"/>
	<path id="XMLID_366_" class="st4" d="M300,166.1c-0.7,0-0.9-0.3-0.9-1C299.7,165.1,300,165.5,300,166.1z"/>
	<path id="XMLID_365_" class="st4" d="M299,165c-0.6,0-0.9-0.3-0.9-0.9C298.7,164.1,299,164.4,299,165z"/>
	<path id="XMLID_364_" class="st4" d="M298,164c-0.6,0-1-0.3-0.9-0.9C297.7,163.1,298,163.4,298,164z"/>
	<path id="XMLID_363_" class="st4" d="M299,284.1c-0.7,0-1-0.3-1-1C298.3,283.5,298.6,283.8,299,284.1z"/>
	<path id="XMLID_362_" class="st4" d="M297,327c0-0.7,0.2-1.1,1-1C297.7,326.3,297.3,326.7,297,327z"/>
	<path id="XMLID_361_" class="st4" d="M298,326c0-0.7,0.3-1,1-1C298.6,325.3,298.3,325.7,298,326z"/>
	<path id="XMLID_360_" class="st4" d="M268.1,180c3.2,2.7,5.4,5.5,1,9.1C268.8,186.1,268.4,183.1,268.1,180z"/>
	<path id="XMLID_359_" class="st4" d="M269.1,189.1c-1.1,2.3-2.2,4.5-4,6.3C265.3,192.6,265.3,189.7,269.1,189.1z"/>
</g>
</svg>
